<svg xmlns="http://www.w3.org/2000/svg" width="87.756" height="28.879" viewBox="0 0 87.756 28.879">
  <g id="Beetle_Wing_Fonebox_twitter_video" data-name="Beetle Wing Fonebox twitter video" transform="translate(0.382 0.5)">
    <g id="Black_Beetle" data-name="Black Beetle" transform="translate(38.976 0)">
      <path id="Path_7" data-name="Path 7" d="M22.448,54.921h1.038l.82,1.338h.662l.758-1.338h1.138a13.8,13.8,0,0,1,0,4.94A4.152,4.152,0,0,1,24.7,62.5h-.389a3.913,3.913,0,0,1-2.113-2.638A13.463,13.463,0,0,1,22.448,54.921Z" transform="translate(-19.915 -41.915)" fill="#637a69" stroke="#637a69" stroke-width="1.5"/>
      <path id="Path_10" data-name="Path 10" d="M37.222,57.5" transform="translate(-30.033 -43.192)" fill="none" stroke="#637a69" stroke-width="1"/>
      <path id="Path_25" data-name="Path 25" d="M0,5" transform="translate(0 14.524)" fill="none" stroke="#637a69" stroke-width="1.5"/>
      <path id="Path_23" data-name="Path 23" d="M7.781,20.249a4.5,4.5,0,0,0,2.558,1.085,4.833,4.833,0,0,0,2.684-1.058" transform="translate(-5.741 -4.364)" fill="none" stroke="#1c1b1b" stroke-linecap="round" stroke-width="1"/>
      <path id="Path_24" data-name="Path 24" d="M15.583,22.114l-.02,3.728" transform="translate(-10.996 -5.144)" fill="none" stroke="#1c1b1b" stroke-linecap="round" stroke-width="1"/>
      <path id="Path_26" data-name="Path 26" d="M9.723,10.969A6.192,6.192,0,0,1,10.5,8.414a1.843,1.843,0,0,1,2.559,0,5.353,5.353,0,0,1,.877,2.555H12.375l-.609,1.117L11.1,10.969Z" transform="translate(-7.053 0.794)" fill="#637a69" stroke="#637a69" stroke-linejoin="round" stroke-width="1.5"/>
      <g id="Right_Legs" data-name="Right Legs" transform="translate(5.88 14.324)">
        <path id="Path_111" data-name="Path 111" d="M-52.972,60.718c.036,0,1.216-.051,1.483.332s-.3,3.847-.5,4.389A29.525,29.525,0,0,1-53.35,68.7c-.2.2.872-2.857.81-3s-.948.818-.846.367,1.107-1.609,1.223-2.024a5.332,5.332,0,0,0,.127-2.2,5.2,5.2,0,0,0-1.2-.934Z" transform="translate(53.393 -55.391)" fill="#637a69" stroke="#637a69" stroke-width="1"/>
        <path id="Path_112" data-name="Path 112" d="M-49.558,51.787s.712-.415.81-.1a41.622,41.622,0,0,1-.142,4.453c-.056.148-.107-3.527-.16-3.942A.5.5,0,0,0-49.558,51.787Z" transform="translate(50.804 -51.571)" fill="#637a69" stroke="#637a69" stroke-width="1"/>
      </g>
      <g id="Left_Legs" data-name="Left Legs" transform="translate(0.975 14.135)">
        <path id="Path_111-2" data-name="Path 111" d="M-51.84,60.718c-.036,0-1.216-.051-1.483.332s.3,3.847.5,4.389A29.525,29.525,0,0,0-51.463,68.7c.2.2-.872-2.857-.81-3s.948.818.846.367-1.107-1.609-1.223-2.024a5.332,5.332,0,0,1-.127-2.2,5.2,5.2,0,0,1,1.2-.934Z" transform="translate(53.393 -55.391)" fill="#637a69" stroke="#637a69" stroke-width="1"/>
        <path id="Path_112-2" data-name="Path 112" d="M-48.72,51.787s-.712-.415-.81-.1a41.624,41.624,0,0,0,.142,4.453c.056.148.107-3.527.16-3.942A.5.5,0,0,1-48.72,51.787Z" transform="translate(49.773 -51.571)" fill="#637a69" stroke="#637a69" stroke-width="1"/>
      </g>
      <path id="Path_113" data-name="Path 113" d="M-53.356,36.759s1.486.386,1.7,0a14.218,14.218,0,0,0,.332-3.822c-.117-.561-.893-1.347-.887-1.488s.707.013.731-.405-.973-4.166-.89-4.07a10.78,10.78,0,0,1,1.5,3.984c.184,1.829.051,6.188-.382,6.744a1.479,1.479,0,0,1-1.6.286C-52.906,37.846-53.356,36.759-53.356,36.759Z" transform="translate(59.248 -26.972)" fill="#637a69" stroke="#637a69" stroke-width="1"/>
      <path id="Path_114" data-name="Path 114" d="M-50.783,36.759s-1.486.386-1.7,0a14.218,14.218,0,0,1-.332-3.822c.117-.561.893-1.347.887-1.488s-.707.013-.731-.405.973-4.166.89-4.07a10.78,10.78,0,0,0-1.5,3.984c-.184,1.829-.051,6.188.382,6.744a1.479,1.479,0,0,0,1.6.286C-51.233,37.846-50.783,36.759-50.783,36.759Z" transform="translate(53.797 -26.972)" fill="#637a69" stroke="#637a69" stroke-width="1"/>
    </g>
    <g id="Right_Bottom_Wing" data-name="Right Bottom Wing" transform="translate(47.293 7.337)">
      <path id="Path_93" data-name="Path 93" d="M-46.191,64.68a11.148,11.148,0,0,0-.147,2.144s1.064,1.4,1.208,1.354-.324-.383-.634-1.524S-46.058,64.766-46.191,64.68Z" transform="translate(46.338 -50.059)" fill="#4e6454" stroke="#4e6454" stroke-width="0.75"/>
      <path id="Path_94" data-name="Path 94" d="M-43.694,64.9s.758-.123,1,.076.215.723.487,1.575a11.4,11.4,0,0,1,.6,1.835,1.671,1.671,0,0,1-1.225-.879A10.52,10.52,0,0,1-43.694,64.9Z" transform="translate(44.553 -50.135)" fill="#4e6454" stroke="#4e6454" stroke-width="0.75"/>
      <path id="Path_95" data-name="Path 95" d="M-37.937,65.011s.748-.183.99.176.255,1.119.637,2.1.7,1.669.59,1.615-.555.02-1.185-1A11.6,11.6,0,0,1-37.937,65.011Z" transform="translate(40.665 -50.179)" fill="#4e6454" stroke="#4e6454" stroke-width="0.75"/>
      <path id="Path_96" data-name="Path 96" d="M-32.947,65.226a2.012,2.012,0,0,1,.934.184,17.588,17.588,0,0,1,.784,2.169,21.378,21.378,0,0,1,.854,2.015,5.539,5.539,0,0,1-1.606-1.728A9.4,9.4,0,0,1-32.947,65.226Z" transform="translate(37.296 -50.288)" fill="#4e6454" stroke="#4e6454" stroke-width="0.75"/>
      <path id="Path_97" data-name="Path 97" d="M-28.075,65.152s.769.009,1.022.3.226,1.1.663,2.157,1.156,2.1,1.086,2.075a2.756,2.756,0,0,1-1.58-1.342A14.091,14.091,0,0,1-28.075,65.152Z" transform="translate(34.006 -50.257)" fill="#4e6454" stroke="#4e6454" stroke-width="0.75"/>
      <path id="Path_98" data-name="Path 98" d="M-22.674,65.518a1.628,1.628,0,0,1,.98.179c.3.253.273,1.153.74,2.318s1.4,2.244,1.246,2.2a2.075,2.075,0,0,1-1.718-1.149A12.986,12.986,0,0,1-22.674,65.518Z" transform="translate(30.359 -50.406)" fill="#4e6454" stroke="#4e6454" stroke-width="0.75"/>
      <path id="Path_99" data-name="Path 99" d="M-17.176,65.989s.88-.082,1.154.227.236.971.7,2.172,1.268,2.568,1.166,2.522a5.367,5.367,0,0,1-1.869-1.833A10.377,10.377,0,0,1-17.176,65.989Z" transform="translate(26.646 -50.602)" fill="#4e6454" stroke="#4e6454" stroke-width="0.75"/>
      <path id="Path_100" data-name="Path 100" d="M-11.662,66.387s.762-.222,1.09.151.267,1.079.756,2.28,1.36,2.381,1.237,2.33a2.31,2.31,0,0,1-1.635-1.229A15.762,15.762,0,0,1-11.662,66.387Z" transform="translate(22.923 -50.745)" fill="#4e6454" stroke="#4e6454" stroke-width="0.75"/>
      <path id="Path_101" data-name="Path 101" d="M-6.524,65.961s.855-.113,1.149.172.29.946.925,2.27,1.515,2.736,1.414,2.754-.991.05-1.917-1.275A15.031,15.031,0,0,1-6.524,65.961Z" transform="translate(19.453 -50.585)" fill="#4e6454" stroke="#4e6454" stroke-width="0.75"/>
      <path id="Path_102" data-name="Path 102" d="M-.822,65.634s.944-.3,1.309,0,.663,1.6,1.442,2.953S3.7,71.119,3.522,71.06a3.686,3.686,0,0,1-2.484-1.373A12.835,12.835,0,0,1-.822,65.634Z" transform="translate(15.603 -50.402)" fill="#4e6454" stroke="#4e6454" stroke-width="0.75"/>
      <path id="Path_103" data-name="Path 103" d="M5.7,64.886s.73-.4,1.113-.208a15.276,15.276,0,0,1,2.11,2.793,37.155,37.155,0,0,1,2.216,3.017,3.345,3.345,0,0,1-3-1.189A14.391,14.391,0,0,1,5.7,64.886Z" transform="translate(11.198 -50.037)" fill="#4e6454" stroke="#4e6454" stroke-width="0.75"/>
      <path id="Path_104" data-name="Path 104" d="M12.2,63.82s.83-.827,1.223-.6,2.318,2.885,3.593,4.19,2.2,1.5,1.976,1.628-.994,1.3-2.687,0S12.2,63.82,12.2,63.82Z" transform="translate(6.812 -49.434)" fill="#4e6454" stroke="#4e6454" stroke-width="0.75"/>
      <path id="Path_105" data-name="Path 105" d="M17,61.573s.694-.809,1.192-.685,3.174,2.783,4.939,4.194,2.594,1.507,2.443,1.6-.954,1.546-3.081.276S17,61.573,17,61.573Z" transform="translate(3.571 -48.471)" fill="#4e6454" stroke="#4e6454" stroke-width="0.75"/>
      <path id="Path_106" data-name="Path 106" d="M21.508,59.016s.511-.821,1.043-.78a9.711,9.711,0,0,1,3.217,1.481,34.742,34.742,0,0,0,3.377,2.417,5.189,5.189,0,0,0,3.13.884c-.11.157-1.021,2.165-3.71,1.065-1.28-.523-2.56-1.827-4.172-3.115A20.484,20.484,0,0,0,21.508,59.016Z" transform="translate(0.525 -47.368)" fill="#4e6454" stroke="#4e6454" stroke-width="0.75"/>
      <path id="Path_107" data-name="Path 107" d="M25.157,55.74s.347-.809.856-.83a13.446,13.446,0,0,1,4.2.83c1.968.7,1.734,1.134,3.753,1.834s3.464.6,3.333.806a3.676,3.676,0,0,1-3.536,1.663c-2.245-.29-3.034-1.9-5.3-2.91S25.157,55.74,25.157,55.74Z" transform="translate(-1.939 -45.978)" fill="#4e6454" stroke="#4e6454" stroke-width="0.75"/>
      <path id="Path_108" data-name="Path 108" d="M27.9,52.105s.266-1.363.891-1.494a16,16,0,0,1,4.583.555c1.5.415,2.172,1.04,4.362,1.325a8.568,8.568,0,0,0,3.638-.572c-.1.217-.961,3.035-3.391,2.91s-3.2-1.467-6.029-2.209A10.668,10.668,0,0,0,27.9,52.105Z" transform="translate(-3.792 -44.169)" fill="#4e6454" stroke="#4e6454" stroke-width="0.75"/>
      <path id="Path_109" data-name="Path 109" d="M30.157,48.233s.462-1.143.959-1.268a22.016,22.016,0,0,1,5.116,0c2.584.236,2.737.539,4.861.647a5.427,5.427,0,0,0,2.964-.647,6.093,6.093,0,0,1-3.866,2.751c-2.31.317-2.958-1.028-5.467-1.4A17.889,17.889,0,0,0,30.157,48.233Z" transform="translate(-5.315 -42.603)" fill="#4e6454" stroke="#4e6454" stroke-width="0.75"/>
      <path id="Path_110" data-name="Path 110" d="M32.7,42.856s.205-1.06.639-1.365,1.59-.713,3.923-.664,2.742.549,5.23,0,4.325-1.43,4.235-1.224A5.567,5.567,0,0,1,44.2,43.151c-2,1.025-3.723-.1-6.179-.295A43.421,43.421,0,0,0,32.7,42.856Z" transform="translate(-7.036 -39.572)" fill="#4e6454" stroke="#4e6454" stroke-width="0.75"/>
    </g>
    <g id="Right_Middle_wings" data-name="Right Middle wings" transform="translate(47.306 9.209)">
      <path id="Path_81" data-name="Path 81" d="M-46.135,55.575A13.874,13.874,0,0,0-46.3,58.2a5.411,5.411,0,0,0,.6,1.438c.374.539.852.846.893.719s-.478-1.3-.812-2.484S-45.963,55.493-46.135,55.575Z" transform="translate(46.297 -48.126)" fill="none" stroke="#4e6454" stroke-width="1"/>
      <path id="Path_82" data-name="Path 82" d="M-44.266,55.434s.868-.2,1.076.218.228.983.568,2.147a22.927,22.927,0,0,1,.827,2.457c-.1.127-.759-.464-1.36-1.647A19.54,19.54,0,0,1-44.266,55.434Z" transform="translate(44.925 -48.049)" fill="none" stroke="#4e6454" stroke-width="1"/>
      <path id="Path_83" data-name="Path 83" d="M-38.875,55.629s.787-.128,1.005.082a9.227,9.227,0,0,1,.644,2.12c.354,1.2,1.438,2.918.929,2.575a4.386,4.386,0,0,1-1.622-1.926A13.245,13.245,0,0,1-38.875,55.629Z" transform="translate(41.285 -48.134)" fill="none" stroke="#4e6454" stroke-width="1"/>
      <path id="Path_84" data-name="Path 84" d="M-33.547,55.3s.854-.107,1.085.176a14.668,14.668,0,0,1,.627,2.33c.358,1.223,1.429,2.705,1,2.5a2.591,2.591,0,0,1-1.582-1.561A19.884,19.884,0,0,1-33.547,55.3Z" transform="translate(37.688 -48.004)" fill="none" stroke="#4e6454" stroke-width="1"/>
      <path id="Path_85" data-name="Path 85" d="M-28.375,55.432s.715-.163,1.042.272.665,1.883,1.181,3.075,1.067,1.865.913,1.93-.994-.327-1.777-1.646A16.906,16.906,0,0,1-28.375,55.432Z" transform="translate(34.195 -48.056)" fill="none" stroke="#4e6454" stroke-width="1"/>
      <path id="Path_86" data-name="Path 86" d="M-23.117,55.634s.72-.3,1,.059.83,2.134,1.537,3.477,1.484,1.916,1.29,1.9-.969.115-1.936-1.281A21.238,21.238,0,0,1-23.117,55.634Z" transform="translate(30.645 -48.105)" fill="none" stroke="#4e6454" stroke-width="1"/>
      <path id="Path_87" data-name="Path 87" d="M-18.2,55a1.3,1.3,0,0,1,1.168.2,21.524,21.524,0,0,1,1.616,2.7c.91,1.561,2.757,2.366,2.408,2.46a2.377,2.377,0,0,1-2.968-.982A30.672,30.672,0,0,1-18.2,55Z" transform="translate(27.327 -47.865)" fill="none" stroke="#4e6454" stroke-width="1"/>
      <path id="Path_88" data-name="Path 88" d="M-13.1,54.583s1.142-.181,1.382,0A8.327,8.327,0,0,1-9.2,57.167c1.092,1.719,2.775,2.2,2.463,2.474a3.128,3.128,0,0,1-3.709-1.365C-11.816,56.364-13.1,54.583-13.1,54.583Z" transform="translate(23.882 -47.68)" fill="none" stroke="#4e6454" stroke-width="1"/>
      <path id="Path_89" data-name="Path 89" d="M-6.891,53.372s.977-.855,1.689-.512a11.186,11.186,0,0,1,3.259,2.8C-.579,57.35.923,56.7.545,57.116s-2.051,1.695-3.766-.489A13.5,13.5,0,0,0-6.891,53.372Z" transform="translate(19.688 -46.96)" fill="none" stroke="#4e6454" stroke-width="1"/>
      <path id="Path_90" data-name="Path 90" d="M-1.25,50.515s.646-1.12,1.1-1.058a7.515,7.515,0,0,1,3.542,1.937c1.664,1.476,3.559.584,3.413,1.107s-.636,2.443-2.633,1.845C3.093,54.023,2,52.492.752,51.518A6.478,6.478,0,0,0-1.25,50.515Z" transform="translate(15.879 -45.572)" fill="none" stroke="#4e6454" stroke-width="1"/>
      <path id="Path_91" data-name="Path 91" d="M2.547,47.311a3.492,3.492,0,0,1,.674-.91c.317-.233,2.95.979,4.909,1.273s3.175-.212,2.886.234a2.9,2.9,0,0,1-2.886,1.965c-1.1-.043-2.008-1-3.442-1.734A10.931,10.931,0,0,0,2.547,47.311Z" transform="translate(13.315 -44.284)" fill="none" stroke="#4e6454" stroke-width="1"/>
      <path id="Path_92" data-name="Path 92" d="M4.5,44.1s.446-1.236.972-1.309,2.7.443,4.822.367,3.184-.267,3.1-.067a3.023,3.023,0,0,1-2.669,2.22c-1.168.1-1.8-.482-3.322-.792C6.361,44.307,4.5,44.1,4.5,44.1Z" transform="translate(11.996 -42.786)" fill="none" stroke="#4e6454" stroke-linecap="round" stroke-width="1"/>
    </g>
    <g id="Right_Top_Wing" data-name="Right Top Wing" transform="translate(46.439 9.737)">
      <path id="Path_35" data-name="Path 35" d="M-45.425,50.419c-.4.027-.971,1.049-.971,1.049l.8,1.18,1.109-.95S-45.021,50.392-45.425,50.419Z" transform="translate(47.231 -46.419)" fill="#4e6454"/>
      <path id="Path_36" data-name="Path 36" d="M-42.906,48.158s.556-1.041.984-.946.9,1.037.9,1.037l-1,1.474Z" transform="translate(44.875 -45.077)" fill="#4e6454"/>
      <path id="Path_37" data-name="Path 37" d="M-39.812,51.418s.537-.927,1.025-.832.988.995.988.995l-1.221,1.262Z" transform="translate(42.786 -46.486)" fill="#4e6454"/>
      <path id="Path_38" data-name="Path 38" d="M-32.533,51.067c.02-.024.489-1,.941-.942s.864,1.185.864,1.185l-.864,1.233Z" transform="translate(37.87 -46.295)" fill="#4e6454"/>
      <path id="Path_39" data-name="Path 39" d="M-36.266,48.109s.472-1.227.9-1.237,1.01,1.156,1.01,1.156l-.979,1.31Z" transform="translate(40.391 -44.938)" fill="#4e6454"/>
      <path id="Path_40" data-name="Path 40" d="M-29.359,48.057s.433-1.157.837-1.2.995,1.2.995,1.2l-.893,1.392Z" transform="translate(35.727 -44.93)" fill="#4e6454"/>
      <path id="Path_41" data-name="Path 41" d="M-25.775,51.359s.559-1.17.943-1.108.864,1.23.864,1.23l-.93,1.3Z" transform="translate(33.307 -46.348)" fill="#4e6454"/>
      <path id="Path_42" data-name="Path 42" d="M-19.109,51.4s.362-1.268.808-1.268.978,1.268.978,1.268l-.835.887Z" transform="translate(28.806 -46.297)" fill="#4e6454"/>
      <path id="Path_43" data-name="Path 43" d="M-12.865,50.993s.394-1.288.763-1.277.83,1.006.83,1.006l-.712,1.1Z" transform="translate(24.59 -46.126)" fill="#4e6454"/>
      <path id="Path_44" data-name="Path 44" d="M-6.807,50.432s.323-1.027.623-1.133.694.75.694.75l-.694.83Z" transform="translate(20.499 -45.947)" fill="#4e6454"/>
      <path id="Path_45" data-name="Path 45" d="M-10.7,47.422s.438-1.051.832-1.019.888,1.019.888,1.019l-.939,1.1Z" transform="translate(23.13 -44.741)" fill="#4e6454"/>
      <path id="Path_46" data-name="Path 46" d="M-4.75,47.294s.482-1.178.837-1.219.8.983.8.983l-.8,1.175Z" transform="translate(19.11 -44.604)" fill="#4e6454"/>
      <path id="Path_47" data-name="Path 47" d="M-2.016,44.256s.45-.635.822-.7.807.491.807.491l-.746,1.374Z" transform="translate(17.294 -43.55)" fill="#4e6454"/>
      <path id="Path_48" data-name="Path 48" d="M-7.7,44.423s.444-.678.812-.691.817.655.817.655l-.792,1.347Z" transform="translate(21.104 -43.626)" fill="#4e6454"/>
      <path id="Path_49" data-name="Path 49" d="M-13.938,44.536s.426-.7.812-.719.929.719.929.719l-.878,1.337Z" transform="translate(25.314 -43.73)" fill="#4e6454"/>
      <path id="Path_50" data-name="Path 50" d="M-16.922,47.737s.425-1.146.842-1.146.964,1.055.964,1.055l-.923,1.174Z" transform="translate(27.329 -44.82)" fill="#4e6454"/>
      <path id="Path_51" data-name="Path 51" d="M-20.078,44.452s.368-.714.771-.7.934.7.934.7l-.8,1.292Z" transform="translate(29.44 -43.601)" fill="#4e6454"/>
      <path id="Path_52" data-name="Path 52" d="M-26.2,44.785s.495-.764.852-.764.822.682.822.682l-.751,1.365Z" transform="translate(33.596 -43.815)" fill="#4e6454"/>
      <path id="Path_53" data-name="Path 53" d="M-33,44.869s.4-.71.858-.71.984.655.984.655l-.883,1.5Z" transform="translate(38.186 -43.899)" fill="#4e6454"/>
      <path id="Path_54" data-name="Path 54" d="M-22.875,48.128s.447-1.026.822-1.037.893.919.893.919l-.817,1.265Z" transform="translate(31.349 -45.029)" fill="#4e6454"/>
      <path id="Path_55" data-name="Path 55" d="M-39.615,45s.482-.782.863-.782.959.7.959.7l-.929,1.4Z" transform="translate(42.649 -43.898)" fill="#4e6454"/>
      <path id="Path_56" data-name="Path 56" d="M-46.016,45.128l.888,1.438.959-1.438s-.481-.828-.918-.828S-46.016,45.128-46.016,45.128Z" transform="translate(46.975 -43.958)" fill="#4e6454"/>
      <path id="Path_57" data-name="Path 57" d="M-48.969,47.511s.548-1.163.921-.959.738,1.478.738,1.478l-1.015,1.11Z" transform="translate(48.969 -44.794)" fill="#4e6454"/>
    </g>
    <g id="Left_Bottom_Wing" data-name="Left Bottom Wing" transform="translate(0 6.977)">
      <path id="Path_93-2" data-name="Path 93" d="M-45.251,64.68a11.148,11.148,0,0,1,.147,2.144s-1.064,1.4-1.208,1.354.324-.383.634-1.524S-45.384,64.766-45.251,64.68Z" transform="translate(84.803 -50.059)" fill="#4e6454" stroke="#4e6454" stroke-width="0.75"/>
      <path id="Path_94-2" data-name="Path 94" d="M-41.587,64.9s-.758-.123-1,.076-.215.723-.487,1.575a11.406,11.406,0,0,0-.6,1.835,1.671,1.671,0,0,0,1.225-.879A10.519,10.519,0,0,0-41.587,64.9Z" transform="translate(80.428 -50.135)" fill="#4e6454" stroke="#4e6454" stroke-width="0.75"/>
      <path id="Path_95-2" data-name="Path 95" d="M-35.7,65.011s-.748-.183-.99.176-.255,1.119-.637,2.1-.7,1.669-.59,1.615.555.02,1.185-1A11.6,11.6,0,0,0-35.7,65.011Z" transform="translate(72.667 -50.179)" fill="#4e6454" stroke="#4e6454" stroke-width="0.75"/>
      <path id="Path_96-2" data-name="Path 96" d="M-30.365,65.226a2.012,2.012,0,0,0-.934.184,17.589,17.589,0,0,0-.784,2.169,21.378,21.378,0,0,0-.854,2.015,5.539,5.539,0,0,0,1.606-1.728A9.4,9.4,0,0,0-30.365,65.226Z" transform="translate(65.716 -50.288)" fill="#4e6454" stroke="#4e6454" stroke-width="0.75"/>
      <path id="Path_97-2" data-name="Path 97" d="M-25.3,65.152s-.769.009-1.022.3-.226,1.1-.663,2.157-1.156,2.1-1.086,2.075a2.756,2.756,0,0,0,1.58-1.342A14.091,14.091,0,0,0-25.3,65.152Z" transform="translate(59.069 -50.257)" fill="#4e6454" stroke="#4e6454" stroke-width="0.75"/>
      <path id="Path_98-2" data-name="Path 98" d="M-19.692,65.518a1.628,1.628,0,0,0-.98.179c-.3.253-.273,1.153-.74,2.318s-1.4,2.244-1.246,2.2a2.075,2.075,0,0,0,1.718-1.149A12.986,12.986,0,0,0-19.692,65.518Z" transform="translate(51.707 -50.406)" fill="#4e6454" stroke="#4e6454" stroke-width="0.75"/>
      <path id="Path_99-2" data-name="Path 99" d="M-14.144,65.989s-.88-.082-1.154.227-.236.971-.7,2.172-1.268,2.568-1.166,2.522A5.367,5.367,0,0,0-15.3,69.077,10.377,10.377,0,0,0-14.144,65.989Z" transform="translate(44.373 -50.602)" fill="#4e6454" stroke="#4e6454" stroke-width="0.75"/>
      <path id="Path_100-2" data-name="Path 100" d="M-8.566,66.387s-.762-.222-1.09.151-.267,1.079-.756,2.28-1.36,2.381-1.237,2.33a2.31,2.31,0,0,0,1.635-1.229A15.762,15.762,0,0,0-8.566,66.387Z" transform="translate(37.004 -50.745)" fill="#4e6454" stroke="#4e6454" stroke-width="0.75"/>
      <path id="Path_101-2" data-name="Path 101" d="M-3.028,65.961s-.855-.113-1.149.172-.29.946-.925,2.27-1.515,2.736-1.414,2.754.991.05,1.917-1.275A15.031,15.031,0,0,0-3.028,65.961Z" transform="translate(29.797 -50.585)" fill="#4e6454" stroke="#4e6454" stroke-width="0.75"/>
      <path id="Path_102-2" data-name="Path 102" d="M3.544,65.634s-.944-.3-1.309,0-.663,1.6-1.442,2.953S-.984,71.119-.8,71.06a3.686,3.686,0,0,0,2.484-1.373A12.835,12.835,0,0,0,3.544,65.634Z" transform="translate(21.375 -50.402)" fill="#4e6454" stroke="#4e6454" stroke-width="0.75"/>
      <path id="Path_103-2" data-name="Path 103" d="M11.152,64.886s-.73-.4-1.113-.208a15.276,15.276,0,0,0-2.11,2.793,37.156,37.156,0,0,0-2.216,3.017,3.345,3.345,0,0,0,3-1.189A14.391,14.391,0,0,0,11.152,64.886Z" transform="translate(11.648 -50.037)" fill="#4e6454" stroke="#4e6454" stroke-width="0.75"/>
      <path id="Path_104-2" data-name="Path 104" d="M19.023,63.82s-.83-.827-1.223-.6-2.318,2.885-3.593,4.19-2.2,1.5-1.976,1.628.994,1.3,2.687,0S19.023,63.82,19.023,63.82Z" transform="translate(1.667 -49.434)" fill="#4e6454" stroke="#4e6454" stroke-width="0.75"/>
      <path id="Path_105-2" data-name="Path 105" d="M25.589,61.573s-.694-.809-1.192-.685-3.174,2.783-4.939,4.194-2.594,1.507-2.443,1.6.954,1.546,3.081.276S25.589,61.573,25.589,61.573Z" transform="translate(-6.458 -48.471)" fill="#4e6454" stroke="#4e6454" stroke-width="0.75"/>
      <path id="Path_106-2" data-name="Path 106" d="M32.285,59.016s-.511-.821-1.043-.78a9.711,9.711,0,0,0-3.217,1.481,34.742,34.742,0,0,1-3.377,2.417,5.189,5.189,0,0,1-3.13.884c.11.157,1.021,2.165,3.71,1.065,1.28-.523,2.56-1.827,4.172-3.115A20.484,20.484,0,0,1,32.285,59.016Z" transform="translate(-14.619 -47.368)" fill="#4e6454" stroke="#4e6454" stroke-width="0.75"/>
      <path id="Path_107-2" data-name="Path 107" d="M37.313,55.74s-.347-.809-.856-.83a13.446,13.446,0,0,0-4.2.83c-1.968.7-1.734,1.134-3.753,1.834s-3.464.6-3.333.806A3.676,3.676,0,0,0,28.7,60.043c2.245-.29,3.034-1.9,5.3-2.91S37.313,55.74,37.313,55.74Z" transform="translate(-20.832 -45.978)" fill="#4e6454" stroke="#4e6454" stroke-width="0.75"/>
      <path id="Path_108-2" data-name="Path 108" d="M41.38,52.105s-.266-1.363-.891-1.494a16,16,0,0,0-4.583.555c-1.5.415-2.172,1.04-4.362,1.325a8.568,8.568,0,0,1-3.638-.572c.1.217.961,3.035,3.391,2.91s3.2-1.467,6.029-2.209A10.668,10.668,0,0,1,41.38,52.105Z" transform="translate(-25.789 -44.169)" fill="#4e6454" stroke="#4e6454" stroke-width="0.75"/>
      <path id="Path_109-2" data-name="Path 109" d="M44.062,48.233S43.6,47.09,43.1,46.966a22.016,22.016,0,0,0-5.116,0c-2.584.236-2.737.539-4.861.647a5.427,5.427,0,0,1-2.964-.647,6.093,6.093,0,0,0,3.866,2.751c2.31.317,2.958-1.028,5.467-1.4A17.889,17.889,0,0,1,44.062,48.233Z" transform="translate(-29.204 -42.603)" fill="#4e6454" stroke="#4e6454" stroke-width="0.75"/>
      <path id="Path_110-2" data-name="Path 110" d="M46.735,42.856s-.205-1.06-.639-1.365-1.59-.713-3.923-.664-2.742.549-5.23,0S32.618,39.4,32.708,39.6a5.567,5.567,0,0,0,2.534,3.548c2,1.025,3.723-.1,6.179-.295A43.422,43.422,0,0,1,46.735,42.856Z" transform="translate(-32.704 -39.572)" fill="#4e6454" stroke="#4e6454" stroke-width="0.75"/>
    </g>
    <g id="Left_Middle_wings" data-name="Left Middle wings" transform="translate(14.289 8.849)">
      <path id="Path_81-2" data-name="Path 81" d="M-44.96,55.575A13.874,13.874,0,0,1-44.8,58.2a5.411,5.411,0,0,1-.6,1.438c-.374.539-.852.846-.893.719s.478-1.3.812-2.484S-45.132,55.493-44.96,55.575Z" transform="translate(70.195 -48.126)" fill="none" stroke="#4e6454" stroke-width="1"/>
      <path id="Path_82-2" data-name="Path 82" d="M-41.783,55.434s-.868-.2-1.076.218-.228.983-.568,2.147a22.927,22.927,0,0,0-.827,2.457c.1.127.759-.464,1.36-1.647A19.539,19.539,0,0,0-41.783,55.434Z" transform="translate(66.521 -48.049)" fill="none" stroke="#4e6454" stroke-width="1"/>
      <path id="Path_83-2" data-name="Path 83" d="M-36.164,55.629s-.787-.128-1.005.082a9.227,9.227,0,0,0-.644,2.12c-.354,1.2-1.438,2.918-.929,2.575a4.386,4.386,0,0,0,1.622-1.926A13.244,13.244,0,0,0-36.164,55.629Z" transform="translate(59.151 -48.134)" fill="none" stroke="#4e6454" stroke-width="1"/>
      <path id="Path_84-2" data-name="Path 84" d="M-30.734,55.3s-.855-.107-1.085.176a14.669,14.669,0,0,0-.627,2.33c-.358,1.223-1.429,2.705-1,2.5a2.591,2.591,0,0,0,1.582-1.561A19.884,19.884,0,0,0-30.734,55.3Z" transform="translate(51.991 -48.004)" fill="none" stroke="#4e6454" stroke-width="1"/>
      <path id="Path_85-2" data-name="Path 85" d="M-25.213,55.432s-.715-.163-1.042.272-.665,1.883-1.181,3.075-1.067,1.865-.913,1.93.994-.327,1.777-1.646A16.906,16.906,0,0,0-25.213,55.432Z" transform="translate(44.79 -48.056)" fill="none" stroke="#4e6454" stroke-width="1"/>
      <path id="Path_86-2" data-name="Path 86" d="M-19.263,55.634s-.72-.3-1,.059-.83,2.134-1.537,3.477-1.484,1.916-1.29,1.9.969.115,1.936-1.281A21.238,21.238,0,0,0-19.263,55.634Z" transform="translate(37.133 -48.105)" fill="none" stroke="#4e6454" stroke-width="1"/>
      <path id="Path_87-2" data-name="Path 87" d="M-12.968,55a1.3,1.3,0,0,0-1.168.2,21.524,21.524,0,0,0-1.616,2.7c-.91,1.561-2.757,2.366-2.408,2.46a2.377,2.377,0,0,0,2.968-.982A30.672,30.672,0,0,0-12.968,55Z" transform="translate(29.242 -47.865)" fill="none" stroke="#4e6454" stroke-width="1"/>
      <path id="Path_88-2" data-name="Path 88" d="M-6.7,54.583s-1.142-.181-1.382,0A8.327,8.327,0,0,0-10.6,57.167c-1.092,1.719-2.775,2.2-2.463,2.474a3.128,3.128,0,0,0,3.709-1.365C-7.989,56.364-6.7,54.583-6.7,54.583Z" transform="translate(21.32 -47.68)" fill="none" stroke="#4e6454" stroke-width="1"/>
      <path id="Path_89-2" data-name="Path 89" d="M.6,53.372s-.977-.855-1.689-.512a11.186,11.186,0,0,0-3.259,2.8C-5.707,57.35-7.21,56.7-6.831,57.116s2.051,1.695,3.766-.489A13.5,13.5,0,0,1,.6,53.372Z" transform="translate(11.996 -46.96)" fill="none" stroke="#4e6454" stroke-width="1"/>
      <path id="Path_90-2" data-name="Path 90" d="M6.814,50.515s-.646-1.12-1.1-1.058a7.515,7.515,0,0,0-3.542,1.937c-1.664,1.476-3.559.584-3.413,1.107s.636,2.443,2.633,1.845c1.08-.323,2.177-1.855,3.422-2.829A6.478,6.478,0,0,1,6.814,50.515Z" transform="translate(3.955 -45.572)" fill="none" stroke="#4e6454" stroke-width="1"/>
      <path id="Path_91-2" data-name="Path 91" d="M11.058,47.311a3.492,3.492,0,0,0-.674-.91c-.317-.233-2.95.979-4.909,1.273s-3.175-.212-2.886.234a2.9,2.9,0,0,0,2.886,1.965c1.1-.043,2.008-1,3.442-1.734A10.931,10.931,0,0,1,11.058,47.311Z" transform="translate(-1.522 -44.284)" fill="none" stroke="#4e6454" stroke-width="1"/>
      <path id="Path_92-2" data-name="Path 92" d="M13.4,44.1s-.446-1.236-.972-1.309-2.7.443-4.822.367-3.184-.267-3.1-.067a3.023,3.023,0,0,0,2.669,2.22c1.168.1,1.8-.482,3.322-.792C11.54,44.307,13.4,44.1,13.4,44.1Z" transform="translate(-4.5 -42.786)" fill="none" stroke="#4e6454" stroke-linecap="round" stroke-width="1"/>
    </g>
    <g id="Left_Top_Wing" data-name="Left Top Wing" transform="translate(23.647 9.377)">
      <path id="Path_35-2" data-name="Path 35" d="M-45.454,50.419c.4.027.971,1.049.971,1.049l-.8,1.18L-46.4,51.7S-45.858,50.392-45.454,50.419Z" transform="translate(60.555 -46.419)" fill="#4e6454"/>
      <path id="Path_36-2" data-name="Path 36" d="M-41.019,48.158s-.556-1.041-.984-.946-.9,1.037-.9,1.037l1,1.474Z" transform="translate(55.957 -45.077)" fill="#4e6454"/>
      <path id="Path_37-2" data-name="Path 37" d="M-37.8,51.418s-.537-.927-1.025-.832-.988.995-.988.995l1.221,1.262Z" transform="translate(51.734 -46.486)" fill="#4e6454"/>
      <path id="Path_38-2" data-name="Path 38" d="M-30.728,51.067c-.02-.024-.489-1-.941-.942s-.864,1.185-.864,1.185l.864,1.233Z" transform="translate(42.297 -46.295)" fill="#4e6454"/>
      <path id="Path_39-2" data-name="Path 39" d="M-34.358,48.109s-.472-1.227-.9-1.237-1.01,1.156-1.01,1.156l.979,1.31Z" transform="translate(47.14 -44.938)" fill="#4e6454"/>
      <path id="Path_40-2" data-name="Path 40" d="M-27.528,48.057s-.433-1.157-.837-1.2-.995,1.2-.995,1.2l.893,1.392Z" transform="translate(38.067 -44.93)" fill="#4e6454"/>
      <path id="Path_41-2" data-name="Path 41" d="M-23.968,51.359s-.559-1.17-.943-1.108-.864,1.23-.864,1.23l.93,1.3Z" transform="translate(33.344 -46.348)" fill="#4e6454"/>
      <path id="Path_42-2" data-name="Path 42" d="M-17.323,51.4s-.362-1.268-.808-1.268-.978,1.268-.978,1.268l.835.887Z" transform="translate(24.534 -46.297)" fill="#4e6454"/>
      <path id="Path_43-2" data-name="Path 43" d="M-11.272,50.993s-.394-1.288-.763-1.277-.83,1.006-.83,1.006l.712,1.1Z" transform="translate(16.454 -46.126)" fill="#4e6454"/>
      <path id="Path_44-2" data-name="Path 44" d="M-5.49,50.432S-5.813,49.4-6.113,49.3s-.694.75-.694.75l.694.83Z" transform="translate(8.705 -45.947)" fill="#4e6454"/>
      <path id="Path_45-2" data-name="Path 45" d="M-8.983,47.422s-.438-1.051-.832-1.019-.888,1.019-.888,1.019l.939,1.1Z" transform="translate(13.463 -44.741)" fill="#4e6454"/>
      <path id="Path_46-2" data-name="Path 46" d="M-3.111,47.294s-.482-1.178-.837-1.219-.8.983-.8.983l.8,1.175Z" transform="translate(5.658 -44.604)" fill="#4e6454"/>
      <path id="Path_47-2" data-name="Path 47" d="M-.387,44.256s-.45-.635-.822-.7-.807.491-.807.491l.746,1.374Z" transform="translate(2.016 -43.55)" fill="#4e6454"/>
      <path id="Path_48-2" data-name="Path 48" d="M-6.074,44.423s-.444-.678-.812-.691-.817.655-.817.655l.792,1.347Z" transform="translate(9.581 -43.626)" fill="#4e6454"/>
      <path id="Path_49-2" data-name="Path 49" d="M-12.2,44.536s-.426-.7-.812-.719-.929.719-.929.719l.878,1.337Z" transform="translate(17.728 -43.73)" fill="#4e6454"/>
      <path id="Path_50-2" data-name="Path 50" d="M-15.115,47.737s-.425-1.146-.842-1.146-.964,1.055-.964,1.055L-16,48.82Z" transform="translate(21.615 -44.82)" fill="#4e6454"/>
      <path id="Path_51-2" data-name="Path 51" d="M-18.373,44.452s-.368-.714-.771-.7-.934.7-.934.7l.8,1.292Z" transform="translate(25.919 -43.601)" fill="#4e6454"/>
      <path id="Path_52-2" data-name="Path 52" d="M-24.529,44.785s-.495-.764-.852-.764-.822.682-.822.682l.751,1.365Z" transform="translate(34.043 -43.815)" fill="#4e6454"/>
      <path id="Path_53-2" data-name="Path 53" d="M-31.158,44.869s-.4-.71-.858-.71-.984.655-.984.655l.883,1.5Z" transform="translate(42.879 -43.899)" fill="#4e6454"/>
      <path id="Path_54-2" data-name="Path 54" d="M-21.16,48.128s-.447-1.026-.822-1.037-.893.919-.893.919l.817,1.265Z" transform="translate(29.593 -45.029)" fill="#4e6454"/>
      <path id="Path_55-2" data-name="Path 55" d="M-37.793,45s-.482-.782-.863-.782-.959.7-.959.7l.929,1.4Z" transform="translate(51.666 -43.898)" fill="#4e6454"/>
      <path id="Path_56-2" data-name="Path 56" d="M-44.169,45.128l-.888,1.438-.959-1.438s.481-.828.918-.828S-44.169,45.128-44.169,45.128Z" transform="translate(60.117 -43.958)" fill="#4e6454"/>
      <path id="Path_57-2" data-name="Path 57" d="M-47.31,47.511s-.548-1.163-.921-.959-.738,1.478-.738,1.478l1.015,1.11Z" transform="translate(64.217 -44.794)" fill="#4e6454"/>
    </g>
  </g>
</svg>
