<svg xmlns="http://www.w3.org/2000/svg" width="50.242" height="39.241" viewBox="0 0 50.242 39.241">
  <g id="Fonebox" transform="translate(0.509 0.501)">
    <path id="Path_186" data-name="Path 186" d="M4514.157,356.594l.913,29.293.319,1.122,46.829-.313.474-1.413.689-29.217-2.662-.716-45.331.522Z" transform="translate(-4514.157 -355.349)" fill="#543853" stroke="#3e233d" stroke-width="1"/>
    <path id="Path_189" data-name="Path 189" d="M4520.964,546.481l46.722-.33-2.949,6.659-41.231.1Z" transform="translate(-4519.684 -514.673)" fill="#403e3d" stroke="#302b2b" stroke-width="1"/>
    <path id="Path_187" data-name="Path 187" d="M4597.691,555.024l.694,4.573h16.161l1.056-4.573Z" transform="translate(-4581.971 -522.082)" fill="#403e3d" stroke="#302b2b" stroke-width="1"/>
    <path id="Path_188" data-name="Path 188" d="M4614.483,563.029s-.645-.027-.672.8a.853.853,0,0,0,.672.941h10.734s1.014.093.986-.857a.817.817,0,0,0-.865-.887Z" transform="translate(-4595.395 -528.766)" fill="none" stroke="#302b2b" stroke-width="1"/>
    <g id="Rectangle_3" data-name="Rectangle 3" transform="translate(7.121 6.377)" fill="#757575" stroke="#3e233d" stroke-width="1">
      <rect width="34.814" height="16.828" stroke="none"/>
      <rect x="0.5" y="0.5" width="33.814" height="15.828" fill="none"/>
    </g>
    <path id="Path_190" data-name="Path 190" d="M0,.495,49.116,0" transform="translate(0.065 0.85)" fill="none" stroke="#3e233d" stroke-width="1"/>
    <text id="FONEBOX-2" data-name="FONEBOX" transform="translate(3.162 29.31)" fill="#3e233d" font-size="5" font-family="StencilStd, Stencil Std" letter-spacing="0.2em"><tspan x="0" y="0">FONEBOX</tspan></text>
  </g>
</svg>
