<svg xmlns="http://www.w3.org/2000/svg" width="57.966" height="30.026" viewBox="0 0 57.966 30.026">
  <g id="Group_1" data-name="Group 1" transform="translate(-354.202 -564.955)">
    <path id="Path_318" data-name="Path 318" d="M13.326,0,0,16.9,19.864,27.736H40.248l15.919-22.1-24.8,2.754L21.1,3.618Z" transform="translate(354.786 566.751)" fill="none" stroke="#707070" stroke-width="0.77"/>
    <path id="Path_312" data-name="Path 312" d="M5093.955,666l-13.326,16.9,19.864,10.831,16.091-3.275h0L5134.122,666,5112,674.392Z" transform="translate(-4724.505 -99.741)" fill="none" stroke="#707070" stroke-width="0.77"/>
    <path id="Path_319" data-name="Path 319" d="M13.326,0,0,16.9,19.864,27.736s17.71,2.212,20.384,0,15.919-22.1,15.919-22.1l-24.8,2.754Z" transform="translate(355.222 565.768)" fill="#1c1b1b" stroke="#707070" stroke-width="0.77"/>
    <path id="Path_317" data-name="Path 317" d="M5093.955,666l-13.326,16.9,19.864,10.831,16.091-3.275L5134.122,666,5112,674.392Z" transform="translate(-4724.07 -100.232)" fill="#1c1b1b" stroke="#707070" stroke-width="0.77"/>
    <g id="Group_29" data-name="Group 29" transform="translate(378.698 578.519)">
      <line id="Line_1" data-name="Line 1" y1="15.171" x2="8.32" fill="none" stroke="#707070" stroke-width="1"/>
    </g>
  </g>
</svg>
