<svg xmlns="http://www.w3.org/2000/svg" width="80.467" height="21.674" viewBox="0 0 80.467 21.674">
  <g id="I" transform="translate(72.473 0.694)">
    <path id="I_Shadow" data-name="I Shadow" d="M859.248,373.047V391.7l2.619,1.673h4.872l-.084-17.721-2.429-2.6Z" transform="translate(-859.248 -373.047)" fill="#505050" stroke="#505050" stroke-width="1"/>
    <g id="I-2" data-name="I" transform="translate(1.952 1.465)" fill="#fff">
      <path d="M 1.346664547920227 15.98518180847168 L 0.1623749136924744 15.98518180847168 L 0.2795105576515198 0.500001847743988 L 1.470619678497314 0.500001847743988 L 1.346664547920227 15.98518180847168 Z" stroke="none"/>
      <path d="M 0.775736927986145 1.000001907348633 L 0.6661657094955444 15.48518180847168 L 0.8506448864936829 15.48518180847168 L 0.9665953516960144 1.000001907348633 L 0.775736927986145 1.000001907348633 M -0.2167258262634277 1.9073486328125e-06 L 1.974634170532227 1.9073486328125e-06 L 1.842674136161804 16.48518180847168 L -0.341425895690918 16.48518180847168 L -0.2167258262634277 1.9073486328125e-06 Z" stroke="none" fill="#fff"/>
    </g>
  </g>
  <g id="M" transform="translate(31.732 0.939)">
    <path id="Path_3" data-name="Path 3" d="M576.048,314.436,576.037,333l2.595,1.426h4.245v-5.7l1.892,1.239,1.846-1.239.153,4.273,2.293,1.426h6.275V317.162l-2.215-2.726h-4.845l-2.492,3.387-2.307-3.387Z" transform="translate(-576.037 -314.436)" fill="#505050" stroke="#505050" stroke-width="1"/>
    <path id="Path_4" data-name="Path 4" d="M578.72,317.847v16.959h3.045v-11.92l4.614,6.649,4.752-6.649v11.92h2.735V317.847h-3.1l-4.383,6.9-4.614-6.9Z" transform="translate(-577.74 -316.732)" fill="#fff" stroke="#505050" stroke-width="1"/>
  </g>
  <g id="M-2" data-name="M" transform="translate(52.103 1.029)">
    <path id="Path_3-2" data-name="Path 3" d="M576.048,314.436,576.037,333l2.595,1.426h4.245v-5.7l1.892,1.239,1.846-1.239.153,4.273,2.293,1.426h6.275V317.162l-2.215-2.726h-4.845l-2.492,3.387-2.307-3.387Z" transform="translate(-576.037 -314.436)" fill="#505050" stroke="#505050" stroke-width="1"/>
    <path id="Path_4-2" data-name="Path 4" d="M578.72,317.847v16.959h3.045v-11.92l4.614,6.649,4.752-6.649v11.92h2.712V317.847h-3.081l-4.383,6.9-4.614-6.9Z" transform="translate(-577.74 -316.732)" fill="#fff" stroke="#505050" stroke-width="1"/>
  </g>
  <g id="U" transform="translate(17.263 1.029)">
    <path id="Path_1" data-name="Path 1" d="M792.514,440.773s-.125,11.775,0,13.809.965,6.573,7.609,6.325,5.626-4.727,5.707-6.325c.054-1.061,0-11.062,0-11.062l-2.247-2.747Z" transform="translate(-792.458 -440.773)" fill="#505050" stroke="#505050" stroke-width="1"/>
    <path id="Path_2" data-name="Path 2" d="M798.688,444.626h-2.342s.035,10.9,0,12.04.43,5.058,4.49,4.893,4.394-3.082,4.429-4.893,0-12.04,0-12.04h-2.4s-.035,8.648,0,10.9-.692,4.006-2.445,4.047-1.7-2.974-1.732-3.736S798.688,444.626,798.688,444.626Z" transform="translate(-794.925 -443.366)" fill="#fff" stroke="#fff" stroke-width="1"/>
  </g>
  <g id="G" transform="translate(0.486 0.503)">
    <path id="G_Shadow" data-name="G Shadow" d="M1469.884,379.978s.519-2.918-1.044-4.669-3.172-2.064-5.206-2.336c-6.542-.875-9.087,2.04-9.07,5.719s-.047,3.366,0,5.261-.846,7.354,3.682,8.615,5.721-.5,5.721-.5l1.107,1.061h5.151v-7.863l-2.963-3.11h-5s-.345-2.2.6-2.183,1.487,0,1.487,0Z" transform="translate(-1454.522 -372.817)" fill="#505050" stroke="#505050" stroke-width="1"/>
    <path id="G-2" data-name="G" d="M1750.007,277.381s.47-3.967-5.05-3.99-5.742,2.929-5.767,3.99-.025,7.15,0,9.065.742,3.321,4.109,3.644,4.257-2.168,4.257-2.168v2.168h2.351v-6.874h-4.752v1.038h2.2s.668,3.391-2.4,3.9-3.267-1.269-3.317-2.214-.074-6.112,0-7.842.817-2.791,3.218-2.883a2.531,2.531,0,0,1,2.7,2.168Z" transform="translate(-1737.474 -271.895)" fill="#fff" stroke="#fff" stroke-width="1"/>
  </g>
</svg>
