<svg xmlns="http://www.w3.org/2000/svg" width="210.831" height="53.481" viewBox="0 0 210.831 53.481">
  <g id="HARDWARE" transform="translate(-645.292 -487.019)">
    <g id="MKH_ICON" data-name="MKH ICON" transform="translate(132 -219.117)">
      <path id="mkh_outline" data-name="mkh outline" d="M516.927,706.636s.069,15.668,0,18.786-2.8.5-3.056,3.679.132,17.273,0,21.014,3.058,2.081,3.056,5.176,0,3.826,0,3.826H562.98s-.008-.742,0-3.826,3.208-1.247,3.056-5.176.027-16.462,0-20.453-2.905-.624-3.056-4.24,0-18.786,0-18.786Z" fill="#ffa31a" stroke="#505050" stroke-width="1"/>
      <g id="Camera" transform="translate(519.491 706.636)">
        <path id="mkh_camera" data-name="mkh camera" d="M528.819,706.636v8.5h5.737v-8.5Z" transform="translate(-528.819 -706.636)" fill="none" stroke="#505050" stroke-width="1"/>
        <path id="Path_8" data-name="Path 8" d="M528.819,714.562l5.724,0" transform="translate(-528.819 -711.553)" fill="none" stroke="#505050" stroke-width="1"/>
        <g id="Ellipse_1" data-name="Ellipse 1" transform="translate(1.53 4.177)" fill="#505050" stroke="#505050" stroke-width="1">
          <circle cx="1.291" cy="1.291" r="1.291" stroke="none"/>
          <circle cx="1.291" cy="1.291" r="0.791" fill="none"/>
        </g>
      </g>
      <g id="Bill_Acceptor" data-name="Bill Acceptor" transform="translate(527.817 706.636)">
        <path id="Path_9" data-name="Path 9" d="M550.994,706.636v15.622h24.114V706.636Z" transform="translate(-550.994 -706.636)" fill="none" stroke="#505050" stroke-width="1"/>
        <g id="Rectangle_4" data-name="Rectangle 4" transform="translate(0.72 0.95)" fill="none" stroke="#505050" stroke-width="0.5">
          <rect width="22.814" height="10.325" stroke="none"/>
          <rect x="0.25" y="0.25" width="22.314" height="9.825" fill="none"/>
        </g>
        <g id="Rectangle_5" data-name="Rectangle 5" transform="translate(1.899 2.029)" fill="none" stroke="#505050" stroke-width="0.5">
          <rect width="20.344" height="7.985" stroke="none"/>
          <rect x="0.25" y="0.25" width="19.844" height="7.485" fill="none"/>
        </g>
        <path id="Path_10" data-name="Path 10" d="M552.3,709.088l1.172,1" transform="translate(-551.154 -707.716)" fill="none" stroke="#505050" stroke-width="0.5"/>
        <path id="Path_11" data-name="Path 11" d="M552.55,733.793l1.141-1.25" transform="translate(-551.384 -722.843)" fill="none" stroke="#505050" stroke-width="0.5"/>
        <path id="Path_12" data-name="Path 12" d="M610.866,733.824l-1.172-1.234" transform="translate(-587.81 -722.936)" fill="none" stroke="#505050" stroke-width="0.5"/>
        <path id="Path_13" data-name="Path 13" d="M610.982,709.364l-1.328,1.063" transform="translate(-587.739 -708.023)" fill="none" stroke="#505050" stroke-width="0.5"/>
        <g id="Rectangle_6" data-name="Rectangle 6" transform="translate(4.174 3.531)" fill="#505050" stroke="#505050" stroke-width="1">
          <rect width="16.133" height="5.163" rx="2.581" stroke="none"/>
          <rect x="0.5" y="0.5" width="15.133" height="4.163" rx="2.081" fill="none"/>
        </g>
      </g>
      <line id="Line_3" data-name="Line 3" x2="50.5" transform="translate(514.814 752.528)" fill="none" stroke="#505050" stroke-linecap="round" stroke-width="1"/>
      <g id="Screen" transform="translate(517.717 726.375)">
        <path id="Path_14" data-name="Path 14" d="M524.175,782.862s-.062-18.649,0-20.516.062-3.6,2.673-3.569c2.118.023,36.642-.256,39.168-.114s2.541,1.976,2.526,2.923c-.076,5.014-.094,21.275-.094,21.275Z" transform="translate(-524.148 -758.623)" fill="none" stroke="#505050" stroke-width="1"/>
        <g id="Rectangle_7" data-name="Rectangle 7" transform="translate(3.949 1.861)" fill="#505050" stroke="#505050" stroke-width="1">
          <rect width="36.783" height="20.65" rx="6" stroke="none"/>
          <rect x="0.5" y="0.5" width="35.783" height="19.65" rx="5.5" fill="none"/>
        </g>
      </g>
      <g id="Screen_logo" data-name="Screen logo" transform="translate(520.96 734.954)">
        <g id="MKH_logo" data-name="MKH logo" transform="translate(4.773)">
          <path id="Path_5" data-name="Path 5" d="M826.1,383.245c-.041-.123,0-6.543,0-6.543l2.839,3.251,3.168-3.251v6.543Z" transform="translate(-826.083 -376.163)" fill="#dedbdb" stroke="#dedbdb" stroke-width="1"/>
          <path id="Path_6" data-name="Path 6" d="M845.033,376.7v7.082h4.938l-2.551-3.651,1.934-2.2V376.7Z" transform="translate(-835.609 -376.703)" fill="#dedbdb" stroke="#dedbdb" stroke-width="1"/>
          <g id="Rectangle_3" data-name="Rectangle 3" transform="translate(16.699 2.822)" fill="#dedbdb" stroke="#dedbdb" stroke-width="1">
            <rect width="2.874" height="1.437" stroke="none"/>
            <rect x="0.5" y="0.5" width="1.874" height="0.437" fill="none"/>
          </g>
          <path id="Path_7" data-name="Path 7" d="M867.6,376.7v7h1.193l1.522-2.553,1.522,2.553h1.07v-7h-1.07l-1.522,2.553-1.522-2.553Z" transform="translate(-844.624 -376.62)" fill="#dedbdb" stroke="#dedbdb" stroke-width="1"/>
        </g>
      </g>
    </g>
    <g id="HARDWARE-2" data-name="HARDWARE">
      <path id="H" d="M5913.345,427.214l.047,19.771h5.125v-8.266h1.575v8.266h5.1l.016-19.771h-5.113v7.1h-1.575v-7.1Z" transform="translate(-5201.345 76.66)" fill="#302b2b"/>
      <g id="A" transform="translate(409.543 0.821)">
        <path id="Path_326" data-name="Path 326" d="M5992.156,446.969l2.609-19.7h7.438l2.922,19.7h-5.219l-.281-3.516h-1.891l-.3,3.516Z" transform="translate(-5672 76)" fill="#302b2b"/>
      </g>
      <g id="R" transform="translate(444.338 0.811)">
        <path id="Path_324" data-name="Path 324" d="M5976.375,427.281l-.062,19.7h5.167l-.082-8.87a1.219,1.219,0,0,1,1.649.973c.047.182,0,2.3,0,2.3v5.6h4.709s-.047-4.46,0-7.21-3.24-3.2-3.24-3.2,3.578.875,3.3-4.156-2.422-5.066-6.374-5.128S5976.375,427.281,5976.375,427.281Z" transform="translate(-5672 76)" fill="#302b2b"/>
      </g>
      <g id="D">
        <path id="Path_328" data-name="Path 328" d="M767.094,503.993l-.047,19.781h6.516c5.875,0,5.281-2.406,5.375-5.969s-.047-4.3.016-8.2-1.484-5.562-5.109-5.516S767.094,503.993,767.094,503.993Z" fill="#302b2b"/>
      </g>
      <path id="W" d="M5887.031,427.233,5889.367,447h6.277l1.422-9.852L5898.69,447h6.358l2.336-19.764h-4.957l-1.564,12.716-1.056-12.716h-5.3l-1.6,12.716-.874-12.716Z" transform="translate(-5102.131 76.76)" fill="#302b2b"/>
      <g id="A-2" data-name="A" transform="translate(489.644 0.805)">
        <path id="Path_326-2" data-name="Path 326" d="M5992.156,446.969l2.609-19.7h7.438l2.922,19.7h-5.219l-.281-3.516h-1.891l-.3,3.516Z" transform="translate(-5672 76)" fill="#302b2b"/>
      </g>
      <g id="R-2" data-name="R" transform="translate(524.338 0.817)">
        <path id="Path_324-2" data-name="Path 324" d="M5976.375,427.281l-.062,19.7h5.167l-.082-8.87a1.219,1.219,0,0,1,1.649.973c.047.182,0,2.3,0,2.3v5.6h4.709s-.047-4.46,0-7.21-3.24-3.2-3.24-3.2,3.578.875,3.3-4.156-2.422-5.066-6.374-5.128S5976.375,427.281,5976.375,427.281Z" transform="translate(-5672 76)" fill="#302b2b"/>
      </g>
      <path id="E" d="M5969.531,427.266h-8.547L5961,447h8.906v-3.929h-3.75v-4.414h3.188v-3.7h-3.187v-3.766h3.375Z" transform="translate(-5113.784 76.805)" fill="#302b2b"/>
    </g>
  </g>
</svg>
