<svg xmlns="http://www.w3.org/2000/svg" xmlns:xlink="http://www.w3.org/1999/xlink" width="53.248" height="53.481" viewBox="0 0 53.248 53.481">
  <defs>
    <clipPath id="clip">
      <use xlink:href="#fill"/>
    </clipPath>
  </defs>
  <g id="MKH_ICON" data-name="MKH ICON" transform="translate(-513.292 -706.136)">
    <path id="mkh_outline" data-name="mkh outline" d="M516.927,706.636s.069,15.668,0,18.786-2.8.5-3.056,3.679.132,17.273,0,21.014,3.058,2.081,3.056,5.176,0,3.826,0,3.826H562.98s-.008-.742,0-3.826,3.208-1.247,3.056-5.176.027-16.462,0-20.453-2.905-.624-3.056-4.24,0-18.786,0-18.786Z" fill="#4e6454" stroke="#505050" stroke-width="1"/>
    <g id="Camera" transform="translate(519.491 706.636)">
      <path id="mkh_camera" data-name="mkh camera" d="M528.819,706.636v8.5h5.737v-8.5Z" transform="translate(-528.819 -706.636)" fill="none" stroke="#505050" stroke-width="1"/>
      <path id="Path_8" data-name="Path 8" d="M528.819,714.562l5.724,0" transform="translate(-528.819 -711.553)" fill="none" stroke="#505050" stroke-width="1"/>
      <g id="Ellipse_1" data-name="Ellipse 1" transform="translate(1.53 4.177)" fill="#505050" stroke="#505050" stroke-width="1">
        <circle cx="1.291" cy="1.291" r="1.291" stroke="none"/>
        <circle cx="1.291" cy="1.291" r="0.791" fill="none"/>
      </g>
    </g>
    <g id="Bill_Acceptor" data-name="Bill Acceptor" transform="translate(527.817 706.636)">
      <path id="Path_9" data-name="Path 9" d="M550.994,706.636v15.622h24.114V706.636Z" transform="translate(-550.994 -706.636)" fill="none" stroke="#505050" stroke-width="1"/>
      <g id="Rectangle_4" data-name="Rectangle 4" transform="translate(0.72 0.95)" fill="none" stroke="#505050" stroke-width="0.5">
        <rect width="22.814" height="10.325" stroke="none"/>
        <rect x="0.25" y="0.25" width="22.314" height="9.825" fill="none"/>
      </g>
      <g id="Rectangle_5" data-name="Rectangle 5" transform="translate(1.899 2.029)" fill="none" stroke="#505050" stroke-width="0.5">
        <rect width="20.344" height="7.985" stroke="none"/>
        <rect x="0.25" y="0.25" width="19.844" height="7.485" fill="none"/>
      </g>
      <path id="Path_10" data-name="Path 10" d="M552.3,709.088l1.172,1" transform="translate(-551.154 -707.716)" fill="none" stroke="#505050" stroke-width="0.5"/>
      <path id="Path_11" data-name="Path 11" d="M552.55,733.793l1.141-1.25" transform="translate(-551.384 -722.843)" fill="none" stroke="#505050" stroke-width="0.5"/>
      <path id="Path_12" data-name="Path 12" d="M610.866,733.824l-1.172-1.234" transform="translate(-587.81 -722.936)" fill="none" stroke="#505050" stroke-width="0.5"/>
      <path id="Path_13" data-name="Path 13" d="M610.982,709.364l-1.328,1.063" transform="translate(-587.739 -708.023)" fill="none" stroke="#505050" stroke-width="0.5"/>
      <g id="Rectangle_6" data-name="Rectangle 6" transform="translate(4.174 3.531)" fill="#505050" stroke="#505050" stroke-width="1">
        <rect width="16.133" height="5.163" rx="2.581" stroke="none"/>
        <rect x="0.5" y="0.5" width="15.133" height="4.163" rx="2.081" fill="none"/>
      </g>
    </g>
    <line id="Line_3" data-name="Line 3" x2="50.5" transform="translate(514.814 752.528)" fill="none" stroke="#505050" stroke-linecap="round" stroke-width="1"/>
    <g id="Screen" transform="translate(517.717 726.375)">
      <path id="Path_14" data-name="Path 14" d="M524.175,782.862s-.062-18.649,0-20.516.062-3.6,2.673-3.569c2.118.023,36.642-.256,39.168-.114s2.541,1.976,2.526,2.923c-.076,5.014-.094,21.275-.094,21.275Z" transform="translate(-524.148 -758.623)" fill="none" stroke="#505050" stroke-width="1"/>
      <g id="Rectangle_7" data-name="Rectangle 7" transform="translate(3.949 1.861)" fill="#505050" stroke="#505050" stroke-width="1">
        <rect width="36.783" height="20.65" rx="6" stroke="none"/>
        <rect x="0.5" y="0.5" width="35.783" height="19.65" rx="5.5" fill="none"/>
      </g>
    </g>
    <g id="Screen_logo" data-name="Screen logo" transform="translate(527.904 732.639)">
      <g id="MKH_logo" data-name="MKH logo" transform="translate(5.773)">
        <path id="Path_5" data-name="Path 5" d="M826.093,380.153c-.022-.065,0-3.451,0-3.451l1.5,1.715,1.671-1.715v3.451Z" transform="translate(-827.083 -376.418)" fill="#dedbdb" stroke="#dedbdb" stroke-width="1"/>
        <path id="Path_6" data-name="Path 6" d="M845.033,376.7v3.735h2.6l-1.346-1.926,1.02-1.16v-.65Z" transform="translate(-841.062 -376.703)" fill="#dedbdb" stroke="#dedbdb" stroke-width="1"/>
        <g id="Rectangle_3" data-name="Rectangle 3" transform="translate(7.807 1.489)" fill="#dedbdb" stroke="#dedbdb" stroke-width="1">
          <rect id="fill" width="1.516" height="0.758" stroke="none"/>
          <path d="M0,0.25796908140182495h1.51593816280365M1.01593816280365,0v0.757969081401825M1.51593816280365,0.5h-1.51593816280365M0.5,0.757969081401825v-0.757969081401825" fill="none" clip-path="url(#clip)"/>
        </g>
        <path id="Path_7" data-name="Path 7" d="M867.6,376.7v3.692h.629l.8-1.347.8,1.347h.564V376.7h-.564l-.8,1.347-.8-1.347Z" transform="translate(-856.48 -376.659)" fill="#dedbdb" stroke="#dedbdb" stroke-width="1"/>
      </g>
      <g id="GUMMI" transform="translate(0 5.416)">
        <g id="I" transform="translate(21.294 0.049)">
          <path id="I_Shadow" data-name="I Shadow" d="M859.248,373.047v5.724l.719.513h1.339l-.023-5.438-.667-.8Z" transform="translate(-859.248 -373.047)" fill="#dedbdb" stroke="#dedbdb" stroke-width="1"/>
          <g id="I-2" data-name="I" transform="translate(0.341 0.261)" fill="#505050">
            <path d="M 0.4286569058895111 5.223001003265381 L -0.08875825256109238 5.223001003265381 L -0.03598430007696152 0.2500009834766388 L 0.4845111668109894 0.2500009834766388 L 0.4286569058895111 5.223001003265381 Z" stroke="none"/>
            <path d="M 0.2113709598779678 0.5000009536743164 L 0.1639030575752258 4.973001003265381 L 0.1814432889223099 4.973001003265381 L 0.2316817939281464 0.5000009536743164 L 0.2113709598779678 0.5000009536743164 M -0.283349335193634 9.5367431640625e-07 L 0.7373306751251221 9.5367431640625e-07 L 0.6758606433868408 5.473001003265381 L -0.3414293527603149 5.473001003265381 L -0.283349335193634 9.5367431640625e-07 Z" stroke="none" fill="#505050"/>
          </g>
        </g>
        <g id="M" transform="translate(9.343 0.101)">
          <path id="Path_3" data-name="Path 3" d="M576.04,314.437l0,5.7.713.438h1.166v-1.749l.52.38.507-.38.042,1.311.63.438h1.724v-5.3l-.608-.837H579.4l-.684,1.039-.634-1.039Z" transform="translate(-576.037 -314.437)" fill="#dedbdb" stroke="#dedbdb" stroke-width="1"/>
          <path id="Path_4" data-name="Path 4" d="M578.72,317.847v5.2h.837v-3.658l1.267,2.041,1.306-2.041v3.658h.751v-5.2h-.853l-1.2,2.117-1.267-2.117Z" transform="translate(-578.451 -317.505)" fill="#505050" stroke="#505050" stroke-width="0.5"/>
        </g>
        <g id="M-2" data-name="M" transform="translate(15.319 0.175)">
          <path id="Path_3-2" data-name="Path 3" d="M576.04,314.437l0,5.7.713.438h1.166v-1.749l.52.38.507-.38.042,1.311.63.438h1.724v-5.3l-.608-.837H579.4l-.684,1.039-.634-1.039Z" transform="translate(-576.037 -314.437)" fill="#dedbdb" stroke="#dedbdb" stroke-width="1"/>
          <path id="Path_4-2" data-name="Path 4" d="M578.72,317.847v5.2h.837v-3.658l1.267,2.041,1.306-2.041v3.658h.745v-5.2h-.846l-1.2,2.117-1.267-2.117Z" transform="translate(-578.451 -317.505)" fill="#505050" stroke="#505050" stroke-width="0.54"/>
        </g>
        <g id="U" transform="translate(4.989 0.127)">
          <path id="Path_1" data-name="Path 1" d="M792.473,440.773s-.034,3.614,0,4.238a1.842,1.842,0,0,0,2.09,1.941c1.825-.076,1.545-1.451,1.568-1.941.015-.326,0-3.395,0-3.395l-.617-.843Z" transform="translate(-792.458 -440.773)" fill="#dedbdb" stroke="#dedbdb" stroke-width="1"/>
          <path id="Path_2" data-name="Path 2" d="M797.084,444.626h-.739s.01,3.409,0,3.767.118,1.583,1.233,1.531,1.207-.964,1.217-1.531,0-3.767,0-3.767h-.76s-.01,2.831,0,3.536-.152.786-.456.8-.421-.56-.431-.8S797.084,444.626,797.084,444.626Z" transform="translate(-795.954 -444.341)" fill="#505050" stroke="#505050" stroke-width="0.5"/>
        </g>
        <g id="G">
          <path id="G_Shadow" data-name="G Shadow" d="M1458.742,375.015a2.107,2.107,0,0,0-.287-1.433,1.924,1.924,0,0,0-1.43-.717c-1.8-.269-2.5.626-2.491,1.755s-.013,1.033,0,1.614-.233,2.257,1.012,2.644,1.572-.152,1.572-.152l.3.326h1.415v-2.413l-.814-.954h-1.374s-.095-.674.165-.67.408,0,.408,0Z" transform="translate(-1454.522 -372.817)" fill="#dedbdb" stroke="#dedbdb" stroke-width="1"/>
          <path id="G-2" data-name="G" d="M1740.5,274.615s.129-1.218-1.387-1.225-1.761.993-1.768,1.319-.007,2.023,0,2.611.388,1.1,1.312,1.2a1.055,1.055,0,0,0,1.17-.665v.665h.646v-2.109h-1.305v.319h.6a.857.857,0,0,1-.742.951.748.748,0,0,1-.973-.786c-.014-.29-.02-1.527,0-2.058s.45-.8,1.11-.832a.6.6,0,0,1,.659.616Z" transform="translate(-1737.06 -272.932)" fill="#505050" stroke="#505050" stroke-width="0.5"/>
        </g>
      </g>
    </g>
  </g>
</svg>
