<svg xmlns="http://www.w3.org/2000/svg" width="12.138" height="24.627" viewBox="0 0 56.138 43.627">
  <g id="Discord" transform="translate(-1012.203 -215.417)">
    <path id="Path_5" data-name="Path 5" d="M5010.612,255.816c.2.9-.345,1.564-1.747,3.006-.785.808-5.927-.685-10.6-3.006-3.186-1.582-5.757-3.968-5.936-5.015-.406-2.379.14-7.148,1.855-15.32,1.268-6.045,3.846-12.782,5.638-14.477,4.028-3.809,12.254-6.036,12.879-5.4s.781,1.359.313,1.484a26.383,26.383,0,0,0-5.064,1.753c-2.864,1.333-6.786,4.55-6.5,4.773s1.563-.833,2.924-1.584a34.491,34.491,0,0,1,15.418-3.859,37.631,37.631,0,0,1,14.584,2.9c2.057.909,3.18,2.163,3.92,2.052.467,0-1.68-2.269-5.078-3.941a38.164,38.164,0,0,0-5.545-2.052c-1.057-.345.305-1.219.955-1.686s10.9,3.427,12.643,6.41,3.849,7.292,5.415,15.7,2.083,11.99,1.276,13.575-2.846,3.172-6.663,5.178a28.7,28.7,0,0,1-8.35,2.682c-1.819.24-2.537-1.367-3.086-2.946-.264-.758,2.719-1.153,5.084-2.848s5.723-4.5,5.348-4.748c-.721-.485-6.694,6.733-20.562,6.389s-19.158-6.877-19.422-6.389a29.193,29.193,0,0,0,4.6,4.213A33.49,33.49,0,0,0,5010.612,255.816Z" transform="translate(-3980)" fill="#a7a7a7"/>
    <path id="Path_6" data-name="Path 6" d="M5007.137,239.713c.137-3.948,2.772-5.767,4.9-5.767s4.949,1.957,4.949,5.939-2.818,5.973-4.949,5.973S5007,243.661,5007.137,239.713Z" transform="translate(-3980)" fill="#fff"/>
    <path id="Path_7" data-name="Path 7" d="M5007.137,239.713c.137-3.948,2.772-5.767,4.9-5.767s4.949,1.957,4.949,5.939-2.818,5.973-4.949,5.973S5007,243.661,5007.137,239.713Z" transform="translate(-3963.532)" fill="#fff"/>
  </g>
</svg>
