<svg xmlns="http://www.w3.org/2000/svg" width="49.594" height="40.775" viewBox="0 0 49.594 40.775">
  <path id="TW" d="M1479.789,60.7a31.543,31.543,0,0,1-10.965-2.826,62.154,62.154,0,0,1-11.6-7.711,32.121,32.121,0,0,0,1.308,7.951,26.169,26.169,0,0,0,3.5,6.71l-6.758-2.453a27.282,27.282,0,0,0,4.467,6.262,12.732,12.732,0,0,0,4.2,2.932l-4.2.9a13.543,13.543,0,0,0,3.657,4.864,17.128,17.128,0,0,0,5.964,2.617l-14.088,4.467s17.07,9.656,32.183-.646,11.97-25.065,11.97-25.065l5.44-5.328-4.554.271,4.554-4.967L1497.22,51.1s-2.711-4.812-10.572-2.914S1479.789,60.7,1479.789,60.7Z" transform="translate(-1455.278 -47.743)" fill="#a7a7a7"/>
</svg>
