<svg xmlns="http://www.w3.org/2000/svg" width="26.383" height="26.001" viewBox="0 0 26.383 26.001">
  <path id="Github" d="M4952.315,228.717s.32,2.2-.235,2.913-9.451-2.732-9.812-11.6a13.4,13.4,0,0,1,12.824-14.209c5.974,0,13.361,3.924,13.542,12.976s-7.314,12.279-8.967,12.955-.775-3.756-.857-5.225-.735-1.51-.735-1.51,4.715-.388,5.674-4.45-1.191-4.738-1.024-5.7.232-3.235-.18-3.573-3.069.7-3.3,1.294-1.975-.356-3.694-.356-3.371,1.041-3.507.45-2.864-1.59-3.3-1.388-.54,3-.225,3.573-2.314,1.752-1.114,5.859,5.521,4.188,5.521,4.188a4.841,4.841,0,0,1-.651,1.744,2.164,2.164,0,0,1-2.319.277c-1.1-.392-.967-1.53-2.053-2.142s-2.1-.621-2.187-.333.546.449,1.465,1.309.555,1.842,1.665,2.585S4952.315,228.717,4952.315,228.717Z" transform="translate(-4942.254 -205.818)" fill="#a7a7a7"/>
</svg>
