<svg xmlns="http://www.w3.org/2000/svg" width="29.489" height="24.246" viewBox="0 0 29.489 24.246">
  <path id="TW" d="M1469.852,55.449a18.756,18.756,0,0,1-6.52-1.68,36.959,36.959,0,0,1-6.9-4.585,19.107,19.107,0,0,0,.778,4.727,15.559,15.559,0,0,0,2.083,3.99l-4.018-1.459a16.219,16.219,0,0,0,2.656,3.723,7.57,7.57,0,0,0,2.5,1.743l-2.5.533a8.052,8.052,0,0,0,2.174,2.892,10.186,10.186,0,0,0,3.546,1.556l-8.377,2.656s10.15,5.741,19.136-.384,7.118-14.9,7.118-14.9l3.235-3.168-2.708.161,2.708-2.953-4.55,1.441s-1.612-2.861-6.286-1.733S1469.852,55.449,1469.852,55.449Z" transform="translate(-1455.278 -47.743)" fill="#a7a7a7"/>
</svg>
