<svg xmlns="http://www.w3.org/2000/svg" width="27" height="27" viewBox="0 0 27 27">
  <g id="Gummi_Bear" data-name="Gummi Bear" transform="translate(-0.353 0.084)">
    <circle id="Ellipse_3" data-name="Ellipse 3" cx="13.5" cy="13.5" r="13.5" transform="translate(0.353 -0.084)" fill="#a7a7a7"/>
    <path id="Path_11" data-name="Path 11" d="M4807.141,789.676a9.53,9.53,0,0,1-2.828,0c-.984-.137-1.75-1.473-3.219-.488s-.125,2.938-.125,2.938a3.5,3.5,0,0,0,0,1.938,3.009,3.009,0,0,0,1.083,1.452s-2.255,1.22-2.4,3.314a3.677,3.677,0,0,0,1.337,3.152,24.4,24.4,0,0,0-.743,2.754c-.2,1.141-.625,4.938,1.359,5.7s2.911-1.343,3.674-1.617a3.139,3.139,0,0,1,2.267,0c.575.289,1.5,2.211,3.09,1.336s1.323-2.669,1.261-4.872a4.818,4.818,0,0,0-1.261-3.3,5.3,5.3,0,0,0,.97-3.152c-.189-1.53-1.954-3.314-1.954-3.314a2.179,2.179,0,0,0,.984-1.452,2.709,2.709,0,0,0-.257-1.734,2.058,2.058,0,0,0,0-2.976C4808.876,787.922,4808.063,789.531,4807.141,789.676Z" transform="translate(-4791.647 -786.084)" fill="#fff"/>
  </g>
</svg>
