<svg xmlns="http://www.w3.org/2000/svg" width="33.38" height="25.941" viewBox="0 0 33.38 25.941">
  <g id="Discord" transform="translate(0 0)">
    <path id="Path_5" data-name="Path 5" d="M5003.149,239.438c.117.535-.206.93-1.039,1.788-.466.48-3.524-.407-6.3-1.788-1.894-.94-3.423-2.359-3.529-2.982-.242-1.414.083-4.25,1.1-9.11.754-3.594,2.287-7.6,3.352-8.608,2.4-2.265,7.287-3.589,7.658-3.208s.464.808.186.883a15.686,15.686,0,0,0-3.012,1.043c-1.7.793-4.035,2.705-3.865,2.838s.929-.5,1.738-.942a20.512,20.512,0,0,1,9.168-2.295,22.377,22.377,0,0,1,8.672,1.727c1.223.541,1.891,1.286,2.331,1.22.278,0-1-1.349-3.019-2.343a22.717,22.717,0,0,0-3.3-1.22c-.628-.205.182-.725.568-1s6.482,2.037,7.518,3.812a27,27,0,0,1,3.22,9.338c.932,5,1.239,7.129.759,8.072s-1.692,1.886-3.962,3.079a17.063,17.063,0,0,1-4.965,1.595c-1.082.143-1.508-.813-1.835-1.752-.157-.451,1.617-.685,3.023-1.694s3.4-2.674,3.18-2.823c-.429-.288-3.98,4-12.227,3.8s-11.391-4.089-11.548-3.8a17.372,17.372,0,0,0,2.737,2.505A19.922,19.922,0,0,0,5003.149,239.438Z" transform="translate(-4992.203 -215.417)" fill="#a7a7a7"/>
    <path id="Path_6" data-name="Path 6" d="M5007.135,237.375c.082-2.347,1.648-3.429,2.915-3.429a3.6,3.6,0,0,1,0,7.083A3.312,3.312,0,0,1,5007.135,237.375Z" transform="translate(-4998.255 -222.928)" fill="#fff"/>
    <path id="Path_7" data-name="Path 7" d="M5007.135,237.375c.082-2.347,1.648-3.429,2.915-3.429a3.6,3.6,0,0,1,0,7.083A3.312,3.312,0,0,1,5007.135,237.375Z" transform="translate(-4988.463 -222.928)" fill="#fff"/>
  </g>
</svg>
