<svg xmlns="http://www.w3.org/2000/svg" width="44.369" height="43.727" viewBox="0 0 44.369 43.727">
  <path id="Github" d="M4959.174,244.328s.538,3.705-.4,4.9-15.894-4.6-16.5-19.514,11.521-23.9,21.568-23.9,22.469,6.6,22.774,21.822-12.3,20.65-15.081,21.788-1.3-6.316-1.442-8.788-1.235-2.54-1.235-2.54,7.929-.652,9.543-7.484-2-7.968-1.723-9.579.391-5.441-.3-6.009-5.161,1.183-5.558,2.176-3.32-.6-6.213-.6-5.669,1.75-5.9.757-4.816-2.674-5.55-2.334-.908,5.046-.378,6.009-3.892,2.947-1.874,9.854,9.285,7.043,9.285,7.043a8.132,8.132,0,0,1-1.095,2.933c-.671.69-2.043,1.126-3.9.467s-1.627-2.574-3.452-3.6-3.527-1.045-3.677-.56.918.755,2.463,2.2.933,3.1,2.8,4.348S4959.174,244.328,4959.174,244.328Z" transform="translate(-4942.254 -205.818)" fill="#a7a7a7"/>
</svg>
