<svg xmlns="http://www.w3.org/2000/svg" xmlns:xlink="http://www.w3.org/1999/xlink" width="32.864" height="35.303" viewBox="0 0 32.864 35.303">
  <defs>
    <clipPath id="clip-path">
      <rect id="Rectangle_3" data-name="Rectangle 3" width="0.925" height="0.495"/>
    </clipPath>
  </defs>
  <g id="MKH_ICON" data-name="MKH ICON" transform="translate(-513.287 -706.136)">
    <path id="mkh_outline" data-name="mkh outline" d="M515.7,706.636s.042,10.241,0,12.279-1.708.327-1.864,2.4.08,11.29,0,13.735,1.865,1.36,1.864,3.383,0,2.5,0,2.5h28.085s0-.485,0-2.5,1.956-.815,1.864-3.383.016-10.76,0-13.368-1.772-.408-1.864-2.771,0-12.279,0-12.279Z" transform="translate(0 0)" fill="#4e6454" stroke="#505050" stroke-width="1"/>
    <g id="Camera" transform="translate(517.263 706.636)">
      <path id="mkh_camera" data-name="mkh camera" d="M528.819,706.636v5.556h3.5v-5.556Z" transform="translate(-528.819 -706.636)" fill="none" stroke="#505050" stroke-width="1"/>
      <path id="Path_8" data-name="Path 8" d="M528.819,714.562h3.491" transform="translate(-528.819 -712.595)" fill="none" stroke="#505050" stroke-width="1"/>
      <g id="Ellipse_1" data-name="Ellipse 1" transform="translate(0.933 2.73)" fill="#505050" stroke="#505050" stroke-width="1">
        <ellipse cx="0.787" cy="0.844" rx="0.787" ry="0.844" stroke="none"/>
        <ellipse cx="0.787" cy="0.844" rx="0.287" ry="0.344" fill="none"/>
      </g>
    </g>
    <g id="Bill_Acceptor" data-name="Bill Acceptor" transform="translate(522.341 706.636)">
      <path id="Path_9" data-name="Path 9" d="M550.994,706.636v10.211H565.7V706.636Z" transform="translate(-550.994 -706.636)" fill="none" stroke="#505050" stroke-width="1"/>
      <g id="Rectangle_4" data-name="Rectangle 4" transform="translate(0.439 0.621)" fill="none" stroke="#505050" stroke-width="0.5">
        <rect width="13.913" height="6.749" stroke="none"/>
        <rect x="0.25" y="0.25" width="13.413" height="6.249" fill="none"/>
      </g>
      <g id="Rectangle_5" data-name="Rectangle 5" transform="translate(1.158 1.326)" fill="none" stroke="#505050" stroke-width="0.5">
        <rect width="12.407" height="5.219" stroke="none"/>
        <rect x="0.25" y="0.25" width="11.907" height="4.719" fill="none"/>
      </g>
      <path id="Path_10" data-name="Path 10" d="M552.3,709.088l.715.654" transform="translate(-551.601 -708.191)" fill="none" stroke="#505050" stroke-width="0.5"/>
      <path id="Path_11" data-name="Path 11" d="M552.55,733.36l.7-.817" transform="translate(-551.839 -726.203)" fill="none" stroke="#505050" stroke-width="0.5"/>
      <path id="Path_12" data-name="Path 12" d="M610.409,733.4l-.715-.807" transform="translate(-596.348 -726.28)" fill="none" stroke="#505050" stroke-width="0.5"/>
      <path id="Path_13" data-name="Path 13" d="M610.464,709.364l-.81.695" transform="translate(-596.289 -708.488)" fill="none" stroke="#505050" stroke-width="0.5"/>
      <g id="Rectangle_6" data-name="Rectangle 6" transform="translate(2.546 2.308)" fill="#505050" stroke="#505050" stroke-width="1">
        <rect width="9.839" height="3.375" rx="1.687" stroke="none"/>
        <rect x="0.5" y="0.5" width="8.839" height="2.375" rx="1.187" fill="none"/>
      </g>
    </g>
    <line id="Line_3" data-name="Line 3" x2="30.797" transform="translate(514.411 736.632)" fill="none" stroke="#505050" stroke-linecap="round" stroke-width="1"/>
    <g id="Screen" transform="translate(516.181 719.537)">
      <path id="Path_14" data-name="Path 14" d="M524.164,774.466s-.038-12.189,0-13.41.038-2.353,1.63-2.333c1.292.015,22.346-.167,23.887-.074s1.55,1.292,1.54,1.911c-.046,3.277-.057,13.906-.057,13.906Z" transform="translate(-524.147 -758.623)" fill="none" stroke="#505050" stroke-width="1"/>
      <g id="Rectangle_7" data-name="Rectangle 7" transform="translate(2.409 1.217)" fill="#505050" stroke="#505050" stroke-width="1">
        <rect width="22.432" height="13.497" rx="6" stroke="none"/>
        <rect x="0.5" y="0.5" width="21.432" height="12.497" rx="5.5" fill="none"/>
      </g>
    </g>
    <g id="Screen_logo" data-name="Screen logo" transform="translate(522.393 723.629)">
      <g id="MKH_logo" data-name="MKH logo" transform="translate(2.912 0)">
        <path id="Path_5" data-name="Path 5" d="M826.089,378.958c-.013-.042,0-2.256,0-2.256l.915,1.121,1.019-1.121v2.256Z" transform="translate(-826.083 -376.514)" fill="#dedbdb" stroke="#dedbdb" stroke-width="1"/>
        <path id="Path_6" data-name="Path 6" d="M845.033,376.7v2.441h1.586l-.821-1.259.622-.758V376.7Z" transform="translate(-842.002 -376.699)" fill="#dedbdb" stroke="#dedbdb" stroke-width="1"/>
        <g id="Rectangle_3-2" data-name="Rectangle 3" transform="translate(5.371 0.976)">
          <rect id="fill" width="0.925" height="0.495" fill="#dedbdb"/>
          <g id="Group_2" data-name="Group 2" clip-path="url(#clip-path)">
            <path id="Path_22" data-name="Path 22" d="M0,.169H.924M.62,0V.5m.3-.169H0M.3.5V0" fill="none" stroke="#dedbdb" stroke-width="1"/>
          </g>
        </g>
        <path id="Path_7" data-name="Path 7" d="M867.6,376.7v2.413h.384l.488-.88.488.88h.344V376.7h-.344l-.488.88-.488-.88Z" transform="translate(-860.209 -376.671)" fill="#dedbdb" stroke="#dedbdb" stroke-width="1"/>
      </g>
      <g id="GUMMI" transform="translate(0 3.543)">
        <g id="I" transform="translate(12.987 0.031)">
          <path id="I_Shadow" data-name="I Shadow" d="M859.248,373.047v3.741l.439.335h.817l-.014-3.554-.407-.523Z" transform="translate(-859.248 -373.046)" fill="#dedbdb" stroke="#dedbdb" stroke-width="1"/>
          <g id="I-2" data-name="I" transform="translate(0 0.171)">
            <path id="Path_23" data-name="Path 23" d="M.227,3.5H-.089L-.057.25H.261Z" transform="translate(0.243 -0.087)" fill="#505050"/>
            <path id="Path_24" data-name="Path 24" d="M0,.327-.033,3.25h.011L.008.327H0M-.306,0H.316L.279,3.577h-.62Z" transform="translate(0.341 0)" fill="#505050"/>
          </g>
        </g>
        <g id="M" transform="translate(5.701 0.066)">
          <path id="Path_3" data-name="Path 3" d="M576.04,314.437v3.726l.435.286h.711v-1.143l.317.248.309-.248.026.857.384.286h1.051v-3.464l-.371-.547h-.814l-.417.679-.387-.679Z" transform="translate(-576.04 -314.437)" fill="#dedbdb" stroke="#dedbdb" stroke-width="1"/>
          <path id="Path_4" data-name="Path 4" d="M578.72,317.847v3.4h.51v-2.391l.773,1.334.8-1.334v2.391h.458v-3.4h-.52l-.732,1.384-.773-1.384Z" transform="translate(-578.558 -317.623)" fill="#505050" stroke="#505050" stroke-width="0.5"/>
        </g>
        <g id="M-2" data-name="M" transform="translate(9.345 0.114)">
          <path id="Path_3-2" data-name="Path 3" d="M576.04,314.437v3.726l.435.286h.711v-1.143l.317.248.309-.248.026.857.384.286h1.051v-3.464l-.371-.547h-.814l-.417.679-.387-.679Z" transform="translate(-576.04 -314.437)" fill="#dedbdb" stroke="#dedbdb" stroke-width="1"/>
          <path id="Path_4-2" data-name="Path 4" d="M578.72,317.847v3.4h.51v-2.391l.773,1.334.8-1.334v2.391h.454v-3.4h-.516l-.732,1.384-.773-1.384Z" transform="translate(-578.558 -317.623)" fill="#505050" stroke="#505050" stroke-width="0.54"/>
        </g>
        <g id="U" transform="translate(3.044 0.083)">
          <path id="Path_1" data-name="Path 1" d="M792.467,440.773s-.021,2.362,0,2.77a1.25,1.25,0,0,0,.357.958,1.075,1.075,0,0,0,.918.31c1.113-.05.942-.948.956-1.269.009-.213,0-2.219,0-2.219l-.376-.551Z" transform="translate(-792.458 -440.773)" fill="#dedbdb" stroke="#dedbdb" stroke-width="1"/>
          <path id="Path_2" data-name="Path 2" d="M796.8,444.626h-.451s.006,2.228,0,2.462.072,1.035.752,1,.736-.63.742-1,0-2.462,0-2.462h-.464s-.006,1.85,0,2.311-.093.514-.278.523-.257-.366-.263-.523S796.8,444.626,796.8,444.626Z" transform="translate(-796.106 -444.44)" fill="#505050" stroke="#505050" stroke-width="0.5"/>
        </g>
        <g id="G" transform="translate(0 0)">
          <path id="G_Shadow" data-name="G Shadow" d="M1457.094,374.254a1.458,1.458,0,0,0-.175-.937,1.148,1.148,0,0,0-.872-.469c-1.1-.176-1.525.409-1.519,1.147s-.008.675,0,1.055-.142,1.475.617,1.728.959-.1.959-.1l.183.213h.863v-1.577l-.5-.624h-.838s-.058-.441.1-.438.249,0,.249,0Z" transform="translate(-1454.52 -372.817)" fill="#dedbdb" stroke="#dedbdb" stroke-width="1"/>
          <path id="G-2" data-name="G" d="M1739.267,274.191a.743.743,0,0,0-.846-.8c-.925,0-1.074.649-1.078.862s0,1.322,0,1.707a.785.785,0,0,0,.8.784.638.638,0,0,0,.713-.435v.435h.394v-1.379h-.8v.208h.366a.553.553,0,0,1-.452.622.433.433,0,0,1-.426-.085.506.506,0,0,1-.167-.429c-.009-.19-.012-1,0-1.345s.274-.523.677-.544a.351.351,0,0,1,.286.1.407.407,0,0,1,.116.3Z" transform="translate(-1737.168 -273.091)" fill="#505050" stroke="#505050" stroke-width="0.5"/>
        </g>
      </g>
    </g>
  </g>
</svg>

