<svg xmlns="http://www.w3.org/2000/svg" width="318.323" height="242.222" viewBox="0 0 318.323 242.222">
  <g id="Media_Graphic" data-name="Media Graphic" transform="translate(-178.164 -396.617)">
    <g id="Beetle_Wing_Fonebox_twitter_video" data-name="Beetle Wing Fonebox twitter video" transform="translate(178.539 440.951)">
      <g id="Black_Beetle" data-name="Black Beetle" transform="translate(142.286 0)">
        <path id="Path_7" data-name="Path 7" d="M23.533,54.921h3.788l2.993,3.238H32.73L35.5,54.921h4.155s1.979,7.222,0,11.955-7.917,6.384-7.917,6.384H30.315s-6.04-1.651-7.714-6.384S23.533,54.921,23.533,54.921Z" transform="translate(-14.287 -23.448)" fill="#637a69" stroke="#637a69" stroke-width="1.5"/>
        <path id="Path_10" data-name="Path 10" d="M37.222,57.5" transform="translate(-10.976 -22.877)" fill="none" stroke="#637a69" stroke-width="1"/>
        <path id="Path_25" data-name="Path 25" d="M0,5" transform="translate(0 42.244)" fill="none" stroke="#637a69" stroke-width="1.5"/>
        <path id="Path_23" data-name="Path 23" d="M7.781,20.251a20.87,20.87,0,0,0,9.337,2.626,22.866,22.866,0,0,0,9.8-2.56" transform="translate(-0.335 18.186)" fill="none" stroke="#1c1b1b" stroke-linecap="round" stroke-width="1"/>
        <path id="Path_24" data-name="Path 24" d="M15.637,22.114l-.074,9.021" transform="translate(1.109 18.95)" fill="none" stroke="#1c1b1b" stroke-linecap="round" stroke-width="1"/>
        <path id="Path_26" data-name="Path 26" d="M9.723,15.33s.695-4.574,2.842-6.182,6.778-1.723,9.343,0,3.2,6.182,3.2,6.182H19.4l-2.222,2.7-2.45-2.7Z" transform="translate(0.026 13.134)" fill="#637a69" stroke="#637a69" stroke-linejoin="round" stroke-width="1.5"/>
        <g id="Right_Legs" data-name="Right Legs" transform="translate(21.466 34.663)">
          <path id="Path_111" data-name="Path 111" d="M-51.856,60.721c.13,0,4.439-.124,5.414.8s-1.1,9.308-1.82,10.621-4.233,7.406-4.972,7.879,3.185-6.914,2.957-7.261-3.461,1.979-3.087.888,4.042-3.893,4.465-4.9,1.18-4.511.465-5.322-4.393-2.259-4.393-2.259Z" transform="translate(53.393 -47.83)" fill="#637a69" stroke="#637a69" stroke-width="1"/>
          <path id="Path_112" data-name="Path 112" d="M-49.558,52.095s2.6-1,2.957-.232-.317,10.419-.52,10.776-.39-8.536-.585-9.54S-49.558,52.095-49.558,52.095Z" transform="translate(54.105 -51.571)" fill="#637a69" stroke="#637a69" stroke-width="1"/>
        </g>
        <g id="Left_Legs" data-name="Left Legs" transform="translate(3.559 34.205)">
          <path id="Path_111-2" data-name="Path 111" d="M-47.724,60.721c-.13,0-4.439-.124-5.414.8s1.1,9.308,1.82,10.621,4.233,7.406,4.972,7.879-3.185-6.914-2.957-7.261,3.461,1.979,3.087.888-4.042-3.893-4.465-4.9-1.18-4.511-.465-5.322,4.393-2.259,4.393-2.259Z" transform="translate(53.393 -47.83)" fill="#637a69" stroke="#637a69" stroke-width="1"/>
          <path id="Path_112-2" data-name="Path 112" d="M-46.5,52.095s-2.6-1-2.957-.232.317,10.419.52,10.776.39-8.536.585-9.54S-46.5,52.095-46.5,52.095Z" transform="translate(50.344 -51.571)" fill="#637a69" stroke="#637a69" stroke-width="1"/>
        </g>
        <path id="Path_113" data-name="Path 113" d="M-53.356,50.657s5.426.933,6.211,0,1.642-7.892,1.214-9.249-3.259-3.259-3.24-3.6,2.58.032,2.669-.981-3.553-10.081-3.249-9.849,4.821,5.214,5.492,9.64.188,14.974-1.394,16.318-5.632,1.031-5.847.692S-53.356,50.657-53.356,50.657Z" transform="translate(74.866 -26.972)" fill="#637a69" stroke="#637a69" stroke-width="1"/>
        <path id="Path_114" data-name="Path 114" d="M-43.965,50.657s-5.426.933-6.211,0-1.642-7.892-1.214-9.249,3.259-3.259,3.24-3.6-2.58.032-2.669-.981,3.553-10.081,3.249-9.849-4.821,5.214-5.492,9.64-.188,14.974,1.394,16.318,5.632,1.031,5.847.692S-43.965,50.657-43.965,50.657Z" transform="translate(54.967 -26.972)" fill="#637a69" stroke="#637a69" stroke-width="1"/>
      </g>
      <g id="Right_Bottom_Wing" data-name="Right Bottom Wing" transform="translate(172.647 17.755)">
        <path id="Path_93" data-name="Path 93" d="M-45.8,64.684c-.485-.206-.538,5.188-.538,5.188s3.885,3.38,4.409,3.277-1.184-.927-2.314-3.688S-45.315,64.89-45.8,64.684Z" transform="translate(46.338 -29.302)" fill="#4e6454" stroke="#4e6454" stroke-width="0.75"/>
        <path id="Path_94" data-name="Path 94" d="M-43.694,64.952s2.769-.3,3.634.183.784,1.749,1.777,3.812,2.679,4.648,2.2,4.439A6.893,6.893,0,0,1-40.56,71.26C-42.462,69.151-43.694,64.952-43.694,64.952Z" transform="translate(46.829 -29.227)" fill="#4e6454" stroke="#4e6454" stroke-width="0.75"/>
        <path id="Path_95" data-name="Path 95" d="M-37.937,65.078s2.73-.443,3.615.426.931,2.708,2.327,5.074,2.567,4.039,2.154,3.908-2.027.049-4.326-2.423S-37.937,65.078-37.937,65.078Z" transform="translate(47.897 -29.184)" fill="#4e6454" stroke="#4e6454" stroke-width="0.75"/>
        <path id="Path_96" data-name="Path 96" d="M-32.947,65.226a10.7,10.7,0,0,1,3.411.444c.819.467,1.3,2.758,2.861,5.248s3.444,4.945,3.119,4.876a18.333,18.333,0,0,1-5.865-4.182A18.354,18.354,0,0,1-32.947,65.226Z" transform="translate(48.822 -29.077)" fill="#4e6454" stroke="#4e6454" stroke-width="0.75"/>
        <path id="Path_97" data-name="Path 97" d="M-28.075,65.152s2.807.023,3.73.731.824,2.66,2.42,5.22,4.219,5.08,3.964,5.021a10.577,10.577,0,0,1-5.769-3.247C-26.259,70.134-28.075,65.152-28.075,65.152Z" transform="translate(49.726 -29.108)" fill="#4e6454" stroke="#4e6454" stroke-width="0.75"/>
        <path id="Path_98" data-name="Path 98" d="M-22.674,65.533a8.666,8.666,0,0,1,3.576.434c1.111.613,1,2.79,2.7,5.609s5.095,5.43,4.549,5.33a8.831,8.831,0,0,1-6.271-2.78C-20.961,71.229-22.674,65.533-22.674,65.533Z" transform="translate(50.728 -28.962)" fill="#4e6454" stroke="#4e6454" stroke-width="0.75"/>
        <path id="Path_99" data-name="Path 99" d="M-17.176,66s3.214-.2,4.212.549S-12.1,68.9-10.4,71.808s4.628,6.214,4.257,6.1a18.814,18.814,0,0,1-6.824-4.435A20.4,20.4,0,0,1-17.176,66Z" transform="translate(51.748 -28.769)" fill="#4e6454" stroke="#4e6454" stroke-width="0.75"/>
        <path id="Path_100" data-name="Path 100" d="M-11.662,66.48s2.782-.537,3.98.366.974,2.612,2.761,5.518S.045,78.124-.4,78a9.421,9.421,0,0,1-5.97-2.975C-9.3,72.121-11.662,66.48-11.662,66.48Z" transform="translate(52.771 -28.63)" fill="#4e6454" stroke="#4e6454" stroke-width="0.75"/>
        <path id="Path_101" data-name="Path 101" d="M-6.524,65.993s3.122-.274,4.2.415S-1.268,68.7,1.048,71.9,6.58,78.523,6.21,78.566s-3.619.12-7-3.085S-6.524,65.993-6.524,65.993Z" transform="translate(53.724 -28.786)" fill="#4e6454" stroke="#4e6454" stroke-width="0.75"/>
        <path id="Path_102" data-name="Path 102" d="M-.822,65.825s3.445-.734,4.777,0S6.375,69.7,9.219,72.97,15.7,79.1,15.035,78.957a16.732,16.732,0,0,1-9.066-3.322C1.818,72.42-.822,65.825-.822,65.825Z" transform="translate(54.782 -28.966)" fill="#4e6454" stroke="#4e6454" stroke-width="0.75"/>
        <path id="Path_103" data-name="Path 103" d="M5.7,65.255s2.665-.966,4.062-.5,3.542,2.916,7.7,6.759,8.616,7.253,8.091,7.3A16.39,16.39,0,0,1,14.6,75.935C9.328,72.314,5.7,65.255,5.7,65.255Z" transform="translate(55.992 -29.323)" fill="#4e6454" stroke="#4e6454" stroke-width="0.75"/>
        <path id="Path_104" data-name="Path 104" d="M12.2,64.726s3.029-2,4.465-1.448,8.461,6.981,13.115,10.139,8.036,3.633,7.213,3.94-3.627,3.157-9.809,0S12.2,64.726,12.2,64.726Z" transform="translate(57.197 -29.914)" fill="#4e6454" stroke="#4e6454" stroke-width="0.75"/>
        <path id="Path_105" data-name="Path 105" d="M17,62.564s2.535-1.958,4.351-1.657S32.935,67.642,39.38,71.055s9.47,3.647,8.92,3.86-3.482,3.742-11.248.667S17,62.564,17,62.564Z" transform="translate(58.088 -30.857)" fill="#4e6454" stroke="#4e6454" stroke-width="0.75"/>
        <path id="Path_106" data-name="Path 106" d="M21.508,60.125s1.866-1.987,3.809-1.886,7.606,1.695,11.745,3.584c4.929,2.25,7.227,4.009,12.327,5.848,8.777,3.164,11.828,1.759,11.428,2.138s-3.727,5.238-13.544,2.578c-4.673-1.266-9.344-4.421-15.229-7.538A85.288,85.288,0,0,0,21.508,60.125Z" transform="translate(58.925 -31.938)" fill="#4e6454" stroke="#4e6454" stroke-width="0.75"/>
        <path id="Path_107" data-name="Path 107" d="M25.157,56.921s1.267-1.958,3.126-2.008a71.794,71.794,0,0,1,15.35,2.008c7.184,1.692,6.331,2.744,13.7,4.439S69.98,62.806,69.5,63.309s-4.712,4.726-12.909,4.024-11.076-4.6-19.363-7.043S25.157,56.921,25.157,56.921Z" transform="translate(59.601 -33.298)" fill="#4e6454" stroke="#4e6454" stroke-width="0.75"/>
        <path id="Path_108" data-name="Path 108" d="M27.9,54.274s.972-3.3,3.253-3.615S42.394,51,47.886,52s7.928,2.517,15.924,3.207S77.447,53.3,77.089,53.825a13.051,13.051,0,0,1-12.38,7.043c-8.871-.3-11.67-3.55-22.009-5.345S27.9,54.274,27.9,54.274Z" transform="translate(60.11 -35.07)" fill="#4e6454" stroke="#4e6454" stroke-width="0.75"/>
        <path id="Path_109" data-name="Path 109" d="M30.157,50.23s1.686-2.767,3.5-3.068a121,121,0,0,1,18.676,0c9.432.571,9.99,1.305,17.747,1.567S81.191,46.76,80.9,47.162A23.209,23.209,0,0,1,66.786,53.82c-8.433.767-10.8-2.487-19.956-3.384A98.279,98.279,0,0,0,30.157,50.23Z" transform="translate(60.529 -36.604)" fill="#4e6454" stroke="#4e6454" stroke-width="0.75"/>
        <path id="Path_110" data-name="Path 110" d="M32.7,47.519s.749-2.566,2.332-3.3,5.8-1.726,14.321-1.607,10.011,1.328,19.094,0,15.789-3.46,15.461-2.962a14.569,14.569,0,0,1-9.251,8.586c-7.3,2.48-13.59-.251-22.558-.713S32.7,47.519,32.7,47.519Z" transform="translate(61.002 -39.572)" fill="#4e6454" stroke="#4e6454" stroke-width="0.75"/>
      </g>
      <g id="Right_Middle_wings" data-name="Right Middle wings" transform="translate(172.695 22.284)">
        <path id="Path_81" data-name="Path 81" d="M-45.7,55.581c-.625.2-.593,6.341-.593,6.341a11.13,11.13,0,0,0,2.2,3.479c1.366,1.3,3.112,2.048,3.26,1.739s-1.746-3.154-2.964-6.011S-45.079,55.383-45.7,55.581Z" transform="translate(46.297 -37.556)" fill="none" stroke="#4e6454" stroke-width="1"/>
        <path id="Path_82" data-name="Path 82" d="M-44.266,55.5s3.168-.484,3.927.528.834,2.378,2.075,5.2,3.39,5.636,3.019,5.945-2.769-1.123-4.964-3.985A37.826,37.826,0,0,1-44.266,55.5Z" transform="translate(46.674 -37.631)" fill="none" stroke="#4e6454" stroke-width="1"/>
        <path id="Path_83" data-name="Path 83" d="M-38.875,55.683s2.873-.309,3.67.2,1.059,2.226,2.351,5.131,5.248,7.062,3.39,6.231a13.581,13.581,0,0,1-5.922-4.661A25.221,25.221,0,0,1-38.875,55.683Z" transform="translate(47.674 -37.548)" fill="none" stroke="#4e6454" stroke-width="1"/>
        <path id="Path_84" data-name="Path 84" d="M-33.547,55.327s3.119-.26,3.962.427.981,2.679,2.288,5.639,5.216,6.546,3.656,6.039a9.054,9.054,0,0,1-5.776-3.778A37.758,37.758,0,0,1-33.547,55.327Z" transform="translate(48.662 -37.676)" fill="none" stroke="#4e6454" stroke-width="1"/>
        <path id="Path_85" data-name="Path 85" d="M-28.375,55.474s2.61-.395,3.8.658,2.429,4.557,4.31,7.442,3.895,4.514,3.334,4.67-3.627-.79-6.489-3.983S-28.375,55.474-28.375,55.474Z" transform="translate(49.622 -37.625)" fill="none" stroke="#4e6454" stroke-width="1"/>
        <path id="Path_86" data-name="Path 86" d="M-23.117,55.8s2.628-.715,3.638.143,3.031,5.164,5.611,8.415,5.417,4.637,4.709,4.588-3.538.279-7.069-3.1S-23.117,55.8-23.117,55.8Z" transform="translate(50.597 -37.577)" fill="none" stroke="#4e6454" stroke-width="1"/>
        <path id="Path_87" data-name="Path 87" d="M-18.2,55.089a6.839,6.839,0,0,1,4.265.487c.949.523,2.578,2.748,5.9,6.526S2.027,67.826.751,68.054s-6.768,1.66-10.836-2.376A69.08,69.08,0,0,1-18.2,55.089Z" transform="translate(51.509 -37.812)" fill="none" stroke="#4e6454" stroke-width="1"/>
        <path id="Path_88" data-name="Path 88" d="M-13.1,54.7s4.169-.438,5.046,0a28.276,28.276,0,0,1,9.182,6.254c3.988,4.16,10.129,5.317,8.992,5.988s-8.554,1.325-13.541-3.3S-13.1,54.7-13.1,54.7Z" transform="translate(52.455 -37.993)" fill="none" stroke="#4e6454" stroke-width="1"/>
        <path id="Path_89" data-name="Path 89" d="M-6.891,54.213s3.566-2.068,6.166-1.238a41.683,41.683,0,0,1,11.9,6.772c4.977,4.093,10.464,2.513,9.082,3.526s-7.486,4.1-13.747-1.182A49.8,49.8,0,0,0-6.891,54.213Z" transform="translate(53.608 -38.698)" fill="none" stroke="#4e6454" stroke-width="1"/>
        <path id="Path_90" data-name="Path 90" d="M-1.25,52.021s2.359-2.709,4.018-2.56A34.082,34.082,0,0,1,15.7,54.149c6.073,3.572,12.992,1.414,12.459,2.679s-2.323,5.911-9.611,4.465C14.6,60.51,10.6,56.8,6.055,54.447A30.184,30.184,0,0,0-1.25,52.021Z" transform="translate(54.654 -40.058)" fill="none" stroke="#4e6454" stroke-width="1"/>
        <path id="Path_91" data-name="Path 91" d="M2.547,48.644a9.632,9.632,0,0,1,2.46-2.2c1.156-.564,10.769,2.368,17.919,3.081s11.59-.513,10.536.566-2.84,4.956-10.536,4.755c-4-.1-7.329-2.422-12.567-4.2A54.119,54.119,0,0,0,2.547,48.644Z" transform="translate(55.358 -41.319)" fill="none" stroke="#4e6454" stroke-width="1"/>
        <path id="Path_92" data-name="Path 92" d="M4.5,45.972s1.629-2.99,3.549-3.168,9.854,1.073,17.6.887,11.623-.647,11.326-.163-2.06,4.948-9.744,5.372c-4.265.236-6.582-1.166-12.128-1.918C11.293,46.466,4.5,45.972,4.5,45.972Z" transform="translate(55.721 -42.786)" fill="none" stroke="#4e6454" stroke-linecap="round" stroke-width="1"/>
      </g>
      <g id="Right_Top_Wing" data-name="Right Top Wing" transform="translate(169.528 23.563)">
        <path id="Path_35" data-name="Path 35" d="M-42.852,50.419c-1.475.064-3.544,2.538-3.544,2.538l2.933,2.856,4.048-2.3S-41.377,50.355-42.852,50.419Z" transform="translate(49.446 -40.741)" fill="#4e6454"/>
        <path id="Path_36" data-name="Path 36" d="M-42.906,49.51s2.028-2.518,3.594-2.29,3.3,2.51,3.3,2.51L-39.683,53.3Z" transform="translate(50.093 -42.055)" fill="#4e6454"/>
        <path id="Path_37" data-name="Path 37" d="M-39.812,52.61s1.96-2.243,3.742-2.014S-32.465,53-32.465,53l-4.457,3.053Z" transform="translate(50.667 -40.675)" fill="#4e6454"/>
        <path id="Path_38" data-name="Path 38" d="M-32.532,52.408c.072-.057,1.787-2.426,3.434-2.279S-25.944,53-25.944,53L-29.1,55.98Z" transform="translate(52.018 -40.862)" fill="#4e6454"/>
        <path id="Path_39" data-name="Path 39" d="M-36.266,49.866s1.722-2.969,3.279-2.994,3.686,2.8,3.686,2.8l-3.575,3.17Z" transform="translate(51.325 -42.191)" fill="#4e6454"/>
        <path id="Path_40" data-name="Path 40" d="M-29.359,49.764s1.581-2.8,3.056-2.906,3.631,2.906,3.631,2.906l-3.26,3.369Z" transform="translate(52.607 -42.199)" fill="#4e6454"/>
        <path id="Path_41" data-name="Path 41" d="M-25.775,52.936s2.039-2.831,3.442-2.681,3.154,2.977,3.154,2.977l-3.4,3.148Z" transform="translate(53.271 -40.81)" fill="#4e6454"/>
        <path id="Path_42" data-name="Path 42" d="M-19.109,53.2s1.321-3.068,2.951-3.068,3.569,3.068,3.569,3.068l-3.05,2.146Z" transform="translate(54.508 -40.86)" fill="#4e6454"/>
        <path id="Path_43" data-name="Path 43" d="M-12.865,52.806s1.438-3.117,2.785-3.09,3.031,2.433,3.031,2.433l-2.6,2.665Z" transform="translate(55.666 -41.028)" fill="#4e6454"/>
        <path id="Path_44" data-name="Path 44" d="M-6.807,52.054s1.179-2.485,2.275-2.742S-2,51.127-2,51.127l-2.535,2.008Z" transform="translate(56.79 -41.203)" fill="#4e6454"/>
        <path id="Path_45" data-name="Path 45" d="M-10.7,48.87s1.6-2.543,3.038-2.466,3.242,2.466,3.242,2.466L-7.85,51.538Z" transform="translate(56.068 -42.384)" fill="#4e6454"/>
        <path id="Path_46" data-name="Path 46" d="M-4.75,49.026s1.76-2.851,3.056-2.95,2.927,2.378,2.927,2.378L-1.694,51.3Z" transform="translate(57.172 -42.518)" fill="#4e6454"/>
        <path id="Path_47" data-name="Path 47" d="M-2.016,45.259a7.045,7.045,0,0,1,3-1.7c1.357-.16,2.945,1.189,2.945,1.189L1.207,48.077Z" transform="translate(57.79 -43.55)" fill="#4e6454"/>
        <path id="Path_48" data-name="Path 48" d="M-7.7,45.4s1.621-1.64,2.964-1.673,2.982,1.585,2.982,1.585l-2.89,3.258Z" transform="translate(56.624 -43.476)" fill="#4e6454"/>
        <path id="Path_49" data-name="Path 49" d="M-13.938,45.557s1.556-1.684,2.964-1.739,3.39,1.739,3.39,1.739l-3.2,3.236Z" transform="translate(55.467 -43.606)" fill="#4e6454"/>
        <path id="Path_50" data-name="Path 50" d="M-16.922,49.365s1.551-2.774,3.075-2.774,3.519,2.554,3.519,2.554l-3.371,2.84Z" transform="translate(54.914 -42.306)" fill="#4e6454"/>
        <path id="Path_51" data-name="Path 51" d="M-20.078,45.447s1.343-1.728,2.816-1.7,3.408,1.7,3.408,1.7l-2.927,3.126Z" transform="translate(54.254 -43.387)" fill="#4e6454"/>
        <path id="Path_52" data-name="Path 52" d="M-26.2,45.87s1.806-1.849,3.112-1.849,3,1.651,3,1.651l-2.741,3.3Z" transform="translate(53.192 -43.523)" fill="#4e6454"/>
        <path id="Path_53" data-name="Path 53" d="M-33,45.877s1.469-1.717,3.13-1.717a7.17,7.17,0,0,1,3.594,1.585L-29.5,49.378Z" transform="translate(51.931 -43.53)" fill="#4e6454"/>
        <path id="Path_54" data-name="Path 54" d="M-22.875,49.6s1.63-2.482,3-2.51,3.26,2.224,3.26,2.224l-2.982,3.06Z" transform="translate(53.809 -42.102)" fill="#4e6454"/>
        <path id="Path_55" data-name="Path 55" d="M-39.615,46.106s1.76-1.893,3.149-1.893,3.5,1.7,3.5,1.7l-3.39,3.391Z" transform="translate(50.692 -43.451)" fill="#4e6454"/>
        <path id="Path_56" data-name="Path 56" d="M-46.016,46.3l3.242,3.479,3.5-3.479s-1.757-2-3.353-2S-46.016,46.3-46.016,46.3Z" transform="translate(49.517 -43.472)" fill="#4e6454"/>
        <path id="Path_57" data-name="Path 57" d="M-48.969,48.906s2-2.813,3.363-2.32,2.694,3.575,2.694,3.575l-3.7,2.686Z" transform="translate(48.969 -42.332)" fill="#4e6454"/>
      </g>
      <g id="Left_Bottom_Wing" data-name="Left Bottom Wing" transform="translate(0 16.884)">
        <path id="Path_93-2" data-name="Path 93" d="M-42.37,64.684c.485-.206.538,5.188.538,5.188s-3.885,3.38-4.409,3.277,1.184-.927,2.314-3.688S-42.854,64.89-42.37,64.684Z" transform="translate(186.757 -29.302)" fill="#4e6454" stroke="#4e6454" stroke-width="0.75"/>
        <path id="Path_94-2" data-name="Path 94" d="M-36,64.952s-2.769-.3-3.634.183-.784,1.749-1.777,3.812-2.679,4.648-2.2,4.439a6.893,6.893,0,0,0,4.472-2.126C-37.235,69.151-36,64.952-36,64.952Z" transform="translate(177.794 -29.227)" fill="#4e6454" stroke="#4e6454" stroke-width="0.75"/>
        <path id="Path_95-2" data-name="Path 95" d="M-29.758,65.078s-2.73-.443-3.615.426-.931,2.708-2.327,5.074-2.567,4.039-2.154,3.908,2.027.049,4.326-2.423S-29.758,65.078-29.758,65.078Z" transform="translate(164.723 -29.184)" fill="#4e6454" stroke="#4e6454" stroke-width="0.75"/>
        <path id="Path_96-2" data-name="Path 96" d="M-23.52,65.226a10.7,10.7,0,0,0-3.411.444c-.819.467-1.3,2.758-2.861,5.248s-3.444,4.945-3.119,4.876a18.333,18.333,0,0,0,5.865-4.182A18.354,18.354,0,0,0-23.52,65.226Z" transform="translate(152.571 -29.077)" fill="#4e6454" stroke="#4e6454" stroke-width="0.75"/>
        <path id="Path_97-2" data-name="Path 97" d="M-17.944,65.152s-2.807.023-3.73.731-.824,2.66-2.42,5.22-4.219,5.08-3.964,5.021a10.577,10.577,0,0,0,5.769-3.247C-19.76,70.134-17.944,65.152-17.944,65.152Z" transform="translate(141.219 -29.108)" fill="#4e6454" stroke="#4e6454" stroke-width="0.75"/>
        <path id="Path_98-2" data-name="Path 98" d="M-11.788,65.533a8.666,8.666,0,0,0-3.576.434c-1.111.613-1,2.79-2.7,5.609s-5.095,5.43-4.549,5.33a8.831,8.831,0,0,0,6.271-2.78C-13.5,71.229-11.788,65.533-11.788,65.533Z" transform="translate(128.66 -28.962)" fill="#4e6454" stroke="#4e6454" stroke-width="0.75"/>
        <path id="Path_99-2" data-name="Path 99" d="M-6.108,66s-3.214-.2-4.212.549-.861,2.351-2.567,5.257-4.628,6.214-4.257,6.1a18.814,18.814,0,0,0,6.824-4.435A20.4,20.4,0,0,0-6.108,66Z" transform="translate(116.461 -28.769)" fill="#4e6454" stroke="#4e6454" stroke-width="0.75"/>
        <path id="Path_100-2" data-name="Path 100" d="M-.361,66.48s-2.782-.537-3.98.366-.974,2.612-2.761,5.518S-12.067,78.124-11.619,78a9.421,9.421,0,0,0,5.97-2.975C-2.724,72.121-.361,66.48-.361,66.48Z" transform="translate(104.177 -28.63)" fill="#4e6454" stroke="#4e6454" stroke-width="0.75"/>
        <path id="Path_101-2" data-name="Path 101" d="M6.239,65.993s-3.122-.274-4.2.415S.983,68.7-1.333,71.9s-5.532,6.621-5.162,6.664,3.619.12,7-3.085S6.239,65.993,6.239,65.993Z" transform="translate(91.486 -28.786)" fill="#4e6454" stroke="#4e6454" stroke-width="0.75"/>
        <path id="Path_102-2" data-name="Path 102" d="M15.116,65.825s-3.445-.734-4.777,0S7.918,69.7,5.075,72.97-1.411,79.1-.742,78.957a16.732,16.732,0,0,0,9.066-3.322C12.476,72.42,15.116,65.825,15.116,65.825Z" transform="translate(75.85 -28.966)" fill="#4e6454" stroke="#4e6454" stroke-width="0.75"/>
        <path id="Path_103-2" data-name="Path 103" d="M25.6,65.255s-2.665-.966-4.062-.5-3.542,2.916-7.7,6.759-8.616,7.253-8.091,7.3A16.39,16.39,0,0,0,16.7,75.935C21.972,72.314,25.6,65.255,25.6,65.255Z" transform="translate(57.634 -29.323)" fill="#4e6454" stroke="#4e6454" stroke-width="0.75"/>
        <path id="Path_104-2" data-name="Path 104" d="M37.114,64.726s-3.029-2-4.465-1.448-8.461,6.981-13.115,10.139-8.036,3.633-7.213,3.94,3.627,3.157,9.809,0S37.114,64.726,37.114,64.726Z" transform="translate(38.417 -29.914)" fill="#4e6454" stroke="#4e6454" stroke-width="0.75"/>
        <path id="Path_105-2" data-name="Path 105" d="M48.364,62.564s-2.535-1.958-4.351-1.657S32.426,67.642,25.981,71.055s-9.47,3.647-8.92,3.86,3.482,3.742,11.248.667S48.364,62.564,48.364,62.564Z" transform="translate(21.477 -30.857)" fill="#4e6454" stroke="#4e6454" stroke-width="0.75"/>
        <path id="Path_106-2" data-name="Path 106" d="M60.851,60.125s-1.866-1.987-3.809-1.886S49.436,59.933,45.3,61.823c-4.929,2.25-7.227,4.009-12.327,5.848-8.777,3.164-11.828,1.759-11.428,2.138s3.727,5.238,13.544,2.578c4.673-1.266,9.344-4.421,15.229-7.538A85.288,85.288,0,0,1,60.851,60.125Z" transform="translate(3.642 -31.938)" fill="#4e6454" stroke="#4e6454" stroke-width="0.75"/>
        <path id="Path_107-2" data-name="Path 107" d="M69.534,56.921s-1.267-1.958-3.126-2.008a71.794,71.794,0,0,0-15.35,2.008c-7.184,1.692-6.331,2.744-13.7,4.439s-12.644,1.446-12.168,1.949S29.9,68.036,38.1,67.334s11.076-4.6,19.363-7.043S69.534,56.921,69.534,56.921Z" transform="translate(-9.367 -33.298)" fill="#4e6454" stroke="#4e6454" stroke-width="0.75"/>
        <path id="Path_108-2" data-name="Path 108" d="M77.105,54.274s-.972-3.3-3.253-3.615S62.613,51,57.121,52,49.193,54.518,41.2,55.208,27.56,53.3,27.917,53.825A13.051,13.051,0,0,0,40.3,60.868c8.871-.3,11.67-3.55,22.009-5.345S77.105,54.274,77.105,54.274Z" transform="translate(-20.191 -35.07)" fill="#4e6454" stroke="#4e6454" stroke-width="0.75"/>
        <path id="Path_109-2" data-name="Path 109" d="M80.917,50.23s-1.686-2.767-3.5-3.068a121,121,0,0,0-18.676,0c-9.432.571-9.99,1.305-17.747,1.567S29.883,46.76,30.174,47.162A23.21,23.21,0,0,0,44.288,53.82c8.433.767,10.8-2.487,19.956-3.384A98.279,98.279,0,0,1,80.917,50.23Z" transform="translate(-26.677 -36.604)" fill="#4e6454" stroke="#4e6454" stroke-width="0.75"/>
        <path id="Path_110-2" data-name="Path 110" d="M83.924,47.519s-.749-2.566-2.332-3.3-5.8-1.726-14.321-1.607-10.011,1.328-19.094,0-15.789-3.46-15.461-2.962a14.569,14.569,0,0,0,9.251,8.586c7.3,2.48,13.59-.251,22.558-.713S83.924,47.519,83.924,47.519Z" transform="translate(-32.704 -39.572)" fill="#4e6454" stroke="#4e6454" stroke-width="0.75"/>
      </g>
      <g id="Left_Middle_wings" data-name="Left Middle wings" transform="translate(52.162 21.412)">
        <path id="Path_81-2" data-name="Path 81" d="M-41.417,55.581c.625.2.593,6.341.593,6.341a11.13,11.13,0,0,1-2.2,3.479c-1.366,1.3-3.112,2.048-3.26,1.739s1.746-3.154,2.964-6.011S-42.042,55.383-41.417,55.581Z" transform="translate(133.539 -37.556)" fill="none" stroke="#4e6454" stroke-width="1"/>
        <path id="Path_82-2" data-name="Path 82" d="M-35.2,55.5s-3.168-.484-3.927.528-.834,2.378-2.075,5.2-3.39,5.636-3.019,5.945,2.769-1.123,4.964-3.985A37.825,37.825,0,0,0-35.2,55.5Z" transform="translate(125.509 -37.631)" fill="none" stroke="#4e6454" stroke-width="1"/>
        <path id="Path_83-2" data-name="Path 83" d="M-28.977,55.683s-2.873-.309-3.67.2S-33.705,58.106-35,61.011s-5.248,7.062-3.39,6.231a13.581,13.581,0,0,0,5.922-4.661A25.221,25.221,0,0,0-28.977,55.683Z" transform="translate(112.893 -37.548)" fill="none" stroke="#4e6454" stroke-width="1"/>
        <path id="Path_84-2" data-name="Path 84" d="M-23.279,55.327s-3.119-.26-3.962.427-.981,2.679-2.288,5.639-5.216,6.546-3.656,6.039a9.054,9.054,0,0,0,5.776-3.778A37.758,37.758,0,0,0-23.279,55.327Z" transform="translate(100.878 -37.676)" fill="none" stroke="#4e6454" stroke-width="1"/>
        <path id="Path_85-2" data-name="Path 85" d="M-16.832,55.474s-2.61-.395-3.8.658-2.429,4.557-4.31,7.442-3.895,4.514-3.334,4.67,3.627-.79,6.489-3.983S-16.832,55.474-16.832,55.474Z" transform="translate(88.3 -37.625)" fill="none" stroke="#4e6454" stroke-width="1"/>
        <path id="Path_86-2" data-name="Path 86" d="M-9.05,55.8s-2.628-.715-3.638.143-3.031,5.164-5.611,8.415-5.417,4.637-4.709,4.588,3.538.279,7.069-3.1S-9.05,55.8-9.05,55.8Z" transform="translate(74.284 -37.577)" fill="none" stroke="#4e6454" stroke-width="1"/>
        <path id="Path_87-2" data-name="Path 87" d="M.909,55.089a6.839,6.839,0,0,0-4.265.487c-.949.523-2.578,2.748-5.9,6.526s-10.066,5.724-8.789,5.953,6.768,1.66,10.836-2.376A69.08,69.08,0,0,0,.909,55.089Z" transform="translate(58.5 -37.812)" fill="none" stroke="#4e6454" stroke-width="1"/>
        <path id="Path_88-2" data-name="Path 88" d="M10.256,54.7s-4.169-.438-5.046,0a28.276,28.276,0,0,0-9.182,6.254c-3.988,4.16-10.129,5.317-8.992,5.988s8.554,1.325,13.541-3.3S10.256,54.7,10.256,54.7Z" transform="translate(43.105 -37.993)" fill="none" stroke="#4e6454" stroke-width="1"/>
        <path id="Path_89-2" data-name="Path 89" d="M20.47,54.213S16.9,52.145,14.3,52.975a41.682,41.682,0,0,0-11.9,6.772C-2.569,63.84-8.055,62.26-6.674,63.273s7.486,4.1,13.747-1.182A49.8,49.8,0,0,1,20.47,54.213Z" transform="translate(25.528 -38.698)" fill="none" stroke="#4e6454" stroke-width="1"/>
        <path id="Path_90-2" data-name="Path 90" d="M28.186,52.021s-2.359-2.709-4.018-2.56a34.082,34.082,0,0,0-12.929,4.688C5.166,57.721-1.753,55.563-1.221,56.828S1.1,62.739,8.39,61.293c3.943-.782,7.948-4.489,12.491-6.846A30.184,30.184,0,0,1,28.186,52.021Z" transform="translate(11.125 -40.058)" fill="none" stroke="#4e6454" stroke-width="1"/>
        <path id="Path_91-2" data-name="Path 91" d="M33.616,48.644a9.632,9.632,0,0,0-2.46-2.2C30,45.879,20.388,48.811,13.237,49.524S1.647,49.01,2.7,50.089s2.84,4.956,10.536,4.755c4-.1,7.329-2.422,12.567-4.2A54.119,54.119,0,0,1,33.616,48.644Z" transform="translate(1.194 -41.319)" fill="none" stroke="#4e6454" stroke-width="1"/>
        <path id="Path_92-2" data-name="Path 92" d="M36.994,45.972s-1.629-2.99-3.549-3.168-9.854,1.073-17.6.887-11.623-.647-11.326-.163,2.06,4.948,9.744,5.372c4.265.236,6.582-1.166,12.128-1.918C30.2,46.466,36.994,45.972,36.994,45.972Z" transform="translate(-4.5 -42.786)" fill="none" stroke="#4e6454" stroke-linecap="round" stroke-width="1"/>
      </g>
      <g id="Left_Top_Wing" data-name="Left Top Wing" transform="translate(86.324 22.691)">
        <path id="Path_35-2" data-name="Path 35" d="M-42.959,50.419c1.475.064,3.544,2.538,3.544,2.538l-2.933,2.856-4.048-2.3S-44.434,50.355-42.959,50.419Z" transform="translate(98.085 -40.741)" fill="#4e6454"/>
        <path id="Path_36-2" data-name="Path 36" d="M-36.015,49.51s-2.028-2.518-3.594-2.29-3.3,2.51-3.3,2.51l3.668,3.567Z" transform="translate(90.549 -42.055)" fill="#4e6454"/>
        <path id="Path_37-2" data-name="Path 37" d="M-32.465,52.61s-1.96-2.243-3.742-2.014S-39.812,53-39.812,53l4.457,3.053Z" transform="translate(83.331 -40.675)" fill="#4e6454"/>
        <path id="Path_38-2" data-name="Path 38" d="M-25.944,52.408c-.072-.057-1.787-2.426-3.434-2.279S-32.532,53-32.532,53l3.155,2.983Z" transform="translate(68.179 -40.862)" fill="#4e6454"/>
        <path id="Path_39-2" data-name="Path 39" d="M-29.3,49.866s-1.722-2.969-3.279-2.994-3.686,2.8-3.686,2.8l3.575,3.17Z" transform="translate(75.962 -42.191)" fill="#4e6454"/>
        <path id="Path_40-2" data-name="Path 40" d="M-22.672,49.764s-1.581-2.8-3.056-2.906-3.631,2.906-3.631,2.906l3.26,3.369Z" transform="translate(61.146 -42.199)" fill="#4e6454"/>
        <path id="Path_41-2" data-name="Path 41" d="M-19.179,52.936s-2.039-2.831-3.442-2.681-3.154,2.977-3.154,2.977l3.4,3.148Z" transform="translate(53.403 -40.81)" fill="#4e6454"/>
        <path id="Path_42-2" data-name="Path 42" d="M-12.589,53.2s-1.321-3.068-2.951-3.068S-19.109,53.2-19.109,53.2l3.05,2.146Z" transform="translate(38.911 -40.86)" fill="#4e6454"/>
        <path id="Path_43-2" data-name="Path 43" d="M-7.048,52.806s-1.438-3.117-2.785-3.09-3.031,2.433-3.031,2.433l2.6,2.665Z" transform="translate(25.968 -41.028)" fill="#4e6454"/>
        <path id="Path_44-2" data-name="Path 44" d="M-2,52.054s-1.179-2.485-2.275-2.742-2.535,1.815-2.535,1.815l2.535,2.008Z" transform="translate(13.736 -41.203)" fill="#4e6454"/>
        <path id="Path_45-2" data-name="Path 45" d="M-4.424,48.87s-1.6-2.543-3.038-2.466S-10.7,48.87-10.7,48.87l3.427,2.668Z" transform="translate(20.78 -42.384)" fill="#4e6454"/>
        <path id="Path_46-2" data-name="Path 46" d="M1.233,49.026s-1.76-2.851-3.056-2.95S-4.75,48.454-4.75,48.454L-1.823,51.3Z" transform="translate(8.066 -42.518)" fill="#4e6454"/>
        <path id="Path_47-2" data-name="Path 47" d="M3.93,45.259a7.045,7.045,0,0,0-3-1.7c-1.357-.16-2.945,1.189-2.945,1.189L.707,48.077Z" transform="translate(2.016 -43.55)" fill="#4e6454"/>
        <path id="Path_48-2" data-name="Path 48" d="M-1.757,45.4s-1.621-1.64-2.964-1.673S-7.7,45.317-7.7,45.317l2.89,3.258Z" transform="translate(14.557 -43.476)" fill="#4e6454"/>
        <path id="Path_49-2" data-name="Path 49" d="M-7.584,45.557s-1.556-1.684-2.964-1.739-3.39,1.739-3.39,1.739l3.2,3.236Z" transform="translate(27.775 -43.606)" fill="#4e6454"/>
        <path id="Path_50-2" data-name="Path 50" d="M-10.327,49.365s-1.551-2.774-3.075-2.774-3.519,2.554-3.519,2.554l3.371,2.84Z" transform="translate(34.056 -42.306)" fill="#4e6454"/>
        <path id="Path_51-2" data-name="Path 51" d="M-13.854,45.447s-1.343-1.728-2.816-1.7-3.408,1.7-3.408,1.7l2.927,3.126Z" transform="translate(41.399 -43.387)" fill="#4e6454"/>
        <path id="Path_52-2" data-name="Path 52" d="M-20.09,45.87S-21.9,44.021-23.2,44.021s-3,1.651-3,1.651l2.741,3.3Z" transform="translate(54.822 -43.523)" fill="#4e6454"/>
        <path id="Path_53-2" data-name="Path 53" d="M-26.276,45.877s-1.469-1.717-3.13-1.717A7.17,7.17,0,0,0-33,45.745l3.223,3.633Z" transform="translate(69.066 -43.53)" fill="#4e6454"/>
        <path id="Path_54-2" data-name="Path 54" d="M-16.614,49.6s-1.63-2.482-3-2.51-3.26,2.224-3.26,2.224l2.982,3.06Z" transform="translate(47.4 -42.102)" fill="#4e6454"/>
        <path id="Path_55-2" data-name="Path 55" d="M-32.965,46.106s-1.76-1.893-3.149-1.893-3.5,1.7-3.5,1.7l3.39,3.391Z" transform="translate(83.609 -43.451)" fill="#4e6454"/>
        <path id="Path_56-2" data-name="Path 56" d="M-39.273,46.3l-3.242,3.479-3.5-3.479s1.757-2,3.353-2S-39.273,46.3-39.273,46.3Z" transform="translate(97.493 -43.472)" fill="#4e6454"/>
        <path id="Path_57-2" data-name="Path 57" d="M-42.912,48.906s-2-2.813-3.363-2.32-2.694,3.575-2.694,3.575l3.7,2.686Z" transform="translate(104.632 -42.332)" fill="#4e6454"/>
      </g>
    </g>
    <g id="Sun" transform="translate(315.45 396.617)">
      <g id="Ellipse_3" data-name="Ellipse 3" fill="#635139" stroke="#635139" stroke-width="1">
        <ellipse cx="22.413" cy="19.879" rx="22.413" ry="19.879" stroke="none"/>
        <ellipse cx="22.413" cy="19.879" rx="21.913" ry="19.379" fill="none"/>
      </g>
      <g id="Ellipse_4" data-name="Ellipse 4" transform="translate(3.26 3.058)" fill="#b4843d" stroke="#b4843d" stroke-width="1">
        <ellipse cx="19.56" cy="18.35" rx="19.56" ry="18.35" stroke="none"/>
        <ellipse cx="19.56" cy="18.35" rx="19.06" ry="17.85" fill="none"/>
      </g>
    </g>
    <g id="Group_18" data-name="Group 18">
      <path id="Path_262" data-name="Path 262" d="M4267.02,345.647s-4.205-4.527-23.743-5.015-24.688,5.069-24.688,5.069" transform="matrix(1, 0.017, -0.017, 1, -3898.844, 104.53)" fill="none" stroke="#81735f" stroke-linecap="round" stroke-width="1"/>
      <path id="Path_263" data-name="Path 263" d="M4255.587,344.751s-5.679-3.631-19.515-4.119-17.484,5.069-17.484,5.069" transform="matrix(0.999, 0.035, -0.035, 0.999, -3883.991, 37.685)" fill="none" stroke="#81735f" stroke-linecap="round" stroke-width="1"/>
      <path id="Path_264" data-name="Path 264" d="M4254.295,347.184s-9.979-5.961-20.982-6.546a24.944,24.944,0,0,0-17.755,6.013" transform="translate(-3902.589 255.375) rotate(-1)" fill="none" stroke="#81735f" stroke-linecap="round" stroke-width="1"/>
    </g>
    <g id="Book" transform="translate(1.077 10)">
      <path id="Path_283" data-name="Path 283" d="M-1.038,14.51,8.887-1.112" transform="translate(332.5 566.25)" fill="none" stroke="#707070" stroke-width="1"/>
      <path id="Path_266" data-name="Path 266" d="M5089.175,663.965l-15.665,21.861,22.591,2.655,12.534-2.655L5122.3,666l-16.118,6.942Z" transform="translate(-4765.178 -107.631)" fill="none" stroke="#707070" stroke-width="0.77"/>
      <path id="Path_267" data-name="Path 267" d="M5088.786,662.239l-17.563,20.843,24.878,5.4s13.795,1.793,15.878,0,12.4-17.912,12.4-17.912l-18.417,2.717Z" transform="translate(-4765.178 -107.631)" fill="none" stroke="#707070" stroke-width="0.77"/>
      <path id="Path_268" data-name="Path 268" d="M5088.24,665.249l-11.276,16.493,19.136,6.74,12.534-2.655L5122.3,666l-18.131,6.792Z" transform="translate(-4763.424 -106.834)" fill="none" stroke="#707070" stroke-width="0.77"/>
    </g>
    <g id="Group_17" data-name="Group 17" transform="translate(1.429 16.623)">
      <path id="Path_269" data-name="Path 269" d="M4253.013,343.813s-2.979-2.881-16.821-3.191-17.6,3.323-17.6,3.323" transform="matrix(0.934, 0.358, -0.358, 0.934, -3495.222, -1250.186)" fill="none" stroke="#81735f" stroke-width="1"/>
      <path id="Path_270" data-name="Path 270" d="M4253.067,343.812s-2.979-2.881-16.822-3.191-17.656,3.278-17.656,3.278" transform="matrix(0.999, 0.035, -0.035, 0.999, -3884.717, 96.466)" fill="none" stroke="#81735f" stroke-width="1"/>
      <path id="Path_271" data-name="Path 271" d="M4252.823,344.154s-2.643-2.6-16.486-2.913-17.994,3.008-17.994,3.008" transform="matrix(0.966, -0.259, 0.259, 0.966, -3843.461, 1357.328)" fill="none" stroke="#81735f" stroke-width="1"/>
      <path id="Path_272" data-name="Path 272" d="M4252.757,344.614s-2.525-2.352-16.368-2.663-18.174,2.723-18.174,2.723" transform="matrix(0.999, 0.035, -0.035, 0.999, -3884.431, 102.397)" fill="none" stroke="#81735f" stroke-width="1"/>
      <path id="Path_273" data-name="Path 273" d="M4252.692,344.815s-3.007-1.979-16.85-2.289-17.754,2.383-17.754,2.383" transform="matrix(0.999, 0.035, -0.035, 0.999, -3884.486, 107.617)" fill="none" stroke="#81735f" stroke-width="1"/>
      <path id="Path_274" data-name="Path 274" d="M4252.64,344.882s-3-2.019-16.838-2.329-17.688,2.277-17.688,2.277" transform="translate(-3393.023 -1438.729) rotate(24)" fill="none" stroke="#81735f" stroke-width="1"/>
      <path id="Path_275" data-name="Path 275" d="M4252.54,346.105s-3.025-.836-16.87-1.146-17.494,1.076-17.494,1.076" transform="matrix(0.999, 0.035, -0.035, 0.999, -3884.49, 110.92)" fill="none" stroke="#81735f" stroke-width="1"/>
      <path id="Path_276" data-name="Path 276" d="M4252.457,346.1s-3.344-.976-17.187-1.287-17.254,1.149-17.254,1.149" transform="translate(-3461.208 -1301.828) rotate(22)" fill="none" stroke="#81735f" stroke-width="1"/>
      <path id="Path_277" data-name="Path 277" d="M4832.678,305.634l.081,3.925s-3.327-1.952-16.975-2.481-17.565,2.41-17.565,2.41l-.075-3.807s2.042-3.652,17.039-3.39S4832.678,305.634,4832.678,305.634Z" transform="translate(-4388.719 -357.897) rotate(8)" fill="#626975" stroke="#626975" stroke-width="1"/>
    </g>
    <g id="Eye" transform="translate(-1.754 -3)">
      <path id="Path_278" data-name="Path 278" d="M324.434,543.062s2.228.936,3.6,0c2.223-1.516,5.374-3.812,7.774-3.7,3.484.166,10.808,4.551,10.808,4.551h10.713" transform="translate(-0.216 -1)" fill="none" stroke="#707070" stroke-width="1"/>
      <g id="Path_280" data-name="Path 280" transform="translate(329.284 539)" fill="#707070">
        <path d="M 6.55898904800415 7.593379497528076 C 5.274819374084473 7.593379497528076 4.310609340667725 7.113319873809814 3.693129301071167 6.166539669036865 C 3.044929265975952 5.17264986038208 2.974949359893799 4.000959873199463 2.974949359893799 3.543339729309082 C 2.974949359893799 2.668339729309082 3.23340916633606 -0.1865803450345993 6.55898904800415 -0.1865803450345993 C 9.722719192504883 -0.1865803450345993 10.43474960327148 3.061779737472534 10.43474960327148 4.199709892272949 C 10.43474960327148 5.76522970199585 9.419699668884277 7.593379497528076 6.55898904800415 7.593379497528076 Z" stroke="none"/>
        <path d="M 6.55898904800415 0.3134198188781738 C 5.412419319152832 0.3134198188781738 4.604259490966797 0.6648898124694824 4.088338851928711 1.387909889221191 C 3.534719467163086 2.163759708404541 3.474948883056641 3.153719425201416 3.474948883056641 3.543339729309082 C 3.474948883056641 4.403299331665039 3.713079452514648 5.281829833984375 4.111928939819336 5.893399715423584 C 4.638548851013184 6.700859546661377 5.438989162445068 7.093379497528076 6.55898904800415 7.093379497528076 C 9.771999359130859 7.093379497528076 9.934749603271484 4.682919502258301 9.934749603271484 4.199709892272949 C 9.934749603271484 3.191489696502686 9.314569473266602 0.3134198188781738 6.55898904800415 0.3134198188781738 M 6.55898904800415 -0.6865806579589844 C 9.872699737548828 -0.6865806579589844 10.93474960327148 2.542849540710449 10.93474960327148 4.199709892272949 C 10.93474960327148 5.856559753417969 9.872699737548828 8.093379974365234 6.55898904800415 8.093379974365234 C 3.245279312133789 8.093379974365234 2.474948883056641 5.200189590454102 2.474948883056641 3.543339729309082 C 2.474948883056641 1.88647985458374 3.245279312133789 -0.6865806579589844 6.55898904800415 -0.6865806579589844 Z" stroke="none" fill="#707070"/>
      </g>
      <path id="Path_279" data-name="Path 279" d="M328.1,542.905s3.8,5.04,7.522,5.277S346.9,544.01,346.9,544.01" transform="translate(-0.216 -1)" fill="none" stroke="#707070" stroke-width="1"/>
      <path id="Path_281" data-name="Path 281" d="M333.871,547.7s6.416,4.862,11.612,5.738,6.217-.33,7.13-1.8-.164-2.443-1.969-2.334-3.774,1.313-3.209,2.334,3.209-.438,3.209-.438" transform="translate(-0.216 -1)" fill="none" stroke="#707070" stroke-width="1"/>
      <path id="Path_282" data-name="Path 282" d="M334.41,548.093l-1.515,5.329-3.478,2.917,1.4-3.7v-2.693l2.076-.617-.673-2.524" transform="translate(-0.216 -1)" fill="none" stroke="#707070" stroke-width="1"/>
      <path id="Path_265" data-name="Path 265" d="M4250.058,342.823a37.573,37.573,0,0,1-10.364-.682c-3.012-.65-6.013-3.094-9.124-3.191a25.374,25.374,0,0,0-14,4" transform="matrix(0.999, 0.035, -0.035, 0.999, -3876.769, 46.871)" fill="none" stroke="#81735f" stroke-width="1"/>
    </g>
  </g>
</svg>
