<svg xmlns="http://www.w3.org/2000/svg" width="14.034" height="16.349" viewBox="0 0 14.034 16.349">
  <g id="Black_Beetle" data-name="Black Beetle" transform="translate(0 0.507)">
    <path id="Path_7" data-name="Path 7" d="M22.693,54.921h1.658l1.31.742h1.057l1.211-.742h1.819s.866,1.656,0,2.741-3.465,1.464-3.465,1.464h-.622s-2.643-.379-3.376-1.464S22.693,54.921,22.693,54.921Z" transform="translate(-18.646 -47.705)" fill="#fff" stroke="#01225b" stroke-width="1.5"/>
    <path id="Path_10" data-name="Path 10" d="M37.222,57.5" transform="translate(-25.735 -49.562)" fill="none" stroke="#01225b" stroke-width="1"/>
    <path id="Path_25" data-name="Path 25" d="M0,5" transform="translate(0 5.832)" fill="none" stroke="#01225b" stroke-width="1.5"/>
    <path id="Path_23" data-name="Path 23" d="M7.781,20.248a15.589,15.589,0,0,0,4.087.6,17.339,17.339,0,0,0,4.288-.587" transform="translate(-4.522 -11.435)" fill="none" stroke="#000" stroke-linecap="round" stroke-width="1"/>
    <path id="Path_24" data-name="Path 24" d="M15.595,22.114l-.032,2.068" transform="translate(-8.266 -12.699)" fill="none" stroke="#000" stroke-linecap="round" stroke-width="1"/>
    <path id="Path_26" data-name="Path 26" d="M9.723,9.6a2.353,2.353,0,0,1,1.266-1.417,7.693,7.693,0,0,1,4.161,0A2.279,2.279,0,0,1,16.577,9.6H14.035l-.989.62L11.954,9.6Z" transform="translate(-5.576 -3.076)" fill="#fff" stroke="#fff" stroke-linejoin="round" stroke-width="1.5"/>
    <g id="Right_Legs" data-name="Right Legs" transform="translate(9.395 7.947)">
      <path id="Path_111" data-name="Path 111" d="M-52.72,60.717a10.159,10.159,0,0,1,2.369.184c.427.213-.484,2.134-.8,2.435a17.215,17.215,0,0,1-2.176,1.806c-.324.108,1.394-1.585,1.294-1.665s-1.515.454-1.351.2,1.769-.893,1.954-1.123.516-1.034.2-1.22a13.25,13.25,0,0,0-1.923-.518Z" transform="translate(53.393 -57.761)" fill="#fff" stroke="#fff" stroke-width="1"/>
      <path id="Path_112" data-name="Path 112" d="M-49.558,51.691s1.138-.23,1.294-.053a8.153,8.153,0,0,1-.228,2.471c-.089.082-.171-1.957-.256-2.187S-49.558,51.691-49.558,51.691Z" transform="translate(51.548 -51.571)" fill="#fff" stroke="#fff" stroke-width="1"/>
    </g>
    <g id="Left_Legs" data-name="Left Legs" transform="translate(1.558 7.842)">
      <path id="Path_111-2" data-name="Path 111" d="M-50.912,60.717a10.159,10.159,0,0,0-2.369.184c-.427.213.484,2.134.8,2.435a17.215,17.215,0,0,0,2.176,1.806c.324.108-1.394-1.585-1.294-1.665s1.515.454,1.351.2-1.769-.893-1.954-1.123-.516-1.034-.2-1.22a13.25,13.25,0,0,1,1.923-.518Z" transform="translate(53.393 -57.761)" fill="#fff" stroke="#fff" stroke-width="1"/>
      <path id="Path_112-2" data-name="Path 112" d="M-48.219,51.691s-1.138-.23-1.294-.053a8.153,8.153,0,0,0,.228,2.471c.089.082.171-1.957.256-2.187S-48.219,51.691-48.219,51.691Z" transform="translate(49.902 -51.571)" fill="#fff" stroke="#fff" stroke-width="1"/>
    </g>
    <path id="Path_113" data-name="Path 113" d="M-53.356,32.4a11.448,11.448,0,0,0,2.718,0,3.057,3.057,0,0,0,.531-2.121c-.187-.311-1.426-.747-1.418-.826s1.129.007,1.168-.225-1.555-2.311-1.422-2.258,2.11,1.2,2.4,2.21.082,3.433-.61,3.741a6.152,6.152,0,0,1-2.559.159Z" transform="translate(62.77 -26.972)" fill="#fff" stroke="#fff" stroke-width="1"/>
    <path id="Path_114" data-name="Path 114" d="M-49.246,32.4a11.448,11.448,0,0,1-2.718,0,3.057,3.057,0,0,1-.531-2.121c.187-.311,1.426-.747,1.418-.826s-1.129.007-1.168-.225,1.555-2.311,1.422-2.258-2.11,1.2-2.4,2.21-.082,3.433.61,3.741a6.152,6.152,0,0,0,2.559.159Z" transform="translate(54.061 -26.972)" fill="#fff" stroke="#fff" stroke-width="1"/>
  </g>
</svg>
