<svg xmlns="http://www.w3.org/2000/svg" width="294.609" height="227.283" viewBox="0 0 294.609 227.283">
  <g id="Media_Graphic" data-name="Media Graphic" transform="translate(-178.164 -396.617)">
    <g id="Beetle_Wing_Fonebox_twitter_video" data-name="Beetle Wing Fonebox twitter video" transform="translate(178.539 438.156)">
      <g id="Black_Beetle" data-name="Black Beetle" transform="translate(131.661 0)">
        <path id="Path_7" data-name="Path 7" d="M23.421,54.921h3.505l2.77,3.034h2.235l2.561-3.034h3.845s1.832,6.767,0,11.2S31.012,72.1,31.012,72.1H29.7s-5.589-1.547-7.138-5.982S23.421,54.921,23.421,54.921Z" transform="translate(-14.866 -25.432)" fill="#637a69" stroke="#637a69" stroke-width="1.5"/>
        <path id="Path_10" data-name="Path 10" d="M37.222,57.5" transform="translate(-12.936 -25.06)" fill="none" stroke="#637a69" stroke-width="1"/>
        <path id="Path_25" data-name="Path 25" d="M0,5" transform="translate(0 39.266)" fill="none" stroke="#637a69" stroke-width="1.5"/>
        <path id="Path_23" data-name="Path 23" d="M7.781,20.251a19.142,19.142,0,0,0,8.64,2.461,20.963,20.963,0,0,0,9.066-2.4" transform="translate(-0.891 15.764)" fill="none" stroke="#1c1b1b" stroke-linecap="round" stroke-width="1"/>
        <path id="Path_24" data-name="Path 24" d="M15.631,22.114l-.069,8.452" transform="translate(-0.136 16.362)" fill="none" stroke="#1c1b1b" stroke-linecap="round" stroke-width="1"/>
        <path id="Path_26" data-name="Path 26" d="M9.723,14.861s.643-4.286,2.629-5.793,6.272-1.615,8.646,0,2.964,5.793,2.964,5.793H18.681l-2.056,2.533-2.267-2.533Z" transform="translate(-0.702 11.809)" fill="#637a69" stroke="#637a69" stroke-linejoin="round" stroke-width="1.5"/>
        <g id="Right_Legs" data-name="Right Legs" transform="translate(19.863 32.478)">
          <path id="Path_111" data-name="Path 111" d="M-51.97,60.721c.12,0,4.107-.116,5.009.753s-1.022,8.722-1.684,9.952-3.916,6.939-4.6,7.383S-50.3,72.33-50.509,72s-3.2,1.855-2.857.832,3.741-3.648,4.131-4.589,1.092-4.227.43-4.987-4.065-2.117-4.065-2.117Z" transform="translate(53.393 -48.642)" fill="#637a69" stroke="#637a69" stroke-width="1"/>
          <path id="Path_112" data-name="Path 112" d="M-49.558,52.062s2.406-.941,2.736-.217-.293,9.762-.481,10.1-.361-8-.541-8.939S-49.558,52.062-49.558,52.062Z" transform="translate(53.765 -51.571)" fill="#637a69" stroke="#637a69" stroke-width="1"/>
        </g>
        <g id="Left_Legs" data-name="Left Legs" transform="translate(3.293 32.049)">
          <path id="Path_111-2" data-name="Path 111" d="M-48.148,60.721c-.12,0-4.107-.116-5.009.753s1.022,8.722,1.684,9.952,3.916,6.939,4.6,7.383-2.947-6.478-2.736-6.8,3.2,1.855,2.857.832-3.741-3.648-4.131-4.589-1.091-4.227-.43-4.987,4.065-2.117,4.065-2.117Z" transform="translate(53.393 -48.642)" fill="#637a69" stroke="#637a69" stroke-width="1"/>
          <path id="Path_112-2" data-name="Path 112" d="M-46.727,52.062s-2.406-.941-2.736-.217.293,9.762.481,10.1.361-8,.541-8.939S-46.727,52.062-46.727,52.062Z" transform="translate(50.285 -51.571)" fill="#637a69" stroke="#637a69" stroke-width="1"/>
        </g>
        <path id="Path_113" data-name="Path 113" d="M-53.356,49.164s5.021.875,5.747,0,1.519-7.394,1.123-8.666-3.016-3.053-3-3.375,2.387.03,2.469-.919-3.288-9.445-3.006-9.228,4.461,4.885,5.082,9.033.174,14.03-1.29,15.29-5.212.966-5.41.648S-53.356,49.164-53.356,49.164Z" transform="translate(73.26 -26.972)" fill="#637a69" stroke="#637a69" stroke-width="1"/>
        <path id="Path_114" data-name="Path 114" d="M-44.666,49.164s-5.021.875-5.747,0-1.519-7.394-1.123-8.666,3.016-3.053,3-3.375-2.387.03-2.469-.919S-47.72,26.759-48,26.976s-4.461,4.885-5.082,9.033-.174,14.03,1.29,15.29,5.212.966,5.41.648S-44.666,49.164-44.666,49.164Z" transform="translate(54.847 -26.972)" fill="#637a69" stroke="#637a69" stroke-width="1"/>
      </g>
      <g id="Right_Bottom_Wing" data-name="Right Bottom Wing" transform="translate(159.755 16.636)">
        <path id="Path_93" data-name="Path 93" d="M-45.84,64.683c-.448-.193-.5,4.861-.5,4.861s3.6,3.167,4.08,3.07-1.1-.868-2.141-3.456S-45.392,64.877-45.84,64.683Z" transform="translate(46.338 -31.532)" fill="#4e6454" stroke="#4e6454" stroke-width="0.75"/>
        <path id="Path_94" data-name="Path 94" d="M-43.694,64.946s2.562-.278,3.363.171.726,1.639,1.645,3.572,2.479,4.355,2.031,4.159a6.34,6.34,0,0,1-4.138-1.992C-42.554,68.881-43.694,64.946-43.694,64.946Z" transform="translate(46.595 -31.473)" fill="#4e6454" stroke="#4e6454" stroke-width="0.75"/>
        <path id="Path_95" data-name="Path 95" d="M-37.937,65.071s2.526-.415,3.345.4.862,2.537,2.153,4.754,2.375,3.784,1.993,3.662-1.876.046-4-2.27A21.223,21.223,0,0,1-37.937,65.071Z" transform="translate(47.153 -31.44)" fill="#4e6454" stroke="#4e6454" stroke-width="0.75"/>
        <path id="Path_96" data-name="Path 96" d="M-32.947,65.226a9.787,9.787,0,0,1,3.156.416c.758.438,1.2,2.584,2.647,4.917s3.187,4.633,2.886,4.569a16.957,16.957,0,0,1-5.427-3.919A17.273,17.273,0,0,1-32.947,65.226Z" transform="translate(47.637 -31.356)" fill="#4e6454" stroke="#4e6454" stroke-width="0.75"/>
        <path id="Path_97" data-name="Path 97" d="M-28.075,65.152s2.6.021,3.452.685.762,2.492,2.239,4.891,3.9,4.76,3.668,4.7a9.746,9.746,0,0,1-5.338-3.043C-26.394,69.82-28.075,65.152-28.075,65.152Z" transform="translate(48.109 -31.38)" fill="#4e6454" stroke="#4e6454" stroke-width="0.75"/>
        <path id="Path_98" data-name="Path 98" d="M-22.674,65.531a7.925,7.925,0,0,1,3.309.407c1.028.574.922,2.614,2.5,5.256s4.714,5.088,4.21,4.994a8.117,8.117,0,0,1-5.8-2.605C-21.089,70.868-22.674,65.531-22.674,65.531Z" transform="translate(48.633 -31.266)" fill="#4e6454" stroke="#4e6454" stroke-width="0.75"/>
        <path id="Path_99" data-name="Path 99" d="M-17.176,66s2.974-.185,3.9.514.8,2.2,2.375,4.926,4.282,5.823,3.939,5.718A17.375,17.375,0,0,1-13.278,73,19.193,19.193,0,0,1-17.176,66Z" transform="translate(49.167 -31.115)" fill="#4e6454" stroke="#4e6454" stroke-width="0.75"/>
        <path id="Path_100" data-name="Path 100" d="M-11.662,66.47s2.574-.5,3.683.343.9,2.447,2.555,5.17,4.595,5.4,4.18,5.284a8.668,8.668,0,0,1-5.524-2.788C-9.475,71.755-11.662,66.47-11.662,66.47Z" transform="translate(49.701 -31.005)" fill="#4e6454" stroke="#4e6454" stroke-width="0.75"/>
        <path id="Path_101" data-name="Path 101" d="M-6.524,65.989s2.889-.257,3.883.389.981,2.144,3.123,5.148,5.119,6.2,4.776,6.244-3.349.113-6.476-2.891S-6.524,65.989-6.524,65.989Z" transform="translate(50.2 -31.128)" fill="#4e6454" stroke="#4e6454" stroke-width="0.75"/>
        <path id="Path_102" data-name="Path 102" d="M-.822,65.8s3.187-.688,4.42,0,2.24,3.628,4.871,6.695,6,5.743,5.382,5.609A15.354,15.354,0,0,1,5.462,75C1.621,71.984-.822,65.8-.822,65.8Z" transform="translate(50.753 -31.269)" fill="#4e6454" stroke="#4e6454" stroke-width="0.75"/>
        <path id="Path_103" data-name="Path 103" d="M5.7,65.215s2.466-.9,3.759-.471,3.278,2.732,7.126,6.333,7.972,6.8,7.487,6.84a15.015,15.015,0,0,1-10.138-2.7C9.057,71.829,5.7,65.215,5.7,65.215Z" transform="translate(51.385 -31.548)" fill="#4e6454" stroke="#4e6454" stroke-width="0.75"/>
        <path id="Path_104" data-name="Path 104" d="M12.2,64.629s2.8-1.875,4.131-1.357,7.829,6.541,12.136,9.5,7.436,3.4,6.674,3.691-3.356,2.958-9.077,0S12.2,64.629,12.2,64.629Z" transform="translate(52.015 -32.011)" fill="#4e6454" stroke="#4e6454" stroke-width="0.75"/>
        <path id="Path_105" data-name="Path 105" d="M17,62.457s2.345-1.835,4.026-1.553,10.721,6.31,16.685,9.509,8.763,3.417,8.254,3.617-3.222,3.506-10.408.625S17,62.457,17,62.457Z" transform="translate(52.481 -32.749)" fill="#4e6454" stroke="#4e6454" stroke-width="0.75"/>
        <path id="Path_106" data-name="Path 106" d="M21.508,60.006s1.727-1.862,3.525-1.768S32.071,59.826,35.9,61.6c4.561,2.109,6.688,3.757,11.406,5.479,8.122,2.965,10.945,1.648,10.574,2s-3.449,4.908-12.532,2.416c-4.324-1.186-8.647-4.142-14.092-7.063A78.415,78.415,0,0,0,21.508,60.006Z" transform="translate(52.918 -33.595)" fill="#4e6454" stroke="#4e6454" stroke-width="0.75"/>
        <path id="Path_107" data-name="Path 107" d="M25.157,56.794a4.174,4.174,0,0,1,2.893-1.882,65.648,65.648,0,0,1,14.2,1.882c6.647,1.585,5.858,2.571,12.679,4.159s11.7,1.355,11.26,1.826-4.361,4.428-11.945,3.771S44,62.244,36.33,59.952,25.157,56.794,25.157,56.794Z" transform="translate(53.272 -34.661)" fill="#4e6454" stroke="#4e6454" stroke-width="0.75"/>
        <path id="Path_108" data-name="Path 108" d="M27.9,54.041s.9-3.091,3.01-3.387,10.4.317,15.482,1.258,7.336,2.358,14.735,3,12.618-1.789,12.288-1.3a12.073,12.073,0,0,1-11.455,6.6c-8.209-.282-10.8-3.326-20.365-5.008S27.9,54.041,27.9,54.041Z" transform="translate(53.538 -36.047)" fill="#4e6454" stroke="#4e6454" stroke-width="0.75"/>
        <path id="Path_109" data-name="Path 109" d="M30.157,50.015s1.56-2.592,3.241-2.874a110.574,110.574,0,0,1,17.281,0c8.728.535,9.244,1.223,16.422,1.468s10.28-1.844,10.011-1.468a21.391,21.391,0,0,1-13.06,6.238c-7.8.719-9.992-2.33-18.466-3.171A89.815,89.815,0,0,0,30.157,50.015Z" transform="translate(53.757 -37.249)" fill="#4e6454" stroke="#4e6454" stroke-width="0.75"/>
        <path id="Path_110" data-name="Path 110" d="M32.7,47.018s.693-2.4,2.158-3.1,5.369-1.617,13.251-1.505,9.263,1.244,17.668,0,14.61-3.242,14.307-2.776a13.575,13.575,0,0,1-8.561,8.045c-6.759,2.324-12.575-.235-20.874-.668S32.7,47.018,32.7,47.018Z" transform="translate(54.004 -39.572)" fill="#4e6454" stroke="#4e6454" stroke-width="0.75"/>
      </g>
      <g id="Right_Middle_wings" data-name="Right Middle wings" transform="translate(159.8 20.879)">
        <path id="Path_81" data-name="Path 81" d="M-45.748,55.58c-.578.186-.549,5.941-.549,5.941a10.454,10.454,0,0,0,2.04,3.259c1.264,1.222,2.88,1.919,3.017,1.63s-1.615-2.955-2.742-5.632S-45.17,55.395-45.748,55.58Z" transform="translate(46.297 -38.691)" fill="none" stroke="#4e6454" stroke-width="1"/>
        <path id="Path_82" data-name="Path 82" d="M-44.266,55.5s2.931-.454,3.634.5.771,2.228,1.92,4.868,3.137,5.281,2.794,5.57-2.562-1.052-4.594-3.734A35.609,35.609,0,0,1-44.266,55.5Z" transform="translate(46.494 -38.751)" fill="none" stroke="#4e6454" stroke-width="1"/>
        <path id="Path_83" data-name="Path 83" d="M-38.875,55.678s2.659-.29,3.4.185.979,2.085,2.175,4.807,4.857,6.617,3.137,5.838a12.586,12.586,0,0,1-5.48-4.367A23.758,23.758,0,0,1-38.875,55.678Z" transform="translate(47.017 -38.685)" fill="none" stroke="#4e6454" stroke-width="1"/>
        <path id="Path_84" data-name="Path 84" d="M-33.547,55.324s2.886-.243,3.666.4.908,2.511,2.117,5.283,4.826,6.133,3.383,5.658a8.364,8.364,0,0,1-5.344-3.54A35.572,35.572,0,0,1-33.547,55.324Z" transform="translate(47.534 -38.785)" fill="none" stroke="#4e6454" stroke-width="1"/>
        <path id="Path_85" data-name="Path 85" d="M-28.375,55.47s2.415-.37,3.519.617,2.248,4.27,3.989,6.973,3.6,4.229,3.085,4.376-3.356-.741-6-3.732S-28.375,55.47-28.375,55.47Z" transform="translate(48.035 -38.746)" fill="none" stroke="#4e6454" stroke-width="1"/>
        <path id="Path_86" data-name="Path 86" d="M-23.117,55.781s2.431-.67,3.366.134,2.8,4.839,5.192,7.884,5.012,4.344,4.357,4.3-3.273.262-6.541-2.9S-23.117,55.781-23.117,55.781Z" transform="translate(48.545 -38.708)" fill="none" stroke="#4e6454" stroke-width="1"/>
        <path id="Path_87" data-name="Path 87" d="M-18.2,55.08a6.256,6.256,0,0,1,3.946.456c.879.49,2.386,2.574,5.459,6.114S.516,67.014-.665,67.228-6.927,68.784-10.692,65A64.666,64.666,0,0,1-18.2,55.08Z" transform="translate(49.022 -38.892)" fill="none" stroke="#4e6454" stroke-width="1"/>
        <path id="Path_88" data-name="Path 88" d="M-13.1,54.685s3.858-.41,4.669,0a26.135,26.135,0,0,1,8.5,5.859c3.69,3.9,9.373,4.981,8.32,5.61S.468,67.4-4.146,63.06-13.1,54.685-13.1,54.685Z" transform="translate(49.517 -39.034)" fill="none" stroke="#4e6454" stroke-width="1"/>
        <path id="Path_89" data-name="Path 89" d="M-6.891,54.123s3.3-1.938,5.706-1.16A38.431,38.431,0,0,1,9.823,59.308c4.606,3.835,9.682,2.355,8.4,3.3S11.3,66.455,5.507,61.5A45.925,45.925,0,0,0-6.891,54.123Z" transform="translate(50.119 -39.586)" fill="none" stroke="#4e6454" stroke-width="1"/>
        <path id="Path_90" data-name="Path 90" d="M-1.25,51.859s2.183-2.538,3.718-2.4a31.275,31.275,0,0,1,11.963,4.393c5.62,3.347,12.021,1.325,11.529,2.51s-2.149,5.539-8.893,4.184c-3.648-.733-7.354-4.206-11.558-6.415A27.681,27.681,0,0,0-1.25,51.859Z" transform="translate(50.666 -40.65)" fill="none" stroke="#4e6454" stroke-width="1"/>
        <path id="Path_91" data-name="Path 91" d="M2.547,48.5a8.956,8.956,0,0,1,2.276-2.063c1.069-.529,9.964,2.219,16.581,2.887s10.725-.481,9.75.53S28.526,54.5,21.4,54.311c-3.7-.1-6.782-2.269-11.628-3.932A49.564,49.564,0,0,0,2.547,48.5Z" transform="translate(51.034 -41.638)" fill="none" stroke="#4e6454" stroke-width="1"/>
        <path id="Path_92" data-name="Path 92" d="M4.5,45.771s1.507-2.8,3.284-2.969,9.118,1.005,16.289.831,10.755-.606,10.48-.153-1.906,4.636-9.016,5.034c-3.946.221-6.09-1.092-11.222-1.8C10.786,46.234,4.5,45.771,4.5,45.771Z" transform="translate(51.224 -42.786)" fill="none" stroke="#4e6454" stroke-linecap="round" stroke-width="1"/>
      </g>
      <g id="Right_Top_Wing" data-name="Right Top Wing" transform="translate(156.869 22.078)">
        <path id="Path_35" data-name="Path 35" d="M-43.116,50.419C-44.481,50.48-46.4,52.8-46.4,52.8l2.714,2.676,3.746-2.153S-41.752,50.359-43.116,50.419Z" transform="translate(49.218 -41.351)" fill="#4e6454"/>
        <path id="Path_36" data-name="Path 36" d="M-42.906,49.365s1.877-2.36,3.325-2.145,3.051,2.352,3.051,2.352l-3.394,3.342Z" transform="translate(49.557 -42.38)" fill="#4e6454"/>
        <path id="Path_37" data-name="Path 37" d="M-39.812,52.482s1.813-2.1,3.462-1.887,3.336,2.256,3.336,2.256l-4.125,2.86Z" transform="translate(49.857 -41.299)" fill="#4e6454"/>
        <path id="Path_38" data-name="Path 38" d="M-32.532,52.264c.067-.054,1.653-2.273,3.178-2.136s2.919,2.687,2.919,2.687l-2.919,2.8Z" transform="translate(50.563 -41.445)" fill="#4e6454"/>
        <path id="Path_39" data-name="Path 39" d="M-36.266,49.678s1.593-2.782,3.034-2.806,3.411,2.62,3.411,2.62l-3.308,2.971Z" transform="translate(50.201 -42.486)" fill="#4e6454"/>
        <path id="Path_40" data-name="Path 40" d="M-29.359,49.58s1.463-2.622,2.828-2.723,3.36,2.723,3.36,2.723l-3.017,3.156Z" transform="translate(50.871 -42.492)" fill="#4e6454"/>
        <path id="Path_41" data-name="Path 41" d="M-25.775,52.766s1.887-2.653,3.185-2.512,2.919,2.789,2.919,2.789l-3.142,2.95Z" transform="translate(51.218 -41.405)" fill="#4e6454"/>
        <path id="Path_42" data-name="Path 42" d="M-19.109,53s1.222-2.875,2.731-2.875,3.3,2.875,3.3,2.875L-15.9,55.013Z" transform="translate(51.865 -41.444)" fill="#4e6454"/>
        <path id="Path_43" data-name="Path 43" d="M-12.865,52.611s1.33-2.921,2.577-2.9S-7.483,52-7.483,52l-2.406,2.5Z" transform="translate(52.47 -41.576)" fill="#4e6454"/>
        <path id="Path_44" data-name="Path 44" d="M-6.807,51.879s1.091-2.328,2.1-2.569,2.345,1.7,2.345,1.7L-4.7,52.893Z" transform="translate(53.058 -41.712)" fill="#4e6454"/>
        <path id="Path_45" data-name="Path 45" d="M-10.7,48.714s1.481-2.383,2.811-2.31,3,2.31,3,2.31l-3.171,2.5Z" transform="translate(52.68 -42.637)" fill="#4e6454"/>
        <path id="Path_46" data-name="Path 46" d="M-4.75,48.84s1.628-2.671,2.828-2.764S.786,48.3.786,48.3l-2.708,2.665Z" transform="translate(53.257 -42.742)" fill="#4e6454"/>
        <path id="Path_47" data-name="Path 47" d="M-2.016,45.151A6.5,6.5,0,0,1,.761,43.563a4.471,4.471,0,0,1,2.725,1.114L.967,47.792Z" transform="translate(53.625 -43.55)" fill="#4e6454"/>
        <path id="Path_48" data-name="Path 48" d="M-7.7,45.3s1.5-1.537,2.742-1.568,2.76,1.485,2.76,1.485L-4.875,48.27Z" transform="translate(52.971 -43.492)" fill="#4e6454"/>
        <path id="Path_49" data-name="Path 49" d="M-13.938,45.447s1.44-1.578,2.742-1.63,3.137,1.63,3.137,1.63l-2.965,3.032Z" transform="translate(52.366 -43.62)" fill="#4e6454"/>
        <path id="Path_50" data-name="Path 50" d="M-16.922,49.19s1.436-2.6,2.845-2.6,3.257,2.393,3.257,2.393l-3.12,2.661Z" transform="translate(52.077 -42.576)" fill="#4e6454"/>
        <path id="Path_51" data-name="Path 51" d="M-20.078,45.34s1.243-1.619,2.605-1.588,3.154,1.588,3.154,1.588l-2.708,2.929Z" transform="translate(51.702 -43.41)" fill="#4e6454"/>
        <path id="Path_52" data-name="Path 52" d="M-26.2,45.753s1.671-1.733,2.88-1.733,2.777,1.547,2.777,1.547l-2.537,3.094Z" transform="translate(51.177 -43.554)" fill="#4e6454"/>
        <path id="Path_53" data-name="Path 53" d="M-33,45.769a4.616,4.616,0,0,1,2.9-1.609,6.6,6.6,0,0,1,3.325,1.485l-2.982,3.4Z" transform="translate(50.518 -43.57)" fill="#4e6454"/>
        <path id="Path_54" data-name="Path 54" d="M-22.875,49.443s1.508-2.326,2.777-2.352,3.017,2.084,3.017,2.084l-2.76,2.867Z" transform="translate(51.5 -42.416)" fill="#4e6454"/>
        <path id="Path_55" data-name="Path 55" d="M-39.615,45.987s1.628-1.774,2.914-1.774,3.24,1.588,3.24,1.588L-36.6,48.978Z" transform="translate(49.865 -43.499)" fill="#4e6454"/>
        <path id="Path_56" data-name="Path 56" d="M-46.016,46.177l3,3.259,3.24-3.259S-41.4,44.3-42.879,44.3-46.016,46.177-46.016,46.177Z" transform="translate(49.255 -43.525)" fill="#4e6454"/>
        <path id="Path_57" data-name="Path 57" d="M-48.969,48.756s1.852-2.636,3.112-2.174,2.493,3.35,2.493,3.35l-3.428,2.517Z" transform="translate(48.969 -42.597)" fill="#4e6454"/>
      </g>
      <g id="Left_Bottom_Wing" data-name="Left Bottom Wing" transform="translate(0 15.819)">
        <path id="Path_93-2" data-name="Path 93" d="M-42.666,64.683c.449-.193.5,4.861.5,4.861s-3.6,3.167-4.08,3.07,1.1-.868,2.141-3.456S-43.115,64.877-42.666,64.683Z" transform="translate(176.272 -31.532)" fill="#4e6454" stroke="#4e6454" stroke-width="0.75"/>
        <path id="Path_94-2" data-name="Path 94" d="M-36.577,64.946s-2.562-.278-3.363.171-.726,1.639-1.645,3.572-2.479,4.355-2.031,4.159a6.34,6.34,0,0,0,4.138-1.992C-37.717,68.881-36.577,64.946-36.577,64.946Z" transform="translate(167.78 -31.473)" fill="#4e6454" stroke="#4e6454" stroke-width="0.75"/>
        <path id="Path_95-2" data-name="Path 95" d="M-30.368,65.071s-2.527-.415-3.345.4-.862,2.537-2.153,4.754-2.375,3.784-1.993,3.662,1.876.046,4-2.27A21.223,21.223,0,0,0-30.368,65.071Z" transform="translate(155.256 -31.44)" fill="#4e6454" stroke="#4e6454" stroke-width="0.75"/>
        <path id="Path_96-2" data-name="Path 96" d="M-24.224,65.226a9.787,9.787,0,0,0-3.156.416c-.758.438-1.2,2.584-2.647,4.917s-3.187,4.633-2.886,4.569a16.957,16.957,0,0,0,5.427-3.919A17.273,17.273,0,0,0-24.224,65.226Z" transform="translate(143.638 -31.356)" fill="#4e6454" stroke="#4e6454" stroke-width="0.75"/>
        <path id="Path_97-2" data-name="Path 97" d="M-18.7,65.152s-2.6.021-3.452.685-.762,2.492-2.239,4.891-3.9,4.76-3.668,4.7a9.746,9.746,0,0,0,5.338-3.043C-20.381,69.82-18.7,65.152-18.7,65.152Z" transform="translate(132.77 -31.38)" fill="#4e6454" stroke="#4e6454" stroke-width="0.75"/>
        <path id="Path_98-2" data-name="Path 98" d="M-12.6,65.531a7.925,7.925,0,0,0-3.309.407c-1.028.574-.922,2.614-2.5,5.256s-4.714,5.088-4.21,4.994a8.117,8.117,0,0,0,5.8-2.605C-14.186,70.868-12.6,65.531-12.6,65.531Z" transform="translate(120.745 -31.266)" fill="#4e6454" stroke="#4e6454" stroke-width="0.75"/>
        <path id="Path_99-2" data-name="Path 99" d="M-6.934,66s-2.974-.185-3.9.514-.8,2.2-2.375,4.926-4.282,5.823-3.939,5.718A17.375,17.375,0,0,0-10.832,73,19.193,19.193,0,0,0-6.934,66Z" transform="translate(109.047 -31.115)" fill="#4e6454" stroke="#4e6454" stroke-width="0.75"/>
        <path id="Path_100-2" data-name="Path 100" d="M-1.2,66.47s-2.574-.5-3.683.343-.9,2.447-2.555,5.17-4.595,5.4-4.18,5.284A8.667,8.667,0,0,0-6.1,74.478C-3.391,71.755-1.2,66.47-1.2,66.47Z" transform="translate(97.269 -31.005)" fill="#4e6454" stroke="#4e6454" stroke-width="0.75"/>
        <path id="Path_101-2" data-name="Path 101" d="M5.286,65.989S2.4,65.732,1.4,66.378.422,68.522-1.72,71.526s-5.119,6.2-4.776,6.244,3.349.113,6.476-2.891S5.286,65.989,5.286,65.989Z" transform="translate(85.142 -31.128)" fill="#4e6454" stroke="#4e6454" stroke-width="0.75"/>
        <path id="Path_102-2" data-name="Path 102" d="M13.926,65.8s-3.187-.688-4.42,0S7.265,69.432,4.634,72.5s-6,5.743-5.382,5.609A15.354,15.354,0,0,0,7.641,75C11.483,71.984,13.926,65.8,13.926,65.8Z" transform="translate(70.248 -31.269)" fill="#4e6454" stroke="#4e6454" stroke-width="0.75"/>
        <path id="Path_103-2" data-name="Path 103" d="M24.112,65.215s-2.466-.9-3.759-.471-3.278,2.732-7.126,6.333-7.972,6.8-7.487,6.84a15.015,15.015,0,0,0,10.138-2.7C20.757,71.829,24.112,65.215,24.112,65.215Z" transform="translate(52.904 -31.548)" fill="#4e6454" stroke="#4e6454" stroke-width="0.75"/>
        <path id="Path_104-2" data-name="Path 104" d="M35.254,64.629s-2.8-1.875-4.131-1.357-7.829,6.541-12.136,9.5-7.436,3.4-6.674,3.691,3.356,2.958,9.077,0S35.254,64.629,35.254,64.629Z" transform="translate(34.637 -32.011)" fill="#4e6454" stroke="#4e6454" stroke-width="0.75"/>
        <path id="Path_105-2" data-name="Path 105" d="M46.021,62.457S43.676,60.623,42,60.9s-10.721,6.31-16.685,9.509-8.763,3.417-8.254,3.617,3.222,3.506,10.408.625S46.021,62.457,46.021,62.457Z" transform="translate(18.604 -32.749)" fill="#4e6454" stroke="#4e6454" stroke-width="0.75"/>
        <path id="Path_106-2" data-name="Path 106" d="M57.913,60.006s-1.727-1.862-3.525-1.768S47.35,59.826,43.521,61.6c-4.561,2.109-6.688,3.757-11.406,5.479-8.122,2.965-10.945,1.648-10.574,2s3.449,4.908,12.532,2.416c4.324-1.186,8.647-4.142,14.092-7.063A78.415,78.415,0,0,1,57.913,60.006Z" transform="translate(1.764 -33.595)" fill="#4e6454" stroke="#4e6454" stroke-width="0.75"/>
        <path id="Path_107-2" data-name="Path 107" d="M66.22,56.794a4.174,4.174,0,0,0-2.893-1.882,65.648,65.648,0,0,0-14.2,1.882c-6.647,1.585-5.858,2.571-12.679,4.159s-11.7,1.355-11.26,1.826,4.361,4.428,11.945,3.771,10.249-4.307,17.917-6.6S66.22,56.794,66.22,56.794Z" transform="translate(-10.546 -34.661)" fill="#4e6454" stroke="#4e6454" stroke-width="0.75"/>
        <path id="Path_108-2" data-name="Path 108" d="M73.431,54.041s-.9-3.091-3.01-3.387-10.4.317-15.482,1.258-7.336,2.358-14.735,3-12.618-1.789-12.288-1.3a12.073,12.073,0,0,0,11.455,6.6c8.209-.282,10.8-3.326,20.365-5.008S73.431,54.041,73.431,54.041Z" transform="translate(-20.767 -36.047)" fill="#4e6454" stroke="#4e6454" stroke-width="0.75"/>
        <path id="Path_109-2" data-name="Path 109" d="M77.127,50.015s-1.56-2.592-3.241-2.874a110.574,110.574,0,0,0-17.281,0c-8.728.535-9.244,1.223-16.422,1.468S29.9,46.764,30.173,47.141a21.391,21.391,0,0,0,13.06,6.238c7.8.719,9.992-2.33,18.466-3.171A89.815,89.815,0,0,1,77.127,50.015Z" transform="translate(-26.937 -37.249)" fill="#4e6454" stroke="#4e6454" stroke-width="0.75"/>
        <path id="Path_110-2" data-name="Path 110" d="M80.1,47.018s-.693-2.4-2.158-3.1-5.369-1.617-13.251-1.505-9.263,1.244-17.668,0-14.61-3.242-14.307-2.776a13.575,13.575,0,0,0,8.561,8.045c6.759,2.324,12.575-.235,20.874-.668S80.1,47.018,80.1,47.018Z" transform="translate(-32.704 -39.572)" fill="#4e6454" stroke="#4e6454" stroke-width="0.75"/>
      </g>
      <g id="Left_Middle_wings" data-name="Left Middle wings" transform="translate(48.267 20.063)">
        <path id="Path_81-2" data-name="Path 81" d="M-41.782,55.58c.579.186.549,5.941.549,5.941a10.454,10.454,0,0,1-2.04,3.259c-1.264,1.222-2.88,1.919-3.017,1.63s1.615-2.955,2.742-5.632S-42.36,55.395-41.782,55.58Z" transform="translate(127.024 -38.691)" fill="none" stroke="#4e6454" stroke-width="1"/>
        <path id="Path_82-2" data-name="Path 82" d="M-35.879,55.5s-2.931-.454-3.634.5-.771,2.228-1.92,4.868-3.137,5.281-2.794,5.57,2.562-1.052,4.594-3.734A35.608,35.608,0,0,0-35.879,55.5Z" transform="translate(119.442 -38.751)" fill="none" stroke="#4e6454" stroke-width="1"/>
        <path id="Path_83-2" data-name="Path 83" d="M-29.716,55.678s-2.659-.29-3.4.185-.979,2.085-2.175,4.807-4.857,6.617-3.137,5.838a12.586,12.586,0,0,0,5.48-4.367A23.758,23.758,0,0,0-29.716,55.678Z" transform="translate(107.366 -38.685)" fill="none" stroke="#4e6454" stroke-width="1"/>
        <path id="Path_84-2" data-name="Path 84" d="M-24.046,55.324s-2.886-.243-3.666.4-.908,2.511-2.117,5.283-4.826,6.133-3.383,5.658a8.364,8.364,0,0,0,5.344-3.54A35.572,35.572,0,0,0-24.046,55.324Z" transform="translate(95.851 -38.785)" fill="none" stroke="#4e6454" stroke-width="1"/>
        <path id="Path_85-2" data-name="Path 85" d="M-17.694,55.47s-2.415-.37-3.519.617-2.248,4.27-3.989,6.973-3.6,4.229-3.085,4.376,3.356-.741,6-3.732S-17.694,55.47-17.694,55.47Z" transform="translate(83.825 -38.746)" fill="none" stroke="#4e6454" stroke-width="1"/>
        <path id="Path_86-2" data-name="Path 86" d="M-10.1,55.781s-2.431-.67-3.366.134-2.8,4.839-5.192,7.884-5.012,4.344-4.357,4.3,3.273.262,6.541-2.9S-10.1,55.781-10.1,55.781Z" transform="translate(70.463 -38.708)" fill="none" stroke="#4e6454" stroke-width="1"/>
        <path id="Path_87-2" data-name="Path 87" d="M-.518,55.08a6.256,6.256,0,0,0-3.946.456c-.879.49-2.386,2.574-5.459,6.114s-9.314,5.364-8.133,5.578S-11.794,68.784-8.029,65A64.666,64.666,0,0,0-.518,55.08Z" transform="translate(55.491 -38.892)" fill="none" stroke="#4e6454" stroke-width="1"/>
        <path id="Path_88-2" data-name="Path 88" d="M8.512,54.685s-3.858-.41-4.669,0a26.135,26.135,0,0,0-8.5,5.859c-3.69,3.9-9.373,4.981-8.32,5.61S-5.058,67.4-.444,63.06,8.512,54.685,8.512,54.685Z" transform="translate(40.865 -39.034)" fill="none" stroke="#4e6454" stroke-width="1"/>
        <path id="Path_89-2" data-name="Path 89" d="M18.427,54.123s-3.3-1.938-5.706-1.16A38.431,38.431,0,0,0,1.714,59.308c-4.606,3.835-9.682,2.355-8.4,3.3S.237,66.455,6.03,61.5A45.925,45.925,0,0,1,18.427,54.123Z" transform="translate(24.136 -39.586)" fill="none" stroke="#4e6454" stroke-width="1"/>
        <path id="Path_90-2" data-name="Path 90" d="M25.988,51.859s-2.183-2.538-3.718-2.4a31.275,31.275,0,0,0-11.963,4.393C4.686,57.2-1.715,55.178-1.223,56.363S.927,61.9,7.67,60.547c3.648-.733,7.354-4.206,11.558-6.415A27.681,27.681,0,0,1,25.988,51.859Z" transform="translate(10.387 -40.65)" fill="none" stroke="#4e6454" stroke-width="1"/>
        <path id="Path_91-2" data-name="Path 91" d="M31.3,48.5a8.956,8.956,0,0,0-2.276-2.063c-1.069-.529-9.964,2.219-16.581,2.887s-10.725-.481-9.75.53,2.628,4.643,9.75,4.455c3.7-.1,6.782-2.269,11.628-3.932A49.564,49.564,0,0,1,31.3,48.5Z" transform="translate(0.914 -41.638)" fill="none" stroke="#4e6454" stroke-width="1"/>
        <path id="Path_92-2" data-name="Path 92" d="M34.568,45.771s-1.507-2.8-3.284-2.969-9.118,1.005-16.289.831-10.755-.606-10.48-.153,1.906,4.636,9.016,5.034c3.946.221,6.09-1.092,11.222-1.8C28.282,46.234,34.568,45.771,34.568,45.771Z" transform="translate(-4.5 -42.786)" fill="none" stroke="#4e6454" stroke-linecap="round" stroke-width="1"/>
      </g>
      <g id="Left_Top_Wing" data-name="Left Top Wing" transform="translate(79.878 21.261)">
        <path id="Path_35-2" data-name="Path 35" d="M-43.216,50.419c1.365.06,3.279,2.378,3.279,2.378l-2.714,2.676L-46.4,53.32S-44.58,50.359-43.216,50.419Z" transform="translate(94.225 -41.351)" fill="#4e6454"/>
        <path id="Path_36-2" data-name="Path 36" d="M-36.53,49.365s-1.877-2.36-3.325-2.145-3.051,2.352-3.051,2.352l3.394,3.342Z" transform="translate(86.991 -42.38)" fill="#4e6454"/>
        <path id="Path_37-2" data-name="Path 37" d="M-33.014,52.482s-1.813-2.1-3.462-1.887-3.336,2.256-3.336,2.256l4.125,2.86Z" transform="translate(80.082 -41.299)" fill="#4e6454"/>
        <path id="Path_38-2" data-name="Path 38" d="M-26.436,52.264c-.067-.054-1.653-2.273-3.178-2.136s-2.919,2.687-2.919,2.687l2.919,2.8Z" transform="translate(65.517 -41.445)" fill="#4e6454"/>
        <path id="Path_39-2" data-name="Path 39" d="M-29.821,49.678s-1.593-2.782-3.034-2.806-3.411,2.62-3.411,2.62l3.308,2.971Z" transform="translate(72.998 -42.486)" fill="#4e6454"/>
        <path id="Path_40-2" data-name="Path 40" d="M-23.172,49.58S-24.635,46.958-26,46.857s-3.36,2.723-3.36,2.723l3.017,3.156Z" transform="translate(58.772 -42.492)" fill="#4e6454"/>
        <path id="Path_41-2" data-name="Path 41" d="M-19.671,52.766s-1.887-2.653-3.185-2.512-2.919,2.789-2.919,2.789l3.142,2.95Z" transform="translate(51.34 -41.405)" fill="#4e6454"/>
        <path id="Path_42-2" data-name="Path 42" d="M-13.076,53s-1.222-2.875-2.731-2.875S-19.109,53-19.109,53l2.822,2.011Z" transform="translate(37.432 -41.444)" fill="#4e6454"/>
        <path id="Path_43-2" data-name="Path 43" d="M-7.483,52.611s-1.33-2.921-2.577-2.9S-12.865,52-12.865,52l2.406,2.5Z" transform="translate(24.989 -41.576)" fill="#4e6454"/>
        <path id="Path_44-2" data-name="Path 44" d="M-2.357,51.879s-1.091-2.328-2.1-2.569-2.345,1.7-2.345,1.7l2.345,1.882Z" transform="translate(13.219 -41.712)" fill="#4e6454"/>
        <path id="Path_45-2" data-name="Path 45" d="M-4.893,48.714S-6.373,46.332-7.7,46.4s-3,2.31-3,2.31l3.171,2.5Z" transform="translate(20.028 -42.637)" fill="#4e6454"/>
        <path id="Path_46-2" data-name="Path 46" d="M.786,48.84s-1.628-2.671-2.828-2.764S-4.75,48.3-4.75,48.3l2.708,2.665Z" transform="translate(7.818 -42.742)" fill="#4e6454"/>
        <path id="Path_47-2" data-name="Path 47" d="M3.486,45.151A6.5,6.5,0,0,0,.71,43.563a4.471,4.471,0,0,0-2.725,1.114L.5,47.792Z" transform="translate(2.016 -43.55)" fill="#4e6454"/>
        <path id="Path_48-2" data-name="Path 48" d="M-2.2,45.3s-1.5-1.537-2.742-1.568S-7.7,45.217-7.7,45.217l2.674,3.053Z" transform="translate(14.045 -43.492)" fill="#4e6454"/>
        <path id="Path_49-2" data-name="Path 49" d="M-8.058,45.447s-1.44-1.578-2.742-1.63-3.137,1.63-3.137,1.63l2.965,3.032Z" transform="translate(26.741 -43.62)" fill="#4e6454"/>
        <path id="Path_50-2" data-name="Path 50" d="M-10.82,49.19s-1.436-2.6-2.845-2.6-3.257,2.393-3.257,2.393l3.12,2.661Z" transform="translate(32.777 -42.576)" fill="#4e6454"/>
        <path id="Path_51-2" data-name="Path 51" d="M-14.319,45.34s-1.243-1.619-2.605-1.588-3.154,1.588-3.154,1.588l2.708,2.929Z" transform="translate(39.807 -43.41)" fill="#4e6454"/>
        <path id="Path_52-2" data-name="Path 52" d="M-20.547,45.753s-1.671-1.733-2.88-1.733S-26.2,45.568-26.2,45.568l2.537,3.094Z" transform="translate(52.685 -43.554)" fill="#4e6454"/>
        <path id="Path_53-2" data-name="Path 53" d="M-26.778,45.769a4.616,4.616,0,0,0-2.9-1.609A6.6,6.6,0,0,0-33,45.645l2.982,3.4Z" transform="translate(66.372 -43.57)" fill="#4e6454"/>
        <path id="Path_54-2" data-name="Path 54" d="M-17.082,49.443s-1.508-2.326-2.777-2.352-3.017,2.084-3.017,2.084l2.76,2.867Z" transform="translate(45.569 -42.416)" fill="#4e6454"/>
        <path id="Path_55-2" data-name="Path 55" d="M-33.462,45.987s-1.628-1.774-2.914-1.774-3.24,1.588-3.24,1.588l3.137,3.177Z" transform="translate(80.323 -43.499)" fill="#4e6454"/>
        <path id="Path_56-2" data-name="Path 56" d="M-39.777,46.177l-3,3.259-3.24-3.259s1.626-1.877,3.1-1.877S-39.777,46.177-39.777,46.177Z" transform="translate(93.649 -43.525)" fill="#4e6454"/>
        <path id="Path_57-2" data-name="Path 57" d="M-43.364,48.756s-1.852-2.636-3.112-2.174-2.493,3.35-2.493,3.35l3.428,2.517Z" transform="translate(100.476 -42.597)" fill="#4e6454"/>
      </g>
    </g>
    <g id="Sun" transform="translate(305.227 396.617)">
      <g id="Ellipse_3" data-name="Ellipse 3" fill="#635139" stroke="#635139" stroke-width="1">
        <ellipse cx="20.739" cy="18.626" rx="20.739" ry="18.626" stroke="none"/>
        <ellipse cx="20.739" cy="18.626" rx="20.239" ry="18.126" fill="none"/>
      </g>
      <g id="Ellipse_4" data-name="Ellipse 4" transform="translate(3.017 2.866)" fill="#b4843d" stroke="#b4843d" stroke-width="1">
        <ellipse cx="18.1" cy="17.193" rx="18.1" ry="17.193" stroke="none"/>
        <ellipse cx="18.1" cy="17.193" rx="17.6" ry="16.693" fill="none"/>
      </g>
    </g>
    <g id="Group_18" data-name="Group 18" transform="translate(299.657 510.534)">
      <path id="Path_262" data-name="Path 262" d="M51.536,5.027S47.066.5,26.276.028,0,5.134,0,5.134" transform="matrix(1, 0.017, -0.017, 1, 0.09, 0)" fill="none" stroke="#81735f" stroke-linecap="round" stroke-width="1"/>
      <path id="Path_263" data-name="Path 263" d="M39.371,4.111S33.336.486,18.615.027,0,5.144,0,5.144" transform="matrix(0.999, 0.035, -0.035, 0.999, 7.515, 6.603)" fill="none" stroke="#81735f" stroke-linecap="round" stroke-width="1"/>
      <path id="Path_264" data-name="Path 264" d="M41.221,6.619S30.6.635,18.887.038A27.4,27.4,0,0,0,0,6.044" transform="translate(5.542 3.697) rotate(-1)" fill="none" stroke="#81735f" stroke-linecap="round" stroke-width="1"/>
    </g>
    <g id="Book" transform="translate(293.932 552.643)">
      <path id="Path_283" data-name="Path 283" d="M-1.038,14.539,9.524-1.112" transform="translate(28.086 11.661)" fill="none" stroke="#707070" stroke-width="1"/>
      <path id="Path_266" data-name="Path 266" d="M5090.179,663.965l-16.669,21.9,24.04,2.66,13.338-2.66L5125.424,666l-17.152,6.955Z" transform="translate(-5071.076 -662.236)" fill="none" stroke="#707070" stroke-width="0.77"/>
      <path id="Path_267" data-name="Path 267" d="M18.69,0,0,20.882l26.473,5.409s14.68,1.8,16.9,0,13.2-17.945,13.2-17.945l-19.6,2.722Z" transform="translate(0 0)" fill="none" stroke="#707070" stroke-width="0.77"/>
      <path id="Path_268" data-name="Path 268" d="M5088.963,665.249l-12,16.524,20.364,6.753,13.338-2.66L5125.2,666l-19.294,6.8Z" transform="translate(-5068.988 -661.435)" fill="none" stroke="#707070" stroke-width="0.77"/>
    </g>
    <g id="Group_17" data-name="Group 17" transform="translate(307.315 580.589)">
      <path id="Path_269" data-name="Path 269" d="M36.359,2.873S33.274.026,18.66,0,0,3.723,0,3.723" transform="matrix(0.934, 0.358, -0.358, 0.934, 2.309, 0)" fill="none" stroke="#81735f" stroke-width="1"/>
      <path id="Path_270" data-name="Path 270" d="M36.687,3.177S33.524.3,18.794.016,0,3.338,0,3.338" transform="matrix(0.999, 0.035, -0.035, 0.999, 0.442, 4.81)" fill="none" stroke="#81735f" stroke-width="1"/>
      <path id="Path_271" data-name="Path 271" d="M36.546,3.244S33.7.586,19.026.058,0,2.8,0,2.8" transform="matrix(0.966, -0.259, 0.259, 0.966, 0.603, 16.135)" fill="none" stroke="#81735f" stroke-width="1"/>
      <path id="Path_272" data-name="Path 272" d="M36.755,2.651S34.073.3,19.344.018,0,2.787,0,2.787" transform="matrix(0.999, 0.035, -0.035, 0.999, 0.3, 12.067)" fill="none" stroke="#81735f" stroke-width="1"/>
      <path id="Path_273" data-name="Path 273" d="M36.821,2.278S33.626.3,18.9.02,0,2.447,0,2.447" transform="matrix(0.999, 0.035, -0.035, 0.999, 0.085, 17.866)" fill="none" stroke="#81735f" stroke-width="1"/>
      <path id="Path_274" data-name="Path 274" d="M36.384,1.968S33.274-.006,18.693,0,0,2.714,0,2.714" transform="translate(2.345 10.244) rotate(24)" fill="none" stroke="#81735f" stroke-width="1"/>
      <path id="Path_275" data-name="Path 275" d="M36.565,1.149S33.347.318,18.617.037,0,1.153,0,1.153" transform="matrix(0.999, 0.035, -0.035, 0.999, 0.088, 23.598)" fill="none" stroke="#81735f" stroke-width="1"/>
      <path id="Path_276" data-name="Path 276" d="M36.346.929S32.838.015,18.235,0,0,1.534,0,1.534" transform="translate(1.719 18.399) rotate(22)" fill="none" stroke="#81735f" stroke-width="1"/>
      <path id="Path_277" data-name="Path 277" d="M36.707,3.208l.052,3.937S33.239,5.215,18.738,4.8.047,7.369.047,7.369L0,3.551S2.2-.13,18.14,0,36.707,3.208,36.707,3.208Z" transform="translate(1.764 29.876) rotate(8)" fill="#626975" stroke="#626975" stroke-width="1"/>
    </g>
    <g id="Eye" transform="translate(309.27 520.445)">
      <path id="Path_278" data-name="Path 278" d="M324.434,543.069s2.371.938,3.834,0c2.366-1.519,5.718-3.819,8.273-3.7,3.708.166,11.5,4.559,11.5,4.559h11.4" transform="translate(-324.434 -533.72)" fill="none" stroke="#707070" stroke-width="1"/>
      <g id="Path_280" data-name="Path 280" transform="translate(5.549 6.28)" fill="#707070">
        <path d="M 6.820895195007324 7.60993766784668 C 5.436905384063721 7.60993766784668 4.399205207824707 7.124937534332275 3.736615180969238 6.168397426605225 C 3.04916524887085 5.175987720489502 2.974945306777954 4.007587432861328 2.974945306777954 3.551307439804077 C 2.974945306777954 2.674437522888184 3.252285242080688 -0.1865824460983276 6.820895195007324 -0.1865824460983276 C 10.2136754989624 -0.1865824460983276 10.97726535797119 3.068597555160522 10.97726535797119 4.208917617797852 C 10.97726535797119 5.777827739715576 9.888725280761719 7.60993766784668 6.820895195007324 7.60993766784668 Z" stroke="none"/>
        <path d="M 6.820895195007324 0.3134174346923828 C 5.583845138549805 0.3134174346923828 4.675994873046875 0.6836676597595215 4.122554779052734 1.413887500762939 C 3.538044929504395 2.185117721557617 3.474945068359375 3.165567398071289 3.474945068359375 3.551307439804077 C 3.474945068359375 3.870647668838501 3.523455619812012 4.982617378234863 4.147635459899902 5.883687496185303 C 4.719215393066406 6.708827495574951 5.593645095825195 7.10993766784668 6.820895195007324 7.10993766784668 C 10.30098533630371 7.10993766784668 10.47726535797119 4.693357467651367 10.47726535797119 4.208917617797852 C 10.47726535797119 3.198307514190674 9.805535316467285 0.3134174346923828 6.820895195007324 0.3134174346923828 M 6.820895195007324 -0.6865825653076172 C 10.34710502624512 -0.6865825653076172 11.47726535797119 2.548937320709229 11.47726535797119 4.208917617797852 C 11.47726535797119 5.868897438049316 10.34710502624512 8.10993766784668 6.820895195007324 8.10993766784668 C 3.294685363769531 8.10993766784668 2.474945068359375 5.211287498474121 2.474945068359375 3.551307439804077 C 2.474945068359375 1.891327381134033 3.294685363769531 -0.6865825653076172 6.820895195007324 -0.6865825653076172 Z" stroke="none" fill="#707070"/>
      </g>
      <path id="Path_279" data-name="Path 279" d="M328.1,542.905s4.044,5.05,8,5.287,12.006-4.18,12.006-4.18" transform="translate(-324.199 -533.713)" fill="none" stroke="#707070" stroke-width="1"/>
      <path id="Path_281" data-name="Path 281" d="M333.871,547.7s6.828,4.871,12.357,5.748,6.616-.33,7.588-1.8-.175-2.448-2.1-2.338-4.016,1.315-3.415,2.338,3.415-.438,3.415-.438" transform="translate(-323.829 -533.704)" fill="none" stroke="#707070" stroke-width="1"/>
      <path id="Path_282" data-name="Path 282" d="M334.73,548.1l-1.612,5.34-3.7,2.923,1.492-3.71v-2.7l2.209-.618L332.4,546.8" transform="translate(-324.115 -533.706)" fill="none" stroke="#707070" stroke-width="1"/>
      <path id="Path_265" data-name="Path 265" d="M35.628,3.847A42.394,42.394,0,0,1,24.6,3.187C21.4,2.543,18.211.1,14.9.009A28.245,28.245,0,0,0,0,4.046" transform="matrix(0.999, 0.035, -0.035, 0.999, 1.258, 0)" fill="none" stroke="#81735f" stroke-width="1"/>
    </g>
  </g>
</svg>
