<svg xmlns="http://www.w3.org/2000/svg" width="650.814" height="410.565" viewBox="0 0 186.814 208.565">
  <g id="MKH_Machine_Outline" data-name="MKH Machine Outline" transform="translate(-109.775 -119.985)">
    <path id="Path_330" data-name="Path 330" d="M7788.072,98.2l14.4-8.359,42.578-12.167,55.148-32.53,56.754,32.737.634,103.442-56.121,31.706-17.343,20.956-30.058,17.409-76.6-44.845v-10.99s-.056,3.164,0-.833-5.218-4.33-4.663-9.492,1.388-10.047,1.388-10.047l6.712-33.115a53.092,53.092,0,0,1,1.895-7.313c1.062-2.791,5.2-1.819,5.2-1.819l.068-17.405-3.587-9.009Z" transform="translate(-7662 76)" fill="none" stroke="rgba(180,132,61,0.61)" stroke-width="2"/>
    <path id="Path_331" data-name="Path 331" d="M7807.171,137.876l17.652,10.008-14.165,7.974V187l40.993,23.827.4-31.245,13.638-7.5,17.974,10.8.217,33.573s-.115,4.368,1.227,6.35,3.87,2.029,4.112,4.474,0,34.578,0,34.578l-23.482,22-4.634,1.585-79.388-45.73" transform="translate(-7666.614 28.208)" fill="none" stroke="#b4843d" stroke-width="2"/>
    <path id="Path_332" data-name="Path 332" d="M7924.263,114.394l55.645,31.944V248.354" transform="translate(-7740.078 40.31)" fill="none" stroke="#b4843d" stroke-width="2"/>
    <path id="Path_333" data-name="Path 333" d="M7880.816,213.08a8.3,8.3,0,0,0-4.766-7.3l-28.723-16.829s-3.386-1.958-3.377,1.756.076,8.932,0,11.87a5.023,5.023,0,0,0,2.064,4.291l31.237,18.1s3.549,1.266,3.564-2.925S7880.831,218.331,7880.816,213.08Z" transform="translate(-7698.686 2.152)" fill="none" stroke="#b4843d" stroke-width="1"/>
    <path id="Path_334" data-name="Path 334" d="M7849.435,197.583v10.174l31.316,18.04v-9.381Z" transform="translate(-7701.514 -2.564)" fill="none" stroke="#b4843d" stroke-width="1"/>
    <path id="Path_335" data-name="Path 335" d="M7846.156,187.4a3.6,3.6,0,0,1,3.121-.563c1.5.629,31.472,17.984,31.472,17.984a5.905,5.905,0,0,1,2.887,4.94c.111,3.5.166,8.715,0,12.045s-4.33,2.609-4.33,2.609" transform="translate(-7699.824 3.068)" fill="none" stroke="#b4843d" stroke-width="1"/>
    <path id="Path_336" data-name="Path 336" d="M7822.5,164.352l-18.04-10.247" transform="translate(-7678.335 19.843)" fill="none" stroke="#b4843d" stroke-width="1"/>
    <path id="Path_337" data-name="Path 337" d="M7814.863,187.846l-3.428-8.059-13.674-7.664,3.542,8.8,13.744,7.175.1-15.976-3.716,7.841" transform="translate(-7674.883 10.558)" fill="none" stroke="#b4843d" stroke-width="1"/>
    <path id="Path_338" data-name="Path 338" d="M7927.379,167.3l17.823,10.506,17.076-9.446,18.78-22.8,55.853-32.072" transform="translate(-7741.684 40.778)" fill="none" stroke="#b4843d" stroke-width="1"/>
    <path id="Path_339" data-name="Path 339" d="M7959.12,246.425v30.828s-.085,5.038,1.793,6.618,3.543,2.6,2.775,6.319-9.593,49.469-9.593,49.469" transform="translate(-7755.453 -27.735)" fill="none" stroke="#b4843d" stroke-width="1"/>
    <path id="Path_340" data-name="Path 340" d="M7801.862,226.692l80.73,47.208" transform="translate(-7676.996 -17.566)" fill="none" stroke="#b4843d" stroke-width="1"/>
    <path id="Path_341" data-name="Path 341" d="M7797.217,254.564c-5.323-3.1-4.825.726-4.825.726l.215,38.3s-.042,5.978,4.1,7.984,54.321,31.218,57.868,33.288,3.255-2.955,3.255-2.955V295.079s.425-5.345-4.239-8.005S7802.54,257.663,7797.217,254.564Z" transform="translate(-7672.109 -31.306)" fill="none" stroke="#b4843d" stroke-width="1"/>
    <path id="Path_342" data-name="Path 342" d="M7801.947,264.674c-3.752-2.237-3.4,2.131-3.4,2.131l.179,29.878s-.116,5.325,2.7,7.055,44.739,26.2,50.777,29.758,5.731-2.18,5.731-2.18v-28.78a8.735,8.735,0,0,0-4.878-7.927C7847.747,291.641,7805.7,266.911,7801.947,264.674Z" transform="translate(-7675.282 -36.812)" fill="none" stroke="#b4843d" stroke-width="1"/>
    <path id="Path_343" data-name="Path 343" d="M7794.042,249.575c.854-.1,11.444-4.719,13.842-3.272s53.459,30.875,58.025,33.56,3.618,6.56,3.618,6.56-7.48,37.795-8.164,41.442a4.54,4.54,0,0,1-4.368,3.679" transform="translate(-7672.966 -27.528)" fill="none" stroke="#b4843d" stroke-width="1"/>
  </g>
</svg>
