<svg xmlns="http://www.w3.org/2000/svg" width="183.743" height="164.081" viewBox="0 0 183.743 164.081">
  <g id="Media_Graphic" data-name="Media Graphic" transform="translate(-178.149 -396.617)">
    <g id="Beetle_Wing_Fonebox_twitter_video" data-name="Beetle Wing Fonebox twitter video" transform="translate(178.539 426.586)">
      <g id="Black_Beetle" data-name="Black Beetle" transform="translate(81.976 0)">
        <path id="Path_7" data-name="Path 7" d="M22.9,54.921h2.183l1.724,2.189H28.2l1.595-2.189h2.394s1.14,4.882,0,8.081a7.789,7.789,0,0,1-4.561,4.316h-.819S23.327,66.2,22.362,63,22.9,54.921,22.9,54.921Z" transform="translate(-17.573 -33.645)" fill="#637a69" stroke="#637a69" stroke-width="1.5"/>
        <path id="Path_10" data-name="Path 10" d="M37.222,57.5" transform="translate(-22.101 -34.095)" fill="none" stroke="#637a69" stroke-width="1"/>
        <path id="Path_25" data-name="Path 25" d="M0,5" transform="translate(0 26.937)" fill="none" stroke="#637a69" stroke-width="1.5"/>
        <path id="Path_23" data-name="Path 23" d="M7.781,20.25a10.815,10.815,0,0,0,5.379,1.775,11.769,11.769,0,0,0,5.645-1.731" transform="translate(-3.491 5.734)" fill="none" stroke="#1c1b1b" stroke-linecap="round" stroke-width="1"/>
        <path id="Path_24" data-name="Path 24" d="M15.605,22.114l-.043,6.1" transform="translate(-5.958 5.645)" fill="none" stroke="#1c1b1b" stroke-linecap="round" stroke-width="1"/>
        <path id="Path_26" data-name="Path 26" d="M9.723,12.922s.4-3.092,1.637-4.179a4.707,4.707,0,0,1,5.383,0c1.478,1.165,1.845,4.179,1.845,4.179H15.3l-1.28,1.828-1.412-1.828Z" transform="translate(-4.107 6.32)" fill="#637a69" stroke="#637a69" stroke-linejoin="round" stroke-width="1.5"/>
        <g id="Right_Legs" data-name="Right Legs" transform="translate(12.367 23.432)">
          <path id="Path_111" data-name="Path 111" d="M-52.507,60.719c.075,0,2.557-.084,3.119.543s-.637,6.292-1.048,7.18A43.223,43.223,0,0,1-53.3,73.769c-.426.32,1.835-4.674,1.7-4.909s-1.994,1.338-1.779.6,2.329-2.632,2.572-3.311.68-3.05.268-3.6a11.106,11.106,0,0,0-2.531-1.527Z" transform="translate(53.393 -52.005)" fill="#637a69" stroke="#637a69" stroke-width="1"/>
          <path id="Path_112" data-name="Path 112" d="M-49.558,51.925s1.5-.679,1.7-.157a53.038,53.038,0,0,1-.3,7.284c-.117.242-.225-5.77-.337-6.449S-49.558,51.925-49.558,51.925Z" transform="translate(52.178 -51.571)" fill="#637a69" stroke="#637a69" stroke-width="1"/>
        </g>
        <g id="Left_Legs" data-name="Left Legs" transform="translate(2.05 23.123)">
          <path id="Path_111-2" data-name="Path 111" d="M-50.127,60.719c-.075,0-2.557-.084-3.119.543s.637,6.292,1.048,7.18a43.223,43.223,0,0,0,2.864,5.326c.426.32-1.835-4.674-1.7-4.909s1.994,1.338,1.779.6-2.329-2.632-2.572-3.311-.68-3.05-.268-3.6a11.106,11.106,0,0,1,2.531-1.527Z" transform="translate(53.393 -52.005)" fill="#637a69" stroke="#637a69" stroke-width="1"/>
          <path id="Path_112-2" data-name="Path 112" d="M-47.8,51.925s-1.5-.679-1.7-.157a53.037,53.037,0,0,0,.3,7.284c.117.242.225-5.77.337-6.449S-47.8,51.925-47.8,51.925Z" transform="translate(50.011 -51.571)" fill="#637a69" stroke="#637a69" stroke-width="1"/>
        </g>
        <path id="Path_113" data-name="Path 113" d="M-53.356,42.983s3.126.631,3.578,0,.946-5.335.7-6.252-1.878-2.2-1.867-2.435,1.486.021,1.537-.663-2.047-6.815-1.872-6.658,2.777,3.525,3.164,6.517.108,10.122-.8,11.031a3.828,3.828,0,0,1-3.368.468C-52.41,44.761-53.356,42.983-53.356,42.983Z" transform="translate(65.748 -26.972)" fill="#637a69" stroke="#637a69" stroke-width="1"/>
        <path id="Path_114" data-name="Path 114" d="M-47.945,42.983s-3.126.631-3.578,0-.946-5.335-.7-6.252,1.878-2.2,1.867-2.435-1.486.021-1.537-.663,2.047-6.815,1.872-6.658S-52.8,30.5-53.186,33.491s-.108,10.122.8,11.031a3.828,3.828,0,0,0,3.368.468C-48.891,44.761-47.945,42.983-47.945,42.983Z" transform="translate(54.284 -26.972)" fill="#637a69" stroke="#637a69" stroke-width="1"/>
      </g>
      <g id="Right_Bottom_Wing" data-name="Right Bottom Wing" transform="translate(99.467 12.002)">
        <path id="Path_93" data-name="Path 93" d="M-46.028,64.682c-.279-.139-.31,3.507-.31,3.507S-44.1,70.473-43.8,70.4s-.682-.626-1.333-2.493S-45.749,64.821-46.028,64.682Z" transform="translate(46.338 -40.764)" fill="#4e6454" stroke="#4e6454" stroke-width="0.75"/>
        <path id="Path_94" data-name="Path 94" d="M-43.694,64.922a4.868,4.868,0,0,1,2.094.124c.5.324.452,1.182,1.024,2.577s1.543,3.142,1.265,3a3.715,3.715,0,0,1-2.577-1.437A14.623,14.623,0,0,1-43.694,64.922Z" transform="translate(45.5 -40.773)" fill="#4e6454" stroke="#4e6454" stroke-width="0.75"/>
        <path id="Path_95" data-name="Path 95" d="M-37.937,65.041s1.573-.3,2.083.288.536,1.831,1.34,3.43,1.479,2.73,1.241,2.642a3.469,3.469,0,0,1-2.493-1.638A16.335,16.335,0,0,1-37.937,65.041Z" transform="translate(43.675 -40.777)" fill="#4e6454" stroke="#4e6454" stroke-width="0.75"/>
        <path id="Path_96" data-name="Path 96" d="M-32.947,65.226a5.31,5.31,0,0,1,1.965.3c.472.316.749,1.864,1.648,3.548a31.226,31.226,0,0,1,1.8,3.3,10.67,10.67,0,0,1-3.379-2.827A13.271,13.271,0,0,1-32.947,65.226Z" transform="translate(42.093 -40.79)" fill="#4e6454" stroke="#4e6454" stroke-width="0.75"/>
        <path id="Path_97" data-name="Path 97" d="M-28.075,65.152a4.524,4.524,0,0,1,2.149.494c.532.479.475,1.8,1.394,3.528s2.431,3.434,2.284,3.394a5.843,5.843,0,0,1-3.324-2.2A20.008,20.008,0,0,1-28.075,65.152Z" transform="translate(40.549 -40.786)" fill="#4e6454" stroke="#4e6454" stroke-width="0.75"/>
        <path id="Path_98" data-name="Path 98" d="M-22.674,65.525a4.3,4.3,0,0,1,2.06.294c.64.414.574,1.886,1.557,3.792s2.935,3.671,2.621,3.6a4.711,4.711,0,0,1-3.613-1.879C-21.687,69.375-22.674,65.525-22.674,65.525Z" transform="translate(38.837 -40.803)" fill="#4e6454" stroke="#4e6454" stroke-width="0.75"/>
        <path id="Path_99" data-name="Path 99" d="M-17.176,66s1.852-.134,2.427.371.5,1.589,1.479,3.554,2.666,4.2,2.453,4.125a10.723,10.723,0,0,1-3.932-3A14.707,14.707,0,0,1-17.176,66Z" transform="translate(37.094 -40.826)" fill="#4e6454" stroke="#4e6454" stroke-width="0.75"/>
        <path id="Path_100" data-name="Path 100" d="M-11.662,66.428s1.6-.363,2.293.247.561,1.765,1.591,3.73,2.861,3.894,2.6,3.812a5.1,5.1,0,0,1-3.44-2.011A22.818,22.818,0,0,1-11.662,66.428Z" transform="translate(35.346 -40.842)" fill="#4e6454" stroke="#4e6454" stroke-width="0.75"/>
        <path id="Path_101" data-name="Path 101" d="M-6.524,65.975a4.907,4.907,0,0,1,2.417.281c.618.466.611,1.547,1.945,3.714s3.187,4.476,2.974,4.5-2.085.081-4.032-2.086S-6.524,65.975-6.524,65.975Z" transform="translate(33.717 -40.824)" fill="#4e6454" stroke="#4e6454" stroke-width="0.75"/>
        <path id="Path_102" data-name="Path 102" d="M-.822,65.719s1.984-.5,2.752,0,1.395,2.617,3.033,4.83S8.7,74.693,8.314,74.6a8.729,8.729,0,0,1-5.223-2.245C.7,70.177-.822,65.719-.822,65.719Z" transform="translate(31.91 -40.803)" fill="#4e6454" stroke="#4e6454" stroke-width="0.75"/>
        <path id="Path_103" data-name="Path 103" d="M5.7,65.051a4.22,4.22,0,0,1,2.34-.339c.805.313,2.041,1.971,4.437,4.569s4.964,4.9,4.662,4.935a8.343,8.343,0,0,1-6.312-1.945C7.791,69.823,5.7,65.051,5.7,65.051Z" transform="translate(29.842 -40.761)" fill="#4e6454" stroke="#4e6454" stroke-width="0.75"/>
        <path id="Path_104" data-name="Path 104" d="M12.2,64.225s1.745-1.352,2.572-.979,4.875,4.719,7.556,6.854,4.63,2.456,4.156,2.663-2.09,2.134-5.651,0S12.2,64.225,12.2,64.225Z" transform="translate(27.783 -40.693)" fill="#4e6454" stroke="#4e6454" stroke-width="0.75"/>
        <path id="Path_105" data-name="Path 105" d="M17,62.017s1.46-1.324,2.507-1.12,6.675,4.553,10.389,6.86,5.456,2.465,5.139,2.61-2.006,2.529-6.48.451S17,62.017,17,62.017Z" transform="translate(26.262 -40.583)" fill="#4e6454" stroke="#4e6454" stroke-width="0.75"/>
        <path id="Path_106" data-name="Path 106" d="M21.508,59.513s1.075-1.343,2.195-1.275a23.642,23.642,0,0,1,6.767,2.423c2.84,1.521,4.164,2.71,7.1,3.953,5.057,2.139,6.815,1.189,6.584,1.445s-2.147,3.541-7.8,1.743c-2.692-.856-5.384-2.988-8.774-5.1A45.741,45.741,0,0,0,21.508,59.513Z" transform="translate(24.832 -40.458)" fill="#4e6454" stroke="#4e6454" stroke-width="0.75"/>
        <path id="Path_107" data-name="Path 107" d="M25.157,56.269s.73-1.324,1.8-1.358A35.578,35.578,0,0,1,35.8,56.269c4.139,1.144,3.647,1.855,7.894,3s7.285.978,7.01,1.318a8.433,8.433,0,0,1-7.437,2.721c-4.722-.474-6.381-3.107-11.156-4.761S25.157,56.269,25.157,56.269Z" transform="translate(23.675 -40.3)" fill="#4e6454" stroke="#4e6454" stroke-width="0.75"/>
        <path id="Path_108" data-name="Path 108" d="M27.9,53.076s.56-2.23,1.874-2.444a42.853,42.853,0,0,1,9.64.908c3.164.679,4.567,1.7,9.175,2.168s7.857-1.29,7.651-.935-2.021,4.965-7.132,4.761-6.724-2.4-12.68-3.613S27.9,53.076,27.9,53.076Z" transform="translate(22.805 -40.095)" fill="#4e6454" stroke="#4e6454" stroke-width="0.75"/>
        <path id="Path_109" data-name="Path 109" d="M30.157,49.127s.971-1.87,2.018-2.074a59.449,59.449,0,0,1,10.76,0c5.434.386,5.756.882,10.225,1.059a13.971,13.971,0,0,0,6.233-1.059,12.861,12.861,0,0,1-8.131,4.5c-4.859.518-6.221-1.681-11.5-2.288A48.292,48.292,0,0,0,30.157,49.127Z" transform="translate(22.09 -39.916)" fill="#4e6454" stroke="#4e6454" stroke-width="0.75"/>
        <path id="Path_110" data-name="Path 110" d="M32.7,44.944s.432-1.735,1.343-2.233,3.343-1.167,8.251-1.086,5.768.9,11,0,9.1-2.339,8.908-2a9.313,9.313,0,0,1-5.33,5.8c-4.208,1.677-7.83-.17-13-.482S32.7,44.944,32.7,44.944Z" transform="translate(21.283 -39.572)" fill="#4e6454" stroke="#4e6454" stroke-width="0.75"/>
      </g>
      <g id="Right_Middle_wings" data-name="Right Middle wings" transform="translate(99.495 15.064)">
        <path id="Path_81" data-name="Path 81" d="M-45.955,55.578c-.36.134-.342,4.286-.342,4.286a7.862,7.862,0,0,0,1.27,2.352c.787.882,1.793,1.384,1.878,1.176s-1.006-2.132-1.708-4.063S-45.6,55.444-45.955,55.578Z" transform="translate(46.297 -43.393)" fill="none" stroke="#4e6454" stroke-width="1"/>
        <path id="Path_82" data-name="Path 82" d="M-44.266,55.465s1.825-.327,2.262.357a32.964,32.964,0,0,1,1.2,3.512c.715,1.905,1.953,3.81,1.74,4.018s-1.6-.759-2.86-2.694A27.455,27.455,0,0,1-44.266,55.465Z" transform="translate(45.653 -43.384)" fill="none" stroke="#4e6454" stroke-width="1"/>
        <path id="Path_83" data-name="Path 83" d="M-38.875,55.653s1.655-.209,2.114.133.61,1.5,1.354,3.468,3.024,4.774,1.953,4.212a8.11,8.11,0,0,1-3.412-3.151A18.446,18.446,0,0,1-38.875,55.653Z" transform="translate(43.944 -43.394)" fill="none" stroke="#4e6454" stroke-width="1"/>
        <path id="Path_84" data-name="Path 84" d="M-33.547,55.311s1.8-.176,2.283.289.565,1.811,1.318,3.812,3.005,4.425,2.107,4.082a5.176,5.176,0,0,1-3.327-2.554A27.649,27.649,0,0,1-33.547,55.311Z" transform="translate(42.255 -43.379)" fill="none" stroke="#4e6454" stroke-width="1"/>
        <path id="Path_85" data-name="Path 85" d="M-28.375,55.451s1.5-.267,2.191.445,1.4,3.08,2.483,5.031,2.244,3.051,1.921,3.157-2.09-.534-3.738-2.692A24.021,24.021,0,0,1-28.375,55.451Z" transform="translate(40.616 -43.385)" fill="none" stroke="#4e6454" stroke-width="1"/>
        <path id="Path_86" data-name="Path 86" d="M-23.117,55.708s1.514-.484,2.1.1,1.746,3.491,3.233,5.688,3.121,3.134,2.713,3.1-2.038.189-4.072-2.1A31.5,31.5,0,0,1-23.117,55.708Z" transform="translate(38.949 -43.39)" fill="none" stroke="#4e6454" stroke-width="1"/>
        <path id="Path_87" data-name="Path 87" d="M-18.2,55.042a3.4,3.4,0,0,1,2.457.329c.547.354,1.485,1.857,3.4,4.411s5.8,3.87,5.064,4.024-3.9,1.122-6.243-1.606A46.88,46.88,0,0,1-18.2,55.042Z" transform="translate(37.392 -43.363)" fill="none" stroke="#4e6454" stroke-width="1"/>
        <path id="Path_88" data-name="Path 88" d="M-13.1,54.634a9.411,9.411,0,0,1,2.907,0A16.3,16.3,0,0,1-4.9,58.861c2.3,2.812,5.836,3.594,5.18,4.048s-4.928.9-7.8-2.232S-13.1,54.634-13.1,54.634Z" transform="translate(35.775 -43.342)" fill="none" stroke="#4e6454" stroke-width="1"/>
        <path id="Path_89" data-name="Path 89" d="M-6.891,53.749s2.054-1.4,3.553-.837a23.234,23.234,0,0,1,6.854,4.578c2.868,2.767,6.028,1.7,5.233,2.384s-4.313,2.773-7.92-.8A27.859,27.859,0,0,0-6.891,53.749Z" transform="translate(33.806 -43.26)" fill="none" stroke="#4e6454" stroke-width="1"/>
        <path id="Path_90" data-name="Path 90" d="M-1.25,51.189s1.359-1.831,2.315-1.731a17.778,17.778,0,0,1,7.449,3.169c3.5,2.415,7.485.956,7.178,1.811s-1.338,4-5.537,3.018c-2.271-.529-4.579-3.035-7.2-4.628A15.6,15.6,0,0,0-1.25,51.189Z" transform="translate(32.018 -43.103)" fill="none" stroke="#4e6454" stroke-width="1"/>
        <path id="Path_91" data-name="Path 91" d="M2.547,47.908A6.011,6.011,0,0,1,3.964,46.42c.666-.382,6.2,1.6,10.324,2.083s6.678-.347,6.07.382-1.636,3.35-6.07,3.214c-2.306-.071-4.223-1.637-7.24-2.837A27.444,27.444,0,0,0,2.547,47.908Z" transform="translate(30.814 -42.956)" fill="none" stroke="#4e6454" stroke-width="1"/>
        <path id="Path_92" data-name="Path 92" d="M4.5,44.94s.938-2.021,2.045-2.142,5.677.725,10.142.6,6.7-.438,6.525-.11-1.187,3.345-5.614,3.632c-2.457.159-3.792-.788-6.987-1.3C8.414,45.274,4.5,44.94,4.5,44.94Z" transform="translate(30.195 -42.786)" fill="none" stroke="#4e6454" stroke-linecap="round" stroke-width="1"/>
      </g>
      <g id="Right_Top_Wing" data-name="Right Top Wing" transform="translate(97.671 15.929)">
        <path id="Path_35" data-name="Path 35" d="M-44.354,50.419c-.85.044-2.042,1.716-2.042,1.716l1.69,1.931,2.332-1.554S-43.5,50.375-44.354,50.419Z" transform="translate(48.153 -43.876)" fill="#4e6454"/>
        <path id="Path_36" data-name="Path 36" d="M-42.906,48.763s1.169-1.7,2.07-1.548,1.9,1.7,1.9,1.7l-2.113,2.411Z" transform="translate(47.047 -43.724)" fill="#4e6454"/>
        <path id="Path_37" data-name="Path 37" d="M-39.812,51.952s1.129-1.516,2.156-1.362,2.077,1.627,2.077,1.627l-2.568,2.064Z" transform="translate(46.066 -43.884)" fill="#4e6454"/>
        <path id="Path_38" data-name="Path 38" d="M-32.532,51.668c.042-.039,1.029-1.64,1.978-1.541s1.817,1.939,1.817,1.939l-1.817,2.017Z" transform="translate(43.759 -43.862)" fill="#4e6454"/>
        <path id="Path_39" data-name="Path 39" d="M-36.266,48.9s.992-2.007,1.889-2.024,2.124,1.89,2.124,1.89l-2.06,2.143Z" transform="translate(44.942 -43.708)" fill="#4e6454"/>
        <path id="Path_40" data-name="Path 40" d="M-29.359,48.821s.911-1.892,1.761-1.965,2.092,1.965,2.092,1.965L-27.385,51.1Z" transform="translate(42.753 -43.707)" fill="#4e6454"/>
        <path id="Path_41" data-name="Path 41" d="M-25.775,52.065s1.175-1.914,1.983-1.812,1.817,2.012,1.817,2.012l-1.956,2.128Z" transform="translate(41.617 -43.868)" fill="#4e6454"/>
        <path id="Path_42" data-name="Path 42" d="M-19.109,52.2s.761-2.074,1.7-2.074,2.056,2.074,2.056,2.074l-1.757,1.451Z" transform="translate(39.504 -43.862)" fill="#4e6454"/>
        <path id="Path_43" data-name="Path 43" d="M-12.865,51.8s.828-2.107,1.6-2.089,1.746,1.645,1.746,1.645l-1.5,1.8Z" transform="translate(37.524 -43.843)" fill="#4e6454"/>
        <path id="Path_44" data-name="Path 44" d="M-6.807,51.158s.679-1.68,1.311-1.854,1.46,1.227,1.46,1.227L-5.5,51.889Z" transform="translate(35.604 -43.823)" fill="#4e6454"/>
        <path id="Path_45" data-name="Path 45" d="M-10.7,48.07s.922-1.719,1.75-1.667,1.868,1.667,1.868,1.667l-1.974,1.8Z" transform="translate(36.839 -43.686)" fill="#4e6454"/>
        <path id="Path_46" data-name="Path 46" d="M-4.75,48.069s1.014-1.927,1.761-1.994S-1.3,47.683-1.3,47.683l-1.686,1.923Z" transform="translate(34.952 -43.67)" fill="#4e6454"/>
        <path id="Path_47" data-name="Path 47" d="M-2.016,44.705A3.989,3.989,0,0,1-.287,43.559c.782-.108,1.7.8,1.7.8L-.159,46.61Z" transform="translate(34.149 -43.55)" fill="#4e6454"/>
        <path id="Path_48" data-name="Path 48" d="M-7.7,44.863S-6.769,43.754-6,43.731-4.277,44.8-4.277,44.8l-1.665,2.2Z" transform="translate(35.888 -43.559)" fill="#4e6454"/>
        <path id="Path_49" data-name="Path 49" d="M-13.938,44.993s.9-1.139,1.708-1.176,1.953,1.176,1.953,1.176l-1.846,2.188Z" transform="translate(37.864 -43.675)" fill="#4e6454"/>
        <path id="Path_50" data-name="Path 50" d="M-16.922,48.466s.894-1.875,1.772-1.875,2.028,1.726,2.028,1.726l-1.942,1.92Z" transform="translate(38.81 -43.695)" fill="#4e6454"/>
        <path id="Path_51" data-name="Path 51" d="M-20.078,44.9s.774-1.168,1.622-1.146,1.964,1.146,1.964,1.146l-1.686,2.113Z" transform="translate(39.768 -43.505)" fill="#4e6454"/>
        <path id="Path_52" data-name="Path 52" d="M-26.2,45.271s1.041-1.25,1.793-1.25,1.729,1.116,1.729,1.116l-1.579,2.232Z" transform="translate(41.752 -43.684)" fill="#4e6454"/>
        <path id="Path_53" data-name="Path 53" d="M-33,45.32s.846-1.161,1.8-1.161a3.9,3.9,0,0,1,2.07,1.072l-1.857,2.456Z" transform="translate(43.907 -43.734)" fill="#4e6454"/>
        <path id="Path_54" data-name="Path 54" d="M-22.875,48.788s.939-1.678,1.729-1.7,1.878,1.5,1.878,1.5l-1.718,2.069Z" transform="translate(40.697 -43.718)" fill="#4e6454"/>
        <path id="Path_55" data-name="Path 55" d="M-39.615,45.493s1.014-1.28,1.814-1.28,2.017,1.146,2.017,1.146l-1.953,2.292Z" transform="translate(45.997 -43.698)" fill="#4e6454"/>
        <path id="Path_56" data-name="Path 56" d="M-46.016,45.655l1.868,2.352,2.017-2.352S-43.144,44.3-44.063,44.3-46.016,45.655-46.016,45.655Z" transform="translate(48.033 -43.741)" fill="#4e6454"/>
        <path id="Path_57" data-name="Path 57" d="M-48.969,48.136s1.153-1.9,1.938-1.569,1.552,2.417,1.552,2.417L-47.613,50.8Z" transform="translate(48.969 -43.692)" fill="#4e6454"/>
      </g>
      <g id="Left_Bottom_Wing" data-name="Left Bottom Wing" transform="translate(0 11.413)">
        <path id="Path_93-2" data-name="Path 93" d="M-44.052,64.682c.279-.139.31,3.507.31,3.507s-2.239,2.285-2.54,2.215.682-.626,1.333-2.493S-44.331,64.821-44.052,64.682Z" transform="translate(127.238 -40.764)" fill="#4e6454" stroke="#4e6454" stroke-width="0.75"/>
        <path id="Path_94-2" data-name="Path 94" d="M-39.263,64.922a4.868,4.868,0,0,0-2.094.124c-.5.324-.452,1.182-1.024,2.577s-1.543,3.142-1.265,3a3.715,3.715,0,0,0,2.577-1.437A14.623,14.623,0,0,0-39.263,64.922Z" transform="translate(120.954 -40.773)" fill="#4e6454" stroke="#4e6454" stroke-width="0.75"/>
        <path id="Path_95-2" data-name="Path 95" d="M-33.224,65.041s-1.573-.3-2.083.288-.536,1.831-1.34,3.43-1.479,2.73-1.241,2.642A3.469,3.469,0,0,0-35.4,69.763,16.335,16.335,0,0,0-33.224,65.041Z" transform="translate(110.982 -40.777)" fill="#4e6454" stroke="#4e6454" stroke-width="0.75"/>
        <path id="Path_96-2" data-name="Path 96" d="M-27.516,65.226a5.31,5.31,0,0,0-1.965.3c-.472.316-.749,1.864-1.648,3.548a31.227,31.227,0,0,0-1.8,3.3,10.67,10.67,0,0,0,3.379-2.827A13.271,13.271,0,0,0-27.516,65.226Z" transform="translate(101.866 -40.79)" fill="#4e6454" stroke="#4e6454" stroke-width="0.75"/>
        <path id="Path_97-2" data-name="Path 97" d="M-22.238,65.152a4.524,4.524,0,0,0-2.149.494c-.532.479-.475,1.8-1.394,3.528s-2.431,3.434-2.284,3.394a5.843,5.843,0,0,0,3.324-2.2A20.008,20.008,0,0,0-22.238,65.152Z" transform="translate(93.261 -40.786)" fill="#4e6454" stroke="#4e6454" stroke-width="0.75"/>
        <path id="Path_98-2" data-name="Path 98" d="M-16.4,65.525a4.3,4.3,0,0,0-2.06.294c-.64.414-.574,1.886-1.557,3.792s-2.935,3.671-2.621,3.6a4.711,4.711,0,0,0,3.613-1.879C-17.39,69.375-16.4,65.525-16.4,65.525Z" transform="translate(83.736 -40.803)" fill="#4e6454" stroke="#4e6454" stroke-width="0.75"/>
        <path id="Path_99-2" data-name="Path 99" d="M-10.8,66s-1.852-.134-2.427.371-.5,1.589-1.479,3.554-2.666,4.2-2.453,4.125a10.723,10.723,0,0,0,3.932-3A14.707,14.707,0,0,0-10.8,66Z" transform="translate(74.378 -40.826)" fill="#4e6454" stroke="#4e6454" stroke-width="0.75"/>
        <path id="Path_100-2" data-name="Path 100" d="M-5.151,66.428s-1.6-.363-2.293.247S-8,68.441-9.035,70.406s-2.861,3.894-2.6,3.812A5.1,5.1,0,0,0-8.2,72.206,22.818,22.818,0,0,0-5.151,66.428Z" transform="translate(64.963 -40.842)" fill="#4e6454" stroke="#4e6454" stroke-width="0.75"/>
        <path id="Path_101-2" data-name="Path 101" d="M.829,65.975a4.907,4.907,0,0,0-2.417.281c-.618.466-.611,1.547-1.945,3.714s-3.187,4.476-2.974,4.5,2.085.081,4.032-2.086S.829,65.975.829,65.975Z" transform="translate(55.473 -40.824)" fill="#4e6454" stroke="#4e6454" stroke-width="0.75"/>
        <path id="Path_102-2" data-name="Path 102" d="M8.36,65.719s-1.984-.5-2.752,0-1.395,2.617-3.033,4.83S-1.161,74.693-.776,74.6a8.729,8.729,0,0,0,5.223-2.245C6.839,70.177,8.36,65.719,8.36,65.719Z" transform="translate(44.048 -40.803)" fill="#4e6454" stroke="#4e6454" stroke-width="0.75"/>
        <path id="Path_103-2" data-name="Path 103" d="M17.165,65.051a4.22,4.22,0,0,0-2.34-.339c-.805.313-2.041,1.971-4.437,4.569s-4.964,4.9-4.662,4.935a8.343,8.343,0,0,0,6.312-1.945C15.075,69.823,17.165,65.051,17.165,65.051Z" transform="translate(30.788 -40.761)" fill="#4e6454" stroke="#4e6454" stroke-width="0.75"/>
        <path id="Path_104-2" data-name="Path 104" d="M26.553,64.225s-1.745-1.352-2.572-.979-4.875,4.719-7.556,6.854-4.63,2.456-4.156,2.663,2.09,2.134,5.651,0S26.553,64.225,26.553,64.225Z" transform="translate(16.963 -40.693)" fill="#4e6454" stroke="#4e6454" stroke-width="0.75"/>
        <path id="Path_105-2" data-name="Path 105" d="M35.068,62.017s-1.46-1.324-2.507-1.12-6.675,4.553-10.389,6.86-5.456,2.465-5.139,2.61,2.006,2.529,6.48.451S35.068,62.017,35.068,62.017Z" transform="translate(5.169 -40.583)" fill="#4e6454" stroke="#4e6454" stroke-width="0.75"/>
        <path id="Path_106-2" data-name="Path 106" d="M44.175,59.513S43.1,58.169,41.98,58.237a23.642,23.642,0,0,0-6.767,2.423c-2.84,1.521-4.164,2.71-7.1,3.953-5.057,2.139-6.815,1.189-6.584,1.445s2.147,3.541,7.8,1.743c2.692-.856,5.384-2.988,8.774-5.1A45.741,45.741,0,0,1,44.175,59.513Z" transform="translate(-7.018 -40.458)" fill="#4e6454" stroke="#4e6454" stroke-width="0.75"/>
        <path id="Path_107-2" data-name="Path 107" d="M50.724,56.269s-.73-1.324-1.8-1.358a35.578,35.578,0,0,0-8.844,1.358c-4.139,1.144-3.647,1.855-7.894,3s-7.285.978-7.01,1.318a8.433,8.433,0,0,0,7.437,2.721c4.722-.474,6.381-3.107,11.156-4.761S50.724,56.269,50.724,56.269Z" transform="translate(-16.06 -40.3)" fill="#4e6454" stroke="#4e6454" stroke-width="0.75"/>
        <path id="Path_108-2" data-name="Path 108" d="M56.249,53.076s-.56-2.23-1.874-2.444a42.853,42.853,0,0,0-9.64.908c-3.164.679-4.567,1.7-9.175,2.168s-7.857-1.29-7.651-.935,2.021,4.965,7.132,4.761,6.724-2.4,12.68-3.613S56.249,53.076,56.249,53.076Z" transform="translate(-23.459 -40.095)" fill="#4e6454" stroke="#4e6454" stroke-width="0.75"/>
        <path id="Path_109-2" data-name="Path 109" d="M59.4,49.127s-.971-1.87-2.018-2.074a59.448,59.448,0,0,0-10.76,0c-5.434.386-5.756.882-10.225,1.059a13.971,13.971,0,0,1-6.233-1.059,12.861,12.861,0,0,0,8.131,4.5c4.858.518,6.221-1.681,11.5-2.288A48.292,48.292,0,0,1,59.4,49.127Z" transform="translate(-28.152 -39.916)" fill="#4e6454" stroke="#4e6454" stroke-width="0.75"/>
        <path id="Path_110-2" data-name="Path 110" d="M62.214,44.944s-.432-1.735-1.343-2.233-3.343-1.167-8.251-1.086-5.768.9-11,0-9.1-2.339-8.908-2a9.313,9.313,0,0,0,5.33,5.8c4.208,1.677,7.83-.17,13-.482S62.214,44.944,62.214,44.944Z" transform="translate(-32.704 -39.572)" fill="#4e6454" stroke="#4e6454" stroke-width="0.75"/>
      </g>
      <g id="Left_Middle_wings" data-name="Left Middle wings" transform="translate(30.052 14.475)">
        <path id="Path_81-2" data-name="Path 81" d="M-43.486,55.578c.36.134.342,4.286.342,4.286a7.862,7.862,0,0,1-1.27,2.352c-.787.882-1.793,1.384-1.878,1.176s1.006-2.132,1.708-4.063S-43.846,55.444-43.486,55.578Z" transform="translate(96.56 -43.393)" fill="none" stroke="#4e6454" stroke-width="1"/>
        <path id="Path_82-2" data-name="Path 82" d="M-39.044,55.465s-1.825-.327-2.262.357a32.964,32.964,0,0,0-1.2,3.512c-.715,1.905-1.953,3.81-1.74,4.018s1.6-.759,2.86-2.694A27.454,27.454,0,0,0-39.044,55.465Z" transform="translate(91.072 -43.384)" fill="none" stroke="#4e6454" stroke-width="1"/>
        <path id="Path_83-2" data-name="Path 83" d="M-33.172,55.653s-1.655-.209-2.114.133-.61,1.5-1.354,3.468-3.024,4.774-1.953,4.212a8.11,8.11,0,0,0,3.412-3.151A18.446,18.446,0,0,0-33.172,55.653Z" transform="translate(81.519 -43.394)" fill="none" stroke="#4e6454" stroke-width="1"/>
        <path id="Path_84-2" data-name="Path 84" d="M-27.631,55.311s-1.8-.176-2.283.289-.565,1.811-1.318,3.812-3.005,4.425-2.107,4.082a5.176,5.176,0,0,0,3.327-2.554A27.649,27.649,0,0,0-27.631,55.311Z" transform="translate(72.339 -43.379)" fill="none" stroke="#4e6454" stroke-width="1"/>
        <path id="Path_85-2" data-name="Path 85" d="M-21.725,55.451s-1.5-.267-2.191.445-1.4,3.08-2.483,5.031-2.244,3.051-1.921,3.157,2.09-.534,3.738-2.692A24.021,24.021,0,0,0-21.725,55.451Z" transform="translate(62.9 -43.385)" fill="none" stroke="#4e6454" stroke-width="1"/>
        <path id="Path_86-2" data-name="Path 86" d="M-15.012,55.708s-1.514-.484-2.1.1-1.746,3.491-3.233,5.688-3.121,3.134-2.713,3.1,2.038.189,4.072-2.1A31.5,31.5,0,0,0-15.012,55.708Z" transform="translate(52.596 -43.39)" fill="none" stroke="#4e6454" stroke-width="1"/>
        <path id="Path_87-2" data-name="Path 87" d="M-7.192,55.042a3.4,3.4,0,0,0-2.457.329c-.547.354-1.485,1.857-3.4,4.411s-5.8,3.87-5.064,4.024,3.9,1.122,6.243-1.606A46.88,46.88,0,0,0-7.192,55.042Z" transform="translate(41.419 -43.363)" fill="none" stroke="#4e6454" stroke-width="1"/>
        <path id="Path_88-2" data-name="Path 88" d="M.355,54.634a9.411,9.411,0,0,0-2.907,0,16.3,16.3,0,0,0-5.29,4.227c-2.3,2.812-5.836,3.594-5.18,4.048s4.928.9,7.8-2.232S.355,54.634.355,54.634Z" transform="translate(30.388 -43.342)" fill="none" stroke="#4e6454" stroke-width="1"/>
        <path id="Path_89-2" data-name="Path 89" d="M8.873,53.749s-2.054-1.4-3.553-.837a23.234,23.234,0,0,0-6.854,4.578c-2.868,2.767-6.028,1.7-5.233,2.384s4.313,2.773,7.92-.8A27.859,27.859,0,0,1,8.873,53.749Z" transform="translate(17.628 -43.26)" fill="none" stroke="#4e6454" stroke-width="1"/>
        <path id="Path_90-2" data-name="Path 90" d="M15.709,51.189s-1.359-1.831-2.315-1.731a17.778,17.778,0,0,0-7.449,3.169c-3.5,2.415-7.485.956-7.178,1.811s1.338,4,5.537,3.018c2.271-.529,4.579-3.035,7.2-4.628A15.6,15.6,0,0,1,15.709,51.189Z" transform="translate(6.939 -43.103)" fill="none" stroke="#4e6454" stroke-width="1"/>
        <path id="Path_91-2" data-name="Path 91" d="M20.447,47.908A6.011,6.011,0,0,0,19.03,46.42c-.666-.382-6.2,1.6-10.324,2.083s-6.678-.347-6.07.382,1.636,3.35,6.07,3.214c2.306-.071,4.223-1.637,7.24-2.837A27.444,27.444,0,0,1,20.447,47.908Z" transform="translate(-0.392 -42.956)" fill="none" stroke="#4e6454" stroke-width="1"/>
        <path id="Path_92-2" data-name="Path 92" d="M23.221,44.94s-.938-2.021-2.045-2.142-5.677.725-10.142.6-6.7-.438-6.525-.11,1.187,3.345,5.614,3.632c2.457.159,3.792-.788,6.987-1.3C19.308,45.274,23.221,44.94,23.221,44.94Z" transform="translate(-4.5 -42.786)" fill="none" stroke="#4e6454" stroke-linecap="round" stroke-width="1"/>
      </g>
      <g id="Left_Top_Wing" data-name="Left Top Wing" transform="translate(49.734 15.339)">
        <path id="Path_35-2" data-name="Path 35" d="M-44.416,50.419c.85.044,2.042,1.716,2.042,1.716l-1.69,1.931L-46.4,52.512S-45.265,50.375-44.416,50.419Z" transform="translate(76.176 -43.876)" fill="#4e6454"/>
        <path id="Path_36-2" data-name="Path 36" d="M-38.936,48.763s-1.169-1.7-2.07-1.548-1.9,1.7-1.9,1.7l2.113,2.411Z" transform="translate(70.355 -43.724)" fill="#4e6454"/>
        <path id="Path_37-2" data-name="Path 37" d="M-35.58,51.952s-1.129-1.516-2.156-1.362-2.077,1.627-2.077,1.627l2.568,2.064Z" transform="translate(64.885 -43.884)" fill="#4e6454"/>
        <path id="Path_38-2" data-name="Path 38" d="M-28.737,51.668c-.042-.039-1.029-1.64-1.978-1.541s-1.817,1.939-1.817,1.939l1.817,2.017Z" transform="translate(53.07 -43.862)" fill="#4e6454"/>
        <path id="Path_39-2" data-name="Path 39" d="M-32.253,48.9s-.992-2.007-1.889-2.024-2.124,1.89-2.124,1.89l2.06,2.143Z" transform="translate(59.136 -43.708)" fill="#4e6454"/>
        <path id="Path_40-2" data-name="Path 40" d="M-25.507,48.821s-.911-1.892-1.761-1.965-2.092,1.965-2.092,1.965l1.878,2.277Z" transform="translate(47.673 -43.707)" fill="#4e6454"/>
        <path id="Path_41-2" data-name="Path 41" d="M-21.975,52.065s-1.175-1.914-1.983-1.812-1.817,2.012-1.817,2.012l1.956,2.128Z" transform="translate(41.693 -43.868)" fill="#4e6454"/>
        <path id="Path_42-2" data-name="Path 42" d="M-15.353,52.2s-.761-2.074-1.7-2.074S-19.109,52.2-19.109,52.2l1.757,1.451Z" transform="translate(30.518 -43.862)" fill="#4e6454"/>
        <path id="Path_43-2" data-name="Path 43" d="M-9.514,51.8s-.828-2.107-1.6-2.089-1.746,1.645-1.746,1.645l1.5,1.8Z" transform="translate(20.414 -43.843)" fill="#4e6454"/>
        <path id="Path_44-2" data-name="Path 44" d="M-4.037,51.158s-.679-1.68-1.311-1.854-1.46,1.227-1.46,1.227l1.46,1.358Z" transform="translate(10.799 -43.823)" fill="#4e6454"/>
        <path id="Path_45-2" data-name="Path 45" d="M-7.085,48.07s-.922-1.719-1.75-1.667S-10.7,48.07-10.7,48.07l1.974,1.8Z" transform="translate(16.509 -43.686)" fill="#4e6454"/>
        <path id="Path_46-2" data-name="Path 46" d="M-1.3,48.069s-1.014-1.927-1.761-1.994S-4.75,47.683-4.75,47.683l1.686,1.923Z" transform="translate(6.66 -43.67)" fill="#4e6454"/>
        <path id="Path_47-2" data-name="Path 47" d="M1.41,44.705A3.989,3.989,0,0,0-.319,43.559c-.782-.108-1.7.8-1.7.8L-.447,46.61Z" transform="translate(2.016 -43.55)" fill="#4e6454"/>
        <path id="Path_48-2" data-name="Path 48" d="M-4.277,44.863s-.934-1.109-1.708-1.131S-7.7,44.8-7.7,44.8l1.665,2.2Z" transform="translate(11.652 -43.559)" fill="#4e6454"/>
        <path id="Path_49-2" data-name="Path 49" d="M-10.277,44.993s-.9-1.139-1.708-1.176-1.953,1.176-1.953,1.176l1.846,2.188Z" transform="translate(21.91 -43.675)" fill="#4e6454"/>
        <path id="Path_50-2" data-name="Path 50" d="M-13.123,48.466s-.894-1.875-1.772-1.875-2.028,1.726-2.028,1.726l1.942,1.92Z" transform="translate(26.794 -43.695)" fill="#4e6454"/>
        <path id="Path_51-2" data-name="Path 51" d="M-16.492,44.9s-.774-1.168-1.622-1.146S-20.078,44.9-20.078,44.9l1.686,2.113Z" transform="translate(32.362 -43.505)" fill="#4e6454"/>
        <path id="Path_52-2" data-name="Path 52" d="M-22.681,45.271s-1.041-1.25-1.793-1.25S-26.2,45.137-26.2,45.137l1.579,2.232Z" transform="translate(42.691 -43.684)" fill="#4e6454"/>
        <path id="Path_53-2" data-name="Path 53" d="M-29.126,45.32s-.846-1.161-1.8-1.161A3.9,3.9,0,0,0-33,45.231l1.857,2.456Z" transform="translate(53.779 -43.734)" fill="#4e6454"/>
        <path id="Path_54-2" data-name="Path 54" d="M-19.268,48.788s-.939-1.678-1.729-1.7-1.878,1.5-1.878,1.5l1.718,2.069Z" transform="translate(37.005 -43.718)" fill="#4e6454"/>
        <path id="Path_55-2" data-name="Path 55" d="M-35.784,45.493s-1.014-1.28-1.814-1.28-2.017,1.146-2.017,1.146l1.953,2.292Z" transform="translate(64.961 -43.698)" fill="#4e6454"/>
        <path id="Path_56-2" data-name="Path 56" d="M-42.131,45.655-44,48.006l-2.017-2.352S-45,44.3-44.084,44.3-42.131,45.655-42.131,45.655Z" transform="translate(75.673 -43.741)" fill="#4e6454"/>
        <path id="Path_57-2" data-name="Path 57" d="M-45.479,48.136s-1.153-1.9-1.938-1.569-1.552,2.417-1.552,2.417l2.134,1.816Z" transform="translate(81.038 -43.692)" fill="#4e6454"/>
      </g>
    </g>
    <g id="Sun" transform="translate(257.418 396.617)">
      <g id="Ellipse_3" data-name="Ellipse 3" fill="#635139" stroke="#635139" stroke-width="1">
        <ellipse cx="12.913" cy="13.438" rx="12.913" ry="13.438" stroke="none"/>
        <ellipse cx="12.913" cy="13.438" rx="12.413" ry="12.938" fill="none"/>
      </g>
      <g id="Ellipse_4" data-name="Ellipse 4" transform="translate(1.878 2.067)" fill="#b4843d" stroke="#b4843d" stroke-width="1">
        <ellipse cx="11.269" cy="12.404" rx="11.269" ry="12.404" stroke="none"/>
        <ellipse cx="11.269" cy="12.404" rx="10.769" ry="11.904" fill="none"/>
      </g>
    </g>
    <g id="Group_18" data-name="Group 18" transform="translate(253.95 478.845)">
      <path id="Path_262" data-name="Path 262" d="M32.089,3.675S29.3.4,16.352.025,0,3.663,0,3.663" transform="matrix(1, 0.017, -0.017, 1, 0.064, 0)" fill="none" stroke="#81735f" stroke-linecap="round" stroke-width="1"/>
      <path id="Path_263" data-name="Path 263" d="M24.515,3.044S20.744.408,11.575.026,0,3.653,0,3.653" transform="matrix(0.999, 0.035, -0.035, 0.999, 4.695, 4.781)" fill="none" stroke="#81735f" stroke-linecap="round" stroke-width="1"/>
      <path id="Path_264" data-name="Path 264" d="M25.666,4.734S19.06.435,11.77.025A15.864,15.864,0,0,0,0,4.39" transform="translate(3.44 2.597) rotate(-1)" fill="none" stroke="#81735f" stroke-linecap="round" stroke-width="1"/>
    </g>
    <g id="Book" transform="translate(250.386 509.185)">
      <path id="Path_283" data-name="Path 283" d="M-1.038,10.18,5.538-1.112" transform="translate(17.879 8.723)" fill="none" stroke="#707070" stroke-width="1"/>
      <path id="Path_266" data-name="Path 266" d="M5083.889,663.965l-10.379,15.8,14.968,1.919,8.3-1.919,9.051-14.331-10.68,5.018Z" transform="translate(-5071.995 -662.718)" fill="none" stroke="#707070" stroke-width="0.77"/>
      <path id="Path_267" data-name="Path 267" d="M11.637,0,0,15.066l16.483,3.9s9.14,1.3,10.52,0S35.219,6.022,35.219,6.022l-12.2,1.964Z" transform="translate(0 0)" fill="none" stroke="#707070" stroke-width="0.77"/>
      <path id="Path_268" data-name="Path 268" d="M5084.435,665.249l-7.471,11.922,12.679,4.872,8.3-1.919L5107,665.792l-12.013,4.909Z" transform="translate(-5071.998 -662.497)" fill="none" stroke="#707070" stroke-width="0.77"/>
    </g>
    <g id="Group_17" data-name="Group 17" transform="translate(258.718 529.902)">
      <path id="Path_269" data-name="Path 269" d="M23.073,2.691S21.018.571,11.733.07,0,2.091,0,2.091" transform="matrix(0.934, 0.358, -0.358, 0.934, 1.356, 0)" fill="none" stroke="#81735f" stroke-width="1"/>
      <path id="Path_270" data-name="Path 270" d="M22.846,2.36S20.867.272,11.693.018,0,2.35,0,2.35" transform="matrix(0.999, 0.035, -0.035, 0.999, 0.284, 2.974)" fill="none" stroke="#81735f" stroke-width="1"/>
      <path id="Path_271" data-name="Path 271" d="M22.985,1.842S21.263.011,12.039,0,0,2.43,0,2.43" transform="matrix(0.966, -0.259, 0.259, 0.966, 0.199, 10.693)" fill="none" stroke="#81735f" stroke-width="1"/>
      <path id="Path_272" data-name="Path 272" d="M22.888,1.98S21.21.275,12.037.021,0,1.951,0,1.951" transform="matrix(0.999, 0.035, -0.035, 0.999, 0.195, 8.21)" fill="none" stroke="#81735f" stroke-width="1"/>
      <path id="Path_273" data-name="Path 273" d="M22.93,1.713s-2-1.436-11.17-1.69S0,1.708,0,1.708" transform="matrix(0.999, 0.035, -0.035, 0.999, 0.06, 12.392)" fill="none" stroke="#81735f" stroke-width="1"/>
      <path id="Path_274" data-name="Path 274" d="M23.222,2.141S21.162.635,11.846.1,0,1.331,0,1.331" transform="translate(1.313 7.408) rotate(24)" fill="none" stroke="#81735f" stroke-width="1"/>
      <path id="Path_275" data-name="Path 275" d="M22.771.906S20.764.3,11.59.042,0,.782,0,.782" transform="matrix(0.999, 0.035, -0.035, 0.999, 0.057, 16.52)" fill="none" stroke="#81735f" stroke-width="1"/>
      <path id="Path_276" data-name="Path 276" d="M23.114,1.431S20.849.663,11.554.152,0,.611,0,.611" transform="translate(0.941 13.179) rotate(22)" fill="none" stroke="#81735f" stroke-width="1"/>
      <path id="Path_277" data-name="Path 277" d="M22.92,2.586l.086,2.834S20.782,3.983,11.72,3.488.082,5.081.082,5.081L0,2.333S1.325-.286,11.281.028,22.92,2.586,22.92,2.586Z" transform="translate(1.115 21.227) rotate(8)" fill="#626975" stroke="#626975" stroke-width="1"/>
    </g>
    <g id="Eye" transform="translate(259.936 486.005)">
      <path id="Path_278" data-name="Path 278" d="M324.434,542.036s1.476.677,2.387,0c1.473-1.1,3.56-2.755,5.151-2.673,2.308.12,7.161,3.289,7.161,3.289h7.1" transform="translate(-324.434 -535.34)" fill="none" stroke="#707070" stroke-width="1"/>
      <g id="Path_280" data-name="Path 280" transform="translate(2.521 4.673)" fill="#707070">
        <path d="M 5.180842399597168 5.159856796264648 C 3.081292390823364 5.159856796264648 2.974942445755005 2.836656808853149 2.974942445755005 2.370936870574951 C 2.974942445755005 1.723276853561401 3.138262510299683 1.102126836776733 3.423022508621216 0.6667568683624268 C 3.798582553863525 0.09254688024520874 4.37357234954834 -0.1865831166505814 5.180842399597168 -0.1865831166505814 C 7.139262676239014 -0.1865831166505814 7.58002233505249 2.058806896209717 7.58002233505249 2.845386981964111 C 7.58002233505249 3.231876850128174 7.464352607727051 5.159856796264648 5.180842399597168 5.159856796264648 Z" stroke="none"/>
        <path d="M 5.180842399597168 0.3134169578552246 C 4.347902297973633 0.3134169578552246 4.01752233505249 0.671267032623291 3.8414626121521 0.940436840057373 C 3.608532428741455 1.296566963195801 3.474942684173584 1.817966938018799 3.474942684173584 2.370936870574951 C 3.474942684173584 2.954206943511963 3.619972705841064 3.545036792755127 3.862902641296387 3.951396942138672 C 4.151842594146729 4.434736728668213 4.570622444152832 4.659856796264648 5.180842399597168 4.659856796264648 C 6.943062782287598 4.659856796264648 7.080022811889648 3.271046876907349 7.080022811889648 2.845386981964111 C 7.080022811889648 2.391036987304688 6.932102203369141 1.691716909408569 6.601622581481934 1.153626918792725 C 6.254392623901367 0.5882568359375 5.789652347564697 0.3134169578552246 5.180842399597168 0.3134169578552246 M 5.180842399597168 -0.6865830421447754 C 7.376352310180664 -0.6865830421447754 8.080022811889648 1.647756814956665 8.080022811889648 2.845386981964111 C 8.080022811889648 4.043006896972656 7.376352310180664 5.659856796264648 5.180842399597168 5.659856796264648 C 2.985332489013672 5.659856796264648 2.474942207336426 3.568566799163818 2.474942207336426 2.370936870574951 C 2.474942207336426 1.173306941986084 2.985332489013672 -0.6865830421447754 5.180842399597168 -0.6865830421447754 Z" stroke="none" fill="#707070"/>
      </g>
      <path id="Path_279" data-name="Path 279" d="M328.1,542.905s2.518,3.643,4.984,3.815,7.475-3.015,7.475-3.015" transform="translate(-325.671 -536.322)" fill="none" stroke="#707070" stroke-width="1"/>
      <path id="Path_281" data-name="Path 281" d="M333.871,547.7s4.251,3.515,7.694,4.147,4.119-.238,4.724-1.3-.109-1.766-1.3-1.687-2.5.949-2.126,1.687,2.126-.316,2.126-.316" transform="translate(-327.619 -537.651)" fill="none" stroke="#707070" stroke-width="1"/>
      <path id="Path_282" data-name="Path 282" d="M332.725,547.736l-1,3.852-2.3,2.109.929-2.676v-1.947l1.375-.446-.446-1.825" transform="translate(-326.116 -537.402)" fill="none" stroke="#707070" stroke-width="1"/>
      <path id="Path_265" data-name="Path 265" d="M22.187,2.85a22.884,22.884,0,0,1-6.869-.514c-2-.476-3.991-2.249-6.052-2.326A15.8,15.8,0,0,0,0,2.87" transform="matrix(0.999, 0.035, -0.035, 0.999, 0.796, 0)" fill="none" stroke="#81735f" stroke-width="1"/>
    </g>
  </g>
</svg>
