<svg xmlns="http://www.w3.org/2000/svg" width="33.779" height="57.296" viewBox="0 0 33.779 57.296">
  <g id="person" transform="translate(-1523.717 -497.272)">
    <path id="Path_292" data-name="Path 292" d="M.545,1.335c-1.227,3,0,12.016,0,12.016L5.45,15.5V1.335S1.772-1.669.545,1.335Z" transform="translate(1538.272 527.228) rotate(5)" stroke="#707070" stroke-width="1"/>
    <path id="Path_293" data-name="Path 293" d="M3.074,0A13.114,13.114,0,0,0,.636,4.787a27.315,27.315,0,0,0-.626,6.7H3.074L5.511,0Z" transform="translate(1540.209 537.551) rotate(20)" stroke="#707070" stroke-width="1"/>
    <path id="Path_296" data-name="Path 296" d="M5225,449v10h6.666l2.333-5-2.333-5Z" transform="translate(-3686.519 63.022)" fill="#100d0d" stroke="#707070" stroke-width="1"/>
    <path id="Path_298" data-name="Path 298" d="M0,0V13.514s2.453,3.379,3.271,0S3.271,0,3.271,0Z" transform="translate(1542.465 527.935) rotate(3)" fill="#171010" stroke="#707070" stroke-width="1"/>
    <path id="Path_299" data-name="Path 299" d="M0,3.952l11.6.158,7.614.4L15.675,1.432,9.47,0,0,1.432Z" transform="translate(1524.243 538.448) rotate(-3)" fill="#060505" stroke="#707070" stroke-width="1"/>
    <g id="Ellipse_33" data-name="Ellipse 33" transform="matrix(0.891, -0.454, 0.454, 0.891, 1533.569, 506.16)" stroke="#707070" stroke-width="1" opacity="0.91">
      <ellipse cx="6" cy="6.5" rx="6" ry="6.5" stroke="none"/>
      <ellipse cx="6" cy="6.5" rx="5.5" ry="6" fill="none"/>
    </g>
    <path id="Path_303" data-name="Path 303" d="M5224.744,453.5v3.741h7.363V453.5Z" transform="translate(-3686.381 67)" stroke="#707070" stroke-width="1"/>
    <path id="Path_306" data-name="Path 306" d="M0,0,2.531,1.292,6.944,3.546s8.4-1.63,11.2,0S15.464,6.626,12.663,7.2.718,4.532.718,4.532Z" transform="translate(1542.901 516.606) rotate(-81)" fill="#0d0d0d" stroke="#707070" stroke-width="1"/>
    <path id="Path_304" data-name="Path 304" d="M4.41,0,1.694,1.021,0,12.609s1.575,6.063,2.677,2.911S4.41,0,4.41,0Z" transform="matrix(-0.574, -0.819, 0.819, -0.574, 1543.332, 519.364)" fill="#1c1b1b" stroke="#707070" stroke-width="1"/>
    <path id="Path_314" data-name="Path 314" d="M5234.232,453.5l1.667,5.895h5.35V453.5Z" transform="translate(-3695.537 70.434)" stroke="#707070" stroke-width="1"/>
    <path id="Path_315" data-name="Path 315" d="M5206.243,473.617v9.049L5210,476" transform="translate(-3682 63.934)" fill="#1c1b1b" stroke="#707070" stroke-width="1"/>
    <path id="Path_316" data-name="Path 316" d="M5221,484.667l5.949,5.2v-5.2Z" transform="translate(-3684.442 63.6)" fill="#070505" stroke="#707070" stroke-width="1"/>
  </g>
</svg>
