<svg xmlns="http://www.w3.org/2000/svg" width="940" height="940" viewBox="0 0 940 940">
  <g id="Gummi_Promo_2" data-name="Gummi Promo 2" transform="translate(5.556 276.75)">
    <path id="Path_425" data-name="Path 425" d="M0,0H940V940H0Z" transform="translate(-5.556 -276.75)" fill="#b0b0b0"/>
    <g id="Frame" transform="translate(5.955 -242.077)">
      <g id="Rectangle_4" data-name="Rectangle 4" transform="translate(103.464 75.87)" fill="#dbbe5f" stroke="#ae8119" stroke-width="2">
        <rect width="709.509" height="720.019" stroke="none"/>
        <rect x="1" y="1" width="707.509" height="718.019" fill="none"/>
      </g>
      <g id="Rectangle_3" data-name="Rectangle 3" transform="translate(137.248 103.118)" fill="#d9d2bd" stroke="#ae8119" stroke-width="3">
        <rect width="653.198" height="669.422" stroke="none"/>
        <rect x="1.5" y="1.5" width="650.198" height="666.422" fill="none"/>
      </g>
      <g id="Frame_Design" data-name="Frame Design" transform="translate(0 0)">
        <g id="Corner">
          <path id="Path_3646" data-name="Path 3646" d="M3116.211,296.376s-1.6-31.271-64.916-47.888-108.186,36.658-161.9,39.886-52.9-14.958-60.111-31.991,8.9-32.152,27.631-35.371,41.97,9.285,46,27.476a23.827,23.827,0,0,1-9.518,26.175s19.819-5.061,56.5-18.28c32.538-11.726,80.976-31.83,114.211-26.591a137.4,137.4,0,0,1,96.979,66.584Z" transform="translate(-2737.111 -220.506)" fill="#dbbe5f" stroke="#ae8119" stroke-width="1"/>
          <path id="Path_3647" data-name="Path 3647" d="M2955.66,282.155s12.427-10.51,5.508-24.829a66.115,66.115,0,0,0-35.095-31.222c-14.752-5.9-23.948,7.6-23.948,7.6a149.509,149.509,0,0,1,32.488,20.9,104.959,104.959,0,0,1,21.047,27.556Z" transform="translate(-2531.653 -208.632)" fill="#dbbe5f" stroke="#ae8119" stroke-width="1"/>
          <path id="Path_3648" data-name="Path 3648" d="M2948.3,259.317a31.733,31.733,0,0,0,3.129-15.727,19.759,19.759,0,0,0-11.145-17.207c-7.885-4.98-7.47-3.934-16.836-3.2a29.363,29.363,0,0,0-15.888,6.639,68.918,68.918,0,0,1,23,10.081,80.1,80.1,0,0,1,17.739,19.411Z" transform="translate(-2516.697 -214.567)" fill="#dbbe5f" stroke="#ae8119" stroke-width="1"/>
          <path id="Path_3649" data-name="Path 3649" d="M2843.861,226.054s-12.021-6.259-16.027,3.7-7.209,21.812,0,36.144,28.854,21.19,28.854,21.19h272.885s-31.46-46.842-85.759-49.44-81.65,32.823-131.434,39.055-60.8-5.1-68.529-18.28S2843.861,226.054,2843.861,226.054Z" transform="translate(-2748.064 -210.072)" fill="#dbbe5f" stroke="#ae8119" stroke-width="1"/>
          <path id="Path_3650" data-name="Path 3650" d="M2892.254,286.217a405.935,405.935,0,0,0-51.3-18.28c-19.536-4.569-31.06,3.6-31.06,3.6l55.108-45.979s-11.821,17.761-4.023,32.823S2892.254,286.217,2892.254,286.217Z" transform="translate(-2785.651 -205.886)" fill="#dbbe5f" stroke="#ae8119" stroke-width="1"/>
          <path id="Path_3651" data-name="Path 3651" d="M2813.946,262.5s-7.115-24.928,3.2-33.238,38.072,0,38.072,0Z" transform="translate(-2781.092 -205.853)" fill="#dbbe5f" stroke="#ae8119" stroke-width="1"/>
          <path id="Path_3652" data-name="Path 3652" d="M20.775,86.36a97.458,97.458,0,0,1,68.712-65.2C146.052,5.434,202.332,68.7,258.026,71.8s51.1-15.2,58.564-31.638S307.228,4.4,287.808,1.272,254.127,17,254.373,32.566a27.838,27.838,0,0,0,13.608,22.8s-30.52,3.7-63.759-22.8S118.8-3.775,84.341,1.276C13.3,11.7,0,86.36,0,86.36Z" transform="translate(15.969 400.658) rotate(-90)" fill="#dbbe5f" stroke="#ae8119" stroke-width="1"/>
          <path id="Path_3653" data-name="Path 3653" d="M286.5,12.2s4.533-17.507,18.91-10.577,11.726,38.849,3.214,63.482-13.412,24.99-13.412,24.99L0,88.726s24.141-62.14,80.438-64.644,95.455,45.684,147.08,51.7,57.093-4.3,67.684-24.91S286.5,12.2,286.5,12.2Z" transform="translate(13.602 379.307) rotate(-90)" fill="#dbbe5f" stroke="#ae8119" stroke-width="1"/>
          <path id="Path_3654" data-name="Path 3654" d="M2821.417,302.949S2809.1,306.4,2805,313.54s-.044,14.136,11.307,24.771,34.109,17.775,34.109,17.775a126.658,126.658,0,0,1-22.622-27.042A52.64,52.64,0,0,1,2821.417,302.949Z" transform="translate(-2803.438 17.919)" fill="#dbbe5f" stroke="#ae8119" stroke-width="1"/>
          <path id="Path_3655" data-name="Path 3655" d="M2812.892,311.647s-10.761,5.2-8.941,13.412,13.591,14.753,28.822,18.91a59.361,59.361,0,0,0,32.1-2.271l-32.1-16.639Z" transform="translate(-2802.602 43.077)" fill="#dbbe5f" stroke="#ae8119" stroke-width="1"/>
          <path id="Path_3656" data-name="Path 3656" d="M2821.235,320.315a27.313,27.313,0,0,0,7.112,23.336c9.9,9.705,32.488,15.486,32.488,15.486V333.078Z" transform="translate(-2755.48 68.143)" fill="#dbbe5f" stroke="#ae8119" stroke-width="1"/>
        </g>
        <g id="Corner-2" data-name="Corner" transform="translate(480.552)">
          <path id="Path_3646-2" data-name="Path 3646" d="M2872.412,296.376s1.6-31.271,64.921-47.888,108.187,36.658,161.9,39.886,52.9-14.958,60.11-31.991-8.9-32.152-27.633-35.371-41.967,9.285-46,27.476a23.826,23.826,0,0,0,9.516,26.175s-19.817-5.061-56.5-18.28c-32.537-11.726-80.979-31.83-114.212-26.591a137.4,137.4,0,0,0-96.982,66.584Z" transform="translate(-2816.738 -220.506)" fill="#dbbe5f" stroke="#ae8119" stroke-width="1"/>
          <path id="Path_3647-2" data-name="Path 3647" d="M2909.722,282.155s-12.429-10.51-5.5-24.829a66.108,66.108,0,0,1,35.095-31.222c14.753-5.9,23.947,7.6,23.947,7.6a149.573,149.573,0,0,0-32.486,20.895,104.887,104.887,0,0,0-21.052,27.556Z" transform="translate(-2898.958 -208.632)" fill="#dbbe5f" stroke="#ae8119" stroke-width="1"/>
          <path id="Path_3648-2" data-name="Path 3648" d="M2910.752,259.317a31.752,31.752,0,0,1-3.129-15.727,19.766,19.766,0,0,1,11.146-17.207c7.884-4.98,7.469-3.934,16.835-3.2a29.361,29.361,0,0,1,15.888,6.639,68.906,68.906,0,0,0-23,10.081,80.092,80.092,0,0,0-17.74,19.412Z" transform="translate(-2907.568 -214.567)" fill="#dbbe5f" stroke="#ae8119" stroke-width="1"/>
          <path id="Path_3649-2" data-name="Path 3649" d="M3109.275,226.054s12.022-6.259,16.026,3.7,7.215,21.812,0,36.144-28.853,21.19-28.853,21.19h-272.9s31.459-46.842,85.758-49.44,81.649,32.823,131.434,39.055,60.8-5.1,68.524-18.28S3109.275,226.054,3109.275,226.054Z" transform="translate(-2770.287 -210.072)" fill="#dbbe5f" stroke="#ae8119" stroke-width="1"/>
          <path id="Path_3650-2" data-name="Path 3650" d="M2809.9,286.217a406.2,406.2,0,0,1,51.3-18.28c19.537-4.569,31.061,3.6,31.061,3.6l-55.085-45.979s11.82,17.761,4.023,32.823S2809.9,286.217,2809.9,286.217Z" transform="translate(-2481.744 -205.886)" fill="#dbbe5f" stroke="#ae8119" stroke-width="1"/>
          <path id="Path_3651-2" data-name="Path 3651" d="M2852.834,262.5s7.112-24.928-3.207-33.238-38.071,0-38.071,0Z" transform="translate(-2450.959 -205.853)" fill="#dbbe5f" stroke="#ae8119" stroke-width="1"/>
          <path id="Path_3652-2" data-name="Path 3652" d="M20.775,0A97.457,97.457,0,0,0,89.487,65.2C146.052,80.917,202.332,17.659,258,14.552s51.1,15.2,58.564,31.638-9.361,35.764-28.781,38.894S254.1,69.351,254.351,53.789a27.838,27.838,0,0,1,13.608-22.8s-30.52-3.7-63.759,22.8S118.777,90.13,84.323,85.083C13.3,74.658,0,0,0,0Z" transform="translate(332.439 400.658) rotate(-90)" fill="#dbbe5f" stroke="#ae8119" stroke-width="1"/>
          <path id="Path_3653-2" data-name="Path 3653" d="M286.5,77.895s4.538,17.511,18.91,10.577,11.726-38.849,3.214-63.482S295.211,0,295.211,0L0,1.35S24.141,63.49,80.438,65.994s95.455-45.666,147.076-51.679,57.093,4.3,67.684,24.91S286.5,77.895,286.5,77.895Z" transform="translate(331.071 379.307) rotate(-90)" fill="#dbbe5f" stroke="#ae8119" stroke-width="1"/>
          <path id="Path_3654-2" data-name="Path 3654" d="M2832.436,302.949s12.312,3.451,16.417,10.591.043,14.136-11.311,24.771-34.11,17.775-34.11,17.775a126.591,126.591,0,0,0,22.617-27.042A52.621,52.621,0,0,0,2832.436,302.949Z" transform="translate(-2415.63 17.919)" fill="#dbbe5f" stroke="#ae8119" stroke-width="1"/>
          <path id="Path_3655-2" data-name="Path 3655" d="M2855.726,311.647s10.761,5.2,8.942,13.412-13.592,14.753-28.822,18.91a59.364,59.364,0,0,1-32.1-2.271l32.1-16.64Z" transform="translate(-2431.268 43.077)" fill="#dbbe5f" stroke="#ae8119" stroke-width="1"/>
          <path id="Path_3656-2" data-name="Path 3656" d="M2860.453,320.315a27.32,27.32,0,0,1-7.114,23.336c-9.9,9.705-32.488,15.486-32.488,15.486V333.078Z" transform="translate(-2491.449 68.143)" fill="#dbbe5f" stroke="#ae8119" stroke-width="1"/>
        </g>
        <g id="Corner-3" data-name="Corner" transform="translate(0 443.692)">
          <path id="Path_3646-3" data-name="Path 3646" d="M3116.211,220.506s-1.6,31.271-64.916,47.888-108.186-36.658-161.9-39.886-52.9,14.958-60.111,31.991,8.9,32.152,27.631,35.371,41.97-9.285,46-27.476a23.827,23.827,0,0,0-9.518-26.175s19.819,5.061,56.5,18.28c32.538,11.726,80.976,31.83,114.211,26.591a137.4,137.4,0,0,0,96.979-66.584Z" transform="translate(-2737.111 130.9)" fill="#dbbe5f" stroke="#ae8119" stroke-width="1"/>
          <path id="Path_3647-3" data-name="Path 3647" d="M2955.66,224.611s12.427,10.51,5.508,24.829a66.115,66.115,0,0,1-35.095,31.222c-14.752,5.9-23.948-7.6-23.948-7.6a149.518,149.518,0,0,0,32.488-20.9,104.941,104.941,0,0,0,21.049-27.556Z" transform="translate(-2531.653 129.142)" fill="#dbbe5f" stroke="#ae8119" stroke-width="1"/>
          <path id="Path_3648-3" data-name="Path 3648" d="M2948.3,222.559a31.733,31.733,0,0,1,3.129,15.727,19.759,19.759,0,0,1-11.145,17.207c-7.885,4.98-7.47,3.934-16.836,3.2a29.361,29.361,0,0,1-15.888-6.639,68.909,68.909,0,0,0,23-10.081,80.109,80.109,0,0,0,17.739-19.412Z" transform="translate(-2516.697 159.966)" fill="#dbbe5f" stroke="#ae8119" stroke-width="1"/>
          <path id="Path_3649-3" data-name="Path 3649" d="M2843.861,285.143s-12.021,6.259-16.027-3.7-7.209-21.812,0-36.144,28.854-21.19,28.854-21.19h272.885s-31.46,46.842-85.759,49.44-81.65-32.823-131.434-39.055-60.8,5.1-68.529,18.28S2843.861,285.143,2843.861,285.143Z" transform="translate(-2748.064 126.155)" fill="#dbbe5f" stroke="#ae8119" stroke-width="1"/>
          <path id="Path_3650-3" data-name="Path 3650" d="M2892.254,225.561a405.974,405.974,0,0,1-51.294,18.28c-19.538,4.569-31.062-3.6-31.062-3.6l55.108,45.979s-11.821-17.761-4.023-32.823S2892.254,225.561,2892.254,225.561Z" transform="translate(-2785.651 121.383)" fill="#dbbe5f" stroke="#ae8119" stroke-width="1"/>
          <path id="Path_3651-3" data-name="Path 3651" d="M2813.946,225.573s-7.115,24.928,3.2,33.238,38.072,0,38.072,0Z" transform="translate(-2781.092 145.056)" fill="#dbbe5f" stroke="#ae8119" stroke-width="1"/>
          <path id="Path_3652-3" data-name="Path 3652" d="M20.775,0A97.457,97.457,0,0,0,89.487,65.2C146.052,80.917,202.332,17.659,258,14.552s51.1,15.2,58.564,31.638-9.361,35.764-28.781,38.894S254.1,69.351,254.351,53.789a27.838,27.838,0,0,1,13.608-22.8s-30.52-3.7-63.759,22.8S118.777,90.13,84.323,85.083C13.3,74.658,0,0,0,0Z" transform="translate(102.329 26.617) rotate(90)" fill="#dbbe5f" stroke="#ae8119" stroke-width="1"/>
          <path id="Path_3653-3" data-name="Path 3653" d="M286.5,77.895s4.538,17.511,18.91,10.577,11.726-38.849,3.214-63.482S295.211,0,295.211,0L0,1.35S24.141,63.49,80.438,65.994s95.455-45.666,147.076-51.679,57.093,4.3,67.684,24.91S286.5,77.895,286.5,77.895Z" transform="translate(103.697 47.969) rotate(90)" fill="#dbbe5f" stroke="#ae8119" stroke-width="1"/>
          <path id="Path_3654-3" data-name="Path 3654" d="M2821.417,356.087S2809.1,352.635,2805,345.5s-.044-14.136,11.307-24.771,34.109-17.775,34.109-17.775a126.665,126.665,0,0,0-22.622,27.042A52.64,52.64,0,0,0,2821.417,356.087Z" transform="translate(-2803.438 -249.679)" fill="#dbbe5f" stroke="#ae8119" stroke-width="1"/>
          <path id="Path_3655-3" data-name="Path 3655" d="M2812.892,345.24s-10.761-5.2-8.941-13.412,13.591-14.753,28.822-18.91a59.362,59.362,0,0,1,32.1,2.271l-32.1,16.639Z" transform="translate(-2802.602 -272.684)" fill="#dbbe5f" stroke="#ae8119" stroke-width="1"/>
          <path id="Path_3656-3" data-name="Path 3656" d="M2821.235,359.138a27.313,27.313,0,0,1,7.112-23.336c9.9-9.705,32.488-15.486,32.488-15.486v26.059Z" transform="translate(-2755.48 -320.316)" fill="#dbbe5f" stroke="#ae8119" stroke-width="1"/>
        </g>
        <g id="Corner-4" data-name="Corner" transform="translate(480.552 443.692)">
          <path id="Path_3646-4" data-name="Path 3646" d="M2872.412,220.506s1.6,31.271,64.921,47.888,108.187-36.658,161.9-39.886,52.9,14.958,60.11,31.991-8.9,32.152-27.633,35.371-41.967-9.285-46-27.476a23.826,23.826,0,0,1,9.516-26.175s-19.817,5.061-56.5,18.28c-32.537,11.726-80.979,31.83-114.212,26.591a137.4,137.4,0,0,1-96.982-66.584Z" transform="translate(-2816.738 130.9)" fill="#dbbe5f" stroke="#ae8119" stroke-width="1"/>
          <path id="Path_3647-4" data-name="Path 3647" d="M2909.722,224.611s-12.429,10.51-5.5,24.829a66.108,66.108,0,0,0,35.095,31.222c14.753,5.9,23.947-7.6,23.947-7.6a149.579,149.579,0,0,1-32.486-20.9,104.887,104.887,0,0,1-21.052-27.556Z" transform="translate(-2898.958 129.142)" fill="#dbbe5f" stroke="#ae8119" stroke-width="1"/>
          <path id="Path_3648-4" data-name="Path 3648" d="M2910.752,222.559a31.752,31.752,0,0,0-3.129,15.727,19.766,19.766,0,0,0,11.146,17.207c7.884,4.98,7.469,3.934,16.835,3.2a29.358,29.358,0,0,0,15.888-6.638,68.911,68.911,0,0,1-23-10.081,80.1,80.1,0,0,1-17.741-19.411Z" transform="translate(-2907.568 159.966)" fill="#dbbe5f" stroke="#ae8119" stroke-width="1"/>
          <path id="Path_3649-4" data-name="Path 3649" d="M3109.275,285.143s12.022,6.259,16.026-3.7,7.215-21.812,0-36.144-28.853-21.19-28.853-21.19h-272.9s31.459,46.842,85.758,49.44,81.649-32.823,131.434-39.055,60.8,5.1,68.524,18.28S3109.275,285.143,3109.275,285.143Z" transform="translate(-2770.287 126.155)" fill="#dbbe5f" stroke="#ae8119" stroke-width="1"/>
          <path id="Path_3650-4" data-name="Path 3650" d="M2809.9,225.561a406.1,406.1,0,0,0,51.3,18.28c19.537,4.569,31.061-3.6,31.061-3.6l-55.085,45.979s11.82-17.761,4.023-32.823S2809.9,225.561,2809.9,225.561Z" transform="translate(-2481.744 121.383)" fill="#dbbe5f" stroke="#ae8119" stroke-width="1"/>
          <path id="Path_3651-4" data-name="Path 3651" d="M2852.834,225.573s7.112,24.928-3.207,33.238-38.071,0-38.071,0Z" transform="translate(-2450.959 145.056)" fill="#dbbe5f" stroke="#ae8119" stroke-width="1"/>
          <path id="Path_3652-4" data-name="Path 3652" d="M20.775,86.36a97.458,97.458,0,0,1,68.712-65.2C146.052,5.434,202.336,68.7,258.026,71.8s51.1-15.2,58.564-31.638S307.228,4.4,287.808,1.272,254.127,17,254.373,32.566a27.838,27.838,0,0,0,13.608,22.8s-30.52,3.7-63.759-22.8S118.8-3.775,84.341,1.276C13.3,11.7,0,86.36,0,86.36Z" transform="translate(418.794 26.617) rotate(90)" fill="#dbbe5f" stroke="#ae8119" stroke-width="1"/>
          <path id="Path_3653-4" data-name="Path 3653" d="M286.5,12.2s4.533-17.507,18.91-10.577,11.726,38.849,3.214,63.482-13.412,24.99-13.412,24.99L0,88.726s24.141-62.14,80.438-64.644,95.455,45.684,147.08,51.7,57.093-4.3,67.684-24.91S286.5,12.2,286.5,12.2Z" transform="translate(421.165 47.969) rotate(90)" fill="#dbbe5f" stroke="#ae8119" stroke-width="1"/>
          <path id="Path_3654-4" data-name="Path 3654" d="M2832.436,356.087s12.312-3.451,16.417-10.591.043-14.136-11.311-24.771-34.11-17.775-34.11-17.775a126.6,126.6,0,0,1,22.617,27.042A52.62,52.62,0,0,1,2832.436,356.087Z" transform="translate(-2415.63 -249.679)" fill="#dbbe5f" stroke="#ae8119" stroke-width="1"/>
          <path id="Path_3655-4" data-name="Path 3655" d="M2855.726,345.24s10.761-5.2,8.942-13.411-13.592-14.753-28.822-18.91a59.362,59.362,0,0,0-32.1,2.271l32.1,16.639Z" transform="translate(-2431.268 -272.684)" fill="#dbbe5f" stroke="#ae8119" stroke-width="1"/>
          <path id="Path_3656-4" data-name="Path 3656" d="M2860.453,359.138a27.321,27.321,0,0,0-7.114-23.337c-9.9-9.7-32.488-15.485-32.488-15.485v26.059Z" transform="translate(-2491.449 -320.316)" fill="#dbbe5f" stroke="#ae8119" stroke-width="1"/>
        </g>
        <g id="Group_74" data-name="Group 74" transform="translate(1.027 15.051)">
          <path id="Path_3657" data-name="Path 3657" d="M2926.6,245.53s15.813-19.715,27.507-21.065,17.82,12.8,17.82,12.8a76.532,76.532,0,0,1,3.648,16.832,127.209,127.209,0,0,0,0,15.316,71.623,71.623,0,0,0,5.1,18.776H2916.6a93.011,93.011,0,0,0,6.624-18.776c.962-4.108-.679-6.732,0-11.914a63.726,63.726,0,0,1,3.374-11.968Z" transform="translate(-2492.814 -224.374)" fill="#dbbe5f" stroke="#ae8119" stroke-width="1"/>
          <path id="Path_3658" data-name="Path 3658" d="M2919.27,265.4s14.212-34.177,24.427-34.177,16.43,34.177,16.43,34.177Z" transform="translate(-2485.468 -204.573)" fill="#dbbe5f" stroke="#ae8119" stroke-width="1"/>
          <path id="Path_3659" data-name="Path 3659" d="M2926.585,267.041s15.813,19.715,27.508,21.065,17.821-12.8,17.821-12.8a76.655,76.655,0,0,0,3.666-16.841,126.858,126.858,0,0,1,0-15.316,71.645,71.645,0,0,1,5.1-18.776h-64.076a92.925,92.925,0,0,1,6.625,18.776c.961,4.108-.681,6.733,0,11.914a63.824,63.824,0,0,0,3.354,11.976Z" transform="translate(-2491.447 556.468)" fill="#dbbe5f" stroke="#ae8119" stroke-width="1"/>
          <path id="Path_3660" data-name="Path 3660" d="M2919.27,231.218S2933.481,265.4,2943.7,265.4s16.43-34.177,16.43-34.177Z" transform="translate(-2484.118 552.624)" fill="#dbbe5f" stroke="#ae8119" stroke-width="1"/>
          <path id="Path_3661" data-name="Path 3661" d="M2827.438,319.735s-23.725,25.522-23.725,50.231,23.725,48.608,23.725,48.608a41.528,41.528,0,0,1,16.12-4.283,86.277,86.277,0,0,1,24.347,4.283s-34.218-23.9-34.218-48.608,33.342-50.231,33.342-50.231a124.55,124.55,0,0,1-23.471,3.259,37.505,37.505,0,0,1-16.12-3.259Z" transform="translate(-2803.713 51.414)" fill="#dbbe5f" stroke="#ae8119" stroke-width="1"/>
          <path id="Path_3662" data-name="Path 3662" d="M2844.175,319.735s23.724,25.522,23.724,50.231-23.724,48.608-23.724,48.608a41.539,41.539,0,0,0-16.121-4.283,86.278,86.278,0,0,0-24.347,4.283s34.218-23.9,34.218-48.608-33.34-50.231-33.34-50.231a124.485,124.485,0,0,0,23.47,3.259A37.517,37.517,0,0,0,2844.175,319.735Z" transform="translate(-1953.592 51.673)" fill="#dbbe5f" stroke="#ae8119" stroke-width="1"/>
        </g>
      </g>
      <path id="Path_3663" data-name="Path 3663" d="M853.512,320.311s-31.776,23.971-31.776,47.2,31.776,45.725,31.776,45.725a38.308,38.308,0,0,1,11.382-23.846c10.613-9.71,31.061-14.994,31.061-14.994-.237-.246,0-15.486,0-15.486a47.048,47.048,0,0,1-27.033-10.081C858.314,339.177,853.512,320.311,853.512,320.311Z" transform="translate(-790.591 68.129)" fill="#dbbe5f" stroke="#ae8119" stroke-width="1"/>
      <path id="Path_3664" data-name="Path 3664" d="M864.18,320.311s31.776,23.971,31.776,47.2-31.776,45.725-31.776,45.725A38.307,38.307,0,0,0,852.8,389.39c-10.613-9.71-31.062-14.994-31.062-14.994.237-.246,0-15.486,0-15.486a47.051,47.051,0,0,0,27.033-10.081C859.374,339.177,864.18,320.311,864.18,320.311Z" transform="translate(-11.504 68.71)" fill="#dbbe5f" stroke="#ae8119" stroke-width="1"/>
    </g>
    <g id="Gummi_Promo_" data-name="Gummi Promo " transform="translate(188.162 -81.823)">
      <g id="GUMMI" transform="translate(173.87 237.63)">
        <g id="I" transform="translate(239.072 0.553)">
          <path id="I_Shadow" data-name="I Shadow" d="M859.248,373.047v64.267l8.077,5.763h15.028l-.257-61.058-7.493-8.972Z" transform="translate(-859.243 -373.047)" fill="#ffa31a" stroke="#ffa31a" stroke-width="1"/>
          <g id="I-2" data-name="I" transform="translate(0.341 2.936)" fill="#1c1b1b">
            <path d="M 10.83287525177002 61.19718170166016 L -0.08875991404056549 61.19718170166016 L 0.5580438375473022 0.2500008642673492 L 11.51736927032471 0.2500008642673492 L 10.83287525177002 61.19718170166016 Z" stroke="none"/>
            <path d="M 0.8053989410400391 0.5 L 0.1639013290405273 60.94718170166016 L 10.58566093444824 60.94718170166016 L 11.26454067230225 0.5 L 0.8053989410400391 0.5 M 0.3106784820556641 0 L 11.77018928527832 0 L 11.08007907867432 61.44718170166016 L -0.3414316177368164 61.44718170166016 L 0.3106784820556641 0 Z" stroke="none" fill="#1c1b1b"/>
          </g>
        </g>
        <g id="M" transform="translate(104.896 1.131)">
          <path id="Path_3" data-name="Path 3" d="M576.071,314.437l-.033,63.96,8,4.915h13.093V363.673l5.834,4.269,5.693-4.269.471,14.723,7.071,4.915h19.353V323.828l-6.83-9.392H613.781L606.1,326.1l-7.116-11.668Z" transform="translate(-576.037 -314.437)" fill="#ffa31a" stroke="#ffa31a" stroke-width="1"/>
          <path id="Path_4" data-name="Path 4" d="M578.72,317.847v58.434h9.393V335.209l14.23,22.91L617,335.209v41.073h8.435V317.847H615.86l-13.517,23.765-14.23-23.765Z" transform="translate(-575.698 -314.005)" fill="#1c1b1b" stroke="#1c1b1b" stroke-width="0.5"/>
        </g>
        <g id="M-2" data-name="M" transform="translate(171.986 1.962)">
          <path id="Path_3-2" data-name="Path 3" d="M576.071,314.437l-.033,63.96,8,4.915h13.093V363.673l5.834,4.269,5.693-4.269.471,14.723,7.071,4.915h19.353V323.828l-6.83-9.392H613.781L606.1,326.1l-7.116-11.668Z" transform="translate(-576.037 -314.437)" fill="#ffa31a" stroke="#ffa31a" stroke-width="1"/>
          <path id="Path_4-2" data-name="Path 4" d="M578.72,317.847v58.434h9.393V335.209l14.23,22.91L617,335.209v41.073h8.364V317.847h-9.5l-13.517,23.765-14.23-23.765Z" transform="translate(-575.698 -314.005)" fill="#1c1b1b" stroke="#1c1b1b" stroke-width="0.54"/>
        </g>
        <g id="U" transform="translate(56.008 1.43)">
          <path id="Path_1" data-name="Path 1" d="M792.63,440.773s-.386,40.573,0,47.579S795.6,511,816.1,510.146s17.352-16.287,17.6-21.795c.167-3.656,0-38.115,0-38.115l-6.928-9.464Z" transform="translate(-792.458 -440.773)" fill="#ffa31a" stroke="#ffa31a" stroke-width="1"/>
          <path id="Path_2" data-name="Path 2" d="M804.648,444.626h-8.3s.109,38.278,0,42.3,1.326,17.768,13.848,17.188,13.552-10.826,13.661-17.187,0-42.3,0-42.3h-8.537s-.11,31.78,0,39.7-1.708,8.823-5.124,8.965-4.728-6.287-4.838-8.965S804.648,444.626,804.648,444.626Z" transform="translate(-791.967 -441.424)" fill="#1c1b1b" stroke="#505050" stroke-width="0.5"/>
        </g>
        <g id="G">
          <path id="G_Shadow" data-name="G Shadow" d="M1501.9,397.492s1.6-10.053-3.218-16.087-9.782-7.11-16.057-8.049c-20.177-3.016-28.025,7.03-27.972,19.706s-.146,11.6,0,18.126-2.613,25.338,11.357,29.685,17.645-1.707,17.645-1.707l3.415,3.656h15.885V415.729l-9.137-10.716h-15.428s-1.064-7.569,1.851-7.522,4.585,0,4.585,0Z" transform="translate(-1454.522 -372.817)" fill="#ffa31a" stroke="#ffa31a" stroke-width="1"/>
          <path id="G-2" data-name="G" d="M1772.818,287.14s1.45-13.67-15.573-13.749-19.771,11.151-19.848,14.807-.074,22.718,0,29.315,4.353,12.306,14.733,13.418,13.132-7.47,13.132-7.47v7.47h7.25V307.247H1757.86v3.577h6.792s1.14,8.925-8.327,10.673-10.775-5.564-10.928-8.822-.229-17.146,0-23.106,5.054-9.022,12.463-9.34,7.4,6.911,7.4,6.911Z" transform="translate(-1734.164 -268.239)" fill="#1c1b1b" stroke="#505050" stroke-width="0.5"/>
        </g>
      </g>
      <path id="Path_344" data-name="Path 344" d="M4830.274,792.05a44.088,44.088,0,0,1-11.557,0c-4.024-.493-7.151-5.308-13.157-1.76s-.508,10.589-.508,10.589a10.061,10.061,0,0,0,4.425,12.217s-9.217,4.4-9.793,11.946a12.812,12.812,0,0,0,5.467,11.363,80.4,80.4,0,0,0-3.04,9.928c-.831,4.112-2.555,17.8,5.557,20.558s11.9-4.842,15.017-5.829,6.916-1.042,9.266,0,6.116,7.969,12.63,4.815,5.407-9.621,5.151-17.563a16.518,16.518,0,0,0-5.151-11.91s4.737-5.847,3.963-11.363-7.987-11.946-7.987-11.946a8.061,8.061,0,0,0,4.023-5.233,8.815,8.815,0,0,0-1.053-6.252s6.158-5.576,0-10.729S4834.044,791.53,4830.274,792.05Z" transform="translate(-4555.238 -788.764)" fill="#ffa31a"/>
      <path id="Path_345" data-name="Path 345" d="M30.628,3.286a44.081,44.081,0,0,1-11.556,0c-4.025-.493-7.151-5.308-13.158-1.76s-.508,10.589-.508,10.589a11.162,11.162,0,0,0,0,6.984,11.232,11.232,0,0,0,4.426,5.233S.614,28.732.038,36.279A12.812,12.812,0,0,0,5.505,47.642,80.318,80.318,0,0,0,2.467,57.57c-.831,4.112-2.555,17.8,5.557,20.558s11.9-4.842,15.016-5.829,6.916-1.041,9.267,0,6.116,7.969,12.63,4.815,5.407-9.621,5.151-17.563a16.518,16.518,0,0,0-5.151-11.91S49.674,41.8,48.9,36.279s-7.987-11.946-7.987-11.946A8.06,8.06,0,0,0,44.937,19.1a8.817,8.817,0,0,0-1.053-6.252s6.158-5.576,0-10.729S34.4,2.766,30.628,3.286Z" transform="translate(309.114 552.564) rotate(180)" fill="#ffa31a"/>
      <path id="Path_346" data-name="Path 346" d="M30.628,3.286a44.081,44.081,0,0,1-11.556,0c-4.025-.493-7.151-5.308-13.158-1.76s-.508,10.589-.508,10.589a11.162,11.162,0,0,0,0,6.984,11.232,11.232,0,0,0,4.426,5.233S.614,28.732.038,36.279A12.812,12.812,0,0,0,5.505,47.642,80.318,80.318,0,0,0,2.467,57.57c-.831,4.112-2.555,17.8,5.557,20.558s11.9-4.842,15.016-5.829,6.916-1.041,9.267,0,6.116,7.969,12.63,4.815,5.407-9.621,5.151-17.563a16.518,16.518,0,0,0-5.151-11.91S49.674,41.8,48.9,36.279s-7.987-11.946-7.987-11.946A8.06,8.06,0,0,0,44.937,19.1a8.817,8.817,0,0,0-1.053-6.252s6.158-5.576,0-10.729S34.4,2.766,30.628,3.286Z" transform="translate(0 300.74) rotate(-90)" fill="#ffa31a"/>
      <path id="Path_347" data-name="Path 347" d="M30.627,75.442a44.079,44.079,0,0,0-11.556,0c-4.025.493-7.151,5.308-13.158,1.76s-.508-10.589-.508-10.589a11.167,11.167,0,0,1,0-6.984A11.233,11.233,0,0,1,9.832,54.4S.614,50,.038,42.449A12.811,12.811,0,0,1,5.5,31.087a80.333,80.333,0,0,1-3.039-9.928C1.635,17.047-.089,3.36,8.023.6s11.9,4.842,15.016,5.829,6.916,1.041,9.267,0,6.116-7.969,12.631-4.815,5.407,9.621,5.151,17.562a16.518,16.518,0,0,1-5.151,11.911s4.737,5.846,3.963,11.362S40.913,54.4,40.913,54.4a8.062,8.062,0,0,1,4.023,5.233,8.816,8.816,0,0,1-1.053,6.252s6.158,5.576,0,10.729S34.4,75.962,30.627,75.442Z" transform="translate(473.837 300.74) rotate(-90)" fill="#ffa31a"/>
      <path id="Path_348" data-name="Path 348" d="M30.628,3.286a44.081,44.081,0,0,1-11.556,0c-4.025-.493-7.151-5.308-13.158-1.76s-.508,10.589-.508,10.589a11.162,11.162,0,0,0,0,6.984,11.232,11.232,0,0,0,4.426,5.233S.614,28.732.038,36.279A12.812,12.812,0,0,0,5.505,47.642,80.318,80.318,0,0,0,2.467,57.57c-.831,4.112-2.555,17.8,5.557,20.558s11.9-4.842,15.016-5.829,6.916-1.041,9.267,0,6.116,7.969,12.63,4.815,5.407-9.621,5.151-17.563a16.518,16.518,0,0,0-5.151-11.91S49.674,41.8,48.9,36.279s-7.987-11.946-7.987-11.946A8.06,8.06,0,0,0,44.937,19.1a8.817,8.817,0,0,0-1.053-6.252s6.158-5.576,0-10.729S34.4,2.766,30.628,3.286Z" transform="translate(60.097 101.932) rotate(-45)" fill="#ffa31a"/>
      <path id="Path_349" data-name="Path 349" d="M30.628,75.442a44.079,44.079,0,0,0-11.556,0c-4.025.493-7.151,5.308-13.159,1.76s-.508-10.589-.508-10.589a11.167,11.167,0,0,1,0-6.985A11.233,11.233,0,0,1,9.832,54.4S.614,50,.038,42.449A12.811,12.811,0,0,1,5.5,31.087a80.33,80.33,0,0,1-3.039-9.928C1.635,17.047-.089,3.36,8.023.6s11.9,4.843,15.017,5.829,6.916,1.041,9.267,0,6.116-7.969,12.631-4.815,5.407,9.621,5.151,17.562a16.518,16.518,0,0,1-5.151,11.911s4.737,5.846,3.963,11.363S40.914,54.4,40.914,54.4a8.062,8.062,0,0,1,4.023,5.233,8.816,8.816,0,0,1-1.053,6.252s6.158,5.576,0,10.729S34.4,75.963,30.628,75.442Z" transform="translate(116.136 401.77) rotate(45)" fill="#ffa31a"/>
      <path id="Path_350" data-name="Path 350" d="M30.628,3.286a44.079,44.079,0,0,1-11.556,0c-4.025-.493-7.151-5.308-13.159-1.76s-.508,10.589-.508,10.589a11.167,11.167,0,0,0,0,6.985,11.233,11.233,0,0,0,4.426,5.233S.614,28.731.038,36.279A12.811,12.811,0,0,0,5.5,47.641,80.33,80.33,0,0,0,2.466,57.57c-.831,4.112-2.555,17.8,5.556,20.558s11.9-4.843,15.017-5.829,6.916-1.041,9.267,0,6.116,7.969,12.63,4.815,5.407-9.621,5.151-17.562a16.518,16.518,0,0,0-5.151-11.911S49.674,41.8,48.9,36.279s-7.986-11.946-7.986-11.946A8.062,8.062,0,0,0,44.937,19.1a8.816,8.816,0,0,0-1.053-6.252s6.158-5.576,0-10.729S34.4,2.766,30.628,3.286Z" transform="translate(499.891 446.499) rotate(135)" fill="#ffa31a"/>
      <path id="Path_351" data-name="Path 351" d="M30.628,75.442a44.079,44.079,0,0,0-11.556,0c-4.025.493-7.151,5.308-13.159,1.76s-.508-10.589-.508-10.589a11.167,11.167,0,0,1,0-6.985A11.233,11.233,0,0,1,9.832,54.4S.614,50,.038,42.449A12.811,12.811,0,0,1,5.5,31.087a80.33,80.33,0,0,1-3.039-9.928C1.635,17.047-.089,3.36,8.023.6s11.9,4.843,15.017,5.829,6.916,1.041,9.267,0,6.116-7.969,12.63-4.815,5.407,9.621,5.151,17.562a16.518,16.518,0,0,1-5.151,11.911s4.737,5.846,3.963,11.363S40.914,54.4,40.914,54.4a8.062,8.062,0,0,1,4.023,5.233,8.816,8.816,0,0,1-1.053,6.252s6.158,5.576,0,10.729S34.4,75.962,30.628,75.442Z" transform="translate(430.214 151.65) rotate(-135)" fill="#ffa31a"/>
      <text id="MK-Horizon" transform="translate(134.323 190.561)" fill="#1c1b1b" font-size="38" font-family="CourierNewPSMT, Courier New" letter-spacing="0.2em"><tspan x="0" y="0">MK-Horizon</tspan></text>
      <text id="_" data-name="$" transform="translate(124.732 298.377)" fill="#1c1b1b" stroke="#ffa31a" stroke-width="3" font-size="64" font-family="Impact" letter-spacing="0.2em"><tspan x="0" y="0">$</tspan></text>
      <line id="Line_4" data-name="Line 4" x2="308.857" transform="translate(125.691 203.643)" fill="none" stroke="#1c1b1b" stroke-width="1"/>
      <path id="Path_352" data-name="Path 352" d="M0,.365,308.857-.4" transform="translate(125.691 210.951)" fill="none" stroke="#1c1b1b" stroke-width="1"/>
      <path id="Path_353" data-name="Path 353" d="M30.628,3.286a44.081,44.081,0,0,1-11.556,0c-4.025-.493-7.151-5.308-13.158-1.76s-.508,10.589-.508,10.589a11.162,11.162,0,0,0,0,6.984,11.232,11.232,0,0,0,4.426,5.233S.614,28.732.038,36.279A12.812,12.812,0,0,0,5.505,47.642,80.318,80.318,0,0,0,2.467,57.57c-.831,4.112-2.555,17.8,5.557,20.558s11.9-4.842,15.016-5.829,6.916-1.041,9.267,0,6.116,7.969,12.63,4.815,5.407-9.621,5.151-17.563a16.518,16.518,0,0,0-5.151-11.91S49.674,41.8,48.9,36.279s-7.987-11.946-7.987-11.946A8.06,8.06,0,0,0,44.937,19.1a8.817,8.817,0,0,0-1.053-6.252s6.158-5.576,0-10.729S34.4,2.766,30.628,3.286Z" transform="translate(358.326 11.731) rotate(22.5)" fill="#ffa31a"/>
      <path id="Path_354" data-name="Path 354" d="M30.627,75.442a44.079,44.079,0,0,0-11.556,0c-4.025.493-7.151,5.308-13.158,1.76s-.508-10.589-.508-10.589a11.167,11.167,0,0,1,0-6.984A11.233,11.233,0,0,1,9.832,54.4S.614,50,.038,42.449A12.811,12.811,0,0,1,5.5,31.087a80.332,80.332,0,0,1-3.039-9.928C1.635,17.047-.089,3.36,8.023.6s11.9,4.842,15.016,5.829,6.916,1.041,9.267,0,6.116-7.969,12.631-4.815,5.407,9.62,5.151,17.562a16.518,16.518,0,0,1-5.151,11.911s4.737,5.846,3.963,11.362S40.913,54.4,40.913,54.4a8.062,8.062,0,0,1,4.023,5.233,8.816,8.816,0,0,1-1.053,6.252s6.158,5.576,0,10.729S34.4,75.962,30.627,75.442Z" transform="translate(339.578 466.28) rotate(-22.5)" fill="#ffa31a"/>
      <path id="Path_355" data-name="Path 355" d="M30.627,3.286a44.079,44.079,0,0,1-11.556,0c-4.025-.493-7.151-5.308-13.158-1.76s-.508,10.589-.508,10.589a11.167,11.167,0,0,0,0,6.984,11.233,11.233,0,0,0,4.426,5.233S.614,28.731.038,36.279A12.811,12.811,0,0,0,5.5,47.641a80.332,80.332,0,0,0-3.039,9.928c-.831,4.112-2.555,17.8,5.557,20.559s11.9-4.842,15.016-5.829,6.916-1.041,9.267,0,6.116,7.969,12.631,4.815,5.407-9.62,5.151-17.562a16.518,16.518,0,0,0-5.151-11.911S49.673,41.8,48.9,36.279s-7.986-11.947-7.986-11.947A8.062,8.062,0,0,0,44.937,19.1a8.816,8.816,0,0,0-1.053-6.252s6.158-5.576,0-10.729S34.4,2.766,30.627,3.286Z" transform="translate(198.205 545.141) rotate(-157.5)" fill="#ffa31a"/>
      <path id="Path_356" data-name="Path 356" d="M30.627,75.442a44.079,44.079,0,0,0-11.556,0c-4.025.493-7.151,5.308-13.158,1.76s-.508-10.589-.508-10.589a11.167,11.167,0,0,1,0-6.984A11.233,11.233,0,0,1,9.832,54.4S.614,50,.038,42.449A12.811,12.811,0,0,1,5.5,31.087a80.333,80.333,0,0,1-3.039-9.928C1.635,17.047-.089,3.36,8.023.6s11.9,4.842,15.016,5.829,6.916,1.041,9.267,0,6.116-7.969,12.631-4.815,5.407,9.62,5.151,17.562a16.518,16.518,0,0,1-5.151,11.911s4.737,5.846,3.963,11.362S40.913,54.4,40.913,54.4a8.062,8.062,0,0,1,4.023,5.233,8.816,8.816,0,0,1-1.053,6.252s6.158,5.576,0,10.729S34.4,75.962,30.627,75.442Z" transform="translate(210.939 90) rotate(157.5)" fill="#ffa31a"/>
      <path id="Path_357" data-name="Path 357" d="M30.627,75.442a44.079,44.079,0,0,0-11.556,0c-4.025.493-7.151,5.308-13.158,1.76s-.508-10.589-.508-10.589a11.167,11.167,0,0,1,0-6.984A11.233,11.233,0,0,1,9.832,54.4S.614,50,.038,42.449A12.811,12.811,0,0,1,5.5,31.087a80.333,80.333,0,0,1-3.039-9.928C1.635,17.047-.089,3.36,8.023.6s11.9,4.842,15.016,5.829,6.916,1.041,9.267,0,6.116-7.969,12.631-4.815,5.407,9.62,5.151,17.562a16.518,16.518,0,0,1-5.151,11.911s4.737,5.846,3.963,11.362S40.913,54.4,40.913,54.4a8.062,8.062,0,0,1,4.023,5.233,8.816,8.816,0,0,1-1.053,6.252s6.158,5.576,0,10.729S34.4,75.962,30.627,75.442Z" transform="translate(79.449 325.154) rotate(67.5)" fill="#ffa31a"/>
      <path id="Path_358" data-name="Path 358" d="M30.628,3.286a44.079,44.079,0,0,1-11.556,0c-4.025-.493-7.151-5.308-13.158-1.76s-.508,10.589-.508,10.589a11.167,11.167,0,0,0,0,6.984,11.233,11.233,0,0,0,4.426,5.233S.614,28.731.038,36.279A12.811,12.811,0,0,0,5.5,47.641a80.332,80.332,0,0,0-3.039,9.928c-.831,4.112-2.555,17.8,5.556,20.558s11.9-4.842,15.016-5.829,6.916-1.041,9.267,0,6.116,7.969,12.631,4.815,5.407-9.62,5.151-17.562a16.518,16.518,0,0,0-5.151-11.911S49.673,41.8,48.9,36.279s-7.986-11.947-7.986-11.947A8.062,8.062,0,0,0,44.937,19.1a8.816,8.816,0,0,0-1.053-6.252s6.158-5.576,0-10.729S34.4,2.766,30.628,3.286Z" transform="translate(544.636 355.282) rotate(112.5)" fill="#ffa31a"/>
      <path id="Path_359" data-name="Path 359" d="M30.628,75.442a44.079,44.079,0,0,0-11.556,0c-4.025.493-7.151,5.308-13.158,1.76s-.508-10.589-.508-10.589a11.167,11.167,0,0,1,0-6.984A11.233,11.233,0,0,1,9.832,54.4S.614,50,.038,42.449A12.811,12.811,0,0,1,5.5,31.087a80.332,80.332,0,0,1-3.039-9.928C1.635,17.047-.089,3.36,8.023.6s11.9,4.842,15.016,5.829,6.916,1.041,9.267,0,6.116-7.969,12.631-4.815,5.407,9.62,5.151,17.562a16.518,16.518,0,0,1-5.151,11.911s4.737,5.846,3.963,11.362S40.913,54.4,40.913,54.4a8.062,8.062,0,0,1,4.023,5.233,8.816,8.816,0,0,1-1.053,6.252s6.158,5.576,0,10.729S34.4,75.962,30.628,75.442Z" transform="translate(464.899 218.93) rotate(-112.5)" fill="#ffa31a"/>
      <path id="Path_360" data-name="Path 360" d="M30.627,3.286a44.08,44.08,0,0,1-11.556,0c-4.025-.493-7.151-5.308-13.158-1.76s-.508,10.589-.508,10.589a11.167,11.167,0,0,0,0,6.984,11.233,11.233,0,0,0,4.426,5.233S.614,28.731.038,36.279A12.811,12.811,0,0,0,5.5,47.641a80.332,80.332,0,0,0-3.039,9.928c-.831,4.112-2.555,17.8,5.556,20.558s11.9-4.842,15.016-5.829,6.916-1.041,9.267,0,6.116,7.969,12.631,4.815,5.407-9.62,5.151-17.562a16.518,16.518,0,0,0-5.151-11.911s4.737-5.846,3.963-11.362-7.986-11.947-7.986-11.947A8.062,8.062,0,0,0,44.937,19.1a8.816,8.816,0,0,0-1.053-6.252s6.158-5.576,0-10.729S34.4,2.766,30.627,3.286Z" transform="translate(6.714 195.881) rotate(-67.5)" fill="#ffa31a"/>
      <g id="Gummi_Bear" data-name="Gummi Bear" transform="translate(233.119 334.781)">
        <circle id="Ellipse_3" data-name="Ellipse 3" cx="50.837" cy="50.837" r="50.837" transform="translate(0 0)" fill="#505050"/>
        <path id="Path_11" data-name="Path 11" d="M4830.274,792.05a44.088,44.088,0,0,1-11.557,0c-4.024-.493-7.151-5.308-13.157-1.76s-.508,10.589-.508,10.589a10.061,10.061,0,0,0,4.425,12.217s-9.217,4.4-9.793,11.946a12.812,12.812,0,0,0,5.467,11.363,80.4,80.4,0,0,0-3.04,9.928c-.831,4.112-2.555,17.8,5.557,20.558s11.9-4.842,15.017-5.829,6.916-1.042,9.266,0,6.116,7.969,12.63,4.815,5.407-9.621,5.151-17.563a16.518,16.518,0,0,0-5.151-11.91s4.737-5.847,3.963-11.363-7.987-11.946-7.987-11.946a8.061,8.061,0,0,0,4.023-5.233,8.815,8.815,0,0,0-1.053-6.252s6.158-5.576,0-10.729S4834.044,791.53,4830.274,792.05Z" transform="translate(-4773.969 -777.292)" fill="#ffa31a"/>
      </g>
    </g>
  </g>
</svg>
