<svg xmlns="http://www.w3.org/2000/svg" width="490" height="490" viewBox="0 0 490 490">
  <g id="Gummi_Promo_2" data-name="Gummi Promo 2" transform="translate(5.556 276.75)">
    <rect id="Rectangle_34" data-name="Rectangle 34" width="490" height="490" transform="translate(-5.556 -276.75)" fill="#a8beae"/>
    <g id="Frame" transform="translate(0.439 -258.676)">
      <g id="Rectangle_4" data-name="Rectangle 4" transform="translate(53.939 39.549)" fill="#dbbe5f" stroke="#ae8119" stroke-width="2">
        <rect width="369.85" height="375.329" stroke="none"/>
        <rect x="1" y="1" width="367.85" height="373.329" fill="none"/>
      </g>
      <g id="Rectangle_3" data-name="Rectangle 3" transform="translate(71.55 53.753)" fill="#d9d2bd" stroke="#ae8119" stroke-width="3">
        <rect width="340.497" height="348.954" stroke="none"/>
        <rect x="1.5" y="1.5" width="337.497" height="345.954" fill="none"/>
      </g>
      <g id="Frame_Design" data-name="Frame Design" transform="translate(0.005 0)">
        <g id="Corner">
          <path id="Path_3646" data-name="Path 3646" d="M2978.01,260.055s-.834-16.3-33.839-24.963-56.4,19.109-84.4,20.792-27.575-7.8-31.334-16.676,4.638-16.76,14.4-18.438,21.878,4.84,23.98,14.323a12.42,12.42,0,0,1-4.961,13.645s10.331-2.638,29.454-9.529c16.961-6.113,42.211-16.592,59.535-13.861a71.624,71.624,0,0,1,50.553,34.709Z" transform="translate(-2780.394 -220.506)" fill="#dbbe5f" stroke="#ae8119" stroke-width="1"/>
          <path id="Path_3647" data-name="Path 3647" d="M2930.031,254.607s6.478-5.479,2.871-12.943a34.464,34.464,0,0,0-18.294-16.275c-7.69-3.076-12.484,3.962-12.484,3.962a77.93,77.93,0,0,1,16.935,10.892,54.711,54.711,0,0,1,10.971,14.364Z" transform="translate(-2709.006 -216.282)" fill="#dbbe5f" stroke="#ae8119" stroke-width="1"/>
          <path id="Path_3648" data-name="Path 3648" d="M2928.794,241.72a16.546,16.546,0,0,0,1.631-8.2,10.3,10.3,0,0,0-5.81-8.97c-4.11-2.6-3.894-2.051-8.776-1.666a15.307,15.307,0,0,0-8.282,3.461,35.926,35.926,0,0,1,11.99,5.255,41.75,41.75,0,0,1,9.247,10.118Z" transform="translate(-2703.811 -218.393)" fill="#dbbe5f" stroke="#ae8119" stroke-width="1"/>
          <path id="Path_3649" data-name="Path 3649" d="M2834.136,225.125s-6.266-3.262-8.354,1.927-3.758,11.37,0,18.841,15.041,11.046,15.041,11.046h142.249s-16.4-24.418-44.7-25.772-42.562,17.11-68.513,20.358-31.693-2.659-35.722-9.529S2834.136,225.125,2834.136,225.125Z" transform="translate(-2784.199 -216.794)" fill="#dbbe5f" stroke="#ae8119" stroke-width="1"/>
          <path id="Path_3650" data-name="Path 3650" d="M2852.828,257.18a211.651,211.651,0,0,0-26.74-9.529c-10.184-2.382-16.191,1.878-16.191,1.878l28.727-23.968s-6.162,9.259-2.1,17.11S2852.828,257.18,2852.828,257.18Z" transform="translate(-2797.258 -215.305)" fill="#dbbe5f" stroke="#ae8119" stroke-width="1"/>
          <path id="Path_3651" data-name="Path 3651" d="M2812.8,244.824s-3.708-12.994,1.671-17.326,19.846,0,19.846,0Z" transform="translate(-2795.675 -215.293)" fill="#dbbe5f" stroke="#ae8119" stroke-width="1"/>
          <path id="Path_3652" data-name="Path 3652" d="M10.829,45.017A50.8,50.8,0,0,1,46.647,11.029c29.486-8.2,58.824,24.784,87.855,26.4s26.639-7.923,30.528-16.492-4.88-18.643-15-20.274-17.557,8.2-17.429,16.313a14.511,14.511,0,0,0,7.094,11.885s-15.91,1.927-33.236-11.885S61.925-1.968,43.965.665C6.931,6.1,0,45.017,0,45.017Z" transform="translate(8.324 208.854) rotate(-90)" fill="#dbbe5f" stroke="#ae8119" stroke-width="1"/>
          <path id="Path_3653" data-name="Path 3653" d="M149.345,6.36S151.708-2.766,159.2.846s6.113,20.251,1.676,33.091-6.991,13.027-6.991,13.027L0,46.251s12.584-32.392,41.931-33.7S91.689,36.368,118.6,39.5s29.761-2.239,35.282-12.985S149.345,6.36,149.345,6.36Z" transform="translate(7.091 197.724) rotate(-90)" fill="#dbbe5f" stroke="#ae8119" stroke-width="1"/>
          <path id="Path_3654" data-name="Path 3654" d="M2812.81,302.949s-6.418,1.8-8.558,5.521-.023,7.369,5.894,12.913,17.781,9.266,17.781,9.266a66.014,66.014,0,0,1-11.792-14.1A27.439,27.439,0,0,1,2812.81,302.949Z" transform="translate(-2803.438 -135.688)" fill="#dbbe5f" stroke="#ae8119" stroke-width="1"/>
          <path id="Path_3655" data-name="Path 3655" d="M2808.512,311.647s-5.61,2.71-4.661,6.991,7.085,7.69,15.024,9.858a30.944,30.944,0,0,0,16.734-1.184l-16.734-8.674Z" transform="translate(-2803.148 -126.738)" fill="#dbbe5f" stroke="#ae8119" stroke-width="1"/>
          <path id="Path_3656" data-name="Path 3656" d="M2821.053,320.315a14.238,14.238,0,0,0,3.708,12.165c5.16,5.059,16.935,8.072,16.935,8.072V326.968Z" transform="translate(-2786.777 -117.821)" fill="#dbbe5f" stroke="#ae8119" stroke-width="1"/>
        </g>
        <g id="Corner-2" data-name="Corner" transform="translate(250.501)">
          <path id="Path_3646-2" data-name="Path 3646" d="M2850.926,260.055s.836-16.3,33.842-24.963,56.4,19.109,84.4,20.792,27.575-7.8,31.334-16.676-4.638-16.76-14.4-18.438-21.877,4.84-23.979,14.323a12.42,12.42,0,0,0,4.961,13.645s-10.331-2.638-29.453-9.529c-16.961-6.113-42.212-16.592-59.536-13.861a71.625,71.625,0,0,0-50.554,34.709Z" transform="translate(-2821.904 -220.506)" fill="#dbbe5f" stroke="#ae8119" stroke-width="1"/>
          <path id="Path_3647-2" data-name="Path 3647" d="M2906.082,254.607s-6.479-5.479-2.869-12.943a34.461,34.461,0,0,1,18.294-16.275c7.69-3.076,12.483,3.962,12.483,3.962a77.965,77.965,0,0,0-16.934,10.892,54.68,54.68,0,0,0-10.974,14.364Z" transform="translate(-2900.471 -216.282)" fill="#dbbe5f" stroke="#ae8119" stroke-width="1"/>
          <path id="Path_3648-2" data-name="Path 3648" d="M2909.227,241.72a16.549,16.549,0,0,1-1.631-8.2,10.3,10.3,0,0,1,5.81-8.97c4.11-2.6,3.893-2.051,8.776-1.666a15.3,15.3,0,0,1,8.282,3.461,35.921,35.921,0,0,0-11.989,5.255,41.749,41.749,0,0,0-9.248,10.119Z" transform="translate(-2907.567 -218.393)" fill="#dbbe5f" stroke="#ae8119" stroke-width="1"/>
          <path id="Path_3649-2" data-name="Path 3649" d="M2972.49,225.125s6.267-3.262,8.354,1.927,3.761,11.37,0,18.841-15.041,11.046-15.041,11.046H2823.546s16.4-24.418,44.7-25.772,42.562,17.11,68.513,20.358,31.694-2.659,35.72-9.529S2972.49,225.125,2972.49,225.125Z" transform="translate(-2795.783 -216.794)" fill="#dbbe5f" stroke="#ae8119" stroke-width="1"/>
          <path id="Path_3650-2" data-name="Path 3650" d="M2809.9,257.18a211.746,211.746,0,0,1,26.739-9.529c10.184-2.382,16.191,1.878,16.191,1.878l-28.715-23.968s6.161,9.259,2.1,17.11S2809.9,257.18,2809.9,257.18Z" transform="translate(-2638.839 -215.305)" fill="#dbbe5f" stroke="#ae8119" stroke-width="1"/>
          <path id="Path_3651-2" data-name="Path 3651" d="M2833.074,244.824s3.708-12.994-1.672-17.326-19.845,0-19.845,0Z" transform="translate(-2623.585 -215.293)" fill="#dbbe5f" stroke="#ae8119" stroke-width="1"/>
          <path id="Path_3652-2" data-name="Path 3652" d="M10.829,0A50.8,50.8,0,0,0,46.647,33.989c29.486,8.191,58.824-24.784,87.844-26.4s26.639,7.923,30.528,16.492-4.88,18.643-15,20.274-17.557-8.2-17.429-16.313a14.511,14.511,0,0,1,7.094-11.885s-15.91-1.927-33.236,11.885S61.916,46.983,43.956,44.352C6.931,38.917,0,0,0,0Z" transform="translate(173.293 208.854) rotate(-90)" fill="#dbbe5f" stroke="#ae8119" stroke-width="1"/>
          <path id="Path_3653-2" data-name="Path 3653" d="M149.345,40.6s2.365,9.128,9.858,5.514,6.113-20.251,1.676-33.091S153.887,0,153.887,0L0,.7S12.584,33.1,41.931,34.4,91.689,10.6,118.6,7.462,148.359,9.7,153.88,20.447,149.345,40.6,149.345,40.6Z" transform="translate(172.58 197.724) rotate(-90)" fill="#dbbe5f" stroke="#ae8119" stroke-width="1"/>
          <path id="Path_3654-2" data-name="Path 3654" d="M2818.551,302.949s6.418,1.8,8.558,5.521.023,7.369-5.9,12.913-17.781,9.266-17.781,9.266a66,66,0,0,0,11.79-14.1A27.433,27.433,0,0,0,2818.551,302.949Z" transform="translate(-2601.28 -135.688)" fill="#dbbe5f" stroke="#ae8119" stroke-width="1"/>
          <path id="Path_3655-2" data-name="Path 3655" d="M2830.839,311.647s5.609,2.71,4.661,6.991-7.085,7.69-15.024,9.858a30.944,30.944,0,0,1-16.735-1.184l16.735-8.674Z" transform="translate(-2609.58 -126.738)" fill="#dbbe5f" stroke="#ae8119" stroke-width="1"/>
          <path id="Path_3656-2" data-name="Path 3656" d="M2841.494,320.315a14.24,14.24,0,0,1-3.708,12.165c-5.159,5.059-16.935,8.072-16.935,8.072V326.968Z" transform="translate(-2649.141 -117.821)" fill="#dbbe5f" stroke="#ae8119" stroke-width="1"/>
        </g>
        <g id="Corner-3" data-name="Corner" transform="translate(0 231.286)">
          <path id="Path_3646-3" data-name="Path 3646" d="M2978.01,220.506s-.834,16.3-33.839,24.963-56.4-19.109-84.4-20.792-27.575,7.8-31.334,16.676,4.638,16.76,14.4,18.438,21.878-4.84,23.98-14.322a12.42,12.42,0,0,0-4.961-13.645s10.331,2.638,29.454,9.529c16.961,6.113,42.211,16.592,59.535,13.861a71.625,71.625,0,0,0,50.553-34.709Z" transform="translate(-2780.394 -37.326)" fill="#dbbe5f" stroke="#ae8119" stroke-width="1"/>
          <path id="Path_3647-3" data-name="Path 3647" d="M2930.031,224.611s6.478,5.479,2.871,12.943a34.464,34.464,0,0,1-18.294,16.275c-7.69,3.076-12.484-3.961-12.484-3.961a77.934,77.934,0,0,0,16.935-10.892,54.705,54.705,0,0,0,10.972-14.364Z" transform="translate(-2709.006 -40.208)" fill="#dbbe5f" stroke="#ae8119" stroke-width="1"/>
          <path id="Path_3648-3" data-name="Path 3648" d="M2928.794,222.559a16.546,16.546,0,0,1,1.631,8.2,10.3,10.3,0,0,1-5.81,8.97c-4.11,2.6-3.894,2.051-8.776,1.666a15.306,15.306,0,0,1-8.282-3.461,35.92,35.92,0,0,0,11.99-5.255,41.755,41.755,0,0,0,9.247-10.119Z" transform="translate(-2703.811 -23.158)" fill="#dbbe5f" stroke="#ae8119" stroke-width="1"/>
          <path id="Path_3649-3" data-name="Path 3649" d="M2834.136,255.925s-6.266,3.263-8.354-1.927-3.758-11.37,0-18.841,15.041-11.046,15.041-11.046h142.249s-16.4,24.418-44.7,25.772-42.562-17.11-68.513-20.358-31.693,2.659-35.722,9.529S2834.136,255.925,2834.136,255.925Z" transform="translate(-2784.199 -41.525)" fill="#dbbe5f" stroke="#ae8119" stroke-width="1"/>
          <path id="Path_3650-3" data-name="Path 3650" d="M2852.828,225.561a211.644,211.644,0,0,1-26.739,9.529c-10.185,2.382-16.192-1.878-16.192-1.878l28.727,23.968s-6.162-9.259-2.1-17.11S2852.828,225.561,2852.828,225.561Z" transform="translate(-2797.258 -44.707)" fill="#dbbe5f" stroke="#ae8119" stroke-width="1"/>
          <path id="Path_3651-3" data-name="Path 3651" d="M2812.8,225.573s-3.708,12.994,1.671,17.326,19.846,0,19.846,0Z" transform="translate(-2795.675 -32.373)" fill="#dbbe5f" stroke="#ae8119" stroke-width="1"/>
          <path id="Path_3652-3" data-name="Path 3652" d="M10.829,0A50.8,50.8,0,0,0,46.647,33.989c29.486,8.191,58.824-24.784,87.844-26.4s26.639,7.923,30.528,16.492-4.88,18.643-15,20.274-17.557-8.2-17.429-16.313a14.511,14.511,0,0,1,7.094-11.885s-15.91-1.927-33.236,11.885S61.916,46.983,43.956,44.352C6.931,38.917,0,0,0,0Z" transform="translate(53.342 13.875) rotate(90)" fill="#dbbe5f" stroke="#ae8119" stroke-width="1"/>
          <path id="Path_3653-3" data-name="Path 3653" d="M149.345,40.6s2.365,9.128,9.858,5.514,6.113-20.251,1.676-33.091S153.887,0,153.887,0L0,.7S12.584,33.1,41.931,34.4,91.689,10.6,118.6,7.462,148.359,9.7,153.88,20.447,149.345,40.6,149.345,40.6Z" transform="translate(54.055 25.005) rotate(90)" fill="#dbbe5f" stroke="#ae8119" stroke-width="1"/>
          <path id="Path_3654-3" data-name="Path 3654" d="M2812.81,330.649s-6.418-1.8-8.558-5.521-.023-7.369,5.894-12.913,17.781-9.266,17.781-9.266a66.017,66.017,0,0,0-11.792,14.1A27.439,27.439,0,0,0,2812.81,330.649Z" transform="translate(-2803.438 -275.181)" fill="#dbbe5f" stroke="#ae8119" stroke-width="1"/>
          <path id="Path_3655-3" data-name="Path 3655" d="M2808.512,329.178s-5.61-2.71-4.661-6.991,7.085-7.69,15.024-9.858a30.944,30.944,0,0,1,16.734,1.184l-16.734,8.674Z" transform="translate(-2803.148 -291.356)" fill="#dbbe5f" stroke="#ae8119" stroke-width="1"/>
          <path id="Path_3656-3" data-name="Path 3656" d="M2821.053,340.553a14.238,14.238,0,0,1,3.708-12.165c5.16-5.059,16.935-8.072,16.935-8.072V333.9Z" transform="translate(-2786.777 -320.316)" fill="#dbbe5f" stroke="#ae8119" stroke-width="1"/>
        </g>
        <g id="Corner-4" data-name="Corner" transform="translate(250.501 231.286)">
          <path id="Path_3646-4" data-name="Path 3646" d="M2850.926,220.506s.836,16.3,33.842,24.963,56.4-19.109,84.4-20.792,27.575,7.8,31.334,16.676-4.638,16.76-14.4,18.438-21.877-4.84-23.979-14.322a12.42,12.42,0,0,1,4.961-13.645s-10.331,2.638-29.453,9.529c-16.961,6.113-42.212,16.592-59.536,13.861a71.625,71.625,0,0,1-50.554-34.709Z" transform="translate(-2821.904 -37.326)" fill="#dbbe5f" stroke="#ae8119" stroke-width="1"/>
          <path id="Path_3647-4" data-name="Path 3647" d="M2906.082,224.611s-6.479,5.479-2.869,12.943a34.461,34.461,0,0,0,18.294,16.275c7.69,3.076,12.483-3.962,12.483-3.962a77.969,77.969,0,0,1-16.934-10.892,54.681,54.681,0,0,1-10.974-14.364Z" transform="translate(-2900.471 -40.208)" fill="#dbbe5f" stroke="#ae8119" stroke-width="1"/>
          <path id="Path_3648-4" data-name="Path 3648" d="M2909.227,222.559a16.549,16.549,0,0,0-1.631,8.2,10.3,10.3,0,0,0,5.81,8.97c4.11,2.6,3.893,2.051,8.776,1.666a15.3,15.3,0,0,0,8.282-3.46,35.923,35.923,0,0,1-11.989-5.255,41.757,41.757,0,0,1-9.248-10.118Z" transform="translate(-2907.567 -23.157)" fill="#dbbe5f" stroke="#ae8119" stroke-width="1"/>
          <path id="Path_3649-4" data-name="Path 3649" d="M2972.49,255.925s6.267,3.263,8.354-1.927,3.761-11.37,0-18.841-15.041-11.046-15.041-11.046H2823.546s16.4,24.418,44.7,25.772,42.562-17.11,68.513-20.358,31.694,2.659,35.72,9.529S2972.49,255.925,2972.49,255.925Z" transform="translate(-2795.783 -41.525)" fill="#dbbe5f" stroke="#ae8119" stroke-width="1"/>
          <path id="Path_3650-4" data-name="Path 3650" d="M2809.9,225.561a211.687,211.687,0,0,0,26.739,9.529c10.184,2.382,16.191-1.878,16.191-1.878l-28.715,23.968s6.161-9.259,2.1-17.11S2809.9,225.561,2809.9,225.561Z" transform="translate(-2638.839 -44.707)" fill="#dbbe5f" stroke="#ae8119" stroke-width="1"/>
          <path id="Path_3651-4" data-name="Path 3651" d="M2833.074,225.573s3.708,12.994-1.672,17.326-19.845,0-19.845,0Z" transform="translate(-2623.585 -32.373)" fill="#dbbe5f" stroke="#ae8119" stroke-width="1"/>
          <path id="Path_3652-4" data-name="Path 3652" d="M10.829,45.017A50.8,50.8,0,0,1,46.647,11.029c29.486-8.2,58.826,24.784,87.855,26.4s26.639-7.923,30.528-16.492-4.88-18.643-15-20.274-17.557,8.2-17.429,16.313a14.511,14.511,0,0,0,7.094,11.885s-15.91,1.927-33.236-11.885S61.925-1.968,43.965.665C6.931,6.1,0,45.017,0,45.017Z" transform="translate(218.308 13.875) rotate(90)" fill="#dbbe5f" stroke="#ae8119" stroke-width="1"/>
          <path id="Path_3653-4" data-name="Path 3653" d="M149.345,6.36S151.708-2.766,159.2.846s6.113,20.251,1.676,33.091-6.991,13.027-6.991,13.027L0,46.251s12.584-32.392,41.931-33.7S91.689,36.368,118.6,39.5s29.761-2.239,35.282-12.985S149.345,6.36,149.345,6.36Z" transform="translate(219.544 25.005) rotate(90)" fill="#dbbe5f" stroke="#ae8119" stroke-width="1"/>
          <path id="Path_3654-4" data-name="Path 3654" d="M2818.551,330.649s6.418-1.8,8.558-5.521.023-7.369-5.9-12.913-17.781-9.266-17.781-9.266a66,66,0,0,1,11.79,14.1A27.433,27.433,0,0,1,2818.551,330.649Z" transform="translate(-2601.28 -275.181)" fill="#dbbe5f" stroke="#ae8119" stroke-width="1"/>
          <path id="Path_3655-4" data-name="Path 3655" d="M2830.839,329.179s5.609-2.71,4.661-6.991-7.085-7.69-15.024-9.858a30.944,30.944,0,0,0-16.735,1.184l16.735,8.674Z" transform="translate(-2609.58 -291.357)" fill="#dbbe5f" stroke="#ae8119" stroke-width="1"/>
          <path id="Path_3656-4" data-name="Path 3656" d="M2841.494,340.553a14.24,14.24,0,0,0-3.708-12.165c-5.159-5.059-16.935-8.072-16.935-8.072V333.9Z" transform="translate(-2649.141 -320.316)" fill="#dbbe5f" stroke="#ae8119" stroke-width="1"/>
        </g>
        <g id="Group_74" data-name="Group 74" transform="translate(0.535 7.846)">
          <path id="Path_3657" data-name="Path 3657" d="M2921.815,235.4s8.242-10.277,14.339-10.981,9.289,6.672,9.289,6.672a39.9,39.9,0,0,1,1.9,8.774,66.393,66.393,0,0,0,0,7.984,37.344,37.344,0,0,0,2.659,9.788h-33.4a48.485,48.485,0,0,0,3.453-9.788c.5-2.142-.354-3.509,0-6.21a33.2,33.2,0,0,1,1.759-6.239Z" transform="translate(-2695.692 -224.374)" fill="#dbbe5f" stroke="#ae8119" stroke-width="1"/>
          <path id="Path_3658" data-name="Path 3658" d="M2919.27,249.035s7.408-17.816,12.733-17.816,8.564,17.816,8.564,17.816Z" transform="translate(-2693.139 -217.329)" fill="#dbbe5f" stroke="#ae8119" stroke-width="1"/>
          <path id="Path_3659" data-name="Path 3659" d="M2921.809,246.615s8.243,10.277,14.339,10.981,9.289-6.672,9.289-6.672a39.949,39.949,0,0,0,1.911-8.779,66.141,66.141,0,0,1,0-7.984,37.345,37.345,0,0,1,2.659-9.788h-33.4a48.443,48.443,0,0,1,3.454,9.788c.5,2.142-.355,3.509,0,6.21a33.287,33.287,0,0,0,1.748,6.243Z" transform="translate(-2694.981 182.661)" fill="#dbbe5f" stroke="#ae8119" stroke-width="1"/>
          <path id="Path_3660" data-name="Path 3660" d="M2919.27,231.218s7.408,17.816,12.733,17.816,8.564-17.816,8.564-17.816Z" transform="translate(-2692.435 177.38)" fill="#dbbe5f" stroke="#ae8119" stroke-width="1"/>
          <path id="Path_3661" data-name="Path 3661" d="M2816.08,319.735s-12.367,13.3-12.367,26.184,12.367,25.338,12.367,25.338a21.649,21.649,0,0,1,8.4-2.233,44.975,44.975,0,0,1,12.691,2.232s-17.837-12.458-17.837-25.338,17.38-26.184,17.38-26.184a64.92,64.92,0,0,1-12.235,1.7,19.551,19.551,0,0,1-8.4-1.7Z" transform="translate(-2803.713 -126.264)" fill="#dbbe5f" stroke="#ae8119" stroke-width="1"/>
          <path id="Path_3662" data-name="Path 3662" d="M2824.8,319.735s12.367,13.3,12.367,26.184-12.367,25.338-12.367,25.338a21.654,21.654,0,0,0-8.4-2.233,44.973,44.973,0,0,0-12.692,2.233s17.837-12.458,17.837-25.338-17.38-26.184-17.38-26.184a64.889,64.889,0,0,0,12.234,1.7A19.556,19.556,0,0,0,2824.8,319.735Z" transform="translate(-2360.562 -126.128)" fill="#dbbe5f" stroke="#ae8119" stroke-width="1"/>
        </g>
      </g>
      <path id="Path_3663" data-name="Path 3663" d="M838.3,320.311s-16.564,12.5-16.564,24.6S838.3,368.75,838.3,368.75a19.969,19.969,0,0,1,5.933-12.43c5.532-5.062,16.191-7.816,16.191-7.816-.123-.128,0-8.072,0-8.072a24.524,24.524,0,0,1-14.092-5.255C840.8,330.145,838.3,320.311,838.3,320.311Z" transform="translate(-805.495 -117.826)" fill="#dbbe5f" stroke="#ae8119" stroke-width="1"/>
      <path id="Path_3664" data-name="Path 3664" d="M843.862,320.311s16.564,12.5,16.564,24.6-16.564,23.835-16.564,23.835a19.969,19.969,0,0,0-5.933-12.43c-5.532-5.062-16.192-7.816-16.192-7.816.123-.128,0-8.072,0-8.072a24.527,24.527,0,0,0,14.092-5.255C841.356,330.145,843.862,320.311,843.862,320.311Z" transform="translate(-399.376 -117.523)" fill="#dbbe5f" stroke="#ae8119" stroke-width="1"/>
    </g>
    <g id="Gummi_Promo_" data-name="Gummi Promo " transform="translate(-497.556 -771.485)">
      <g id="GUMMI" transform="translate(683.615 720.217)">
        <g id="I" transform="translate(124.623 0.288)">
          <path id="I_Shadow" data-name="I Shadow" d="M859.248,373.047v33.5l4.21,3h7.834l-.134-31.828-3.906-4.677Z" transform="translate(-859.245 -373.047)" fill="#ffa31a" stroke="#ffa31a" stroke-width="1"/>
          <g id="I-2" data-name="I" transform="translate(0.341 1.53)" fill="#1c1b1b">
            <path d="M 5.365127086639404 31.78097724914551 L -0.08875777572393417 31.78097724914551 L 0.2458659559488297 0.2499976754188538 L 5.71925163269043 0.2499976754188538 L 5.365127086639404 31.78097724914551 Z" stroke="none"/>
            <path d="M 0.4932212829589844 0.4999980926513672 L 0.1639037132263184 31.53097724914551 L 5.117913246154785 31.53097724914551 L 5.466422557830811 0.4999980926513672 L 0.4932212829589844 0.4999980926513672 M -0.001499176025390625 -3.814697265625e-06 L 5.972071170806885 -3.814697265625e-06 L 5.612330913543701 32.03097915649414 L -0.3414292335510254 32.03097915649414 L -0.001499176025390625 -3.814697265625e-06 Z" stroke="none" fill="#1c1b1b"/>
          </g>
        </g>
        <g id="M" transform="translate(54.68 0.59)">
          <path id="Path_3" data-name="Path 3" d="M576.055,314.437l-.017,33.341,4.171,2.562h6.825V340.1l3.041,2.226,2.967-2.226.245,7.675,3.686,2.562h10.088V319.332l-3.56-4.9h-7.789l-4.005,6.082L588,314.437Z" transform="translate(-576.037 -314.437)" fill="#ffa31a" stroke="#ffa31a" stroke-width="1"/>
          <path id="Path_4" data-name="Path 4" d="M578.72,317.847v30.46h4.9V326.9l7.418,11.943,7.641-11.943v21.41h4.4v-30.46H598.08l-7.046,12.388-7.418-12.388Z" transform="translate(-577.144 -315.845)" fill="#1c1b1b" stroke="#1c1b1b" stroke-width="0.5"/>
        </g>
        <g id="M-2" data-name="M" transform="translate(89.652 1.023)">
          <path id="Path_3-2" data-name="Path 3" d="M576.055,314.437l-.017,33.341,4.171,2.562h6.825V340.1l3.041,2.226,2.967-2.226.245,7.675,3.686,2.562h10.088V319.332l-3.56-4.9h-7.789l-4.005,6.082L588,314.437Z" transform="translate(-576.037 -314.437)" fill="#ffa31a" stroke="#ffa31a" stroke-width="1"/>
          <path id="Path_4-2" data-name="Path 4" d="M578.72,317.847v30.46h4.9V326.9l7.418,11.943,7.641-11.943v21.41h4.36v-30.46H598.08l-7.046,12.388-7.418-12.388Z" transform="translate(-577.144 -315.845)" fill="#1c1b1b" stroke="#1c1b1b" stroke-width="0.54"/>
        </g>
        <g id="U" transform="translate(29.196 0.745)">
          <path id="Path_1" data-name="Path 1" d="M792.547,440.773s-.2,21.15,0,24.8,1.551,11.806,12.232,11.361,9.045-8.49,9.176-11.361c.087-1.906,0-19.868,0-19.868l-3.612-4.933Z" transform="translate(-792.458 -440.773)" fill="#ffa31a" stroke="#ffa31a" stroke-width="1"/>
          <path id="Path_2" data-name="Path 2" d="M800.672,444.626h-4.326s.057,19.954,0,22.048.691,9.262,7.219,8.959,7.064-5.644,7.121-8.959,0-22.048,0-22.048h-4.45s-.057,16.566,0,20.7-.891,4.6-2.671,4.673-2.465-3.277-2.522-4.673S800.672,444.626,800.672,444.626Z" transform="translate(-794.062 -442.957)" fill="#1c1b1b" stroke="#505050" stroke-width="0.5"/>
        </g>
        <g id="G">
          <path id="G_Shadow" data-name="G Shadow" d="M1479.219,385.679s.834-5.24-1.677-8.386-5.1-3.706-8.37-4.2c-10.518-1.572-14.609,3.665-14.581,10.272s-.076,6.046,0,9.449-1.362,13.208,5.92,15.474,9.2-.89,9.2-.89l1.78,1.906h8.28V395.186l-4.763-5.586h-8.042s-.555-3.946.965-3.921,2.39,0,2.39,0Z" transform="translate(-1454.522 -372.817)" fill="#ffa31a" stroke="#ffa31a" stroke-width="1"/>
          <path id="G-2" data-name="G" d="M1755.835,280.558s.756-7.126-8.118-7.167-10.306,5.813-10.346,7.719-.039,11.843,0,15.281,2.269,6.415,7.68,6.995a6.174,6.174,0,0,0,6.845-3.894v3.894h3.779V291.039h-7.638V292.9h3.54a5.016,5.016,0,0,1-4.341,5.563c-4.935.911-5.617-2.9-5.7-4.6s-.119-8.938,0-12.045,2.634-4.7,6.5-4.869a3.539,3.539,0,0,1,3.859,3.6Z" transform="translate(-1735.686 -270.705)" fill="#1c1b1b" stroke="#505050" stroke-width="0.5"/>
        </g>
      </g>
      <path id="Path_344" data-name="Path 344" d="M4815.612,790.477a22.977,22.977,0,0,1-6.024,0c-2.1-.257-3.728-2.767-6.859-.917s-.265,5.52-.265,5.52a5.244,5.244,0,0,0,2.307,6.368s-4.805,2.293-5.1,6.227a6.678,6.678,0,0,0,2.85,5.923,41.875,41.875,0,0,0-1.584,5.175c-.433,2.143-1.332,9.278,2.9,10.717s6.2-2.524,7.828-3.038a7.53,7.53,0,0,1,4.831,0c1.223.543,3.188,4.154,6.584,2.51s2.818-5.015,2.685-9.155a8.61,8.61,0,0,0-2.685-6.209s2.469-3.048,2.066-5.923-4.163-6.227-4.163-6.227a4.2,4.2,0,0,0,2.1-2.728,4.6,4.6,0,0,0-.549-3.259s3.21-2.907,0-5.593S4817.577,790.206,4815.612,790.477Z" transform="translate(-4079.261 -192.418)" fill="#ffa31a"/>
      <path id="Path_345" data-name="Path 345" d="M4815.612,790.477a22.977,22.977,0,0,1-6.024,0c-2.1-.257-3.728-2.767-6.859-.917s-.265,5.52-.265,5.52a5.244,5.244,0,0,0,2.307,6.368s-4.805,2.293-5.1,6.227a6.678,6.678,0,0,0,2.85,5.923,41.875,41.875,0,0,0-1.584,5.175c-.433,2.143-1.332,9.278,2.9,10.717s6.2-2.524,7.828-3.038a7.53,7.53,0,0,1,4.831,0c1.223.543,3.188,4.154,6.584,2.51s2.818-5.015,2.685-9.155a8.61,8.61,0,0,0-2.685-6.209s2.469-3.048,2.066-5.923-4.163-6.227-4.163-6.227a4.2,4.2,0,0,0,2.1-2.728,4.6,4.6,0,0,0-.549-3.259s3.21-2.907,0-5.593S4817.577,790.206,4815.612,790.477Z" transform="translate(5553.761 1673.149) rotate(180)" fill="#ffa31a"/>
      <path id="Path_346" data-name="Path 346" d="M4815.612,790.477a22.977,22.977,0,0,1-6.024,0c-2.1-.257-3.728-2.767-6.859-.917s-.265,5.52-.265,5.52a5.244,5.244,0,0,0,2.307,6.368s-4.805,2.293-5.1,6.227a6.678,6.678,0,0,0,2.85,5.923,41.875,41.875,0,0,0-1.584,5.175c-.433,2.143-1.332,9.278,2.9,10.717s6.2-2.524,7.828-3.038a7.53,7.53,0,0,1,4.831,0c1.223.543,3.188,4.154,6.584,2.51s2.818-5.015,2.685-9.155a8.61,8.61,0,0,0-2.685-6.209s2.469-3.048,2.066-5.923-4.163-6.227-4.163-6.227a4.2,4.2,0,0,0,2.1-2.728,4.6,4.6,0,0,0-.549-3.259s3.21-2.907,0-5.593S4817.577,790.206,4815.612,790.477Z" transform="translate(-195.784 5552.761) rotate(-90)" fill="#ffa31a"/>
      <path id="Path_347" data-name="Path 347" d="M15.965,39.326a22.977,22.977,0,0,0-6.024,0c-2.1.257-3.728,2.767-6.859.917s-.265-5.52-.265-5.52a5.821,5.821,0,0,1,0-3.641,5.856,5.856,0,0,1,2.307-2.728S.32,26.062.02,22.128A6.678,6.678,0,0,1,2.87,16.2a41.875,41.875,0,0,1-1.584-5.175C.853,8.886-.046,1.751,4.182.313s6.2,2.524,7.828,3.038a7.53,7.53,0,0,0,4.831,0C18.063,2.808,20.028-.8,23.424.841S26.243,5.856,26.109,10A8.61,8.61,0,0,1,23.424,16.2s2.469,3.048,2.066,5.923-4.163,6.227-4.163,6.227a4.2,4.2,0,0,1,2.1,2.728,4.6,4.6,0,0,1-.549,3.259s3.21,2.907,0,5.593S17.93,39.6,15.965,39.326Z" transform="translate(839.98 753.115) rotate(-90)" fill="#ffa31a"/>
      <path id="Path_348" data-name="Path 348" d="M4815.612,790.477a22.977,22.977,0,0,1-6.024,0c-2.1-.257-3.728-2.767-6.859-.917s-.265,5.52-.265,5.52a5.244,5.244,0,0,0,2.307,6.368s-4.805,2.293-5.1,6.227a6.678,6.678,0,0,0,2.85,5.923,41.875,41.875,0,0,0-1.584,5.175c-.433,2.143-1.332,9.278,2.9,10.717s6.2-2.524,7.828-3.038a7.53,7.53,0,0,1,4.831,0c1.223.543,3.188,4.154,6.584,2.51s2.818-5.015,2.685-9.155a8.61,8.61,0,0,0-2.685-6.209s2.469-3.048,2.066-5.923-4.163-6.227-4.163-6.227a4.2,4.2,0,0,0,2.1-2.728,4.6,4.6,0,0,0-.549-3.259s3.21-2.907,0-5.593S4817.577,790.206,4815.612,790.477Z" transform="translate(-3327.295 3485.603) rotate(-45)" fill="#ffa31a"/>
      <path id="Path_349" data-name="Path 349" d="M15.966,39.326a22.977,22.977,0,0,0-6.024,0c-2.1.257-3.728,2.767-6.859.917s-.265-5.52-.265-5.52a5.821,5.821,0,0,1,0-3.641,5.856,5.856,0,0,1,2.307-2.728S.32,26.062.02,22.128A6.678,6.678,0,0,1,2.87,16.2a41.874,41.874,0,0,1-1.584-5.175C.853,8.886-.046,1.751,4.182.313s6.2,2.524,7.828,3.038a7.529,7.529,0,0,0,4.831,0C18.064,2.808,20.029-.8,23.425.841S26.243,5.856,26.11,10A8.61,8.61,0,0,1,23.425,16.2s2.469,3.048,2.066,5.923-4.163,6.227-4.163,6.227a4.2,4.2,0,0,1,2.1,2.728,4.6,4.6,0,0,1-.549,3.259s3.21,2.907,0,5.593S17.931,39.6,15.966,39.326Z" transform="translate(653.52 805.779) rotate(45)" fill="#ffa31a"/>
      <path id="Path_350" data-name="Path 350" d="M15.966,1.713a22.977,22.977,0,0,1-6.024,0C7.844,1.456,6.214-1.054,3.083.8s-.265,5.52-.265,5.52a5.821,5.821,0,0,0,0,3.641,5.856,5.856,0,0,0,2.307,2.728S.32,14.977.02,18.911a6.678,6.678,0,0,0,2.85,5.923A41.874,41.874,0,0,0,1.286,30.01c-.433,2.143-1.332,9.278,2.9,10.717s6.2-2.524,7.828-3.038a7.529,7.529,0,0,1,4.831,0c1.223.543,3.188,4.154,6.584,2.51s2.818-5.015,2.685-9.155a8.61,8.61,0,0,0-2.685-6.209s2.469-3.048,2.066-5.923-4.163-6.227-4.163-6.227a4.2,4.2,0,0,0,2.1-2.728A4.6,4.6,0,0,0,22.876,6.7s3.21-2.907,0-5.593S17.931,1.442,15.966,1.713Z" transform="translate(853.562 829.095) rotate(135)" fill="#ffa31a"/>
      <path id="Path_351" data-name="Path 351" d="M15.966,39.326a22.977,22.977,0,0,0-6.024,0c-2.1.257-3.728,2.767-6.859.917s-.265-5.52-.265-5.52a5.821,5.821,0,0,1,0-3.641,5.856,5.856,0,0,1,2.307-2.728S.32,26.062.02,22.128A6.678,6.678,0,0,1,2.87,16.2a41.874,41.874,0,0,1-1.584-5.175C.852,8.886-.046,1.751,4.182.313s6.2,2.524,7.828,3.038a7.529,7.529,0,0,0,4.831,0C18.064,2.808,20.029-.8,23.425.841S26.243,5.856,26.11,10A8.61,8.61,0,0,1,23.425,16.2s2.469,3.048,2.066,5.923-4.163,6.227-4.163,6.227a4.2,4.2,0,0,1,2.1,2.728,4.6,4.6,0,0,1-.549,3.259s3.21,2.907,0,5.593S17.931,39.6,15.966,39.326Z" transform="translate(817.241 675.397) rotate(-135)" fill="#ffa31a"/>
      <text id="MK-Horizon" transform="translate(663 696)" fill="#1c1b1b" font-size="20" font-family="CourierNewPSMT, Courier New" letter-spacing="0.2em"><tspan x="0" y="0">MK-Horizon</tspan></text>
      <text id="_" data-name="$" transform="translate(658 753)" fill="#1c1b1b" stroke="#ffa31a" stroke-width="3" font-size="35" font-family="Impact" letter-spacing="0.2em"><tspan x="0" y="0">$</tspan></text>
      <line id="Line_4" data-name="Line 4" x2="161" transform="translate(658.5 702.5)" fill="none" stroke="#1c1b1b" stroke-width="1"/>
      <path id="Path_352" data-name="Path 352" d="M0,0,161-.4" transform="translate(658.5 706.5)" fill="none" stroke="#1c1b1b" stroke-width="1"/>
      <path id="Path_353" data-name="Path 353" d="M4815.612,790.477a22.977,22.977,0,0,1-6.024,0c-2.1-.257-3.728-2.767-6.859-.917s-.265,5.52-.265,5.52a5.244,5.244,0,0,0,2.307,6.368s-4.805,2.293-5.1,6.227a6.678,6.678,0,0,0,2.85,5.923,41.875,41.875,0,0,0-1.584,5.175c-.433,2.143-1.332,9.278,2.9,10.717s6.2-2.524,7.828-3.038a7.53,7.53,0,0,1,4.831,0c1.223.543,3.188,4.154,6.584,2.51s2.818-5.015,2.685-9.155a8.61,8.61,0,0,0-2.685-6.209s2.469-3.048,2.066-5.923-4.163-6.227-4.163-6.227a4.2,4.2,0,0,0,2.1-2.728,4.6,4.6,0,0,0-.549-3.259s3.21-2.907,0-5.593S4817.577,790.206,4815.612,790.477Z" transform="translate(-3352.681 -1963.007) rotate(22.5)" fill="#ffa31a"/>
      <path id="Path_354" data-name="Path 354" d="M15.965,39.326a22.977,22.977,0,0,0-6.024,0c-2.1.257-3.728,2.767-6.859.917s-.265-5.52-.265-5.52a5.821,5.821,0,0,1,0-3.641,5.856,5.856,0,0,1,2.307-2.728S.32,26.062.02,22.128A6.678,6.678,0,0,1,2.87,16.2,41.875,41.875,0,0,1,1.286,11.03C.853,8.886-.046,1.752,4.182.313s6.2,2.524,7.828,3.038a7.53,7.53,0,0,0,4.831,0C18.063,2.808,20.028-.8,23.424.841S26.243,5.856,26.109,10A8.61,8.61,0,0,1,23.424,16.2s2.469,3.047,2.066,5.923-4.163,6.227-4.163,6.227a4.2,4.2,0,0,1,2.1,2.728,4.6,4.6,0,0,1-.549,3.259s3.21,2.907,0,5.593S17.93,39.6,15.965,39.326Z" transform="translate(769.994 839.407) rotate(-22.5)" fill="#ffa31a"/>
      <path id="Path_355" data-name="Path 355" d="M15.965,1.713a22.977,22.977,0,0,1-6.024,0C7.843,1.456,6.214-1.054,3.083.8s-.265,5.52-.265,5.52a5.821,5.821,0,0,0,0,3.641,5.856,5.856,0,0,0,2.307,2.728S.32,14.977.02,18.911a6.678,6.678,0,0,0,2.85,5.923A41.875,41.875,0,0,0,1.286,30.01c-.433,2.143-1.332,9.278,2.9,10.717s6.2-2.524,7.828-3.038a7.53,7.53,0,0,1,4.831,0c1.223.543,3.188,4.154,6.584,2.51s2.818-5.015,2.685-9.155a8.61,8.61,0,0,0-2.685-6.209s2.469-3.047,2.066-5.923-4.163-6.227-4.163-6.227a4.2,4.2,0,0,0,2.1-2.728A4.6,4.6,0,0,0,22.876,6.7s3.21-2.907,0-5.593S17.93,1.442,15.965,1.713Z" transform="translate(696.3 880.515) rotate(-157.5)" fill="#ffa31a"/>
      <path id="Path_356" data-name="Path 356" d="M15.965,39.326a22.977,22.977,0,0,0-6.024,0c-2.1.257-3.728,2.767-6.859.917s-.265-5.52-.265-5.52a5.821,5.821,0,0,1,0-3.641,5.856,5.856,0,0,1,2.307-2.728S.32,26.062.02,22.128A6.678,6.678,0,0,1,2.87,16.2a41.875,41.875,0,0,1-1.584-5.175C.852,8.886-.046,1.751,4.182.313s6.2,2.524,7.828,3.038a7.53,7.53,0,0,0,4.831,0C18.063,2.808,20.028-.8,23.424.841S26.243,5.856,26.109,10A8.61,8.61,0,0,1,23.424,16.2s2.469,3.047,2.066,5.923-4.163,6.227-4.163,6.227a4.2,4.2,0,0,1,2.1,2.728,4.6,4.6,0,0,1-.549,3.259s3.21,2.907,0,5.593S17.93,39.6,15.965,39.326Z" transform="translate(702.938 643.261) rotate(157.5)" fill="#ffa31a"/>
      <path id="Path_357" data-name="Path 357" d="M15.965,39.326a22.977,22.977,0,0,0-6.024,0c-2.1.257-3.728,2.767-6.859.917s-.265-5.52-.265-5.52a5.821,5.821,0,0,1,0-3.641,5.856,5.856,0,0,1,2.307-2.728S.32,26.062.02,22.128A6.678,6.678,0,0,1,2.87,16.2a41.875,41.875,0,0,1-1.584-5.175C.852,8.886-.046,1.751,4.182.313s6.2,2.524,7.828,3.038a7.53,7.53,0,0,0,4.831,0C18.063,2.808,20.028-.8,23.424.841S26.243,5.856,26.109,10A8.61,8.61,0,0,1,23.424,16.2s2.469,3.047,2.066,5.923-4.163,6.227-4.163,6.227a4.2,4.2,0,0,1,2.1,2.728,4.6,4.6,0,0,1-.549,3.259s3.21,2.907,0,5.593S17.93,39.6,15.965,39.326Z" transform="translate(634.396 765.841) rotate(67.5)" fill="#ffa31a"/>
      <path id="Path_358" data-name="Path 358" d="M15.965,1.713a22.977,22.977,0,0,1-6.024,0C7.843,1.456,6.214-1.054,3.083.8s-.265,5.52-.265,5.52a5.821,5.821,0,0,0,0,3.641,5.856,5.856,0,0,0,2.307,2.728S.32,14.977.02,18.911a6.678,6.678,0,0,0,2.85,5.923A41.875,41.875,0,0,0,1.286,30.01c-.433,2.143-1.332,9.278,2.9,10.717s6.2-2.524,7.828-3.038a7.53,7.53,0,0,1,4.831,0c1.223.543,3.188,4.154,6.584,2.51s2.818-5.015,2.685-9.155a8.61,8.61,0,0,0-2.685-6.209s2.469-3.047,2.066-5.923-4.163-6.227-4.163-6.227a4.2,4.2,0,0,0,2.1-2.728A4.6,4.6,0,0,0,22.876,6.7s3.21-2.907,0-5.593S17.93,1.442,15.965,1.713Z" transform="translate(876.886 781.546) rotate(112.5)" fill="#ffa31a"/>
      <path id="Path_359" data-name="Path 359" d="M15.965,39.326a22.977,22.977,0,0,0-6.024,0c-2.1.257-3.728,2.767-6.859.917s-.265-5.52-.265-5.52a5.821,5.821,0,0,1,0-3.641,5.856,5.856,0,0,1,2.307-2.728S.32,26.062.02,22.128A6.678,6.678,0,0,1,2.87,16.2a41.875,41.875,0,0,1-1.584-5.175C.852,8.886-.046,1.751,4.182.313s6.2,2.524,7.828,3.038a7.53,7.53,0,0,0,4.831,0C18.063,2.808,20.028-.8,23.424.841S26.243,5.856,26.109,10A8.61,8.61,0,0,1,23.424,16.2s2.469,3.047,2.066,5.923-4.163,6.227-4.163,6.227a4.2,4.2,0,0,1,2.1,2.728,4.6,4.6,0,0,1-.549,3.259s3.21,2.907,0,5.593S17.93,39.6,15.965,39.326Z" transform="translate(835.321 710.469) rotate(-112.5)" fill="#ffa31a"/>
      <path id="Path_360" data-name="Path 360" d="M15.965,1.713a22.978,22.978,0,0,1-6.024,0C7.843,1.456,6.214-1.054,3.083.8s-.265,5.52-.265,5.52a5.821,5.821,0,0,0,0,3.641,5.856,5.856,0,0,0,2.307,2.728S.32,14.977.02,18.911a6.678,6.678,0,0,0,2.85,5.923A41.875,41.875,0,0,0,1.286,30.01c-.433,2.143-1.332,9.278,2.9,10.717s6.2-2.524,7.828-3.038a7.53,7.53,0,0,1,4.831,0c1.223.543,3.188,4.154,6.584,2.51s2.818-5.015,2.685-9.155a8.61,8.61,0,0,0-2.685-6.209s2.469-3.047,2.066-5.923-4.163-6.227-4.163-6.227a4.2,4.2,0,0,0,2.1-2.728A4.6,4.6,0,0,0,22.876,6.7s3.21-2.907,0-5.593S17.93,1.442,15.965,1.713Z" transform="translate(596.48 698.454) rotate(-67.5)" fill="#ffa31a"/>
      <g id="Gummi_Bear" data-name="Gummi Bear" transform="translate(714.147 770.876)">
        <circle id="Ellipse_3" data-name="Ellipse 3" cx="26.5" cy="26.5" r="26.5" transform="translate(0.353 -0.016)" fill="#505050"/>
        <path id="Path_11" data-name="Path 11" d="M4815.612,790.477a22.977,22.977,0,0,1-6.024,0c-2.1-.257-3.728-2.767-6.859-.917s-.265,5.52-.265,5.52a5.244,5.244,0,0,0,2.307,6.368s-4.805,2.293-5.1,6.227a6.678,6.678,0,0,0,2.85,5.923,41.875,41.875,0,0,0-1.584,5.175c-.433,2.143-1.332,9.278,2.9,10.717s6.2-2.524,7.828-3.038a7.53,7.53,0,0,1,4.831,0c1.223.543,3.188,4.154,6.584,2.51s2.818-5.015,2.685-9.155a8.61,8.61,0,0,0-2.685-6.209s2.469-3.048,2.066-5.923-4.163-6.227-4.163-6.227a4.2,4.2,0,0,0,2.1-2.728,4.6,4.6,0,0,0-.549-3.259s3.21-2.907,0-5.593S4817.577,790.206,4815.612,790.477Z" transform="translate(-4785.908 -782.8)" fill="#ffa31a"/>
      </g>
    </g>
  </g>
</svg>
