<svg xmlns="http://www.w3.org/2000/svg" width="45.833" height="53.425" viewBox="0 0 45.833 53.425">
  <g id="service_ICON" data-name="service ICON" transform="translate(-1585.083 -360.139)">
    <path id="Path_281" data-name="Path 281" d="M5313.8,330.8s1.3-.14,10.707-6.8,11.624-6.05,11.624-6.05h7.954s-8.513,13.866-15.753,12.02-9.075,3.545-9.075,3.545" transform="translate(-3714.065 42.73)" fill="#626975" stroke="#505050" stroke-width="1"/>
    <path id="Path_282" data-name="Path 282" d="M5323.9,333l3.293,4.6v7.108s-1.365,4.173-1.64,2.71.542-8.564.542-8.564l-2.2-2.509-1.1,2.509-.593,5.19-1.069.2s-3.354,2.644-3.387,1.18.171-1.44,0-5.406a11.613,11.613,0,0,0-.576-3.283,4.942,4.942,0,0,0-1.179-2.063h5.048Z" transform="translate(-3716.358 38.727)" fill="#637a69" stroke="#505050" stroke-width="1"/>
    <path id="Path_283" data-name="Path 283" d="M5303.518,360.842l1.847-6.331s-.042-1.535,0-2.365a5.576,5.576,0,0,0-1.922-4.555l.075,5.573-.518,7.194h.946" transform="translate(-3704.329 26.142)" fill="#637a69" stroke="#505050" stroke-width="1"/>
    <path id="Path_286" data-name="Path 286" d="M5269,451h7.724l16.992,14.417-5.635-3.741Z" transform="translate(-3682 -52.269)" fill="#626975" stroke="#505050" stroke-width="1"/>
    <path id="Path_288" data-name="Path 288" d="M5339.09,400v3.466l-1.373,5.916s.429,5.492,0,7.094-1.716-.687-1.716-.687V404.806Z" transform="translate(-3734.469 -12.025)" fill="#637a69" stroke="#505050" stroke-width="1"/>
    <path id="Path_287" data-name="Path 287" d="M5318.432,381.383a10.112,10.112,0,0,0-2.288,4.748,26.8,26.8,0,0,0,0,7.123s1.717,1.511,2.288,1.511,0-1.511,0-1.511v-7.123a10.426,10.426,0,0,0,3.2-2.961c1.544-2.1,2.518-2.219,2.975-3.514a9.141,9.141,0,0,0,0-3.656l-3.89,1.93Z" transform="translate(-3718.845 6.941)" fill="#626975" stroke="#505050" stroke-width="1"/>
    <g id="Path_310" data-name="Path 310" transform="translate(1600.502 364.95)" fill="#637a69">
      <path d="M 2.402840137481689 7.421673774719238 C 1.371390104293823 7.421673774719238 0.5000001192092896 6.131093502044678 0.5000001192092896 4.603463649749756 C 0.5000001192092896 3.145933628082275 1.264690160751343 2.166653633117676 2.402840137481689 2.166653633117676 C 3.540990114212036 2.166653633117676 4.305680274963379 3.145933628082275 4.305680274963379 4.603463649749756 C 4.305680274963379 6.131093502044678 3.434290170669556 7.421673774719238 2.402840137481689 7.421673774719238 Z" stroke="none"/>
      <path d="M 2.402840137481689 2.666653633117676 C 1.563760042190552 2.666653633117676 1.000000238418579 3.444993495941162 1.000000238418579 4.603463649749756 C 1.000000238418579 5.969623565673828 1.739320039749146 6.921673774719238 2.402840137481689 6.921673774719238 C 3.066359996795654 6.921673774719238 3.805680274963379 5.969623565673828 3.805680274963379 4.603463649749756 C 3.805680274963379 3.444993495941162 3.241919994354248 2.666653633117676 2.402840137481689 2.666653633117676 M 2.402840137481689 1.666653633117676 C 3.729890108108521 1.666653633117676 4.805680274963379 2.77086353302002 4.805680274963379 4.603463649749756 C 4.805680274963379 6.436063766479492 3.729890108108521 7.921673774719238 2.402840137481689 7.921673774719238 C 1.075790166854858 7.921673774719238 0 6.436063766479492 0 4.603463649749756 C 0 2.77086353302002 1.075790166854858 1.666653633117676 2.402840137481689 1.666653633117676 Z" stroke="none" fill="#505050"/>
    </g>
  </g>
</svg>
