<svg xmlns="http://www.w3.org/2000/svg" width="33.35" height="35.252" viewBox="0 0 33.35 35.252">
  <g id="service_ICON" data-name="service ICON" transform="translate(-1586.78 -360.148)">
    <path id="Path_281" data-name="Path 281" d="M5313.8,326.344s.972-.092,8.006-4.444,8.692-3.954,8.692-3.954h5.947s-6.365,9.063-11.779,7.856-6.786,2.317-6.786,2.317" transform="translate(-3717.278 42.73)" fill="#626975" stroke="#505050" stroke-width="1"/>
    <path id="Path_282" data-name="Path 282" d="M5321.9,333l2.463,3.007v4.646s-1.021,2.727-1.227,1.771a37.754,37.754,0,0,1,.405-5.6l-1.646-1.64-.822,1.64-.443,3.392-.8.131s-2.508,1.728-2.533.771.128-.941,0-3.533a6.756,6.756,0,0,0-.431-2.146,3.157,3.157,0,0,0-.882-1.348h3.774Z" transform="translate(-3719.545 34.895)" fill="#637a69" stroke="#505050" stroke-width="1"/>
    <path id="Path_283" data-name="Path 283" d="M5303.39,356.252l1.381-4.138s-.031-1,0-1.546a3.443,3.443,0,0,0-1.437-2.977l.057,3.643-.388,4.7h.708" transform="translate(-3707.274 21.615)" fill="#637a69" stroke="#505050" stroke-width="1"/>
    <path id="Path_286" data-name="Path 286" d="M5269,451h5.775l12.706,9.423-4.213-2.445Z" transform="translate(-3682 -65.455)" fill="#626975" stroke="#505050" stroke-width="1"/>
    <path id="Path_288" data-name="Path 288" d="M5338.311,400v2.265l-1.026,3.867a21.761,21.761,0,0,1,0,4.637c-.321,1.047-1.283-.449-1.283-.449v-7.178Z" transform="translate(-3738.135 -21.485)" fill="#637a69" stroke="#505050" stroke-width="1"/>
    <path id="Path_287" data-name="Path 287" d="M5317.793,379.518a6.3,6.3,0,0,0-1.711,3.1,15.327,15.327,0,0,0,0,4.656s1.284.988,1.71.988,0-.988,0-.988v-4.656a7.5,7.5,0,0,0,2.394-1.935c1.154-1.373,1.882-1.45,2.224-2.3a5.239,5.239,0,0,0,0-2.39l-2.909,1.261Z" transform="translate(-3721.383 -0.775)" fill="#626975" stroke="#505050" stroke-width="1"/>
    <g id="Path_310" data-name="Path 310" transform="translate(1597.096 364.555)">
      <path id="Path_20" data-name="Path 20" d="M1.923,5.6A1.7,1.7,0,0,1,.5,3.759a1.432,1.432,0,1,1,2.846,0A1.7,1.7,0,0,1,1.923,5.6Z" transform="translate(-0.126 -1.84)" fill="#637a69"/>
      <path id="Path_21" data-name="Path 21" d="M1.8,2.32c-.627,0-1.049.509-1.049,1.266C.748,4.479,1.3,5.1,1.8,5.1s1.049-.622,1.049-1.515c0-.757-.422-1.266-1.049-1.266m0-.654a1.779,1.779,0,0,1,1.8,1.919A2.009,2.009,0,0,1,1.8,5.755,2.009,2.009,0,0,1,0,3.586,1.779,1.779,0,0,1,1.8,1.667Z" transform="translate(0 -1.667)" fill="#505050"/>
    </g>
  </g>
</svg>
