<svg xmlns="http://www.w3.org/2000/svg" width="178.992" height="53.425" viewBox="0 0 178.992 53.425">
  <g id="SERVICES" transform="translate(-1153.054 -490.991)">
    <g id="service_ICON" data-name="service ICON" transform="translate(-432.028 130.852)">
      <path id="Path_281" data-name="Path 281" d="M5313.8,330.8s1.3-.14,10.707-6.8,11.624-6.05,11.624-6.05h7.954s-8.513,13.866-15.753,12.02-9.075,3.545-9.075,3.545" transform="translate(-3714.065 42.73)" fill="#626975" stroke="#505050" stroke-width="1"/>
      <path id="Path_282" data-name="Path 282" d="M5323.9,333l3.293,4.6v7.108s-1.365,4.173-1.64,2.71.542-8.564.542-8.564l-2.2-2.509-1.1,2.509-.593,5.19-1.069.2s-3.354,2.644-3.387,1.18.171-1.44,0-5.406a11.613,11.613,0,0,0-.576-3.283,4.942,4.942,0,0,0-1.179-2.063h5.048Z" transform="translate(-3716.358 38.727)" fill="#637a69" stroke="#505050" stroke-width="1"/>
      <path id="Path_283" data-name="Path 283" d="M5303.518,360.842l1.847-6.331s-.042-1.535,0-2.365a5.576,5.576,0,0,0-1.922-4.555l.075,5.573-.518,7.194h.946" transform="translate(-3704.329 26.142)" fill="#637a69" stroke="#505050" stroke-width="1"/>
      <path id="Path_286" data-name="Path 286" d="M5269,451h7.724l16.992,14.417-5.635-3.741Z" transform="translate(-3682 -52.269)" fill="#626975" stroke="#505050" stroke-width="1"/>
      <path id="Path_288" data-name="Path 288" d="M5339.09,400v3.466l-1.373,5.916s.429,5.492,0,7.094-1.716-.687-1.716-.687V404.806Z" transform="translate(-3734.469 -12.025)" fill="#637a69" stroke="#505050" stroke-width="1"/>
      <path id="Path_287" data-name="Path 287" d="M5318.432,381.383a10.112,10.112,0,0,0-2.288,4.748,26.8,26.8,0,0,0,0,7.123s1.717,1.511,2.288,1.511,0-1.511,0-1.511v-7.123a10.426,10.426,0,0,0,3.2-2.961c1.544-2.1,2.518-2.219,2.975-3.514a9.141,9.141,0,0,0,0-3.656l-3.89,1.93Z" transform="translate(-3718.845 6.941)" fill="#626975" stroke="#505050" stroke-width="1"/>
      <g id="Path_310" data-name="Path 310" transform="translate(1600.502 364.95)" fill="#637a69">
        <path d="M 2.402840137481689 7.421673774719238 C 1.371390104293823 7.421673774719238 0.5000001192092896 6.131093502044678 0.5000001192092896 4.603463649749756 C 0.5000001192092896 3.145933628082275 1.264690160751343 2.166653633117676 2.402840137481689 2.166653633117676 C 3.540990114212036 2.166653633117676 4.305680274963379 3.145933628082275 4.305680274963379 4.603463649749756 C 4.305680274963379 6.131093502044678 3.434290170669556 7.421673774719238 2.402840137481689 7.421673774719238 Z" stroke="none"/>
        <path d="M 2.402840137481689 2.666653633117676 C 1.563760042190552 2.666653633117676 1.000000238418579 3.444993495941162 1.000000238418579 4.603463649749756 C 1.000000238418579 5.969623565673828 1.739320039749146 6.921673774719238 2.402840137481689 6.921673774719238 C 3.066359996795654 6.921673774719238 3.805680274963379 5.969623565673828 3.805680274963379 4.603463649749756 C 3.805680274963379 3.444993495941162 3.241919994354248 2.666653633117676 2.402840137481689 2.666653633117676 M 2.402840137481689 1.666653633117676 C 3.729890108108521 1.666653633117676 4.805680274963379 2.77086353302002 4.805680274963379 4.603463649749756 C 4.805680274963379 6.436063766479492 3.729890108108521 7.921673774719238 2.402840137481689 7.921673774719238 C 1.075790166854858 7.921673774719238 0 6.436063766479492 0 4.603463649749756 C 0 2.77086353302002 1.075790166854858 1.666653633117676 2.402840137481689 1.666653633117676 Z" stroke="none" fill="#505050"/>
      </g>
    </g>
    <g id="sERVICES-2" data-name="sERVICES">
      <path id="S" d="M1210.156,515.868l4.719-.094a13.3,13.3,0,0,0,0-2.359c-.109-1.469-.81-4.55-6.388-4.112a5.477,5.477,0,0,0-4.15,2.06c-1.144,1.426-1.132,6.124.88,7.816,2.826,2.377,4.025,2.16,5.1,4.436.446.947.387,3.089-.792,3.169s-1.034-1.769-1.034-1.769v-2.521h-4.721s.016.75,0,2.406-.016,3.906,3.328,4.719,6.035.445,7.417-1.541.864-3.959.723-5.772-1.859-4-4.641-5.062-2.672-4.578-1.328-4.531S1210.156,515.133,1210.156,515.868Z" transform="translate(0 -1.587)" fill="#626975" stroke="#626975" stroke-width="1"/>
      <path id="E" d="M5969.531,427.266h-8.547L5961,447h8.906v-3.929h-3.75v-4.414h3.188v-3.7h-3.187v-3.766h3.375Z" transform="translate(-4739.084 80.921)" fill="#626975" stroke="#626975" stroke-width="1"/>
      <g id="R" transform="translate(932.962 4.942)">
        <path id="Path_324" data-name="Path 324" d="M5976.375,427.281l-.062,19.7h5.167l-.082-8.87a1.219,1.219,0,0,1,1.649.973c.047.182,0,2.3,0,2.3v5.6h4.709s-.047-4.46,0-7.21-3.24-3.2-3.24-3.2,3.578.875,3.3-4.156-2.422-5.066-6.374-5.128S5976.375,427.281,5976.375,427.281Z" transform="translate(-5672 76)" fill="#626975" stroke="#626975" stroke-width="1"/>
        <path id="Path_325" data-name="Path 325" d="M5981.438,430.687h0v4.274s1.043.176,1.344-.189.29-.852.328-1.961c-.086-.96.071-1.474-.4-1.961A1.265,1.265,0,0,0,5981.438,430.687Z" transform="translate(-5672.031 76.032)" fill="#626975" stroke="#626975" stroke-width="1"/>
      </g>
      <path id="V" d="M1254.641,508.234l2.984,19.75h7.781l2.594-19.75h-5.391l-1.187,12.734-1.391-12.734Z" fill="#626975" stroke="#626975" stroke-width="1"/>
      <path id="I" d="M1273.938,508.234H1279l.063,19.766h-5.172Z" fill="#626975" stroke="#626975" stroke-width="1"/>
      <path id="C" d="M1292.969,516.879h5.3v-3.3s.589-5.328-5.786-5.7-6.5,4.435-6.5,5.875-.125,4.75.016,8.219.734,6.359,6.125,6.422,5.844-4.125,5.906-5.484.078-2.833.078-2.833h-5.141v3.551s.156,1.484-.969,1.516-.906-1.845-.906-1.845l.016-10.733s-.109-1.391.953-1.422.906,1.487.906,1.487Z" fill="#626975" stroke="#626975" stroke-width="1"/>
      <path id="E-2" data-name="E" d="M5969.531,427.266h-8.547L5961,447h8.906v-3.929h-3.75v-4.414h3.188v-3.7h-3.187v-3.766h3.375Z" transform="translate(-4656.084 80.969)" fill="#626975" stroke="#626975" stroke-width="1"/>
      <path id="S-2" data-name="S" d="M1210.156,515.868l4.719-.094a13.3,13.3,0,0,0,0-2.359c-.109-1.469-.81-4.55-6.388-4.112a5.477,5.477,0,0,0-4.15,2.06c-1.144,1.426-1.132,6.124.88,7.816,2.826,2.377,4.025,2.16,5.1,4.436.446.947.387,3.089-.792,3.169s-1.034-1.769-1.034-1.769v-2.521h-4.721s.016.75,0,2.406-.016,3.906,3.328,4.719,6.035.445,7.417-1.541.864-3.959.723-5.772-1.859-4-4.641-5.062-2.672-4.578-1.328-4.531S1210.156,515.133,1210.156,515.868Z" transform="translate(116.144 -1.531)" fill="#626975" stroke="#626975" stroke-width="1"/>
    </g>
  </g>
</svg>
