<svg xmlns="http://www.w3.org/2000/svg" width="144.5" height="53" viewBox="0 0 144.5 53">
  <g id="TOKEN" transform="translate(-1140 -491)">
    <g id="TOKEN-2" data-name="TOKEN">
      <path id="T" d="M5946.625,431.2h-3.031v-3.937h11.219V431.2h-3.047v15.781h-5.125Z" transform="translate(-4740.444 80.984)" fill="#302b2b"/>
      <path id="O" d="M6898.392,431.813c-5.486-.056-5.878,4.5-5.878,4.5v10.563s-.4,5.628,5.88,5.556,5.765-5.556,5.765-5.556V436.311S6903.878,431.869,6898.392,431.813Z" transform="translate(-5672 76)" fill="#302b2b"/>
      <path id="K" d="M6911.219,432.234h5.141V439.8l2.266-7.562h4.844l-2.969,8.938,3.234,10.813h-5.312l-2.078-8.547v8.547h-5.125Z" transform="translate(-5672 76)" fill="#302b2b"/>
      <path id="E" d="M5969.531,427.266h-8.547L5961,447h8.906v-3.929h-3.75v-4.414h3.188v-3.7h-3.187v-3.766h3.375Z" transform="translate(-4703.384 80.969)" fill="#302b2b"/>
      <path id="N" d="M6945.016,451.969,6945,432.234h4.3l2.891,8.906v-8.906h4.313l-.016,19.734h-4.516l-2.7-9.078.078,9.078Z" transform="translate(-5672 76)" fill="#302b2b"/>
    </g>
    <g id="Gummi_Bear" data-name="Gummi Bear" transform="translate(1139.647 491.016)">
      <circle id="Ellipse_3" data-name="Ellipse 3" cx="26.5" cy="26.5" r="26.5" transform="translate(0.353 -0.016)" fill="#505050"/>
      <path id="Path_11" data-name="Path 11" d="M4815.612,790.477a22.977,22.977,0,0,1-6.024,0c-2.1-.257-3.728-2.767-6.859-.917s-.265,5.52-.265,5.52a5.244,5.244,0,0,0,2.307,6.368s-4.805,2.293-5.1,6.227a6.678,6.678,0,0,0,2.85,5.923,41.875,41.875,0,0,0-1.584,5.175c-.433,2.143-1.332,9.278,2.9,10.717s6.2-2.524,7.828-3.038a7.53,7.53,0,0,1,4.831,0c1.223.543,3.188,4.154,6.584,2.51s2.818-5.015,2.685-9.155a8.61,8.61,0,0,0-2.685-6.209s2.469-3.048,2.066-5.923-4.163-6.227-4.163-6.227a4.2,4.2,0,0,0,2.1-2.728,4.6,4.6,0,0,0-.549-3.259s3.21-2.907,0-5.593S4817.577,790.206,4815.612,790.477Z" transform="translate(-4785.908 -782.8)" fill="#ffa31a"/>
    </g>
  </g>
</svg>
