<svg xmlns="http://www.w3.org/2000/svg" width="32.622" height="21.796" viewBox="0 0 32.622 21.796">
  <g id="Beetle_Wing_Fonebox_twitter_video" data-name="Beetle Wing Fonebox twitter video" transform="translate(0.375 0.5)">
    <g id="Black_Beetle" data-name="Black Beetle" transform="translate(14.281 0)">
      <path id="Path_7" data-name="Path 7" d="M22.213,54.921h.38l.3,1h.243l.278-1h.417a20.9,20.9,0,0,1,0,3.691,3.537,3.537,0,0,1-.793,1.972H22.9a3.382,3.382,0,0,1-.774-1.971A20.324,20.324,0,0,1,22.213,54.921Z" transform="translate(-21.285 -45.203)" fill="#637a69" stroke="#637a69" stroke-width="1.5"/>
      <path id="Path_10" data-name="Path 10" d="M37.222,57.5" transform="translate(-34.588 -46.809)" fill="none" stroke="#637a69" stroke-width="1"/>
      <path id="Path_25" data-name="Path 25" d="M0,5" transform="translate(0 9.589)" fill="none" stroke="#637a69" stroke-width="1.5"/>
      <path id="Path_23" data-name="Path 23" d="M7.781,20.249a1.471,1.471,0,0,0,.937.811,1.5,1.5,0,0,0,.983-.791" transform="translate(-7.034 -8.38)" fill="none" stroke="#1c1b1b" stroke-linecap="round" stroke-width="1"/>
      <path id="Path_24" data-name="Path 24" d="M15.57,22.114,15.563,24.9" transform="translate(-13.89 -9.434)" fill="none" stroke="#1c1b1b" stroke-linecap="round" stroke-width="1"/>
      <path id="Path_26" data-name="Path 26" d="M9.723,10.193a8.463,8.463,0,0,1,.285-1.909c.262-.515.676-.515.938,0a7.107,7.107,0,0,1,.321,1.909h-.572l-.223.835-.244-.835Z" transform="translate(-8.745 -1.403)" fill="#637a69" stroke="#637a69" stroke-linejoin="round" stroke-width="1.5"/>
      <g id="Right_Legs" data-name="Right Legs" transform="translate(2.154 10.701)">
        <path id="Path_111" data-name="Path 111" d="M-53.239,60.717c.013,0,.446-.038.543.248a21.913,21.913,0,0,1-.183,3.28q-.213,1.248-.5,2.437c-.073.149.319-2.135.3-2.242s-.347.611-.31.274.406-1.2.448-1.512a8.028,8.028,0,0,0,.047-1.644,3.021,3.021,0,0,0-.44-.7Z" transform="translate(53.394 -56.735)" fill="#637a69" stroke="#637a69" stroke-width="1"/>
        <path id="Path_112" data-name="Path 112" d="M-49.558,51.732s.261-.31.3-.075q.018,1.665-.052,3.327c-.021.111-.039-2.635-.059-2.946C-49.388,51.857-49.467,51.726-49.558,51.732Z" transform="translate(50.015 -51.569)" fill="#637a69" stroke="#637a69" stroke-width="1"/>
      </g>
      <g id="Left_Legs" data-name="Left Legs" transform="translate(0.357 10.56)">
        <path id="Path_111-2" data-name="Path 111" d="M-52.824,60.717c-.013,0-.446-.038-.543.248a21.913,21.913,0,0,0,.183,3.28q.213,1.248.5,2.437c.073.149-.319-2.135-.3-2.242s.347.611.31.274-.406-1.2-.448-1.512a8.029,8.029,0,0,1-.047-1.644,3.022,3.022,0,0,1,.44-.7Z" transform="translate(53.393 -56.735)" fill="#637a69" stroke="#637a69" stroke-width="1"/>
        <path id="Path_112-2" data-name="Path 112" d="M-49.239,51.732s-.261-.31-.3-.075q-.018,1.665.052,3.327c.021.111.039-2.635.059-2.946C-49.409,51.857-49.33,51.726-49.239,51.732Z" transform="translate(49.625 -51.569)" fill="#637a69" stroke="#637a69" stroke-width="1"/>
      </g>
      <path id="Path_113" data-name="Path 113" d="M-53.356,34.285s.544.288.623,0a21.408,21.408,0,0,0,.122-2.856,9.582,9.582,0,0,0-.325-1.112c0-.105.259.01.268-.3s-.356-3.113-.326-3.041a14.051,14.051,0,0,1,.55,2.977,32.952,32.952,0,0,1-.14,5.039c-.157.3-.387.387-.586.214C-53.191,35.1-53.356,34.285-53.356,34.285Z" transform="translate(55.515 -26.972)" fill="#637a69" stroke="#637a69" stroke-width="1"/>
      <path id="Path_114" data-name="Path 114" d="M-52.409,34.285s-.544.288-.623,0a21.406,21.406,0,0,1-.122-2.856,9.581,9.581,0,0,1,.325-1.112c0-.105-.259.01-.268-.3s.356-3.113.326-3.041a14.05,14.05,0,0,0-.55,2.977,32.951,32.951,0,0,0,.14,5.039c.157.3.387.387.586.214C-52.574,35.1-52.409,34.285-52.409,34.285Z" transform="translate(53.513 -26.972)" fill="#637a69" stroke="#637a69" stroke-width="1"/>
    </g>
    <g id="Right_Bottom_Wing" data-name="Right Bottom Wing" transform="translate(17.326 5.483)">
      <path id="Path_93" data-name="Path 93" d="M-46.287,64.68c-.043.529-.061,1.066-.054,1.6a6.556,6.556,0,0,0,.443,1.012c.053-.034-.119-.286-.232-1.139S-46.238,64.744-46.287,64.68Z" transform="translate(46.342 -53.755)" fill="#4e6454" stroke="#4e6454" stroke-width="0.75"/>
      <path id="Path_94" data-name="Path 94" d="M-43.694,64.891s.278-.092.366.057a6.892,6.892,0,0,1,.178,1.177c.092.444.166.9.22,1.371a.873.873,0,0,1-.449-.657A14.218,14.218,0,0,1-43.694,64.891Z" transform="translate(44.01 -53.858)" fill="#4e6454" stroke="#4e6454" stroke-width="0.75"/>
      <path id="Path_95" data-name="Path 95" d="M-37.937,65s.274-.137.363.132.093.836.233,1.569a9.339,9.339,0,0,1,.216,1.207c-.04-.04-.2.015-.434-.747A15.4,15.4,0,0,1-37.937,65Z" transform="translate(38.938 -53.917)" fill="#4e6454" stroke="#4e6454" stroke-width="0.75"/>
      <path id="Path_96" data-name="Path 96" d="M-32.947,65.226a.44.44,0,0,1,.342.137c.113.527.209,1.068.287,1.621q.175.736.313,1.506a4.364,4.364,0,0,1-.588-1.291A12.387,12.387,0,0,1-32.947,65.226Z" transform="translate(34.542 -54.064)" fill="#4e6454" stroke="#4e6454" stroke-width="0.75"/>
      <path id="Path_97" data-name="Path 97" d="M-28.075,65.152a.44.44,0,0,1,.374.224c.093.217.083.822.243,1.612s.424,1.569.4,1.55a1.712,1.712,0,0,1-.579-1A18.5,18.5,0,0,1-28.075,65.152Z" transform="translate(30.25 -54.022)" fill="#4e6454" stroke="#4e6454" stroke-width="0.75"/>
      <path id="Path_98" data-name="Path 98" d="M-22.674,65.515a.356.356,0,0,1,.359.134c.11.189.1.862.271,1.732s.513,1.677.457,1.644c-.27-.038-.509-.364-.629-.859A17.287,17.287,0,0,1-22.674,65.515Z" transform="translate(25.491 -54.223)" fill="#4e6454" stroke="#4e6454" stroke-width="0.75"/>
      <path id="Path_99" data-name="Path 99" d="M-17.176,65.987s.322-.061.423.17.086.726.256,1.623.465,1.919.427,1.884a3.88,3.88,0,0,1-.685-1.37A13.6,13.6,0,0,1-17.176,65.987Z" transform="translate(20.647 -54.489)" fill="#4e6454" stroke="#4e6454" stroke-width="0.75"/>
      <path id="Path_100" data-name="Path 100" d="M-11.662,66.37a.268.268,0,0,1,.4.113c.12.279.1.806.277,1.7s.5,1.779.453,1.741a1.263,1.263,0,0,1-.6-.918A20.133,20.133,0,0,1-11.662,66.37Z" transform="translate(15.789 -54.683)" fill="#4e6454" stroke="#4e6454" stroke-width="0.75"/>
      <path id="Path_101" data-name="Path 101" d="M-6.524,65.955s.313-.084.421.129.106.707.339,1.7.555,2.044.518,2.058-.363.037-.7-.953a19.317,19.317,0,0,1-.576-2.93Z" transform="translate(11.263 -54.466)" fill="#4e6454" stroke="#4e6454" stroke-width="0.75"/>
      <path id="Path_102" data-name="Path 102" d="M-.822,65.6s.346-.224.48,0,.243,1.2.528,2.207S.835,69.7.77,69.655a1.51,1.51,0,0,1-.91-1.026A15.718,15.718,0,0,1-.822,65.6Z" transform="translate(6.239 -54.219)" fill="#4e6454" stroke="#4e6454" stroke-width="0.75"/>
      <path id="Path_103" data-name="Path 103" d="M5.7,64.82s.267-.3.408-.155a14.3,14.3,0,0,1,.773,2.087q.434,1.085.812,2.254c-.417.108-.832-.228-1.1-.888a16.251,16.251,0,0,1-.894-3.3Z" transform="translate(0.493 -53.725)" fill="#4e6454" stroke="#4e6454" stroke-width="0.75"/>
      <path id="Path_104" data-name="Path 104" d="M12.2,63.658s.3-.618.448-.448.849,2.156,1.316,3.131.806,1.121.724,1.216-.364.971-.984,0A24.409,24.409,0,0,1,12.2,63.658Z" transform="translate(-5.233 -52.909)" fill="#4e6454" stroke="#4e6454" stroke-width="0.75"/>
      <path id="Path_105" data-name="Path 105" d="M17,61.4s.254-.6.437-.512,1.163,2.08,1.81,3.134.95,1.126.9,1.2-.35,1.155-1.129.206A23.831,23.831,0,0,1,17,61.4Z" transform="translate(-9.461 -51.607)" fill="#4e6454" stroke="#4e6454" stroke-width="0.75"/>
      <path id="Path_106" data-name="Path 106" d="M21.508,58.818s.187-.613.382-.583a3.379,3.379,0,0,1,1.179,1.107,18.581,18.581,0,0,0,1.237,1.806,1.32,1.32,0,0,0,1.147.661c-.04.117-.374,1.618-1.359.8a11.965,11.965,0,0,1-1.529-2.328,10.338,10.338,0,0,0-1.057-1.459Z" transform="translate(-13.434 -50.115)" fill="#4e6454" stroke="#4e6454" stroke-width="0.75"/>
      <path id="Path_107" data-name="Path 107" d="M25.157,55.53s.127-.6.314-.62a2.9,2.9,0,0,1,1.539.62c.721.523.635.847,1.375,1.37s1.269.448,1.221.6c-.279.887-.783,1.37-1.3,1.243-.823-.217-1.112-1.42-1.942-2.174S25.157,55.53,25.157,55.53Z" transform="translate(-16.649 -48.236)" fill="#4e6454" stroke="#4e6454" stroke-width="0.75"/>
      <path id="Path_108" data-name="Path 108" d="M27.9,51.726s.1-1.018.326-1.116a3.117,3.117,0,0,1,1.679.415c.55.31.8.777,1.6.99a1.767,1.767,0,0,0,1.333-.427c-.037.162-.352,2.268-1.242,2.174s-1.172-1.1-2.209-1.651a2.113,2.113,0,0,0-1.485-.385Z" transform="translate(-19.066 -45.797)" fill="#4e6454" stroke="#4e6454" stroke-width="0.75"/>
      <path id="Path_109" data-name="Path 109" d="M30.157,47.875s.169-.854.351-.947a4,4,0,0,1,1.874,0c.947.176,1,.4,1.781.483a1.237,1.237,0,0,0,1.086-.483,3.177,3.177,0,0,1-1.416,2.056c-.846.237-1.084-.768-2-1.046A3.26,3.26,0,0,0,30.157,47.875Z" transform="translate(-21.054 -43.668)" fill="#4e6454" stroke="#4e6454" stroke-width="0.75"/>
      <path id="Path_110" data-name="Path 110" d="M32.7,42.026a3.411,3.411,0,0,1,.234-1.02,1.591,1.591,0,0,1,1.437-.5c.855.037,1,.41,1.916,0s1.585-1.069,1.552-.915a5.277,5.277,0,0,1-.926,2.651c-.733.766-1.364-.075-2.264-.22a7.823,7.823,0,0,0-1.95,0Z" transform="translate(-23.295 -39.572)" fill="#4e6454" stroke="#4e6454" stroke-width="0.75"/>
    </g>
    <g id="Right_Middle_wings" data-name="Right Middle wings" transform="translate(17.329 6.88)">
      <path id="Path_81" data-name="Path 81" d="M-46.244,55.574c-.051.648-.071,1.305-.06,1.961a6.865,6.865,0,0,0,.22,1.075c.137.4.312.632.327.537s-.175-.971-.3-1.856S-46.181,55.513-46.244,55.574Z" transform="translate(46.307 -50.006)" fill="none" stroke="#4e6454" stroke-width="1"/>
      <path id="Path_82" data-name="Path 82" d="M-44.266,55.422s.318-.149.394.163.084.735.208,1.6q.177.9.3,1.836c-.037.095-.278-.347-.5-1.231C-44.028,57.029-44.164,56.235-44.266,55.422Z" transform="translate(44.511 -49.902)" fill="none" stroke="#4e6454" stroke-width="1"/>
      <path id="Path_83" data-name="Path 83" d="M-38.875,55.619s.288-.1.368.061a12.7,12.7,0,0,1,.236,1.584c.13.9.527,2.18.34,1.924a3.726,3.726,0,0,1-.594-1.439A17.861,17.861,0,0,1-38.875,55.619Z" transform="translate(39.762 -50.017)" fill="none" stroke="#4e6454" stroke-width="1"/>
      <path id="Path_84" data-name="Path 84" d="M-33.547,55.295s.313-.08.4.132c.1.566.177,1.149.23,1.741.131.914.524,2.021.366,1.868a1.839,1.839,0,0,1-.58-1.166c-.176-.831-.315-1.692-.414-2.574Z" transform="translate(35.068 -49.842)" fill="none" stroke="#4e6454" stroke-width="1"/>
      <path id="Path_85" data-name="Path 85" d="M-28.375,55.424s.262-.122.382.2.244,1.407.433,2.3a12.026,12.026,0,0,1,.335,1.442c-.056.049-.364-.244-.651-1.23A22.186,22.186,0,0,1-28.375,55.424Z" transform="translate(30.511 -49.911)" fill="none" stroke="#4e6454" stroke-width="1"/>
      <path id="Path_86" data-name="Path 86" d="M-23.117,55.6s.264-.224.366.044.3,1.595.563,2.6.544,1.432.473,1.42-.355.086-.709-.957a26.188,26.188,0,0,1-.693-3.1Z" transform="translate(25.879 -49.977)" fill="none" stroke="#4e6454" stroke-width="1"/>
      <path id="Path_87" data-name="Path 87" d="M-18.2,54.985c.146-.093.305-.038.428.149.221.642.419,1.316.592,2.017.333,1.166,1.01,1.768.882,1.838-.4.344-.866.031-1.087-.734-.314-1.044-.587-2.138-.815-3.271Z" transform="translate(21.548 -49.652)" fill="none" stroke="#4e6454" stroke-width="1"/>
      <path id="Path_88" data-name="Path 88" d="M-13.1,54.563s.418-.135.506,0a6.289,6.289,0,0,1,.923,1.931c.4,1.284,1.017,1.644.9,1.849-.514.361-1.082-.065-1.359-1.02C-12.63,55.893-13.1,54.563-13.1,54.563Z" transform="translate(17.054 -49.403)" fill="none" stroke="#4e6454" stroke-width="1"/>
      <path id="Path_89" data-name="Path 89" d="M-6.891,53.222s.358-.639.619-.383a7.155,7.155,0,0,1,1.194,2.092c.5,1.263,1.05.777.912,1.088s-.751,1.267-1.38-.365a8.915,8.915,0,0,0-1.345-2.432Z" transform="translate(11.583 -48.429)" fill="none" stroke="#4e6454" stroke-width="1"/>
      <path id="Path_90" data-name="Path 90" d="M-1.25,50.247s.237-.837.4-.791A3.055,3.055,0,0,1,.451,50.9c.61,1.1,1.3.436,1.25.827S1.468,53.556.737,53.11c-.4-.241-.8-1.385-1.253-2.113a2.43,2.43,0,0,0-.734-.749Z" transform="translate(6.614 -46.552)" fill="none" stroke="#4e6454" stroke-width="1"/>
      <path id="Path_91" data-name="Path 91" d="M2.547,47.074a3.308,3.308,0,0,1,.247-.68c.116-.174,1.081.732,1.8.951s1.163-.158,1.057.175c-.152.916-.584,1.515-1.057,1.468-.4-.032-.736-.747-1.261-1.3a3.3,3.3,0,0,0-.784-.619Z" transform="translate(3.268 -44.81)" fill="none" stroke="#4e6454" stroke-width="1"/>
      <path id="Path_92" data-name="Path 92" d="M4.5,43.767s.163-.924.356-.978a10.932,10.932,0,0,0,1.767.274c.777-.057,1.167-.2,1.136-.05-.122.918-.513,1.581-.978,1.659-.428.075-.659-.36-1.217-.592A8.572,8.572,0,0,0,4.5,43.767Z" transform="translate(1.548 -42.784)" fill="none" stroke="#4e6454" stroke-linecap="round" stroke-width="1"/>
    </g>
    <g id="Right_Top_Wing" data-name="Right Top Wing" transform="translate(17.015 7.276)">
      <path id="Path_35" data-name="Path 35" d="M-46.04,50.419c-.147.02-.356.784-.356.784l.293.882.406-.71S-45.892,50.4-46.04,50.419Z" transform="translate(46.702 -47.431)" fill="#4e6454"/>
      <path id="Path_36" data-name="Path 36" d="M-42.906,47.917s.2-.778.361-.707.33.775.33.775l-.366,1.1Z" transform="translate(43.627 -45.616)" fill="#4e6454"/>
      <path id="Path_37" data-name="Path 37" d="M-39.812,51.206s.2-.693.376-.622.362.743.362.743l-.447.943Z" transform="translate(40.902 -47.521)" fill="#4e6454"/>
      <path id="Path_38" data-name="Path 38" d="M-32.533,50.828c.007-.018.179-.747.345-.7s.317.885.317.885l-.317.921Z" transform="translate(34.488 -47.263)" fill="#4e6454"/>
      <path id="Path_39" data-name="Path 39" d="M-36.266,47.8s.173-.917.33-.924.37.864.37.864l-.359.979Z" transform="translate(37.777 -45.427)" fill="#4e6454"/>
      <path id="Path_40" data-name="Path 40" d="M-29.359,47.753s.159-.865.307-.9.365.9.365.9l-.327,1.04Z" transform="translate(31.692 -45.417)" fill="#4e6454"/>
      <path id="Path_41" data-name="Path 41" d="M-25.775,51.078s.2-.874.346-.828.317.919.317.919l-.341.971Z" transform="translate(28.535 -47.335)" fill="#4e6454"/>
      <path id="Path_42" data-name="Path 42" d="M-19.109,51.079s.133-.947.3-.947.358.947.358.947l-.306.663Z" transform="translate(22.662 -47.267)" fill="#4e6454"/>
      <path id="Path_43" data-name="Path 43" d="M-12.865,50.67s.144-.962.28-.954.3.752.3.752l-.261.822Z" transform="translate(17.161 -47.034)" fill="#4e6454"/>
      <path id="Path_44" data-name="Path 44" d="M-6.807,50.143a2.989,2.989,0,0,1,.228-.847c.11-.079.254.56.254.56l-.254.62Z" transform="translate(11.824 -46.793)" fill="#4e6454"/>
      <path id="Path_45" data-name="Path 45" d="M-10.7,47.164s.16-.785.3-.761.325.761.325.761l-.344.822Z" transform="translate(15.254 -45.161)" fill="#4e6454"/>
      <path id="Path_46" data-name="Path 46" d="M-4.75,46.986s.177-.88.307-.911.293.735.293.735l-.293.878Z" transform="translate(10.011 -44.976)" fill="#4e6454"/>
      <path id="Path_47" data-name="Path 47" d="M-2.016,44.078s.165-.474.3-.523.3.367.3.367l-.273,1.027Z" transform="translate(7.614 -43.551)" fill="#4e6454"/>
      <path id="Path_48" data-name="Path 48" d="M-7.7,44.248s.163-.507.3-.516.3.489.3.489l-.29,1.007Z" transform="translate(12.611 -43.653)" fill="#4e6454"/>
      <path id="Path_49" data-name="Path 49" d="M-13.938,44.354s.156-.523.3-.537.34.537.34.537l-.322,1Z" transform="translate(18.106 -43.752)" fill="#4e6454"/>
      <path id="Path_50" data-name="Path 50" d="M-16.922,47.447s.156-.856.308-.856.353.788.353.788l-.338.877Z" transform="translate(20.735 -45.268)" fill="#4e6454"/>
      <path id="Path_51" data-name="Path 51" d="M-20.078,44.275s.135-.534.282-.523.342.523.342.523l-.293.965Z" transform="translate(23.508 -43.64)" fill="#4e6454"/>
      <path id="Path_52" data-name="Path 52" d="M-26.2,44.592s.181-.571.312-.571.3.51.3.51l-.275,1.02Z" transform="translate(28.91 -43.868)" fill="#4e6454"/>
      <path id="Path_53" data-name="Path 53" d="M-33,44.69s.147-.531.314-.531.361.489.361.489l-.324,1.121Z" transform="translate(34.9 -43.965)" fill="#4e6454"/>
      <path id="Path_54" data-name="Path 54" d="M-22.875,47.866s.164-.767.3-.775.327.687.327.687l-.3.945Z" transform="translate(25.98 -45.551)" fill="#4e6454"/>
      <path id="Path_55" data-name="Path 55" d="M-39.615,44.8s.177-.584.316-.584.351.523.351.523l-.34,1.046Z" transform="translate(40.727 -43.979)" fill="#4e6454"/>
      <path id="Path_56" data-name="Path 56" d="M-46.016,44.919l.325,1.075.351-1.075s-.176-.619-.336-.619S-46.016,44.919-46.016,44.919Z" transform="translate(46.367 -44.045)" fill="#4e6454"/>
      <path id="Path_57" data-name="Path 57" d="M-48.969,47.263s.2-.869.337-.717a4.421,4.421,0,0,1,.27,1.1l-.372.829Z" transform="translate(48.969 -45.233)" fill="#4e6454"/>
    </g>
    <g id="Left_Bottom_Wing" data-name="Left Bottom Wing" transform="translate(0.001 5.213)">
      <path id="Path_93-2" data-name="Path 93" d="M-45.94,64.68c.043.529.061,1.066.054,1.6a6.556,6.556,0,0,1-.443,1.012c-.053-.034.119-.286.232-1.139S-45.989,64.744-45.94,64.68Z" transform="translate(60.431 -53.754)" fill="#4e6454" stroke="#4e6454" stroke-width="0.75"/>
      <path id="Path_94-2" data-name="Path 94" d="M-42.909,64.891s-.278-.092-.366.057a6.892,6.892,0,0,0-.178,1.177c-.092.444-.166.9-.22,1.371a.873.873,0,0,0,.449-.657A14.217,14.217,0,0,0-42.909,64.891Z" transform="translate(57.14 -53.857)" fill="#4e6454" stroke="#4e6454" stroke-width="0.75"/>
      <path id="Path_95-2" data-name="Path 95" d="M-37.119,65s-.274-.137-.363.132-.093.836-.233,1.569a9.337,9.337,0,0,0-.216,1.207c.04-.04.2.015.434-.747A15.4,15.4,0,0,0-37.119,65Z" transform="translate(50.663 -53.916)" fill="#4e6454" stroke="#4e6454" stroke-width="0.75"/>
      <path id="Path_96-2" data-name="Path 96" d="M-31.995,65.226a.44.44,0,0,0-.342.137c-.113.527-.209,1.068-.287,1.621q-.175.736-.313,1.506a4.364,4.364,0,0,0,.588-1.291,12.386,12.386,0,0,0,.354-1.973Z" transform="translate(44.946 -54.063)" fill="#4e6454" stroke="#4e6454" stroke-width="0.75"/>
      <path id="Path_97-2" data-name="Path 97" d="M-27.059,65.152a.44.44,0,0,0-.374.224c-.093.217-.083.822-.243,1.612s-.424,1.569-.4,1.55a1.712,1.712,0,0,0,.579-1A18.5,18.5,0,0,0-27.059,65.152Z" transform="translate(39.431 -54.021)" fill="#4e6454" stroke="#4e6454" stroke-width="0.75"/>
      <path id="Path_98-2" data-name="Path 98" d="M-21.582,65.515a.356.356,0,0,0-.359.134c-.11.189-.1.862-.271,1.732s-.513,1.677-.457,1.644c.27-.038.509-.364.629-.859a17.289,17.289,0,0,0,.457-2.651Z" transform="translate(33.312 -54.222)" fill="#4e6454" stroke="#4e6454" stroke-width="0.75"/>
      <path id="Path_99-2" data-name="Path 99" d="M-16.063,65.987s-.322-.061-.423.17-.086.726-.256,1.623-.465,1.919-.427,1.884a3.89,3.89,0,0,0,.683-1.37A13.584,13.584,0,0,0-16.063,65.987Z" transform="translate(27.138 -54.488)" fill="#4e6454" stroke="#4e6454" stroke-width="0.75"/>
      <path id="Path_100-2" data-name="Path 100" d="M-10.527,66.37a.268.268,0,0,0-.4.113c-.12.279-.1.806-.277,1.7s-.5,1.779-.453,1.741a1.263,1.263,0,0,0,.6-.918A20.133,20.133,0,0,0-10.527,66.37Z" transform="translate(20.946 -54.682)" fill="#4e6454" stroke="#4e6454" stroke-width="0.75"/>
      <path id="Path_101-2" data-name="Path 101" d="M-5.243,65.955s-.313-.084-.421.129-.106.707-.339,1.7-.555,2.044-.518,2.058.363.037.7-.953a19.317,19.317,0,0,0,.576-2.93Z" transform="translate(15.051 -54.465)" fill="#4e6454" stroke="#4e6454" stroke-width="0.75"/>
      <path id="Path_102-2" data-name="Path 102" d="M.778,65.6s-.346-.224-.48,0S.055,66.8-.23,67.807-.881,69.7-.814,69.655A1.51,1.51,0,0,0,.1,68.629,15.718,15.718,0,0,0,.778,65.6Z" transform="translate(8.352 -54.218)" fill="#4e6454" stroke="#4e6454" stroke-width="0.75"/>
      <path id="Path_103-2" data-name="Path 103" d="M7.706,64.82s-.267-.3-.408-.155a14.3,14.3,0,0,0-.773,2.087q-.434,1.085-.812,2.254c.417.108.832-.228,1.1-.888A16.251,16.251,0,0,0,7.706,64.82Z" transform="translate(0.648 -53.724)" fill="#4e6454" stroke="#4e6454" stroke-width="0.75"/>
      <path id="Path_104-2" data-name="Path 104" d="M14.7,63.658s-.3-.618-.448-.448-.849,2.156-1.316,3.131-.806,1.121-.724,1.216.364.971.984,0A24.409,24.409,0,0,0,14.7,63.658Z" transform="translate(-7.118 -52.908)" fill="#4e6454" stroke="#4e6454" stroke-width="0.75"/>
      <path id="Path_105-2" data-name="Path 105" d="M20.145,61.4s-.254-.6-.437-.512-1.163,2.08-1.81,3.134-.95,1.126-.9,1.2.35,1.155,1.129.206A23.831,23.831,0,0,0,20.145,61.4Z" transform="translate(-13.136 -51.606)" fill="#4e6454" stroke="#4e6454" stroke-width="0.75"/>
      <path id="Path_106-2" data-name="Path 106" d="M25.463,58.818s-.187-.613-.382-.583A3.379,3.379,0,0,0,23.9,59.342a18.582,18.582,0,0,1-1.237,1.806,1.32,1.32,0,0,1-1.147.661c.04.117.374,1.618,1.359.8a11.965,11.965,0,0,0,1.529-2.328,10.338,10.338,0,0,1,1.057-1.459Z" transform="translate(-18.991 -50.114)" fill="#4e6454" stroke="#4e6454" stroke-width="0.75"/>
      <path id="Path_107-2" data-name="Path 107" d="M29.614,55.53s-.127-.6-.314-.62a2.9,2.9,0,0,0-1.539.62c-.721.523-.635.847-1.375,1.37s-1.269.448-1.221.6c.279.885.781,1.367,1.293,1.243.823-.217,1.112-1.42,1.942-2.174S29.614,55.53,29.614,55.53Z" transform="translate(-23.576 -48.235)" fill="#4e6454" stroke="#4e6454" stroke-width="0.75"/>
      <path id="Path_108-2" data-name="Path 108" d="M32.843,51.726s-.1-1.018-.326-1.116a3.117,3.117,0,0,0-1.679.415c-.55.31-.8.777-1.6.99a1.767,1.767,0,0,1-1.333-.427c.037.162.352,2.268,1.242,2.174s1.172-1.1,2.209-1.651a2.113,2.113,0,0,1,1.485-.385Z" transform="translate(-27.131 -45.795)" fill="#4e6454" stroke="#4e6454" stroke-width="0.75"/>
      <path id="Path_109-2" data-name="Path 109" d="M35.253,47.875s-.169-.854-.352-.947a4,4,0,0,0-1.874,0c-.947.176-1,.4-1.781.483a1.237,1.237,0,0,1-1.086-.483,3.177,3.177,0,0,0,1.416,2.056c.846.237,1.084-.768,2-1.046A3.26,3.26,0,0,1,35.253,47.875Z" transform="translate(-29.809 -43.667)" fill="#4e6454" stroke="#4e6454" stroke-width="0.75"/>
      <path id="Path_110-2" data-name="Path 110" d="M37.845,42.026a3.411,3.411,0,0,0-.234-1.02,1.591,1.591,0,0,0-1.437-.5c-.855.037-1,.41-1.916,0s-1.585-1.066-1.552-.917a5.266,5.266,0,0,0,.928,2.651c.733.766,1.364-.075,2.264-.22a7.824,7.824,0,0,1,1.947,0Z" transform="translate(-32.705 -39.571)" fill="#4e6454" stroke="#4e6454" stroke-width="0.75"/>
    </g>
    <g id="Left_Middle_wings" data-name="Left Middle wings" transform="translate(5.236 6.611)">
      <path id="Path_81-2" data-name="Path 81" d="M-45.806,55.574c.05.649.07,1.305.059,1.961a6.864,6.864,0,0,1-.22,1.075c-.137.4-.312.632-.327.537s.175-.971.3-1.856S-45.869,55.513-45.806,55.574Z" transform="translate(55.051 -50.006)" fill="none" stroke="#4e6454" stroke-width="1"/>
      <path id="Path_82-2" data-name="Path 82" d="M-43.349,55.422s-.318-.149-.394.163-.084.735-.208,1.6q-.177.9-.3,1.836c.037.095.278-.347.5-1.231C-43.587,57.029-43.451,56.235-43.349,55.422Z" transform="translate(52.412 -49.902)" fill="none" stroke="#4e6454" stroke-width="1"/>
      <path id="Path_83-2" data-name="Path 83" d="M-37.882,55.619s-.288-.1-.368.061a12.7,12.7,0,0,0-.236,1.584c-.13.9-.527,2.18-.34,1.924a3.726,3.726,0,0,0,.594-1.439,17.86,17.86,0,0,0,.35-2.13Z" transform="translate(46.304 -50.017)" fill="none" stroke="#4e6454" stroke-width="1"/>
      <path id="Path_84-2" data-name="Path 84" d="M-32.516,55.295s-.313-.08-.4.132c-.1.566-.177,1.149-.23,1.741-.131.914-.524,2.021-.366,1.868a1.839,1.839,0,0,0,.58-1.166C-32.753,57.039-32.615,56.177-32.516,55.295Z" transform="translate(40.303 -49.842)" fill="none" stroke="#4e6454" stroke-width="1"/>
      <path id="Path_85-2" data-name="Path 85" d="M-27.217,55.424s-.262-.122-.382.2-.244,1.407-.433,2.3a12.025,12.025,0,0,0-.335,1.442c.056.049.364-.244.651-1.23A22.185,22.185,0,0,0-27.217,55.424Z" transform="translate(34.389 -49.911)" fill="none" stroke="#4e6454" stroke-width="1"/>
      <path id="Path_86-2" data-name="Path 86" d="M-21.707,55.6s-.264-.224-.366.044-.3,1.595-.563,2.6-.544,1.432-.473,1.42.355.086.709-.957A26.188,26.188,0,0,0-21.707,55.6Z" transform="translate(28.254 -49.977)" fill="none" stroke="#4e6454" stroke-width="1"/>
      <path id="Path_87-2" data-name="Path 87" d="M-16.285,54.985c-.146-.093-.305-.038-.428.149-.221.642-.419,1.316-.592,2.017-.333,1.166-1.01,1.768-.882,1.838.4.344.866.031,1.087-.734C-16.786,57.212-16.513,56.118-16.285,54.985Z" transform="translate(22.247 -49.652)" fill="none" stroke="#4e6454" stroke-width="1"/>
      <path id="Path_88-2" data-name="Path 88" d="M-10.756,54.563s-.418-.135-.506,0a6.289,6.289,0,0,0-.923,1.931c-.4,1.284-1.017,1.644-.9,1.849.514.361,1.082-.065,1.359-1.02C-11.228,55.893-10.756,54.563-10.756,54.563Z" transform="translate(16.112 -49.403)" fill="none" stroke="#4e6454" stroke-width="1"/>
      <path id="Path_89-2" data-name="Path 89" d="M-4.146,53.222s-.358-.639-.619-.383a7.155,7.155,0,0,0-1.194,2.092c-.5,1.263-1.049.777-.91,1.088s.751,1.267,1.38-.365a8.927,8.927,0,0,1,1.343-2.432Z" transform="translate(8.761 -48.429)" fill="none" stroke="#4e6454" stroke-width="1"/>
      <path id="Path_90-2" data-name="Path 90" d="M1.705,50.247s-.237-.837-.4-.791A3.055,3.055,0,0,0,0,50.9c-.61,1.1-1.3.436-1.25.827s.233,1.825.965,1.379c.4-.241.8-1.386,1.254-2.114a2.43,2.43,0,0,1,.733-.749Z" transform="translate(2.24 -46.552)" fill="none" stroke="#4e6454" stroke-width="1"/>
      <path id="Path_91-2" data-name="Path 91" d="M5.665,47.074a3.308,3.308,0,0,0-.247-.68c-.116-.174-1.081.732-1.8.951s-1.163-.158-1.057.175c.152.916.584,1.515,1.057,1.468.4-.032.736-.747,1.261-1.3a3.3,3.3,0,0,1,.784-.619Z" transform="translate(-2.172 -44.81)" fill="none" stroke="#4e6454" stroke-width="1"/>
      <path id="Path_92-2" data-name="Path 92" d="M7.762,43.767s-.163-.924-.356-.978a10.932,10.932,0,0,1-1.767.274c-.777-.057-1.167-.2-1.136-.05.122.918.513,1.581.978,1.659.428.075.659-.36,1.217-.592A8.591,8.591,0,0,1,7.762,43.767Z" transform="translate(-4.501 -42.784)" fill="none" stroke="#4e6454" stroke-linecap="round" stroke-width="1"/>
    </g>
    <g id="Left_Top_Wing" data-name="Left Top Wing" transform="translate(8.664 7.007)">
      <path id="Path_35-2" data-name="Path 35" d="M-46.053,50.419c.147.02.356.784.356.784l-.293.882-.409-.708S-46.2,50.4-46.053,50.419Z" transform="translate(51.586 -47.431)" fill="#4e6454"/>
      <path id="Path_36-2" data-name="Path 36" d="M-42.213,47.917s-.2-.778-.361-.707-.33.775-.33.775l.366,1.1Z" transform="translate(47.686 -45.616)" fill="#4e6454"/>
      <path id="Path_37-2" data-name="Path 37" d="M-39.075,51.206s-.2-.693-.376-.622-.362.743-.362.743l.447.943Z" transform="translate(44.181 -47.521)" fill="#4e6454"/>
      <path id="Path_38-2" data-name="Path 38" d="M-31.872,50.828c-.007-.018-.179-.747-.345-.7s-.317.885-.317.885l.317.921Z" transform="translate(36.11 -47.263)" fill="#4e6454"/>
      <path id="Path_39-2" data-name="Path 39" d="M-35.568,47.8s-.173-.917-.33-.924-.37.864-.37.864l.359.979Z" transform="translate(40.251 -45.427)" fill="#4e6454"/>
      <path id="Path_40-2" data-name="Path 40" d="M-28.689,47.753s-.159-.865-.307-.9-.365.9-.365.9l.327,1.04Z" transform="translate(32.55 -45.417)" fill="#4e6454"/>
      <path id="Path_41-2" data-name="Path 41" d="M-25.113,51.078s-.2-.874-.346-.828-.317.919-.317.919l.341.971Z" transform="translate(28.548 -47.335)" fill="#4e6454"/>
      <path id="Path_42-2" data-name="Path 42" d="M-18.455,51.079s-.133-.947-.3-.947-.358.947-.358.947l.306.663Z" transform="translate(21.097 -47.267)" fill="#4e6454"/>
      <path id="Path_43-2" data-name="Path 43" d="M-12.281,50.67s-.144-.962-.28-.954-.3.752-.3.752l.261.822Z" transform="translate(14.18 -47.034)" fill="#4e6454"/>
      <path id="Path_44-2" data-name="Path 44" d="M-6.324,50.144a2.947,2.947,0,0,0-.228-.846c-.11-.075-.254.56-.254.56l.254.62Z" transform="translate(7.502 -46.793)" fill="#4e6454"/>
      <path id="Path_45-2" data-name="Path 45" d="M-10.073,47.164s-.16-.785-.3-.761-.325.761-.325.761l.344.822Z" transform="translate(11.714 -45.161)" fill="#4e6454"/>
      <path id="Path_46-2" data-name="Path 46" d="M-4.148,46.986s-.177-.88-.307-.911-.293.735-.293.735l.293.878Z" transform="translate(5.081 -44.976)" fill="#4e6454"/>
      <path id="Path_47-2" data-name="Path 47" d="M-1.419,44.078s-.165-.474-.3-.523-.3.367-.3.367l.273,1.027Z" transform="translate(2.016 -43.551)" fill="#4e6454"/>
      <path id="Path_48-2" data-name="Path 48" d="M-7.106,44.248s-.163-.507-.3-.516-.3.489-.3.489l.29,1.007Z" transform="translate(8.391 -43.653)" fill="#4e6454"/>
      <path id="Path_49-2" data-name="Path 49" d="M-13.3,44.354s-.156-.523-.3-.537-.34.537-.34.537l.322,1Z" transform="translate(15.329 -43.752)" fill="#4e6454"/>
      <path id="Path_50-2" data-name="Path 50" d="M-16.259,47.447s-.156-.856-.308-.856-.353.788-.353.788l.337.877Z" transform="translate(18.641 -45.268)" fill="#4e6454"/>
      <path id="Path_51-2" data-name="Path 51" d="M-19.453,44.275s-.135-.534-.282-.523-.342.523-.342.523l.293.965Z" transform="translate(22.218 -43.64)" fill="#4e6454"/>
      <path id="Path_52-2" data-name="Path 52" d="M-25.59,44.592s-.181-.571-.312-.571-.3.51-.3.51l.275,1.02Z" transform="translate(29.075 -43.868)" fill="#4e6454"/>
      <path id="Path_53-2" data-name="Path 53" d="M-32.325,44.69s-.147-.531-.314-.531-.361.489-.361.489l.324,1.121Z" transform="translate(36.62 -43.965)" fill="#4e6454"/>
      <path id="Path_54-2" data-name="Path 54" d="M-22.247,47.866s-.164-.767-.3-.775-.327.687-.327.687l.3.945Z" transform="translate(25.336 -45.551)" fill="#4e6454"/>
      <path id="Path_55-2" data-name="Path 55" d="M-38.947,44.8s-.177-.584-.316-.584-.351.523-.351.523l.34,1.046Z" transform="translate(44.03 -43.979)" fill="#4e6454"/>
      <path id="Path_56-2" data-name="Path 56" d="M-45.339,44.919l-.325,1.075-.351-1.075s.176-.619.336-.619S-45.339,44.919-45.339,44.919Z" transform="translate(51.182 -44.045)" fill="#4e6454"/>
      <path id="Path_57-2" data-name="Path 57" d="M-48.361,47.263s-.2-.869-.337-.717a4.421,4.421,0,0,0-.27,1.1l.372.829Z" transform="translate(54.556 -45.233)" fill="#4e6454"/>
    </g>
  </g>
</svg>
